<svg width="80" height="80" viewBox="0 0 80 80" fill="none" xmlns="http://www.w3.org/2000/svg">
<g clip-path="url(#clip0_503_499)">
<path d="M75.0002 13.2535H64.7136C64.0544 13.2536 63.4101 13.4492 62.862 13.8155C62.314 14.1818 61.8869 14.7023 61.6346 15.3113C61.3824 15.9203 61.3164 16.5904 61.4449 17.2369C61.5735 17.8834 61.8909 18.4773 62.3569 18.9435L65.9769 22.5635L54.0236 34.5135C53.3884 35.1205 52.5438 35.4592 51.6652 35.4592C50.7867 35.4592 49.942 35.1205 49.3069 34.5135L48.7402 33.9435C46.8356 32.1237 44.3028 31.1082 41.6686 31.1082C39.0343 31.1082 36.5015 32.1237 34.5969 33.9435L17.5969 50.9435C16.9705 51.5716 16.6194 52.4228 16.6206 53.3099C16.6219 54.1969 16.9754 55.0471 17.6036 55.6735C18.2317 56.2998 19.0829 56.651 19.9699 56.6498C20.857 56.6485 21.7072 56.2949 22.3336 55.6668L39.3336 38.6668C39.9683 38.0591 40.8131 37.7198 41.6919 37.7198C42.5707 37.7198 43.4155 38.0591 44.0502 38.6668L44.6169 39.2368C46.5223 41.0551 49.0548 42.0695 51.6886 42.0695C54.3223 42.0695 56.8548 41.0551 58.7602 39.2368L70.7136 27.2835L74.3336 30.9035C74.8013 31.362 75.3938 31.6725 76.0369 31.7963C76.6801 31.9201 77.3455 31.8517 77.95 31.5995C78.5545 31.3474 79.0714 30.9228 79.436 30.3787C79.8006 29.8346 79.9969 29.1951 80.0002 28.5401V18.2535C80.0002 16.9274 79.4734 15.6556 78.5358 14.7179C77.5981 13.7803 76.3263 13.2535 75.0002 13.2535Z" fill="#F8F8F8"/>
</g>
<defs>
<clipPath id="clip0_503_499">
<rect width="80" height="80" fill="white"/>
</clipPath>
</defs>
</svg>
