<svg width="56" height="56" viewBox="0 0 56 56" fill="none" xmlns="http://www.w3.org/2000/svg">
<g clip-path="url(#clip0_503_467)">
<path d="M44.3333 4.66667H42V2.33333C42 1.71449 41.7542 1.121 41.3166 0.683417C40.879 0.245833 40.2855 0 39.6667 0C39.0478 0 38.4543 0.245833 38.0167 0.683417C37.5792 1.121 37.3333 1.71449 37.3333 2.33333V4.66667H18.6667V2.33333C18.6667 1.71449 18.4208 1.121 17.9832 0.683417C17.5457 0.245833 16.9522 0 16.3333 0C15.7145 0 15.121 0.245833 14.6834 0.683417C14.2458 1.121 14 1.71449 14 2.33333V4.66667H11.6667C8.57361 4.67037 5.6083 5.90072 3.42118 8.08785C1.23406 10.275 0.003705 13.2403 0 16.3333L0 44.3333C0.003705 47.4264 1.23406 50.3917 3.42118 52.5788C5.6083 54.7659 8.57361 55.9963 11.6667 56H44.3333C47.4264 55.9963 50.3917 54.7659 52.5788 52.5788C54.7659 50.3917 55.9963 47.4264 56 44.3333V16.3333C55.9963 13.2403 54.7659 10.275 52.5788 8.08785C50.3917 5.90072 47.4264 4.67037 44.3333 4.66667ZM4.66667 16.3333C4.66667 14.4768 5.40416 12.6963 6.71692 11.3836C8.02967 10.0708 9.81015 9.33333 11.6667 9.33333H44.3333C46.1898 9.33333 47.9703 10.0708 49.2831 11.3836C50.5958 12.6963 51.3333 14.4768 51.3333 16.3333V18.6667H4.66667V16.3333ZM44.3333 51.3333H11.6667C9.81015 51.3333 8.02967 50.5958 6.71692 49.2831C5.40416 47.9703 4.66667 46.1898 4.66667 44.3333V23.3333H51.3333V44.3333C51.3333 46.1898 50.5958 47.9703 49.2831 49.2831C47.9703 50.5958 46.1898 51.3333 44.3333 51.3333Z" fill="#F8F8F8"/>
<path d="M28 38.5C29.933 38.5 31.5 36.933 31.5 35C31.5 33.067 29.933 31.5 28 31.5C26.067 31.5 24.5 33.067 24.5 35C24.5 36.933 26.067 38.5 28 38.5Z" fill="#F8F8F8"/>
<path d="M16.333 38.5C18.266 38.5 19.833 36.933 19.833 35C19.833 33.067 18.266 31.5 16.333 31.5C14.4 31.5 12.833 33.067 12.833 35C12.833 36.933 14.4 38.5 16.333 38.5Z" fill="#F8F8F8"/>
<path d="M39.667 38.5C41.6 38.5 43.167 36.933 43.167 35C43.167 33.067 41.6 31.5 39.667 31.5C37.734 31.5 36.167 33.067 36.167 35C36.167 36.933 37.734 38.5 39.667 38.5Z" fill="#F8F8F8"/>
</g>
<defs>
<clipPath id="clip0_503_467">
<rect width="56" height="56" fill="white"/>
</clipPath>
</defs>
</svg>
