<svg width="48" height="48" viewBox="0 0 48 48" fill="none" xmlns="http://www.w3.org/2000/svg">
<g clip-path="url(#clip0_503_549)">
<path d="M46.2425 18.1379L31.0725 2.96585C29.195 1.09383 26.6518 0.0426025 24.0005 0.0426025C21.3492 0.0426025 18.806 1.09383 16.9285 2.96585L1.75851 18.1379C1.19936 18.6934 0.756052 19.3545 0.454277 20.0826C0.152503 20.8108 -0.00173252 21.5916 0.00051244 22.3799V42.0139C0.00051244 43.6052 0.632654 45.1313 1.75787 46.2565C2.88309 47.3817 4.40921 48.0139 6.00051 48.0139H42.0005C43.5918 48.0139 45.1179 47.3817 46.2432 46.2565C47.3684 45.1313 48.0005 43.6052 48.0005 42.0139V22.3799C48.0028 21.5916 47.8485 20.8108 47.5467 20.0826C47.245 19.3545 46.8017 18.6934 46.2425 18.1379ZM30.0005 44.0139H18.0005V36.1459C18.0005 34.5546 18.6327 33.0284 19.7579 31.9032C20.8831 30.778 22.4092 30.1459 24.0005 30.1459C25.5918 30.1459 27.1179 30.778 28.2432 31.9032C29.3684 33.0284 30.0005 34.5546 30.0005 36.1459V44.0139ZM44.0005 42.0139C44.0005 42.5443 43.7898 43.053 43.4147 43.4281C43.0397 43.8031 42.5309 44.0139 42.0005 44.0139H34.0005V36.1459C34.0005 33.4937 32.9469 30.9502 31.0716 29.0748C29.1962 27.1994 26.6527 26.1459 24.0005 26.1459C21.3484 26.1459 18.8048 27.1994 16.9294 29.0748C15.0541 30.9502 14.0005 33.4937 14.0005 36.1459V44.0139H6.00051C5.47008 44.0139 4.96137 43.8031 4.5863 43.4281C4.21123 43.053 4.00051 42.5443 4.00051 42.0139V22.3799C4.00237 21.8498 4.21289 21.3418 4.58651 20.9659L19.7565 5.79985C20.8839 4.67771 22.4098 4.04774 24.0005 4.04774C25.5912 4.04774 27.1171 4.67771 28.2445 5.79985L43.4145 20.9719C43.7867 21.3463 43.9971 21.8519 44.0005 22.3799V42.0139Z" fill="#F8F8F8"/>
</g>
<defs>
<clipPath id="clip0_503_549">
<rect width="48" height="48" fill="white"/>
</clipPath>
</defs>
</svg>
