<svg width="179" height="132" viewBox="0 0 179 132" fill="none" xmlns="http://www.w3.org/2000/svg">
<rect width="179" height="132" rx="20" fill="#F8F8F8"/>
<path d="M15.648 38C15.024 38 14.544 37.832 14.208 37.496C13.872 37.16 13.704 36.68 13.704 36.056V23.024C13.704 22.4 13.872 21.92 14.208 21.584C14.544 21.248 15.024 21.08 15.648 21.08H20.328C23.224 21.08 25.456 21.816 27.024 23.288C28.608 24.744 29.4 26.824 29.4 29.528C29.4 30.888 29.192 32.096 28.776 33.152C28.376 34.192 27.792 35.072 27.024 35.792C26.256 36.512 25.312 37.064 24.192 37.448C23.072 37.816 21.784 38 20.328 38H15.648ZM17.424 34.952H20.112C21.024 34.952 21.816 34.84 22.488 34.616C23.16 34.392 23.72 34.056 24.168 33.608C24.616 33.16 24.952 32.6 25.176 31.928C25.4 31.24 25.512 30.44 25.512 29.528C25.512 27.704 25.056 26.352 24.144 25.472C23.248 24.576 21.904 24.128 20.112 24.128H17.424V34.952ZM37.6419 38.264C36.3779 38.264 35.2739 38.016 34.3299 37.52C33.4019 37.024 32.6819 36.312 32.1699 35.384C31.6579 34.456 31.4019 33.36 31.4019 32.096C31.4019 31.152 31.5459 30.304 31.8339 29.552C32.1219 28.8 32.5379 28.16 33.0819 27.632C33.6419 27.088 34.3059 26.68 35.0739 26.408C35.8419 26.12 36.6979 25.976 37.6419 25.976C38.9059 25.976 40.0019 26.224 40.9299 26.72C41.8739 27.216 42.6019 27.92 43.1139 28.832C43.6419 29.744 43.9059 30.832 43.9059 32.096C43.9059 33.056 43.7539 33.912 43.4499 34.664C43.1619 35.416 42.7459 36.064 42.2019 36.608C41.6579 37.152 40.9939 37.568 40.2099 37.856C39.4419 38.128 38.5859 38.264 37.6419 38.264ZM37.6419 35.552C38.1699 35.552 38.6259 35.424 39.0099 35.168C39.3939 34.912 39.6979 34.536 39.9219 34.04C40.1459 33.528 40.2579 32.88 40.2579 32.096C40.2579 30.928 40.0179 30.072 39.5379 29.528C39.0579 28.968 38.4259 28.688 37.6419 28.688C37.1299 28.688 36.6739 28.808 36.2739 29.048C35.8899 29.288 35.5859 29.664 35.3619 30.176C35.1539 30.672 35.0499 31.312 35.0499 32.096C35.0499 33.264 35.2899 34.136 35.7699 34.712C36.2499 35.272 36.8739 35.552 37.6419 35.552ZM47.9828 38.216C47.3908 38.216 46.9348 38.056 46.6148 37.736C46.3108 37.416 46.1588 36.96 46.1588 36.368V27.848C46.1588 27.256 46.3108 26.808 46.6148 26.504C46.9348 26.184 47.3748 26.024 47.9348 26.024C48.5108 26.024 48.9508 26.184 49.2548 26.504C49.5588 26.808 49.7108 27.256 49.7108 27.848V29.384L49.4468 28.424C49.7668 27.688 50.2628 27.096 50.9348 26.648C51.6068 26.2 52.3988 25.976 53.3108 25.976C54.2228 25.976 54.9828 26.192 55.5908 26.624C56.1988 27.056 56.6308 27.72 56.8868 28.616H56.5508C56.9028 27.8 57.4388 27.16 58.1588 26.696C58.8948 26.216 59.7348 25.976 60.6788 25.976C61.5908 25.976 62.3348 26.16 62.9108 26.528C63.5028 26.88 63.9428 27.424 64.2308 28.16C64.5188 28.88 64.6628 29.8 64.6628 30.92V36.368C64.6628 36.96 64.5028 37.416 64.1828 37.736C63.8788 38.056 63.4388 38.216 62.8628 38.216C62.2708 38.216 61.8148 38.056 61.4948 37.736C61.1908 37.416 61.0388 36.96 61.0388 36.368V31.04C61.0388 30.256 60.9108 29.688 60.6548 29.336C60.4148 28.968 59.9988 28.784 59.4068 28.784C58.7188 28.784 58.1828 29.024 57.7988 29.504C57.4148 29.984 57.2228 30.664 57.2228 31.544V36.368C57.2228 36.96 57.0628 37.416 56.7428 37.736C56.4388 38.056 55.9988 38.216 55.4228 38.216C54.8468 38.216 54.3988 38.056 54.0788 37.736C53.7588 37.416 53.5988 36.96 53.5988 36.368V31.04C53.5988 30.256 53.4708 29.688 53.2148 29.336C52.9748 28.968 52.5588 28.784 51.9668 28.784C51.2788 28.784 50.7428 29.024 50.3588 29.504C49.9748 29.984 49.7828 30.664 49.7828 31.544V36.368C49.7828 37.6 49.1828 38.216 47.9828 38.216ZM71.4229 38.264C70.5589 38.264 69.7829 38.096 69.0949 37.76C68.4069 37.424 67.8709 36.968 67.4869 36.392C67.1029 35.816 66.9109 35.168 66.9109 34.448C66.9109 33.584 67.1349 32.904 67.5829 32.408C68.0309 31.896 68.7589 31.536 69.7669 31.328C70.7749 31.104 72.1109 30.992 73.7749 30.992H75.0469V32.864H73.7989C72.9829 32.864 72.3189 32.912 71.8069 33.008C71.3109 33.088 70.9509 33.232 70.7269 33.44C70.5189 33.648 70.4149 33.936 70.4149 34.304C70.4149 34.752 70.5669 35.12 70.8709 35.408C71.1909 35.696 71.6469 35.84 72.2389 35.84C72.7029 35.84 73.1109 35.736 73.4629 35.528C73.8309 35.304 74.1189 35.008 74.3269 34.64C74.5349 34.256 74.6389 33.824 74.6389 33.344V30.584C74.6389 29.88 74.4789 29.384 74.1589 29.096C73.8389 28.792 73.2949 28.64 72.5269 28.64C72.0949 28.64 71.6229 28.696 71.1109 28.808C70.6149 28.904 70.0629 29.072 69.4549 29.312C69.1029 29.472 68.7909 29.512 68.5189 29.432C68.2469 29.336 68.0389 29.176 67.8949 28.952C67.7509 28.712 67.6789 28.456 67.6789 28.184C67.6789 27.896 67.7589 27.624 67.9189 27.368C68.0789 27.096 68.3429 26.896 68.7109 26.768C69.4629 26.464 70.1669 26.256 70.8229 26.144C71.4949 26.032 72.1109 25.976 72.6709 25.976C73.9029 25.976 74.9109 26.16 75.6949 26.528C76.4949 26.88 77.0949 27.432 77.4949 28.184C77.8949 28.92 78.0949 29.872 78.0949 31.04V36.368C78.0949 36.96 77.9509 37.416 77.6629 37.736C77.3749 38.056 76.9589 38.216 76.4149 38.216C75.8709 38.216 75.4469 38.056 75.1429 37.736C74.8549 37.416 74.7109 36.96 74.7109 36.368V35.48L74.8789 35.624C74.7829 36.168 74.5749 36.64 74.2549 37.04C73.9509 37.424 73.5589 37.728 73.0789 37.952C72.5989 38.16 72.0469 38.264 71.4229 38.264Z" fill="#545862"/>
<path d="M58.2425 79.1379L43.0725 63.9659C41.195 62.0938 38.6518 61.0426 36.0005 61.0426C33.3492 61.0426 30.806 62.0938 28.9285 63.9659L13.7585 79.1379C13.1994 79.6934 12.7561 80.3545 12.4543 81.0826C12.1525 81.8108 11.9983 82.5916 12.0005 83.3799V103.014C12.0005 104.605 12.6327 106.131 13.7579 107.256C14.8831 108.382 16.4092 109.014 18.0005 109.014H54.0005C55.5918 109.014 57.1179 108.382 58.2432 107.256C59.3684 106.131 60.0005 104.605 60.0005 103.014V83.3799C60.0028 82.5916 59.8485 81.8108 59.5467 81.0826C59.245 80.3545 58.8017 79.6934 58.2425 79.1379ZM42.0005 105.014H30.0005V97.1459C30.0005 95.5546 30.6327 94.0284 31.7579 92.9032C32.8831 91.778 34.4092 91.1459 36.0005 91.1459C37.5918 91.1459 39.1179 91.778 40.2432 92.9032C41.3684 94.0284 42.0005 95.5546 42.0005 97.1459V105.014ZM56.0005 103.014C56.0005 103.544 55.7898 104.053 55.4147 104.428C55.0397 104.803 54.5309 105.014 54.0005 105.014H46.0005V97.1459C46.0005 94.4937 44.9469 91.9502 43.0716 90.0748C41.1962 88.1994 38.6527 87.1459 36.0005 87.1459C33.3484 87.1459 30.8048 88.1994 28.9294 90.0748C27.0541 91.9502 26.0005 94.4937 26.0005 97.1459V105.014H18.0005C17.4701 105.014 16.9614 104.803 16.5863 104.428C16.2112 104.053 16.0005 103.544 16.0005 103.014V83.3799C16.0024 82.8498 16.2129 82.3418 16.5865 81.9659L31.7565 66.7999C32.8839 65.6777 34.4098 65.0477 36.0005 65.0477C37.5912 65.0477 39.1171 65.6777 40.2445 66.7999L55.4145 81.9719C55.7867 82.3463 55.9971 82.8519 56.0005 83.3799V103.014Z" fill="#936CDD"/>
<path d="M75.576 79.216C74.968 79.216 74.504 79.048 74.184 78.712C73.864 78.376 73.704 77.904 73.704 77.296V63.784C73.704 63.176 73.864 62.704 74.184 62.368C74.504 62.032 74.968 61.864 75.576 61.864C76.168 61.864 76.624 62.032 76.944 62.368C77.264 62.704 77.424 63.176 77.424 63.784V68.872H85.296V63.784C85.296 63.176 85.456 62.704 85.776 62.368C86.096 62.032 86.552 61.864 87.144 61.864C87.752 61.864 88.216 62.032 88.536 62.368C88.856 62.704 89.016 63.176 89.016 63.784V77.296C89.016 77.904 88.856 78.376 88.536 78.712C88.216 79.048 87.752 79.216 87.144 79.216C86.552 79.216 86.096 79.048 85.776 78.712C85.456 78.376 85.296 77.904 85.296 77.296V71.968H77.424V77.296C77.424 77.904 77.264 78.376 76.944 78.712C76.64 79.048 76.184 79.216 75.576 79.216ZM99.6786 79.264C98.4786 79.264 97.4146 79.112 96.4866 78.808C95.5746 78.488 94.8066 78.024 94.1826 77.416C93.5586 76.808 93.0866 76.048 92.7666 75.136C92.4626 74.208 92.3106 73.136 92.3106 71.92V63.76C92.3106 63.136 92.4706 62.664 92.7906 62.344C93.1106 62.024 93.5746 61.864 94.1826 61.864C94.7746 61.864 95.2306 62.024 95.5506 62.344C95.8706 62.664 96.0306 63.136 96.0306 63.76V71.944C96.0306 73.32 96.3426 74.36 96.9666 75.064C97.5906 75.752 98.4946 76.096 99.6786 76.096C100.863 76.096 101.759 75.752 102.367 75.064C102.991 74.36 103.303 73.32 103.303 71.944V63.76C103.303 63.136 103.463 62.664 103.783 62.344C104.103 62.024 104.559 61.864 105.151 61.864C105.743 61.864 106.191 62.024 106.495 62.344C106.815 62.664 106.975 63.136 106.975 63.76V71.92C106.975 73.536 106.695 74.896 106.135 76C105.591 77.088 104.775 77.904 103.687 78.448C102.615 78.992 101.279 79.264 99.6786 79.264ZM112.139 79.216C111.531 79.216 111.067 79.048 110.747 78.712C110.427 78.376 110.267 77.904 110.267 77.296V63.784C110.267 63.176 110.427 62.704 110.747 62.368C111.067 62.032 111.531 61.864 112.139 61.864C112.731 61.864 113.187 62.032 113.507 62.368C113.827 62.704 113.987 63.176 113.987 63.784V77.296C113.987 77.904 113.827 78.376 113.507 78.712C113.203 79.048 112.747 79.216 112.139 79.216ZM118.832 79.12C118.192 79.12 117.68 78.928 117.296 78.544C116.928 78.16 116.744 77.664 116.744 77.056C116.744 76.464 116.928 75.984 117.296 75.616C117.68 75.232 118.192 75.04 118.832 75.04C119.472 75.04 119.968 75.232 120.32 75.616C120.688 75.984 120.872 76.464 120.872 77.056C120.872 77.664 120.688 78.16 120.32 78.544C119.968 78.928 119.472 79.12 118.832 79.12ZM118.832 71.176C118.192 71.176 117.68 70.984 117.296 70.6C116.928 70.216 116.744 69.728 116.744 69.136C116.744 68.528 116.928 68.04 117.296 67.672C117.68 67.288 118.192 67.096 118.832 67.096C119.472 67.096 119.968 67.288 120.32 67.672C120.688 68.04 120.872 68.528 120.872 69.136C120.872 69.728 120.688 70.216 120.32 70.6C119.968 70.984 119.472 71.176 118.832 71.176ZM132.825 79.216C132.361 79.216 131.985 79.112 131.697 78.904C131.409 78.68 131.241 78.392 131.193 78.04C131.145 77.688 131.241 77.296 131.481 76.864L138.417 64V65.152H131.169C130.641 65.152 130.241 65.024 129.969 64.768C129.697 64.496 129.561 64.112 129.561 63.616C129.561 63.12 129.697 62.744 129.969 62.488C130.241 62.216 130.641 62.08 131.169 62.08H140.313C140.825 62.08 141.241 62.216 141.561 62.488C141.897 62.76 142.065 63.144 142.065 63.64C142.065 64.072 142.001 64.448 141.873 64.768C141.761 65.088 141.609 65.432 141.417 65.8L134.937 78.016C134.713 78.432 134.433 78.736 134.097 78.928C133.761 79.12 133.337 79.216 132.825 79.216ZM150.864 79.264C149.424 79.264 148.2 78.928 147.192 78.256C146.184 77.584 145.416 76.616 144.888 75.352C144.36 74.088 144.096 72.56 144.096 70.768C144.096 69.344 144.264 68.08 144.6 66.976C144.952 65.872 145.448 64.936 146.088 64.168C146.728 63.4 147.512 62.816 148.44 62.416C149.384 62.016 150.44 61.816 151.608 61.816C152.296 61.816 152.992 61.912 153.696 62.104C154.4 62.296 155.056 62.584 155.664 62.968C155.984 63.128 156.2 63.36 156.312 63.664C156.44 63.952 156.48 64.248 156.432 64.552C156.384 64.856 156.264 65.128 156.072 65.368C155.88 65.592 155.632 65.744 155.328 65.824C155.04 65.888 154.704 65.832 154.32 65.656C153.824 65.384 153.344 65.192 152.88 65.08C152.432 64.968 151.992 64.912 151.56 64.912C150.712 64.912 149.992 65.104 149.4 65.488C148.808 65.872 148.36 66.448 148.056 67.216C147.768 67.984 147.624 68.936 147.624 70.072V71.632H147.288C147.432 70.864 147.696 70.216 148.08 69.688C148.48 69.144 148.984 68.728 149.592 68.44C150.2 68.152 150.872 68.008 151.608 68.008C152.568 68.008 153.416 68.248 154.152 68.728C154.904 69.192 155.496 69.84 155.928 70.672C156.36 71.488 156.576 72.424 156.576 73.48C156.576 74.6 156.336 75.6 155.856 76.48C155.376 77.344 154.704 78.024 153.84 78.52C152.992 79.016 152 79.264 150.864 79.264ZM150.672 76.36C151.168 76.36 151.6 76.248 151.968 76.024C152.352 75.8 152.64 75.48 152.832 75.064C153.04 74.648 153.144 74.168 153.144 73.624C153.144 73.08 153.04 72.608 152.832 72.208C152.64 71.792 152.352 71.472 151.968 71.248C151.6 71.008 151.168 70.888 150.672 70.888C150.176 70.888 149.736 71.008 149.352 71.248C148.984 71.472 148.696 71.792 148.488 72.208C148.28 72.608 148.176 73.08 148.176 73.624C148.176 74.168 148.28 74.648 148.488 75.064C148.696 75.48 148.984 75.8 149.352 76.024C149.736 76.248 150.176 76.36 150.672 76.36Z" fill="#2ABA5E"/>
<path d="M75.6 109C74.992 109 74.52 108.832 74.184 108.496C73.864 108.16 73.704 107.696 73.704 107.104V93.928C73.704 93.304 73.864 92.832 74.184 92.512C74.504 92.192 74.968 92.032 75.576 92.032C76.168 92.032 76.624 92.192 76.944 92.512C77.264 92.832 77.424 93.304 77.424 93.928V105.856H83.856C84.368 105.856 84.76 105.992 85.032 106.264C85.32 106.536 85.464 106.92 85.464 107.416C85.464 107.928 85.32 108.32 85.032 108.592C84.76 108.864 84.368 109 83.856 109H75.6ZM94.0067 109.264C92.8067 109.264 91.7427 109.112 90.8147 108.808C89.9027 108.488 89.1347 108.024 88.5107 107.416C87.8867 106.808 87.4147 106.048 87.0947 105.136C86.7907 104.208 86.6387 103.136 86.6387 101.92V93.76C86.6387 93.136 86.7987 92.664 87.1187 92.344C87.4387 92.024 87.9027 91.864 88.5107 91.864C89.1027 91.864 89.5587 92.024 89.8787 92.344C90.1987 92.664 90.3587 93.136 90.3587 93.76V101.944C90.3587 103.32 90.6707 104.36 91.2947 105.064C91.9187 105.752 92.8227 106.096 94.0067 106.096C95.1907 106.096 96.0867 105.752 96.6947 105.064C97.3187 104.36 97.6307 103.32 97.6307 101.944V93.76C97.6307 93.136 97.7907 92.664 98.1107 92.344C98.4307 92.024 98.8867 91.864 99.4787 91.864C100.071 91.864 100.519 92.024 100.823 92.344C101.143 92.664 101.303 93.136 101.303 93.76V101.92C101.303 103.536 101.023 104.896 100.463 106C99.9187 107.088 99.1027 107.904 98.0147 108.448C96.9427 108.992 95.6067 109.264 94.0067 109.264ZM106.467 109.216C105.859 109.216 105.395 109.048 105.075 108.712C104.755 108.376 104.595 107.904 104.595 107.296V93.784C104.595 93.176 104.755 92.704 105.075 92.368C105.395 92.032 105.859 91.864 106.467 91.864C107.059 91.864 107.515 92.032 107.835 92.368C108.155 92.704 108.315 93.176 108.315 93.784V107.296C108.315 107.904 108.155 108.376 107.835 108.712C107.531 109.048 107.075 109.216 106.467 109.216ZM113.16 109.12C112.52 109.12 112.008 108.928 111.624 108.544C111.256 108.16 111.072 107.664 111.072 107.056C111.072 106.464 111.256 105.984 111.624 105.616C112.008 105.232 112.52 105.04 113.16 105.04C113.8 105.04 114.296 105.232 114.648 105.616C115.016 105.984 115.2 106.464 115.2 107.056C115.2 107.664 115.016 108.16 114.648 108.544C114.296 108.928 113.8 109.12 113.16 109.12ZM113.16 101.176C112.52 101.176 112.008 100.984 111.624 100.6C111.256 100.216 111.072 99.728 111.072 99.136C111.072 98.528 111.256 98.04 111.624 97.672C112.008 97.288 112.52 97.096 113.16 97.096C113.8 97.096 114.296 97.288 114.648 97.672C115.016 98.04 115.2 98.528 115.2 99.136C115.2 99.728 115.016 100.216 114.648 100.6C114.296 100.984 113.8 101.176 113.16 101.176ZM126.721 109C126.209 109 125.817 108.864 125.545 108.592C125.273 108.32 125.137 107.944 125.137 107.464C125.137 106.968 125.273 106.592 125.545 106.336C125.817 106.08 126.209 105.952 126.721 105.952H129.145V95.128H130.897L127.393 97.264C127.025 97.488 126.681 97.576 126.361 97.528C126.057 97.48 125.793 97.344 125.569 97.12C125.345 96.896 125.193 96.632 125.113 96.328C125.049 96.008 125.081 95.696 125.209 95.392C125.337 95.072 125.577 94.8 125.929 94.576L129.265 92.56C129.601 92.352 129.937 92.184 130.273 92.056C130.625 91.928 130.969 91.864 131.305 91.864C131.785 91.864 132.161 91.992 132.433 92.248C132.721 92.488 132.865 92.864 132.865 93.376V105.952H135.049C135.545 105.952 135.929 106.08 136.201 106.336C136.473 106.592 136.609 106.968 136.609 107.464C136.609 107.96 136.473 108.344 136.201 108.616C135.929 108.872 135.545 109 135.049 109H126.721ZM140.656 109C140.064 109 139.624 108.864 139.336 108.592C139.064 108.304 138.928 107.888 138.928 107.344C138.928 106.992 139.016 106.664 139.192 106.36C139.368 106.056 139.608 105.744 139.912 105.424L144.424 100.672C145.096 99.952 145.576 99.312 145.864 98.752C146.168 98.192 146.32 97.632 146.32 97.072C146.32 96.368 146.088 95.832 145.624 95.464C145.176 95.096 144.52 94.912 143.656 94.912C143.192 94.912 142.712 94.984 142.216 95.128C141.736 95.256 141.232 95.472 140.704 95.776C140.352 95.968 140.024 96.04 139.72 95.992C139.432 95.928 139.184 95.792 138.976 95.584C138.768 95.36 138.632 95.096 138.568 94.792C138.504 94.488 138.536 94.184 138.664 93.88C138.792 93.576 139.032 93.32 139.384 93.112C140.088 92.68 140.856 92.36 141.688 92.152C142.52 91.928 143.344 91.816 144.16 91.816C145.424 91.816 146.488 92.008 147.352 92.392C148.216 92.76 148.872 93.304 149.32 94.024C149.768 94.744 149.992 95.624 149.992 96.664C149.992 97.336 149.888 97.992 149.68 98.632C149.472 99.272 149.144 99.92 148.696 100.576C148.264 101.216 147.688 101.904 146.968 102.64L142.768 106.912V105.952H149.272C149.784 105.952 150.168 106.08 150.424 106.336C150.696 106.592 150.832 106.968 150.832 107.464C150.832 107.96 150.696 108.344 150.424 108.616C150.168 108.872 149.784 109 149.272 109H140.656ZM158.934 109.264C157.59 109.264 156.438 109.072 155.478 108.688C154.518 108.304 153.782 107.752 153.27 107.032C152.758 106.296 152.502 105.416 152.502 104.392C152.502 103.592 152.662 102.88 152.982 102.256C153.318 101.632 153.774 101.128 154.35 100.744C154.926 100.36 155.574 100.12 156.294 100.024V100.648C155.286 100.424 154.47 99.936 153.846 99.184C153.238 98.416 152.934 97.496 152.934 96.424C152.934 95.464 153.174 94.64 153.654 93.952C154.15 93.264 154.846 92.736 155.742 92.368C156.654 92 157.718 91.816 158.934 91.816C160.166 91.816 161.23 92 162.126 92.368C163.022 92.736 163.718 93.264 164.214 93.952C164.71 94.64 164.958 95.464 164.958 96.424C164.958 97.144 164.814 97.8 164.526 98.392C164.254 98.984 163.862 99.472 163.35 99.856C162.854 100.24 162.278 100.488 161.622 100.6V100.024C162.726 100.184 163.622 100.656 164.31 101.44C165.014 102.224 165.366 103.208 165.366 104.392C165.366 105.416 165.11 106.296 164.598 107.032C164.086 107.752 163.35 108.304 162.39 108.688C161.43 109.072 160.278 109.264 158.934 109.264ZM158.934 106.408C159.926 106.408 160.678 106.216 161.19 105.832C161.702 105.448 161.958 104.88 161.958 104.128C161.958 103.376 161.702 102.816 161.19 102.448C160.678 102.064 159.926 101.872 158.934 101.872C157.942 101.872 157.19 102.064 156.678 102.448C156.166 102.816 155.91 103.376 155.91 104.128C155.91 104.88 156.166 105.448 156.678 105.832C157.19 106.216 157.942 106.408 158.934 106.408ZM158.934 99.016C159.478 99.016 159.942 98.928 160.326 98.752C160.726 98.576 161.022 98.32 161.214 97.984C161.422 97.648 161.526 97.264 161.526 96.832C161.526 96.16 161.294 95.632 160.83 95.248C160.382 94.864 159.75 94.672 158.934 94.672C158.118 94.672 157.486 94.864 157.038 95.248C156.59 95.632 156.366 96.16 156.366 96.832C156.366 97.504 156.59 98.04 157.038 98.44C157.486 98.824 158.118 99.016 158.934 99.016Z" fill="#6BDD93"/>
</svg>
