<svg width="45" height="44" viewBox="0 0 45 44" fill="none" xmlns="http://www.w3.org/2000/svg">
<path d="M41.7416 0.95044H2.43661C1.09076 0.951217 -0.000269606 2.00028 4.99748e-08 3.29424V41.0687C0.00080902 42.3622 1.09238 43.4107 2.43877 43.4104H23.6003V26.9904H17.862V20.5633H23.6003V15.8335C23.6003 10.3484 27.0845 7.36298 32.1756 7.36298C34.6141 7.36298 36.7096 7.53765 37.3203 7.61565V13.3484H33.8097C31.0398 13.3484 30.5035 14.6134 30.5035 16.47V20.5633H37.1262L36.2633 26.9904H30.5035V43.4104H41.7416C43.0883 43.4107 44.1801 42.3619 44.1804 41.0677C44.1804 41.0674 44.1804 41.0672 44.1804 41.0666V3.29217C44.1798 1.99872 43.088 0.95018 41.7416 0.95044Z" fill="white"/>
</svg>
