<svg width="45" height="44" viewBox="0 0 45 44" fill="none" xmlns="http://www.w3.org/2000/svg">
<path fill-rule="evenodd" clip-rule="evenodd" d="M43.3047 8.28232C43.8486 9.62632 44.2283 11.1774 44.3318 13.4334C44.4354 15.698 44.4441 16.4195 44.4441 22.1843C44.4441 27.9491 44.4182 28.6707 44.3146 30.9352C44.2111 33.1913 43.8311 34.7343 43.2875 36.0864C42.1393 38.9396 39.7913 41.1957 36.8215 42.2989C35.4231 42.8216 33.8089 43.1864 31.4609 43.2859C29.1042 43.3857 28.3532 43.4103 22.3536 43.4103C16.354 43.4103 15.6027 43.3857 13.2462 43.2859C10.8979 43.1864 9.29247 42.8216 7.8853 42.2989C6.41777 41.7682 5.07972 40.9303 3.97469 39.852C2.85246 38.7902 1.98077 37.513 1.41966 36.0864C0.875741 34.7424 0.495707 33.1913 0.392183 30.9352C0.28866 28.6707 0.262695 27.9491 0.262695 22.1843C0.262695 16.4195 0.28866 15.698 0.400951 13.425C0.504474 11.1689 0.884171 9.62632 1.42809 8.27422C1.98077 6.86412 2.85246 5.57845 3.97469 4.51666C5.07972 3.42993 6.409 2.60046 7.89407 2.06131C9.29247 1.539 10.9067 1.17384 13.2547 1.07437C15.6114 0.9749 16.3624 0.949951 22.362 0.949951C28.3616 0.949951 29.1126 0.9749 31.4781 1.0828C33.8261 1.18227 35.4319 1.5471 36.8387 2.06973C38.3062 2.60046 39.6443 3.43836 40.7493 4.51666C41.8803 5.57845 42.7436 6.8557 43.3047 8.28232ZM39.5928 34.7092C39.8949 33.9627 40.2574 32.8429 40.3525 30.7692C40.456 28.5297 40.482 27.8661 40.482 22.2008C40.482 16.5354 40.456 15.8638 40.3525 13.6242C40.2574 11.5586 39.8949 10.4307 39.5928 9.68423C39.2387 8.76339 38.6776 7.93392 37.9438 7.2454C37.236 6.54035 36.364 6.00119 35.406 5.66131C34.6291 5.37099 33.4637 5.02268 31.3055 4.93131C28.9832 4.83184 28.2841 4.80689 22.3793 4.80689C16.4835 4.80689 15.7841 4.83184 13.4534 4.93131C11.304 5.02268 10.1298 5.37099 9.3529 5.66131C8.39455 6.00119 7.5313 6.54035 6.81507 7.2454C6.07253 7.92582 5.51142 8.76339 5.15735 9.68423C4.85521 10.4307 4.49271 11.5505 4.39796 13.6242C4.2941 15.8553 4.26847 16.5354 4.26847 22.2008C4.26847 27.8661 4.2941 28.5381 4.39796 30.7777C4.49271 32.8429 4.85521 33.9711 5.15735 34.7176C5.51142 35.6382 6.07253 36.4676 6.8063 37.1561C7.5141 37.8612 8.38612 38.4003 9.34413 38.7406C10.1211 39.0309 11.2865 39.3792 13.4446 39.4702C15.7669 39.57 16.4747 39.5947 22.3708 39.5947C28.2669 39.5947 28.966 39.57 31.2968 39.4702C33.4465 39.3792 34.6203 39.0309 35.3972 38.7406C37.3223 38.0271 38.8502 36.559 39.5928 34.7092ZM11.0103 22.1843C11.0103 16.1623 16.095 11.2768 22.3621 11.2768C28.6294 11.2768 33.7138 16.1623 33.7138 22.1843C33.7138 28.2064 28.6294 33.0918 22.3621 33.0918C16.095 33.0918 11.0103 28.2064 11.0103 22.1843ZM14.9984 22.1842C14.9984 26.0911 18.2963 29.2596 22.362 29.2596C26.4281 29.2596 29.7257 26.0911 29.7257 22.1842C29.7257 18.2773 26.4281 15.1088 22.362 15.1088C18.2963 15.1088 14.9984 18.2773 14.9984 22.1842ZM34.1626 13.3919C35.6264 13.3919 36.813 12.2517 36.813 10.8455C36.813 9.43899 35.6264 8.29912 34.1626 8.29912C32.6991 8.29912 31.5125 9.43899 31.5125 10.8455C31.5125 12.2517 32.6991 13.3919 34.1626 13.3919Z" fill="white"/>
</svg>
