<svg width="68" height="68" viewBox="0 0 68 68" fill="none" xmlns="http://www.w3.org/2000/svg">
<path fill-rule="evenodd" clip-rule="evenodd" d="M64.9333 13.7333H61.7333V3.06667C61.7333 2.47756 61.2558 2 60.6667 2H54.2667C53.6776 2 53.2 2.47756 53.2 3.06667V13.7333H3.06667C2.47756 13.7333 2 14.2109 2 14.8V53.2C2 53.7891 2.47756 54.2667 3.06667 54.2667H8.4V57.4667C8.4 62.1795 12.2205 66 16.9333 66C21.6462 66 25.4667 62.1795 25.4667 57.4667V54.2667H64.9333C65.5224 54.2667 66 53.7891 66 53.2V14.8C66 14.2109 65.5224 13.7333 64.9333 13.7333ZM59.6 29.7333H55.3333V8.4H59.6V29.7333ZM57.4667 35.5584L59.0485 31.8667H55.8848L57.4667 35.5584ZM55.3333 4.13333H59.6V6.26667H55.3333V4.13333ZM4.13333 19.6917L7.9584 15.8667H4.13333V19.6917ZM9.46667 17.3749V21.2H5.6416L9.46667 17.3749ZM16.9333 63.8667C20.468 63.8667 23.3333 61.0013 23.3333 57.4667V44.6667C23.3333 41.132 20.468 38.2667 16.9333 38.2667C13.3987 38.2667 10.5333 41.132 10.5333 44.6667V57.4667C10.5333 61.0013 13.3987 63.8667 16.9333 63.8667ZM63.8667 52.1333H25.4667V44.6667C25.4667 39.9538 21.6462 36.1333 16.9333 36.1333C12.2205 36.1333 8.4 39.9538 8.4 44.6667V52.1333H4.13333V23.3333H10.5333C11.1224 23.3333 11.6 22.8558 11.6 22.2667V15.8667H53.2V30.8C53.2 30.8026 53.2003 30.8051 53.2007 30.8077C53.2015 30.8122 53.2028 30.8166 53.2042 30.8211C53.2063 30.8283 53.2085 30.8356 53.2085 30.8437C53.2119 30.9665 53.2364 31.0877 53.2811 31.2021V31.2181L56.4811 38.6848C56.6492 39.0768 57.0348 39.3309 57.4613 39.3309C57.8879 39.3309 58.2734 39.0768 58.4416 38.6848L61.6416 31.2181V31.2021C61.6862 31.0877 61.7108 30.9665 61.7141 30.8437C61.7141 30.8356 61.7163 30.8283 61.7185 30.8211C61.7206 30.8142 61.7227 30.8073 61.7227 30.8V15.8667H63.856L63.8667 52.1333ZM15.8667 42.5333C15.8667 41.9442 16.3442 41.4667 16.9333 41.4667C17.5224 41.4667 18 41.9442 18 42.5333V47.8667C18 48.4558 17.5224 48.9333 16.9333 48.9333C16.3442 48.9333 15.8667 48.4558 15.8667 47.8667V42.5333ZM58.5333 47.8667C57.9442 47.8667 57.4667 48.3442 57.4667 48.9333C57.4667 49.5224 57.9442 50 58.5333 50H60.6667C61.2558 50 61.7333 49.5224 61.7333 48.9333C61.7333 48.3442 61.2558 47.8667 60.6667 47.8667H58.5333ZM51.0667 48.9333C51.0667 48.3442 51.5442 47.8667 52.1333 47.8667H54.2667C54.8558 47.8667 55.3333 48.3442 55.3333 48.9333C55.3333 49.5224 54.8558 50 54.2667 50H52.1333C51.5442 50 51.0667 49.5224 51.0667 48.9333ZM45.4923 21.5915C45.1193 21.1356 44.4475 21.0682 43.9915 21.4411L32.9664 30.4619L22.9803 21.4741C22.6128 21.1434 22.0663 21.1085 21.6597 21.3899L7.79307 30.9899C7.4697 31.2026 7.28696 31.5738 7.31559 31.9599C7.34422 32.3459 7.57972 32.6861 7.93093 32.8488C8.28215 33.0115 8.69395 32.9712 9.00693 32.7435L22.1803 23.6235L32.2197 32.6592C32.6107 33.0103 33.1991 33.0243 33.6064 32.6923L45.3397 23.0923C45.559 22.9135 45.6982 22.6549 45.7268 22.3735C45.7554 22.092 45.6711 21.8107 45.4923 21.5915ZM42.3712 35.568C42.1637 35.2728 41.8254 35.0971 41.4645 35.0971C41.1037 35.0971 40.7654 35.2728 40.5579 35.568L35.2245 44.1013C35.0186 44.4308 35.0081 44.8462 35.1971 45.1856C35.3862 45.5251 35.7448 45.7349 36.1333 45.7333H46.8C47.1878 45.7333 47.545 45.5229 47.733 45.1838C47.9209 44.8446 47.91 44.4302 47.7045 44.1013L42.3712 35.568ZM38.0533 43.6L41.4667 38.1461L44.88 43.6H38.0533Z" fill="#936CDD"/>
</svg>
