<svg width="68" height="68" viewBox="0 0 68 68" fill="none" xmlns="http://www.w3.org/2000/svg">
<path fill-rule="evenodd" clip-rule="evenodd" d="M37.7154 2H30.2846C24.6095 2.01193 20.0118 6.64298 20 12.3593V41.539C20.0118 47.2553 24.6095 51.8864 30.2846 51.8983H30.7692V59.4915H27.5385C25.7542 59.4915 24.3077 60.9485 24.3077 62.7458C24.3077 64.543 25.7542 66 27.5385 66H40.4615C42.2458 66 43.6923 64.543 43.6923 62.7458C43.6923 60.9485 42.2458 59.4915 40.4615 59.4915H37.2308V51.8983H37.7154C43.3905 51.8864 47.9882 47.2553 48 41.539V12.3593C47.9882 6.64298 43.3905 2.01193 37.7154 2ZM22.1538 15.0169H27.5385C28.1332 15.0169 28.6154 15.5026 28.6154 16.1017C28.6154 16.7008 28.1332 17.1864 27.5385 17.1864H22.1538V15.0169ZM27.5385 25.8644H22.1538V28.0339H27.5385C28.1332 28.0339 28.6154 27.5482 28.6154 26.9492C28.6154 26.3501 28.1332 25.8644 27.5385 25.8644ZM22.1538 36.7119H27.5385C28.1332 36.7119 28.6154 37.1975 28.6154 37.7966C28.6154 38.3957 28.1332 38.8814 27.5385 38.8814H22.1538V36.7119ZM41.5385 62.7458C41.5385 62.1467 41.0563 61.661 40.4615 61.661H35.0769V51.8983H32.9231V61.661H27.5385C26.9437 61.661 26.4615 62.1467 26.4615 62.7458C26.4615 63.3448 26.9437 63.8305 27.5385 63.8305H40.4615C41.0563 63.8305 41.5385 63.3448 41.5385 62.7458ZM37.7154 49.7288H30.2846C25.7966 49.7228 22.1598 46.0596 22.1538 41.539V41.0508H27.5385C29.3228 41.0508 30.7692 39.5939 30.7692 37.7966C30.7692 35.9993 29.3228 34.5424 27.5385 34.5424H22.1538V30.2034H27.5385C29.3228 30.2034 30.7692 28.7464 30.7692 26.9492C30.7692 25.1519 29.3228 23.6949 27.5385 23.6949H22.1538V19.3559H27.5385C29.3228 19.3559 30.7692 17.899 30.7692 16.1017C30.7692 14.3044 29.3228 12.8475 27.5385 12.8475H22.1538V12.3593C22.1598 7.83868 25.7966 4.17547 30.2846 4.16949H37.7154C42.2034 4.17547 45.8402 7.83868 45.8462 12.3593V12.8475H40.4615C38.6772 12.8475 37.2308 14.3044 37.2308 16.1017C37.2308 17.899 38.6772 19.3559 40.4615 19.3559H45.8462V23.6949H40.4615C38.6772 23.6949 37.2308 25.1519 37.2308 26.9492C37.2308 28.7464 38.6772 30.2034 40.4615 30.2034H45.8462V34.5424H40.4615C38.6772 34.5424 37.2308 35.9993 37.2308 37.7966C37.2308 39.5939 38.6772 41.0508 40.4615 41.0508H45.8462V41.539C45.8402 46.0596 42.2034 49.7228 37.7154 49.7288ZM40.4615 17.1864H45.8462V15.0169H40.4615C39.8668 15.0169 39.3846 15.5026 39.3846 16.1017C39.3846 16.7008 39.8668 17.1864 40.4615 17.1864ZM45.8462 28.0339H40.4615C39.8668 28.0339 39.3846 27.5482 39.3846 26.9492C39.3846 26.3501 39.8668 25.8644 40.4615 25.8644H45.8462V28.0339ZM40.4615 38.8814H45.8462V36.7119H40.4615C39.8668 36.7119 39.3846 37.1975 39.3846 37.7966C39.3846 38.3957 39.8668 38.8814 40.4615 38.8814Z" fill="#936CDD"/>
<path d="M30.2846 2V1.75L30.2841 1.75L30.2846 2ZM37.7154 2L37.7159 1.75H37.7154V2ZM20 12.3593L19.75 12.3588V12.3593H20ZM20 41.539H19.75L19.75 41.5395L20 41.539ZM30.2846 51.8983L30.2841 52.1483H30.2846V51.8983ZM30.7692 51.8983H31.0192V51.6483H30.7692V51.8983ZM30.7692 59.4915V59.7415H31.0192V59.4915H30.7692ZM37.2308 59.4915H36.9808V59.7415H37.2308V59.4915ZM37.2308 51.8983V51.6483H36.9808V51.8983H37.2308ZM37.7154 51.8983V52.1483H37.7159L37.7154 51.8983ZM48 41.539L48.25 41.5395V41.539H48ZM48 12.3593H48.25V12.3588L48 12.3593ZM22.1538 15.0169V14.7669H21.9038V15.0169H22.1538ZM22.1538 17.1864H21.9038V17.4364H22.1538V17.1864ZM22.1538 25.8644V25.6144H21.9038V25.8644H22.1538ZM22.1538 28.0339H21.9038V28.2839H22.1538V28.0339ZM22.1538 36.7119V36.4619H21.9038V36.7119H22.1538ZM22.1538 38.8814H21.9038V39.1314H22.1538V38.8814ZM35.0769 61.661H34.8269V61.911H35.0769V61.661ZM35.0769 51.8983H35.3269V51.6483H35.0769V51.8983ZM32.9231 51.8983V51.6483H32.6731V51.8983H32.9231ZM32.9231 61.661V61.911H33.1731V61.661H32.9231ZM30.2846 49.7288L30.2843 49.9788H30.2846V49.7288ZM37.7154 49.7288V49.9788H37.7157L37.7154 49.7288ZM22.1538 41.539H21.9038L21.9038 41.5393L22.1538 41.539ZM22.1538 41.0508V40.8008H21.9038V41.0508H22.1538ZM22.1538 34.5424H21.9038V34.7924H22.1538V34.5424ZM22.1538 30.2034V29.9534H21.9038V30.2034H22.1538ZM22.1538 23.6949H21.9038V23.9449H22.1538V23.6949ZM22.1538 19.3559V19.1059H21.9038V19.3559H22.1538ZM22.1538 12.8475H21.9038V13.0975H22.1538V12.8475ZM22.1538 12.3593L21.9038 12.359V12.3593H22.1538ZM30.2846 4.16949V3.91949L30.2843 3.91949L30.2846 4.16949ZM37.7154 4.16949L37.7157 3.91949H37.7154V4.16949ZM45.8462 12.3593H46.0962V12.359L45.8462 12.3593ZM45.8462 12.8475V13.0975H46.0962V12.8475H45.8462ZM45.8462 19.3559H46.0962V19.1059H45.8462V19.3559ZM45.8462 23.6949V23.9449H46.0962V23.6949H45.8462ZM45.8462 30.2034H46.0962V29.9534H45.8462V30.2034ZM45.8462 34.5424V34.7924H46.0962V34.5424H45.8462ZM45.8462 41.0508H46.0962V40.8008H45.8462V41.0508ZM45.8462 41.539L46.0962 41.5393V41.539H45.8462ZM45.8462 17.1864V17.4364H46.0962V17.1864H45.8462ZM45.8462 15.0169H46.0962V14.7669H45.8462V15.0169ZM45.8462 28.0339V28.2839H46.0962V28.0339H45.8462ZM45.8462 25.8644H46.0962V25.6144H45.8462V25.8644ZM45.8462 38.8814V39.1314H46.0962V38.8814H45.8462ZM45.8462 36.7119H46.0962V36.4619H45.8462V36.7119ZM30.2846 2.25H37.7154V1.75H30.2846V2.25ZM20.25 12.3598C20.2616 6.77946 24.7494 2.26164 30.2851 2.25L30.2841 1.75C24.4696 1.76223 19.7621 6.50649 19.75 12.3588L20.25 12.3598ZM20.25 41.539V12.3593H19.75V41.539H20.25ZM30.2851 51.6483C24.7494 51.6367 20.2616 47.1188 20.25 41.5385L19.75 41.5395C19.7621 47.3918 24.4696 52.1361 30.2841 52.1483L30.2851 51.6483ZM30.7692 51.6483H30.2846V52.1483H30.7692V51.6483ZM31.0192 59.4915V51.8983H30.5192V59.4915H31.0192ZM27.5385 59.7415H30.7692V59.2415H27.5385V59.7415ZM24.5577 62.7458C24.5577 61.0849 25.8939 59.7415 27.5385 59.7415V59.2415C25.6144 59.2415 24.0577 60.8121 24.0577 62.7458H24.5577ZM27.5385 65.75C25.8939 65.75 24.5577 64.4067 24.5577 62.7458H24.0577C24.0577 64.6794 25.6144 66.25 27.5385 66.25V65.75ZM40.4615 65.75H27.5385V66.25H40.4615V65.75ZM43.4423 62.7458C43.4423 64.4067 42.1061 65.75 40.4615 65.75V66.25C42.3856 66.25 43.9423 64.6794 43.9423 62.7458H43.4423ZM40.4615 59.7415C42.1061 59.7415 43.4423 61.0849 43.4423 62.7458H43.9423C43.9423 60.8121 42.3856 59.2415 40.4615 59.2415V59.7415ZM37.2308 59.7415H40.4615V59.2415H37.2308V59.7415ZM36.9808 51.8983V59.4915H37.4808V51.8983H36.9808ZM37.7154 51.6483H37.2308V52.1483H37.7154V51.6483ZM47.75 41.5385C47.7384 47.1188 43.2506 51.6367 37.7149 51.6483L37.7159 52.1483C43.5304 52.1361 48.2379 47.3918 48.25 41.5395L47.75 41.5385ZM47.75 12.3593V41.539H48.25V12.3593H47.75ZM37.7149 2.25C43.2506 2.26164 47.7384 6.77946 47.75 12.3598L48.25 12.3588C48.2379 6.50649 43.5304 1.76223 37.7159 1.75L37.7149 2.25ZM27.5385 14.7669H22.1538V15.2669H27.5385V14.7669ZM28.8654 16.1017C28.8654 15.3662 28.273 14.7669 27.5385 14.7669V15.2669C27.9935 15.2669 28.3654 15.639 28.3654 16.1017H28.8654ZM27.5385 17.4364C28.273 17.4364 28.8654 16.8371 28.8654 16.1017H28.3654C28.3654 16.5644 27.9935 16.9364 27.5385 16.9364V17.4364ZM22.1538 17.4364H27.5385V16.9364H22.1538V17.4364ZM21.9038 15.0169V17.1864H22.4038V15.0169H21.9038ZM22.1538 26.1144H27.5385V25.6144H22.1538V26.1144ZM22.4038 28.0339V25.8644H21.9038V28.0339H22.4038ZM27.5385 27.7839H22.1538V28.2839H27.5385V27.7839ZM28.3654 26.9492C28.3654 27.4119 27.9935 27.7839 27.5385 27.7839V28.2839C28.273 28.2839 28.8654 27.6846 28.8654 26.9492H28.3654ZM27.5385 26.1144C27.9935 26.1144 28.3654 26.4864 28.3654 26.9492H28.8654C28.8654 26.2137 28.273 25.6144 27.5385 25.6144V26.1144ZM27.5385 36.4619H22.1538V36.9619H27.5385V36.4619ZM28.8654 37.7966C28.8654 37.0612 28.273 36.4619 27.5385 36.4619V36.9619C27.9935 36.9619 28.3654 37.3339 28.3654 37.7966H28.8654ZM27.5385 39.1314C28.273 39.1314 28.8654 38.5321 28.8654 37.7966H28.3654C28.3654 38.2593 27.9935 38.6314 27.5385 38.6314V39.1314ZM22.1538 39.1314H27.5385V38.6314H22.1538V39.1314ZM21.9038 36.7119V38.8814H22.4038V36.7119H21.9038ZM40.4615 61.911C40.9165 61.911 41.2885 62.283 41.2885 62.7458H41.7885C41.7885 62.0103 41.1961 61.411 40.4615 61.411V61.911ZM35.0769 61.911H40.4615V61.411H35.0769V61.911ZM34.8269 51.8983V61.661H35.3269V51.8983H34.8269ZM32.9231 52.1483H35.0769V51.6483H32.9231V52.1483ZM33.1731 61.661V51.8983H32.6731V61.661H33.1731ZM27.5385 61.911H32.9231V61.411H27.5385V61.911ZM26.7115 62.7458C26.7115 62.283 27.0835 61.911 27.5385 61.911V61.411C26.8039 61.411 26.2115 62.0103 26.2115 62.7458H26.7115ZM27.5385 63.5805C27.0835 63.5805 26.7115 63.2085 26.7115 62.7458H26.2115C26.2115 63.4812 26.8039 64.0805 27.5385 64.0805V63.5805ZM40.4615 63.5805H27.5385V64.0805H40.4615V63.5805ZM41.2885 62.7458C41.2885 63.2085 40.9165 63.5805 40.4615 63.5805V64.0805C41.1961 64.0805 41.7885 63.4812 41.7885 62.7458H41.2885ZM30.2846 49.9788H37.7154V49.4788H30.2846V49.9788ZM21.9038 41.5393C21.91 46.1961 25.6567 49.9727 30.2843 49.9788L30.2849 49.4788C25.9364 49.473 22.4096 45.9232 22.4038 41.5387L21.9038 41.5393ZM21.9038 41.0508V41.539H22.4038V41.0508H21.9038ZM27.5385 40.8008H22.1538V41.3008H27.5385V40.8008ZM30.5192 37.7966C30.5192 39.4575 29.183 40.8008 27.5385 40.8008V41.3008C29.4625 41.3008 31.0192 39.7302 31.0192 37.7966H30.5192ZM27.5385 34.7924C29.183 34.7924 30.5192 36.1357 30.5192 37.7966H31.0192C31.0192 35.863 29.4625 34.2924 27.5385 34.2924V34.7924ZM22.1538 34.7924H27.5385V34.2924H22.1538V34.7924ZM21.9038 30.2034V34.5424H22.4038V30.2034H21.9038ZM27.5385 29.9534H22.1538V30.4534H27.5385V29.9534ZM30.5192 26.9492C30.5192 28.6101 29.183 29.9534 27.5385 29.9534V30.4534C29.4625 30.4534 31.0192 28.8828 31.0192 26.9492H30.5192ZM27.5385 23.9449C29.183 23.9449 30.5192 25.2882 30.5192 26.9492H31.0192C31.0192 25.0155 29.4625 23.4449 27.5385 23.4449V23.9449ZM22.1538 23.9449H27.5385V23.4449H22.1538V23.9449ZM21.9038 19.3559V23.6949H22.4038V19.3559H21.9038ZM27.5385 19.1059H22.1538V19.6059H27.5385V19.1059ZM30.5192 16.1017C30.5192 17.7626 29.183 19.1059 27.5385 19.1059V19.6059C29.4625 19.6059 31.0192 18.0353 31.0192 16.1017H30.5192ZM27.5385 13.0975C29.183 13.0975 30.5192 14.4408 30.5192 16.1017H31.0192C31.0192 14.1681 29.4625 12.5975 27.5385 12.5975V13.0975ZM22.1538 13.0975H27.5385V12.5975H22.1538V13.0975ZM21.9038 12.3593V12.8475H22.4038V12.3593H21.9038ZM30.2843 3.91949C25.6567 3.92565 21.91 7.70224 21.9038 12.359L22.4038 12.3597C22.4096 7.97512 25.9364 4.42528 30.2849 4.41949L30.2843 3.91949ZM37.7154 3.91949H30.2846V4.41949H37.7154V3.91949ZM46.0962 12.359C46.09 7.70224 42.3433 3.92565 37.7157 3.91949L37.7151 4.41949C42.0636 4.42528 45.5904 7.97512 45.5962 12.3597L46.0962 12.359ZM46.0962 12.8475V12.3593H45.5962V12.8475H46.0962ZM40.4615 13.0975H45.8462V12.5975H40.4615V13.0975ZM37.4808 16.1017C37.4808 14.4408 38.817 13.0975 40.4615 13.0975V12.5975C38.5375 12.5975 36.9808 14.1681 36.9808 16.1017H37.4808ZM40.4615 19.1059C38.817 19.1059 37.4808 17.7626 37.4808 16.1017H36.9808C36.9808 18.0353 38.5375 19.6059 40.4615 19.6059V19.1059ZM45.8462 19.1059H40.4615V19.6059H45.8462V19.1059ZM46.0962 23.6949V19.3559H45.5962V23.6949H46.0962ZM40.4615 23.9449H45.8462V23.4449H40.4615V23.9449ZM37.4808 26.9492C37.4808 25.2882 38.817 23.9449 40.4615 23.9449V23.4449C38.5375 23.4449 36.9808 25.0155 36.9808 26.9492H37.4808ZM40.4615 29.9534C38.817 29.9534 37.4808 28.6101 37.4808 26.9492H36.9808C36.9808 28.8828 38.5375 30.4534 40.4615 30.4534V29.9534ZM45.8462 29.9534H40.4615V30.4534H45.8462V29.9534ZM46.0962 34.5424V30.2034H45.5962V34.5424H46.0962ZM40.4615 34.7924H45.8462V34.2924H40.4615V34.7924ZM37.4808 37.7966C37.4808 36.1357 38.817 34.7924 40.4615 34.7924V34.2924C38.5375 34.2924 36.9808 35.863 36.9808 37.7966H37.4808ZM40.4615 40.8008C38.817 40.8008 37.4808 39.4575 37.4808 37.7966H36.9808C36.9808 39.7302 38.5375 41.3008 40.4615 41.3008V40.8008ZM45.8462 40.8008H40.4615V41.3008H45.8462V40.8008ZM46.0962 41.539V41.0508H45.5962V41.539H46.0962ZM37.7157 49.9788C42.3433 49.9727 46.09 46.1961 46.0962 41.5393L45.5962 41.5387C45.5904 45.9232 42.0636 49.473 37.7151 49.4788L37.7157 49.9788ZM45.8462 16.9364H40.4615V17.4364H45.8462V16.9364ZM45.5962 15.0169V17.1864H46.0962V15.0169H45.5962ZM40.4615 15.2669H45.8462V14.7669H40.4615V15.2669ZM39.6346 16.1017C39.6346 15.639 40.0065 15.2669 40.4615 15.2669V14.7669C39.727 14.7669 39.1346 15.3662 39.1346 16.1017H39.6346ZM40.4615 16.9364C40.0065 16.9364 39.6346 16.5644 39.6346 16.1017H39.1346C39.1346 16.8371 39.727 17.4364 40.4615 17.4364V16.9364ZM40.4615 28.2839H45.8462V27.7839H40.4615V28.2839ZM39.1346 26.9492C39.1346 27.6846 39.727 28.2839 40.4615 28.2839V27.7839C40.0065 27.7839 39.6346 27.4119 39.6346 26.9492H39.1346ZM40.4615 25.6144C39.727 25.6144 39.1346 26.2137 39.1346 26.9492H39.6346C39.6346 26.4864 40.0065 26.1144 40.4615 26.1144V25.6144ZM45.8462 25.6144H40.4615V26.1144H45.8462V25.6144ZM46.0962 28.0339V25.8644H45.5962V28.0339H46.0962ZM45.8462 38.6314H40.4615V39.1314H45.8462V38.6314ZM45.5962 36.7119V38.8814H46.0962V36.7119H45.5962ZM40.4615 36.9619H45.8462V36.4619H40.4615V36.9619ZM39.6346 37.7966C39.6346 37.3339 40.0065 36.9619 40.4615 36.9619V36.4619C39.727 36.4619 39.1346 37.0612 39.1346 37.7966H39.6346ZM40.4615 38.6314C40.0065 38.6314 39.6346 38.2593 39.6346 37.7966H39.1346C39.1346 38.5321 39.727 39.1314 40.4615 39.1314V38.6314Z" fill="#936CDD"/>
</svg>
