<svg width="260" height="114" viewBox="0 0 260 114" fill="none" xmlns="http://www.w3.org/2000/svg">
<path fill-rule="evenodd" clip-rule="evenodd" d="M2.2933 0.0427999C1.03822 0.0427999 0 1.08167 0 2.33674C0 3.59247 1.03822 4.63069 2.2933 4.63069C3.54837 4.63069 4.58724 3.59247 4.58724 2.33674C4.58724 1.08167 3.59188 0.0427999 2.2933 0.0427999ZM31.1576 0C29.9025 0 28.8643 1.03822 28.8643 2.29394C28.8643 3.54837 29.9025 4.58789 31.1576 4.58789C32.4127 4.58789 33.4509 3.54837 33.4509 2.29394C33.4509 1.03822 32.4127 0 31.1576 0ZM59.9781 0C58.7237 0 57.6848 1.03822 57.6848 2.29394C57.6848 3.54837 58.7237 4.58789 59.9781 4.58789C61.2332 4.58789 62.2714 3.54837 62.2714 2.29394C62.2714 1.03822 61.2767 0 59.9781 0ZM88.8424 0C87.5873 0 86.5491 1.03822 86.5491 2.29394C86.5491 3.54837 87.5873 4.58789 88.8424 4.58789C90.0975 4.58789 91.1363 3.54837 91.1363 2.29394C91.1363 1.03822 90.0975 0 88.8424 0ZM117.663 4.63069C118.918 4.63069 119.957 3.59247 119.957 2.33674C119.957 1.08167 118.918 0.0427999 117.663 0.0427999C116.408 0.0427999 115.37 1.08167 115.37 2.33674C115.37 3.59247 116.408 4.63069 117.663 4.63069ZM2.2933 26.6209C1.03822 26.6209 0 27.6591 0 28.9149C0 30.1693 1.03822 31.2088 2.2933 31.2088C3.54837 31.2088 4.58724 30.1693 4.58724 28.9149C4.63009 27.6591 3.59188 26.6209 2.2933 26.6209ZM31.1576 26.6209C29.9025 26.6209 28.8643 27.6591 28.8643 28.9149C28.8643 30.1693 29.9025 31.2088 31.1576 31.2088C32.4127 31.2088 33.4509 30.1693 33.4509 28.9149C33.4509 27.6591 32.4127 26.6209 31.1576 26.6209ZM59.9781 26.6209C58.7237 26.6209 57.6848 27.6591 57.6848 28.9149C57.6848 30.1693 58.7237 31.2088 59.9781 31.2088C61.2332 31.2088 62.2714 30.1693 62.2714 28.9149C62.3149 27.6591 61.2767 26.6209 59.9781 26.6209ZM88.8424 26.6209C87.5873 26.6209 86.5491 27.6591 86.5491 28.9149C86.5491 30.1693 87.5873 31.2088 88.8424 31.2088C90.0975 31.2088 91.1363 30.1693 91.1363 28.9149C91.1363 27.6591 90.1403 26.6209 88.8424 26.6209ZM117.707 26.6209C116.452 26.6209 115.413 27.6591 115.413 28.9149C115.413 30.1693 116.452 31.2088 117.707 31.2088C118.962 31.2088 120 30.1693 120 28.9149C120 27.6591 118.962 26.6209 117.707 26.6209ZM2.2933 54.0203C1.03822 54.0203 0 55.0592 0 56.3149C0 57.57 1.03822 58.6089 2.2933 58.6089C3.54837 58.6089 4.58724 57.57 4.58724 56.3149C4.63009 55.0592 3.59188 54.0203 2.2933 54.0203ZM31.1576 54.0203C29.9025 54.0203 28.8643 55.0592 28.8643 56.3149C28.8643 57.57 29.9025 58.6089 31.1576 58.6089C32.4127 58.6089 33.4509 57.57 33.4509 56.3149C33.4509 55.0592 32.4127 54.0203 31.1576 54.0203ZM60.0219 54.0203C58.7668 54.0203 57.7279 55.0592 57.7279 56.3149C57.7279 57.57 58.7668 58.6089 60.0219 58.6089C61.2769 58.6089 62.3152 57.57 62.3152 56.3149C62.3152 55.0592 61.2769 54.0203 60.0219 54.0203ZM88.8424 54.0203C87.5873 54.0203 86.5491 55.0592 86.5491 56.3149C86.5491 57.57 87.5873 58.6089 88.8424 58.6089C90.0975 58.6089 91.1363 57.57 91.1363 56.3149C91.1363 55.0592 90.1403 54.0203 88.8424 54.0203ZM117.707 54.0203C116.452 54.0203 115.413 55.0592 115.413 56.3149C115.413 57.57 116.452 58.6089 117.707 58.6089C118.962 58.6089 120 57.57 120 56.3149C120 55.0592 118.962 54.0203 117.707 54.0203ZM2.33673 80.6413C1.08165 80.6413 0.043434 81.6801 0.043434 82.9359C0.043434 84.1909 1.08165 85.2298 2.33673 85.2298C3.59181 85.2298 4.63003 84.1909 4.63003 82.9359C4.63003 81.6801 3.59181 80.6413 2.33673 80.6413ZM31.1576 80.6413C29.9025 80.6413 28.8643 81.6801 28.8643 82.9359C28.8643 84.1909 29.9025 85.2298 31.1576 85.2298C32.4127 85.2298 33.4509 84.1909 33.4509 82.9359C33.4509 81.6801 32.4562 80.6413 31.1576 80.6413ZM60.0219 80.6413C58.7668 80.6413 57.7279 81.6801 57.7279 82.9359C57.7279 84.1909 58.7668 85.2298 60.0219 85.2298C61.2769 85.2298 62.3152 84.1909 62.3152 82.9359C62.3152 81.6801 61.2769 80.6413 60.0219 80.6413ZM88.8424 80.6413C87.5873 80.6413 86.5491 81.6801 86.5491 82.9359C86.5491 84.1909 87.5873 85.2298 88.8424 85.2298C90.0975 85.2298 91.1363 84.1909 91.1363 82.9359C91.1792 81.6801 90.1403 80.6413 88.8424 80.6413ZM117.707 80.6413C116.452 80.6413 115.413 81.6801 115.413 82.9359C115.413 84.1909 116.452 85.2298 117.707 85.2298C118.962 85.2298 120 84.1909 120 82.9359C120 81.6801 118.962 80.6413 117.707 80.6413ZM2.33673 108.821C1.08165 108.821 0.043434 109.859 0.043434 111.115C0.043434 112.37 1.08165 113.409 2.33673 113.409C3.59181 113.409 4.63003 112.37 4.63003 111.115C4.63003 109.859 3.59181 108.821 2.33673 108.821ZM31.1576 108.821C29.9025 108.821 28.8643 109.859 28.8643 111.115C28.8643 112.37 29.9025 113.409 31.1576 113.409C32.4127 113.409 33.4509 112.37 33.4509 111.115C33.4944 109.859 32.4562 108.821 31.1576 108.821ZM60.0219 108.821C58.7668 108.821 57.7279 109.859 57.7279 111.115C57.7279 112.37 58.7668 113.409 60.0219 113.409C61.2769 113.409 62.3152 112.37 62.3152 111.115C62.3152 109.859 61.2769 108.821 60.0219 108.821ZM88.8424 108.821C87.5873 108.821 86.5491 109.859 86.5491 111.115C86.5491 112.37 87.5873 113.409 88.8424 113.409C90.0975 113.409 91.1363 112.37 91.1363 111.115C91.1792 109.859 90.1403 108.821 88.8424 108.821ZM117.707 108.821C116.452 108.821 115.413 109.859 115.413 111.115C115.413 112.37 116.452 113.409 117.707 113.409C118.962 113.409 120 112.37 120 111.115C120 109.859 118.962 108.821 117.707 108.821ZM142.293 0.0427246C141.038 0.0427246 140 1.08159 140 2.33667C140 3.5924 141.038 4.63061 142.293 4.63061C143.548 4.63061 144.587 3.5924 144.587 2.33667C144.587 1.08159 143.592 0.0427246 142.293 0.0427246ZM171.158 0C169.902 0 168.864 1.03822 168.864 2.29394C168.864 3.54837 169.902 4.58789 171.158 4.58789C172.413 4.58789 173.451 3.54837 173.451 2.29394C173.451 1.03822 172.413 0 171.158 0ZM199.978 0C198.723 0 197.685 1.03822 197.685 2.29394C197.685 3.54837 198.723 4.58789 199.978 4.58789C201.233 4.58789 202.271 3.54837 202.271 2.29394C202.271 1.03822 201.276 0 199.978 0ZM228.843 0C227.588 0 226.549 1.03822 226.549 2.29394C226.549 3.54837 227.588 4.58789 228.843 4.58789C230.098 4.58789 231.137 3.54837 231.137 2.29394C231.137 1.03822 230.098 0 228.843 0ZM257.663 4.63061C258.918 4.63061 259.957 3.5924 259.957 2.33667C259.957 1.08159 258.918 0.0427246 257.663 0.0427246C256.408 0.0427246 255.37 1.08159 255.37 2.33667C255.37 3.5924 256.408 4.63061 257.663 4.63061ZM142.293 26.6208C141.038 26.6208 140 27.6591 140 28.9148C140 30.1692 141.038 31.2087 142.293 31.2087C143.548 31.2087 144.587 30.1692 144.587 28.9148C144.63 27.6591 143.592 26.6208 142.293 26.6208ZM171.158 26.6208C169.902 26.6208 168.864 27.6591 168.864 28.9148C168.864 30.1692 169.902 31.2087 171.158 31.2087C172.413 31.2087 173.451 30.1692 173.451 28.9148C173.451 27.6591 172.413 26.6208 171.158 26.6208ZM199.978 26.6208C198.723 26.6208 197.685 27.6591 197.685 28.9148C197.685 30.1692 198.723 31.2087 199.978 31.2087C201.233 31.2087 202.271 30.1692 202.271 28.9148C202.315 27.6591 201.276 26.6208 199.978 26.6208ZM228.843 26.6208C227.588 26.6208 226.549 27.6591 226.549 28.9148C226.549 30.1692 227.588 31.2087 228.843 31.2087C230.098 31.2087 231.137 30.1692 231.137 28.9148C231.137 27.6591 230.141 26.6208 228.843 26.6208ZM257.707 26.6208C256.452 26.6208 255.414 27.6591 255.414 28.9148C255.414 30.1692 256.452 31.2087 257.707 31.2087C258.962 31.2087 260 30.1692 260 28.9148C260 27.6591 258.962 26.6208 257.707 26.6208ZM142.293 54.0203C141.038 54.0203 140 55.0591 140 56.3149C140 57.5699 141.038 58.6088 142.293 58.6088C143.548 58.6088 144.587 57.5699 144.587 56.3149C144.63 55.0591 143.592 54.0203 142.293 54.0203ZM171.158 54.0203C169.902 54.0203 168.864 55.0591 168.864 56.3149C168.864 57.5699 169.902 58.6088 171.158 58.6088C172.413 58.6088 173.451 57.5699 173.451 56.3149C173.451 55.0591 172.413 54.0203 171.158 54.0203ZM200.022 54.0203C198.767 54.0203 197.728 55.0591 197.728 56.3149C197.728 57.5699 198.767 58.6088 200.022 58.6088C201.277 58.6088 202.315 57.5699 202.315 56.3149C202.315 55.0591 201.277 54.0203 200.022 54.0203ZM228.843 54.0203C227.588 54.0203 226.549 55.0591 226.549 56.3149C226.549 57.5699 227.588 58.6088 228.843 58.6088C230.098 58.6088 231.137 57.5699 231.137 56.3149C231.137 55.0591 230.141 54.0203 228.843 54.0203ZM257.707 54.0203C256.452 54.0203 255.414 55.0591 255.414 56.3149C255.414 57.5699 256.452 58.6088 257.707 58.6088C258.962 58.6088 260 57.5699 260 56.3149C260 55.0591 258.962 54.0203 257.707 54.0203ZM142.337 80.6414C141.082 80.6414 140.043 81.6802 140.043 82.936C140.043 84.191 141.082 85.2299 142.337 85.2299C143.592 85.2299 144.63 84.191 144.63 82.936C144.63 81.6802 143.592 80.6414 142.337 80.6414ZM171.158 80.6414C169.902 80.6414 168.864 81.6802 168.864 82.936C168.864 84.191 169.902 85.2299 171.158 85.2299C172.413 85.2299 173.451 84.191 173.451 82.936C173.451 81.6802 172.456 80.6414 171.158 80.6414ZM200.022 80.6414C198.767 80.6414 197.728 81.6802 197.728 82.936C197.728 84.191 198.767 85.2299 200.022 85.2299C201.277 85.2299 202.315 84.191 202.315 82.936C202.315 81.6802 201.277 80.6414 200.022 80.6414ZM228.843 80.6414C227.588 80.6414 226.549 81.6802 226.549 82.936C226.549 84.191 227.588 85.2299 228.843 85.2299C230.098 85.2299 231.137 84.191 231.137 82.936C231.179 81.6802 230.141 80.6414 228.843 80.6414ZM257.707 80.6414C256.452 80.6414 255.414 81.6802 255.414 82.936C255.414 84.191 256.452 85.2299 257.707 85.2299C258.962 85.2299 260 84.191 260 82.936C260 81.6802 258.962 80.6414 257.707 80.6414ZM142.337 108.821C141.082 108.821 140.043 109.859 140.043 111.115C140.043 112.37 141.082 113.409 142.337 113.409C143.592 113.409 144.63 112.37 144.63 111.115C144.63 109.859 143.592 108.821 142.337 108.821ZM171.158 108.821C169.902 108.821 168.864 109.859 168.864 111.115C168.864 112.37 169.902 113.409 171.158 113.409C172.413 113.409 173.451 112.37 173.451 111.115C173.494 109.859 172.456 108.821 171.158 108.821ZM200.022 108.821C198.767 108.821 197.728 109.859 197.728 111.115C197.728 112.37 198.767 113.409 200.022 113.409C201.277 113.409 202.315 112.37 202.315 111.115C202.315 109.859 201.277 108.821 200.022 108.821ZM228.843 108.821C227.588 108.821 226.549 109.859 226.549 111.115C226.549 112.37 227.588 113.409 228.843 113.409C230.098 113.409 231.137 112.37 231.137 111.115C231.179 109.859 230.141 108.821 228.843 108.821ZM257.707 108.821C256.452 108.821 255.414 109.859 255.414 111.115C255.414 112.37 256.452 113.409 257.707 113.409C258.962 113.409 260 112.37 260 111.115C260 109.859 258.962 108.821 257.707 108.821Z" fill="#6BDD93"/>
</svg>
