<svg width="48" height="48" viewBox="0 0 48 48" fill="none" xmlns="http://www.w3.org/2000/svg">
<g clip-path="url(#clip0_510_436)">
<path d="M25.9999 2.00026C25.9999 1.46983 26.2107 0.961124 26.5857 0.586051C26.9608 0.210978 27.4695 0.000264248 27.9999 0.000264248C33.3025 0.00608744 38.3862 2.11509 42.1356 5.86456C45.8851 9.61403 47.9941 14.6977 47.9999 20.0003C47.9999 20.5307 47.7892 21.0394 47.4141 21.4145C47.0391 21.7896 46.5303 22.0003 45.9999 22.0003C45.4695 22.0003 44.9608 21.7896 44.5857 21.4145C44.2106 21.0394 43.9999 20.5307 43.9999 20.0003C43.9952 15.7583 42.3079 11.6914 39.3084 8.69182C36.3088 5.69227 32.2419 4.00503 27.9999 4.00026C27.4695 4.00026 26.9608 3.78955 26.5857 3.41448C26.2107 3.03941 25.9999 2.5307 25.9999 2.00026ZM27.9999 12.0003C30.1217 12.0003 32.1565 12.8431 33.6568 14.3434C35.1571 15.8437 35.9999 17.8785 35.9999 20.0003C35.9999 20.5307 36.2106 21.0394 36.5857 21.4145C36.9608 21.7896 37.4695 22.0003 37.9999 22.0003C38.5304 22.0003 39.0391 21.7896 39.4141 21.4145C39.7892 21.0394 39.9999 20.5307 39.9999 20.0003C39.9967 16.8186 38.7314 13.7682 36.4817 11.5185C34.232 9.26874 31.1816 8.00344 27.9999 8.00027C27.4695 8.00027 26.9608 8.21098 26.5857 8.58605C26.2107 8.96112 25.9999 9.46983 25.9999 10.0003C25.9999 10.5307 26.2107 11.0394 26.5857 11.4145C26.9608 11.7896 27.4695 12.0003 27.9999 12.0003ZM46.1859 33.4783C47.3449 34.6405 47.9958 36.2149 47.9958 37.8563C47.9958 39.4976 47.3449 41.072 46.1859 42.2343L44.3659 44.3323C27.9859 60.0143 -11.874 20.1643 3.56597 3.73226L5.86596 1.73226C7.0295 0.605619 8.58982 -0.0176376 10.2094 -0.00266607C11.8289 0.0123055 13.3774 0.664301 14.52 1.81226C14.582 1.87426 18.288 6.68827 18.288 6.68827C19.3876 7.84352 19.9998 9.37812 19.9972 10.9731C19.9945 12.568 19.3774 14.1006 18.274 15.2523L15.958 18.1643C17.2396 21.2785 19.1241 24.1088 21.503 26.4925C23.8819 28.8762 26.7083 30.7663 29.8199 32.0543L32.7499 29.7243C33.9017 28.6217 35.4341 28.0053 37.0285 28.003C38.623 28.0008 40.157 28.6129 41.3119 29.7123C41.3119 29.7123 46.1239 33.4163 46.1859 33.4783ZM43.4339 36.3863C43.4339 36.3863 38.6479 32.7043 38.5859 32.6423C38.1739 32.2337 37.6172 32.0045 37.0369 32.0045C36.4567 32.0045 35.9 32.2337 35.4879 32.6423C35.4339 32.6983 31.3999 35.9123 31.3999 35.9123C31.1281 36.1287 30.8046 36.2705 30.4612 36.3238C30.1179 36.3771 29.7666 36.34 29.4419 36.2163C25.4109 34.7154 21.7494 32.3657 18.7056 29.3264C15.6618 26.2871 13.3068 22.6291 11.8 18.6003C11.6664 18.2712 11.6228 17.9124 11.6738 17.5609C11.7247 17.2094 11.8684 16.8779 12.09 16.6003C12.09 16.6003 15.304 12.5643 15.358 12.5123C15.7665 12.1002 15.9957 11.5435 15.9957 10.9633C15.9957 10.383 15.7665 9.82629 15.358 9.41426C15.296 9.35427 11.614 4.56426 11.614 4.56426C11.1958 4.18928 10.65 3.98846 10.0885 4.00296C9.52694 4.01746 8.99225 4.24619 8.59396 4.64226L6.29396 6.64227C-4.99002 20.2103 29.5519 52.8363 41.4419 41.6003L43.2639 39.5003C43.6909 39.1048 43.9473 38.5588 43.979 37.9777C44.0108 37.3966 43.8153 36.8259 43.4339 36.3863Z" fill="#6BDD93"/>
</g>
<defs>
<clipPath id="clip0_510_436">
<rect width="48" height="48" fill="white"/>
</clipPath>
</defs>
</svg>
