<svg width="48" height="48" viewBox="0 0 48 48" fill="none" xmlns="http://www.w3.org/2000/svg">
<g clip-path="url(#clip0_510_446)">
<path d="M24.0005 0C19.6426 9.87585e-05 15.383 1.29443 11.7617 3.71884C8.14053 6.14324 5.32091 9.58849 3.66049 13.6176C2.00007 17.6468 1.57366 22.0783 2.43535 26.3501C3.29703 30.6219 5.40799 34.5416 8.50049 37.612L16.3865 44.894C18.4135 46.8781 21.1349 47.9926 23.9714 48.0001C26.8078 48.0076 29.5351 46.9074 31.5725 44.934L39.5565 37.556C42.6331 34.4793 44.7283 30.5593 45.5771 26.2918C46.4259 22.0243 45.9902 17.6009 44.3252 13.5811C42.6601 9.56117 39.8404 6.12529 36.2227 3.70789C32.6049 1.29049 28.3516 0.000138118 24.0005 0V0ZM36.7845 34.674L28.8165 42.036C27.5063 43.2704 25.7724 43.9548 23.9723 43.9481C22.1723 43.9414 20.4434 43.2441 19.1425 42L11.2725 34.728C9.17939 32.6349 7.6348 30.0579 6.77554 27.2252C5.91628 24.3926 5.76887 21.3917 6.34636 18.4885C6.92386 15.5853 8.20843 12.8693 10.0863 10.5811C11.9642 8.29288 14.3774 6.50312 17.1122 5.37033C19.8469 4.23755 22.8189 3.79669 25.7647 4.08683C28.7106 4.37696 31.5394 5.38912 34.0007 7.03365C36.4619 8.67819 38.4796 10.9043 39.875 13.5149C41.2704 16.1255 42.0005 19.0399 42.0005 22C42.0093 24.3521 41.553 26.6827 40.6578 28.8577C39.7627 31.0328 38.4463 33.0095 36.7845 34.674ZM33.4205 15.326L27.4205 11.164C26.4153 10.4694 25.2224 10.0973 24.0005 10.0973C22.7786 10.0973 21.5857 10.4694 20.5805 11.164L14.5805 15.326C13.7843 15.8783 13.1337 16.6153 12.6844 17.4738C12.2351 18.3324 12.0005 19.287 12.0005 20.256V27C12.0005 28.3261 12.5273 29.5979 13.465 30.5355C14.4026 31.4732 15.6744 32 17.0005 32H31.0005C32.3266 32 33.5983 31.4732 34.536 30.5355C35.4737 29.5979 36.0005 28.3261 36.0005 27V20.256C36.0005 19.287 35.7658 18.3324 35.3165 17.4738C34.8672 16.6153 34.2167 15.8783 33.4205 15.326ZM32.0005 27C32.0005 27.2652 31.8951 27.5196 31.7076 27.7071C31.5201 27.8946 31.2657 28 31.0005 28H28.0005V24C28.0005 23.4696 27.7898 22.9609 27.4147 22.5858C27.0396 22.2107 26.5309 22 26.0005 22H22.0005C21.4701 22 20.9613 22.2107 20.5863 22.5858C20.2112 22.9609 20.0005 23.4696 20.0005 24V28H17.0005C16.7353 28 16.4809 27.8946 16.2934 27.7071C16.1058 27.5196 16.0005 27.2652 16.0005 27V20.256C16.0004 19.9329 16.0785 19.6146 16.2283 19.3282C16.3781 19.0419 16.595 18.7962 16.8605 18.612L22.8605 14.45C23.1959 14.2194 23.5934 14.0959 24.0005 14.0959C24.4076 14.0959 24.8051 14.2194 25.1405 14.45L31.1405 18.612C31.406 18.7962 31.6229 19.0419 31.7727 19.3282C31.9224 19.6146 32.0006 19.9329 32.0005 20.256V27Z" fill="#6BDD93"/>
</g>
<defs>
<clipPath id="clip0_510_446">
<rect width="48" height="48" fill="white"/>
</clipPath>
</defs>
</svg>
