<svg width="60" height="60" viewBox="0 0 60 60" fill="none" xmlns="http://www.w3.org/2000/svg">
<circle cx="30" cy="30" r="30" fill="#D9D9D9"/>
<path d="M43.9999 27H26.4139L31.2919 22.122C31.8547 21.5595 32.171 20.7964 32.1712 20.0007C32.1714 19.205 31.8554 18.4418 31.2929 17.879C30.7304 17.3162 29.9673 16.9999 29.1716 16.9997C28.3759 16.9995 27.6127 17.3155 27.0499 17.878L19.8779 25.05C18.5675 26.364 17.8315 28.1442 17.8315 30C17.8315 31.8558 18.5675 33.6359 19.8779 34.95L27.0499 42.122C27.6127 42.6845 28.3759 43.0004 29.1716 43.0002C29.9673 43 30.7304 42.6838 31.2929 42.121C31.8554 41.5582 32.1714 40.795 32.1712 39.9993C32.171 39.2036 31.8547 38.4405 31.2919 37.878L26.4139 33H43.9999C44.7956 33 45.5586 32.6839 46.1212 32.1213C46.6838 31.5587 46.9999 30.7956 46.9999 30C46.9999 29.2043 46.6838 28.4413 46.1212 27.8787C45.5586 27.316 44.7956 27 43.9999 27Z" fill="#374957"/>
</svg>
