<svg width="157" height="32" viewBox="0 0 157 32" fill="none" xmlns="http://www.w3.org/2000/svg">
<g clip-path="url(#clip0_482_1401)">
<path d="M49.82 27V7.26H59.508C61.7853 7.26 63.5027 7.82 64.66 8.94C65.8173 10.0413 66.396 11.544 66.396 13.448C66.396 15.3333 65.8173 16.836 64.66 17.956C63.5027 19.076 61.7853 19.636 59.508 19.636H55V27H49.82ZM55 15.66H58.836C59.7133 15.66 60.3667 15.4733 60.796 15.1C61.2253 14.708 61.44 14.1573 61.44 13.448C61.44 12.7387 61.2253 12.188 60.796 11.796C60.3667 11.404 59.7133 11.208 58.836 11.208H55V15.66ZM76.3806 27.308C74.794 27.308 73.282 27.1213 71.8446 26.748C70.426 26.356 69.2313 25.8333 68.2606 25.18L69.7166 21.176C70.3326 21.568 71.0046 21.904 71.7326 22.184C72.4606 22.464 73.2166 22.688 74.0006 22.856C74.8033 23.0053 75.6153 23.08 76.4366 23.08C77.6686 23.08 78.518 22.9213 78.9846 22.604C79.47 22.2867 79.7126 21.876 79.7126 21.372C79.7126 20.924 79.554 20.5787 79.2366 20.336C78.9193 20.0747 78.322 19.8507 77.4446 19.664L74.0286 18.964C72.218 18.5907 70.8646 17.9467 69.9686 17.032C69.0726 16.0987 68.6246 14.8853 68.6246 13.392C68.6246 12.0853 68.97 10.956 69.6606 10.004C70.37 9.03333 71.3593 8.28667 72.6286 7.764C73.898 7.22267 75.382 6.952 77.0806 6.952C78.4806 6.952 79.7966 7.148 81.0286 7.54C82.2606 7.91333 83.2686 8.436 84.0526 9.108L82.5966 12.86C81.85 12.3187 81.01 11.908 80.0766 11.628C79.1433 11.3293 78.1073 11.18 76.9686 11.18C75.886 11.18 75.0646 11.348 74.5046 11.684C73.9633 12.0013 73.6926 12.4587 73.6926 13.056C73.6926 13.4667 73.8513 13.8213 74.1686 14.12C74.5046 14.4 75.1113 14.6333 75.9886 14.82L79.3486 15.492C81.1593 15.8467 82.5126 16.4813 83.4086 17.396C84.3233 18.3107 84.7806 19.5053 84.7806 20.98C84.7806 22.2493 84.426 23.36 83.7166 24.312C83.026 25.264 82.0553 26.0013 80.8046 26.524C79.554 27.0467 78.0793 27.308 76.3806 27.308ZM87.7458 27V7.26H92.9258V14.876H100.878V7.26H106.058V27H100.878V19.104H92.9258V27H87.7458ZM109.703 27V7.26H119.027C121.304 7.26 123.059 7.80133 124.291 8.884C125.541 9.96667 126.167 11.4693 126.167 13.392C126.167 14.68 125.887 15.7813 125.327 16.696C124.767 17.592 123.955 18.292 122.891 18.796C121.827 19.2813 120.557 19.524 119.083 19.524L119.335 18.824H120.735C121.556 18.824 122.284 19.048 122.919 19.496C123.553 19.944 124.076 20.5693 124.487 21.372L127.483 27H121.827L118.607 20.7C118.401 20.2893 118.093 20.0093 117.683 19.86C117.291 19.7107 116.843 19.636 116.339 19.636H114.883V27H109.703ZM114.883 15.968H118.131C119.139 15.968 119.904 15.772 120.427 15.38C120.949 14.9693 121.211 14.3627 121.211 13.56C121.211 12.776 120.949 12.188 120.427 11.796C119.904 11.404 119.139 11.208 118.131 11.208H114.883V15.968Z" fill="#F8F8F8"/>
<path fill-rule="evenodd" clip-rule="evenodd" d="M30.0433 32H6.36498C2.8577 32 0 29.2923 0 25.9691L0 6.03086C0 2.70768 2.8577 0 6.36498 0L30.0433 0C33.5506 0 36.4086 2.70768 36.4086 6.03086V25.9691C36.4086 29.2923 33.5506 32 30.0433 32Z" fill="#F8F8F8"/>
<g clip-path="url(#clip1_482_1401)">
<path d="M22.0691 14.0945L17.7283 10.9115C17.3893 10.6633 16.9881 10.5137 16.5693 10.4795C16.1505 10.4453 15.7303 10.5277 15.3555 10.7176C14.9806 10.9075 14.6657 11.1975 14.4456 11.5555C14.2254 11.9135 14.1087 12.3254 14.1084 12.7456V19.1148C14.1077 19.5355 14.2238 19.948 14.4437 20.3066C14.6637 20.6652 14.9788 20.9557 15.354 21.1458C15.7292 21.3359 16.1498 21.4182 16.569 21.3834C16.9882 21.3486 17.3895 21.1982 17.7283 20.9489L22.0691 17.7659C22.3572 17.5545 22.5914 17.2783 22.7528 16.9596C22.9142 16.6409 22.9984 16.2886 22.9984 15.9314C22.9984 15.5741 22.9142 15.2218 22.7528 14.9031C22.5914 14.5844 22.3572 14.3082 22.0691 14.0968V14.0945Z" fill="#10172A"/>
</g>
</g>
<defs>
<clipPath id="clip0_482_1401">
<rect width="157" height="32" fill="white"/>
</clipPath>
<clipPath id="clip1_482_1401">
<rect width="10.9226" height="10.9226" fill="white" transform="translate(12.7432 10.4675)"/>
</clipPath>
</defs>
</svg>
