<svg width="304" height="50" viewBox="0 0 304 50" fill="none" xmlns="http://www.w3.org/2000/svg">
<g clip-path="url(#clip0_482_1432)">
<path fill-rule="evenodd" clip-rule="evenodd" d="M125.663 37.8483L127.99 17.7656H120.055L120.565 13.3713H140.705L140.197 17.7656H132.262L129.933 37.8483H125.663Z" fill="#10172A"/>
<path fill-rule="evenodd" clip-rule="evenodd" d="M195.862 25.154H203.226C205.205 25.154 207.003 23.504 207.238 21.4713C207.352 20.479 207.083 19.5463 206.474 18.8444C206.173 18.4983 205.801 18.2226 205.385 18.0364C204.968 17.8501 204.517 17.7577 204.062 17.7656H196.72L195.862 25.154ZM205.337 37.8483L205.593 35.6656C205.87 33.2752 205.074 31.0406 203.41 29.5367H203.272C203.056 29.5367 202.876 29.5444 202.697 29.5444H195.352L194.389 37.8483H190.121L192.958 13.3713H204.594C206.679 13.3713 208.548 14.204 209.854 15.7175C211.173 17.2483 211.76 19.281 211.51 21.4483C211.235 23.829 209.952 26.0829 207.996 27.629L207.92 27.6867L207.974 27.7636C209.528 29.9636 210.2 32.7617 209.869 35.6425L209.611 37.8483H205.339H205.337Z" fill="#10172A"/>
<path fill-rule="evenodd" clip-rule="evenodd" d="M180.475 37.8483L180.729 35.6675C181.075 32.6675 179.696 29.8906 177.211 28.5886C175.471 29.2194 173.775 29.5463 172.104 29.5463C171.984 29.5456 171.864 29.5424 171.744 29.5367L171.656 29.5329L171.552 29.6175L170.601 37.8483H166.329L169.166 13.3713H173.436L172.075 25.129L172.341 25.1425C172.437 25.1502 172.536 25.154 172.634 25.154C177.77 25.154 182.444 20.8598 183.056 15.581L183.314 13.3713H187.583L187.329 15.556C186.875 19.4906 184.792 23.2733 181.617 25.9329L181.53 26.004L181.614 26.081C184.2 28.4194 185.434 31.9079 185 35.6444L184.744 37.8502H180.475V37.8483Z" fill="#10172A"/>
<path fill-rule="evenodd" clip-rule="evenodd" d="M262.437 37.8483L265.274 13.3713H269.543L266.706 37.8483H262.437Z" fill="#10172A"/>
<path fill-rule="evenodd" clip-rule="evenodd" d="M275.138 13.3713L272.349 37.4521C271.932 41.0482 268.748 43.9771 265.247 43.9771L264.717 48.3694C270.582 48.3694 275.923 43.4617 276.624 37.4271L279.408 13.3694H275.136L275.138 13.3713Z" fill="#10172A"/>
<path fill-rule="evenodd" clip-rule="evenodd" d="M227.228 17.7656C224.139 17.7656 221.329 20.3483 220.959 23.5233L220.51 27.3983H231.735L232.182 23.5483C232.361 22.0002 231.936 20.5425 230.994 19.4483C230.056 18.3618 228.72 17.7656 227.228 17.7656ZM230.524 37.8483L231.227 31.7887H220.004L219.299 37.8483H215.029L216.686 23.5483C217.338 17.9368 222.303 13.3733 227.759 13.3733C230.38 13.3733 232.724 14.4194 234.371 16.3214C236.03 18.2444 236.771 20.8021 236.456 23.5233L234.796 37.8502H230.524V37.8483Z" fill="#10172A"/>
<path fill-rule="evenodd" clip-rule="evenodd" d="M294.107 17.7656C291.018 17.7656 288.207 20.3483 287.84 23.5233L287.39 27.3983H298.615L299.061 23.5483C299.239 22.0002 298.82 20.5425 297.873 19.4483C296.936 18.3618 295.598 17.7656 294.107 17.7656ZM297.404 37.8483L298.106 31.7887H286.883L286.178 37.8483H281.908L283.564 23.5483C284.216 17.9368 289.183 13.3733 294.639 13.3733C297.259 13.3733 299.607 14.4194 301.25 16.3214C302.912 18.2444 303.651 20.8021 303.334 23.5233L301.674 37.8502H297.403L297.404 37.8483Z" fill="#10172A"/>
<path fill-rule="evenodd" clip-rule="evenodd" d="M249.089 37.8483C246.449 37.8483 244.092 36.7925 242.45 34.8752C240.809 32.9598 240.081 30.4079 240.394 27.6983L240.874 23.5483C241.186 20.831 242.515 18.2752 244.607 16.3502C246.699 14.4329 249.305 13.3713 251.947 13.3713C254.583 13.3713 256.941 14.429 258.582 16.3444L259.911 17.8925L256.52 21.0079L255.193 19.4579C254.259 18.3636 252.917 17.7656 251.415 17.7656C249.917 17.7656 248.439 18.3636 247.258 19.4521C246.092 20.506 245.341 21.953 245.145 23.5252L244.666 27.6733C244.486 29.2175 244.903 30.6694 245.841 31.7617C246.773 32.8579 248.115 33.456 249.618 33.456C251.115 33.456 252.593 32.8579 253.776 31.7694L255.47 30.2117L258.123 33.3079L256.427 34.8656C254.337 36.7886 251.729 37.8483 249.087 37.8483" fill="#10172A"/>
<path fill-rule="evenodd" clip-rule="evenodd" d="M153.696 17.7656C152.203 17.7656 150.726 18.3656 149.544 19.4502C148.377 20.504 147.626 21.951 147.431 23.5233L146.949 27.6733C146.771 29.2175 147.186 30.6694 148.122 31.7617C149.058 32.856 150.402 33.454 151.903 33.454C153.4 33.454 154.869 32.8579 156.053 31.7694C157.219 30.716 157.969 29.2697 158.165 27.6983L158.646 23.5483C158.824 22.004 158.407 20.554 157.475 19.4579C156.539 18.3656 155.191 17.7656 153.696 17.7656ZM151.371 37.8483C148.732 37.8483 146.377 36.7925 144.734 34.8771C143.091 32.9598 142.361 30.4136 142.676 27.6983L143.155 23.5483C143.472 20.831 144.796 18.2752 146.888 16.3521C148.983 14.429 151.588 13.3713 154.23 13.3713C156.861 13.3713 159.22 14.429 160.862 16.3444C162.503 18.2617 163.234 20.8098 162.918 23.5233L162.44 27.6733C162.124 30.3944 160.797 32.9483 158.707 34.8656C156.614 36.7906 154.012 37.8483 151.371 37.8483Z" fill="#10172A"/>
<path fill-rule="evenodd" clip-rule="evenodd" d="M96.9019 37.8483L99.7389 13.3713H115.939L115.429 17.7656H103.499L102.845 23.4175H113.477L112.967 27.804H102.337L101.681 33.4579H113.611L113.1 37.8483H96.9019Z" fill="#10172A"/>
<path fill-rule="evenodd" clip-rule="evenodd" d="M75.8714 21.5961L73.9876 37.848H69.7178L72.5927 13.3711H76.2826L87.9606 29.6211L89.8444 13.3711H94.0763L91.2392 37.848H87.5512L75.8714 21.5961Z" fill="#10172A"/>
<path fill-rule="evenodd" clip-rule="evenodd" d="M29.6482 17.6077C29.6482 18.8558 29.1384 19.9788 28.3254 20.7769C29.4246 21.3154 30.5237 21.8635 31.6173 22.4288C35.762 24.575 40.0412 26.7942 43.9927 27.3981C46.2365 27.7385 49.2214 27.9038 52.3276 25.6865C52.4758 25.581 52.6211 25.4713 52.7635 25.3577C52.7654 25.2865 52.771 34.0385 44.1348 33.2519C44.0287 33.2423 43.9169 33.2212 43.8088 33.2058C44.1139 33.8096 44.3054 34.4885 44.3035 35.2173C44.3035 36.0385 44.0666 36.7942 43.6838 37.4519C45.7078 37.6154 48.4975 37.625 51.5771 35.3308C51.5468 35.5808 51.6207 43.5231 43.1323 43.2519C39.2093 43.1212 34.4657 40.9904 29.8775 38.9365C22.8029 35.7635 16.1679 32.5846 10.0352 35.4115C9.26004 35.7673 8.5323 36.2192 7.84435 36.7519C7.83867 36.6481 8.17032 26.85 17.9645 28.1654C21.5748 28.6519 25.765 30.675 29.8206 32.6308C31.4031 33.3923 33.0045 34.1596 34.5983 34.8577C34.7579 35.7487 35.2193 36.555 35.9028 37.1373C36.5863 37.7195 37.4489 38.041 38.3413 38.0462C39.3173 38.0462 40.1985 37.6577 40.8713 37.0365C41.6521 36.3192 42.1525 35.2865 42.1525 34.1269C42.1525 33.6769 42.0634 33.2519 41.9288 32.8519V32.8538C41.6793 32.0869 41.1988 31.4188 40.5552 30.9438C39.9115 30.4687 39.1372 30.2105 38.3413 30.2058C37.587 30.2058 36.8896 30.4365 36.2983 30.825C34.8478 30.1733 33.4073 29.4988 31.9773 28.8019C27.6753 26.725 23.2255 24.5846 19.0467 24.0212C15.0858 23.4865 11.7143 24.2846 9.08189 26.3077C9.07052 26.2115 9.18423 16.7346 18.9329 17.5192C19.3025 17.5519 19.6815 17.6154 20.0625 17.6808C20.5476 19.2769 21.9766 20.4404 23.686 20.4404C24.5388 20.4404 25.3158 20.1404 25.9507 19.6519C26.43 19.2867 26.8191 18.8134 27.0871 18.2694C27.3552 17.7253 27.4949 17.1255 27.4953 16.5173C27.4902 16.1523 27.4347 15.7898 27.3304 15.4404C27.3323 15.4519 27.338 15.4596 27.3418 15.4731C26.8945 13.8192 25.4371 12.5962 23.686 12.5962C22.7422 12.5962 21.8894 12.9615 21.2242 13.5462C20.7597 13.4611 20.2918 13.3963 19.8218 13.3519C15.5823 13.0058 13.3214 13.5519 10.327 15.8C10.327 15.8 10.2 6.53846 19.9127 6.86154C23.9362 6.99615 28.7233 9.66154 33.3494 12.2404C38.4342 15.0731 43.299 17.7885 47.7981 17.7038C50.0481 17.6638 52.2166 16.8425 53.9423 15.3769C53.9612 15.2615 53.3851 24.5038 45.1392 23.2577C41.7772 22.75 37.7538 20.6615 33.863 18.6442C32.4153 17.8887 30.9552 17.1578 29.4833 16.4519C29.5819 16.8212 29.6482 17.2058 29.6482 17.6058V17.6077ZM55.5077 2.5L55.0604 6.25H55.0225C54.3592 9.67692 52.2688 12.1731 50.531 13.0173C46.9207 14.7692 41.2087 11.5846 35.6862 8.50577C30.6905 5.725 25.5262 2.84231 20.6064 2.68269C16.6758 2.55192 13.2361 3.70385 10.6549 6.00577C8.29161 8.11538 6.82097 11.0904 6.40403 14.6154L2.5 47.3461H6.53101L6.85698 44.6192C7.40657 41.8865 9.46282 40.0212 11.2727 39.1846C15.4477 37.2615 21.734 40.0808 27.8099 42.8058C32.7108 45.0058 37.7822 47.2788 42.4367 47.4308C42.74 47.4385 43.0375 47.4423 43.335 47.4365C46.5758 47.3788 49.2858 46.3942 51.4046 44.5058C53.7414 42.425 55.1608 39.4019 55.6176 35.5211L59.5387 2.5H55.5077Z" fill="#10172A"/>
</g>
<defs>
<clipPath id="clip0_482_1432">
<rect width="303.226" height="50" fill="white"/>
</clipPath>
</defs>
</svg>
