<svg width="179" height="132" viewBox="0 0 179 132" fill="none" xmlns="http://www.w3.org/2000/svg">
<rect width="179" height="132" rx="20" fill="#F8F8F8"/>
<path d="M21.552 38.264C19.888 38.264 18.424 37.904 17.16 37.184C15.912 36.448 14.936 35.424 14.232 34.112C13.544 32.8 13.2 31.272 13.2 29.528C13.2 28.2 13.392 27.008 13.776 25.952C14.176 24.88 14.744 23.968 15.48 23.216C16.216 22.448 17.096 21.856 18.12 21.44C19.16 21.024 20.304 20.816 21.552 20.816C23.248 20.816 24.72 21.176 25.968 21.896C27.216 22.616 28.184 23.632 28.872 24.944C29.576 26.24 29.928 27.76 29.928 29.504C29.928 30.832 29.728 32.032 29.328 33.104C28.928 34.176 28.36 35.096 27.624 35.864C26.888 36.632 26.008 37.224 24.984 37.64C23.96 38.056 22.816 38.264 21.552 38.264ZM21.552 35.096C22.496 35.096 23.296 34.88 23.952 34.448C24.624 34 25.136 33.36 25.488 32.528C25.856 31.68 26.04 30.68 26.04 29.528C26.04 27.768 25.648 26.408 24.864 25.448C24.08 24.472 22.976 23.984 21.552 23.984C20.624 23.984 19.824 24.2 19.152 24.632C18.48 25.064 17.968 25.696 17.616 26.528C17.264 27.36 17.088 28.36 17.088 29.528C17.088 31.272 17.48 32.64 18.264 33.632C19.048 34.608 20.144 35.096 21.552 35.096ZM37.0056 38.264C36.3016 38.264 35.5736 38.2 34.8216 38.072C34.0856 37.944 33.4136 37.728 32.8056 37.424C32.4856 37.264 32.2536 37.064 32.1096 36.824C31.9816 36.568 31.9256 36.312 31.9416 36.056C31.9576 35.8 32.0376 35.568 32.1816 35.36C32.3416 35.152 32.5416 35.016 32.7816 34.952C33.0376 34.872 33.3176 34.896 33.6216 35.024C34.2776 35.296 34.8776 35.488 35.4216 35.6C35.9656 35.712 36.5016 35.768 37.0296 35.768C37.7176 35.768 38.2136 35.664 38.5176 35.456C38.8376 35.232 38.9976 34.944 38.9976 34.592C38.9976 34.272 38.8936 34.032 38.6856 33.872C38.4776 33.712 38.1736 33.6 37.7736 33.536L35.2536 33.08C34.2616 32.904 33.4936 32.544 32.9496 32C32.4216 31.44 32.1576 30.728 32.1576 29.864C32.1576 29.064 32.3816 28.376 32.8296 27.8C33.2776 27.208 33.8936 26.76 34.6776 26.456C35.4776 26.136 36.3816 25.976 37.3896 25.976C38.1096 25.976 38.7736 26.04 39.3816 26.168C39.9896 26.296 40.5736 26.504 41.1336 26.792C41.4216 26.936 41.6216 27.128 41.7336 27.368C41.8616 27.608 41.9016 27.856 41.8536 28.112C41.8216 28.368 41.7256 28.6 41.5656 28.808C41.4056 29.016 41.1976 29.152 40.9416 29.216C40.7016 29.28 40.4216 29.248 40.1016 29.12C39.5896 28.88 39.1176 28.712 38.6856 28.616C38.2536 28.504 37.8376 28.448 37.4376 28.448C36.7176 28.448 36.1976 28.568 35.8776 28.808C35.5576 29.032 35.3976 29.32 35.3976 29.672C35.3976 29.944 35.4856 30.176 35.6616 30.368C35.8536 30.544 36.1416 30.664 36.5256 30.728L39.0456 31.184C40.0856 31.36 40.8776 31.712 41.4216 32.24C41.9656 32.752 42.2376 33.456 42.2376 34.352C42.2376 35.568 41.7576 36.528 40.7976 37.232C39.8536 37.92 38.5896 38.264 37.0056 38.264ZM49.9729 38.264C48.8689 38.264 47.9409 38.08 47.1889 37.712C46.4529 37.344 45.9009 36.808 45.5329 36.104C45.1809 35.4 45.0049 34.512 45.0049 33.44V28.928H43.9969C43.5489 28.928 43.1969 28.808 42.9409 28.568C42.7009 28.328 42.5809 28 42.5809 27.584C42.5809 27.136 42.7009 26.8 42.9409 26.576C43.1969 26.336 43.5489 26.216 43.9969 26.216H45.0049V24.392C45.0049 23.784 45.1649 23.328 45.4849 23.024C45.8049 22.704 46.2529 22.544 46.8289 22.544C47.4209 22.544 47.8689 22.704 48.1729 23.024C48.4769 23.328 48.6289 23.784 48.6289 24.392V26.216H50.9089C51.3569 26.216 51.7009 26.336 51.9409 26.576C52.1809 26.8 52.3009 27.136 52.3009 27.584C52.3009 28 52.1809 28.328 51.9409 28.568C51.7009 28.808 51.3569 28.928 50.9089 28.928H48.6289V33.296C48.6289 33.968 48.7809 34.472 49.0849 34.808C49.4049 35.144 49.9089 35.312 50.5969 35.312C50.8369 35.312 51.0609 35.288 51.2689 35.24C51.4769 35.192 51.6689 35.16 51.8449 35.144C52.0689 35.128 52.2529 35.2 52.3969 35.36C52.5409 35.504 52.6129 35.832 52.6129 36.344C52.6129 36.728 52.5489 37.064 52.4209 37.352C52.2929 37.64 52.0689 37.848 51.7489 37.976C51.5409 38.056 51.2529 38.12 50.8849 38.168C50.5329 38.232 50.2289 38.264 49.9729 38.264ZM57.876 38.264C57.012 38.264 56.236 38.096 55.548 37.76C54.86 37.424 54.324 36.968 53.94 36.392C53.556 35.816 53.364 35.168 53.364 34.448C53.364 33.584 53.588 32.904 54.036 32.408C54.484 31.896 55.212 31.536 56.22 31.328C57.228 31.104 58.564 30.992 60.228 30.992H61.5V32.864H60.252C59.436 32.864 58.772 32.912 58.26 33.008C57.764 33.088 57.404 33.232 57.18 33.44C56.972 33.648 56.868 33.936 56.868 34.304C56.868 34.752 57.02 35.12 57.324 35.408C57.644 35.696 58.1 35.84 58.692 35.84C59.156 35.84 59.564 35.736 59.916 35.528C60.284 35.304 60.572 35.008 60.78 34.64C60.988 34.256 61.092 33.824 61.092 33.344V30.584C61.092 29.88 60.932 29.384 60.612 29.096C60.292 28.792 59.748 28.64 58.98 28.64C58.548 28.64 58.076 28.696 57.564 28.808C57.068 28.904 56.516 29.072 55.908 29.312C55.556 29.472 55.244 29.512 54.972 29.432C54.7 29.336 54.492 29.176 54.348 28.952C54.204 28.712 54.132 28.456 54.132 28.184C54.132 27.896 54.212 27.624 54.372 27.368C54.532 27.096 54.796 26.896 55.164 26.768C55.916 26.464 56.62 26.256 57.276 26.144C57.948 26.032 58.564 25.976 59.124 25.976C60.356 25.976 61.364 26.16 62.148 26.528C62.948 26.88 63.548 27.432 63.948 28.184C64.348 28.92 64.548 29.872 64.548 31.04V36.368C64.548 36.96 64.404 37.416 64.116 37.736C63.828 38.056 63.412 38.216 62.868 38.216C62.324 38.216 61.9 38.056 61.596 37.736C61.308 37.416 61.164 36.96 61.164 36.368V35.48L61.332 35.624C61.236 36.168 61.028 36.64 60.708 37.04C60.404 37.424 60.012 37.728 59.532 37.952C59.052 38.16 58.5 38.264 57.876 38.264ZM71.4994 38.264C70.0754 38.264 69.0114 37.872 68.3074 37.088C67.6034 36.288 67.2514 35.104 67.2514 33.536V22.712C67.2514 22.104 67.4034 21.648 67.7074 21.344C68.0274 21.024 68.4834 20.864 69.0754 20.864C69.6514 20.864 70.0914 21.024 70.3954 21.344C70.7154 21.648 70.8754 22.104 70.8754 22.712V33.392C70.8754 34.048 71.0114 34.536 71.2834 34.856C71.5714 35.16 71.9474 35.312 72.4114 35.312C72.5394 35.312 72.6594 35.304 72.7714 35.288C72.8834 35.272 73.0034 35.264 73.1314 35.264C73.3874 35.232 73.5634 35.312 73.6594 35.504C73.7714 35.68 73.8274 36.04 73.8274 36.584C73.8274 37.064 73.7314 37.432 73.5394 37.688C73.3474 37.928 73.0514 38.088 72.6514 38.168C72.4914 38.184 72.3074 38.2 72.0994 38.216C71.8914 38.248 71.6914 38.264 71.4994 38.264ZM80.7904 38.264C79.5264 38.264 78.4224 38.016 77.4784 37.52C76.5504 37.024 75.8304 36.312 75.3184 35.384C74.8064 34.456 74.5504 33.36 74.5504 32.096C74.5504 31.152 74.6944 30.304 74.9824 29.552C75.2704 28.8 75.6864 28.16 76.2304 27.632C76.7904 27.088 77.4544 26.68 78.2224 26.408C78.9904 26.12 79.8464 25.976 80.7904 25.976C82.0544 25.976 83.1504 26.224 84.0784 26.72C85.0224 27.216 85.7504 27.92 86.2624 28.832C86.7904 29.744 87.0544 30.832 87.0544 32.096C87.0544 33.056 86.9024 33.912 86.5984 34.664C86.3104 35.416 85.8944 36.064 85.3504 36.608C84.8064 37.152 84.1424 37.568 83.3584 37.856C82.5904 38.128 81.7344 38.264 80.7904 38.264ZM80.7904 35.552C81.3184 35.552 81.7744 35.424 82.1584 35.168C82.5424 34.912 82.8464 34.536 83.0704 34.04C83.2944 33.528 83.4064 32.88 83.4064 32.096C83.4064 30.928 83.1664 30.072 82.6864 29.528C82.2064 28.968 81.5744 28.688 80.7904 28.688C80.2784 28.688 79.8224 28.808 79.4224 29.048C79.0384 29.288 78.7344 29.664 78.5104 30.176C78.3024 30.672 78.1984 31.312 78.1984 32.096C78.1984 33.264 78.4384 34.136 78.9184 34.712C79.3984 35.272 80.0224 35.552 80.7904 35.552Z" fill="#545862"/>
<path d="M162.884 74.6739L158.52 70.3079L160.414 68.4139C160.605 68.2294 160.758 68.0087 160.862 67.7647C160.967 67.5207 161.022 67.2582 161.025 66.9927C161.027 66.7271 160.976 66.4637 160.876 66.2179C160.775 65.9722 160.627 65.7489 160.439 65.5611C160.251 65.3733 160.028 65.2248 159.782 65.1242C159.536 65.0237 159.273 64.973 159.007 64.9754C158.742 64.9777 158.479 65.0328 158.235 65.1377C157.991 65.2425 157.771 65.3948 157.586 65.5859L155.692 67.4799L151.326 63.1159C149.95 61.8045 148.122 61.073 146.221 61.073C144.32 61.073 142.492 61.8045 141.116 63.1159C140.445 63.7862 139.913 64.5822 139.55 65.4583C139.187 66.3344 139 67.2735 139 68.2219C139 69.1702 139.187 70.1093 139.55 70.9854C139.913 71.8616 140.445 72.6575 141.116 73.3279L145.48 77.6919L133.692 89.4799L129.326 85.1159C127.95 83.8045 126.122 83.073 124.221 83.073C122.32 83.073 120.492 83.8045 119.116 85.1159C118.445 85.7862 117.913 86.5822 117.55 87.4583C117.187 88.3344 117 89.2735 117 90.2219C117 91.1702 117.187 92.1093 117.55 92.9854C117.913 93.8616 118.445 94.6575 119.116 95.3279L123.48 99.6919L121.586 101.586C121.395 101.77 121.243 101.991 121.138 102.235C121.033 102.479 120.978 102.741 120.976 103.007C120.973 103.273 121.024 103.536 121.125 103.782C121.225 104.028 121.374 104.251 121.561 104.439C121.749 104.626 121.973 104.775 122.218 104.875C122.464 104.976 122.727 105.027 122.993 105.024C123.259 105.022 123.521 104.967 123.765 104.862C124.009 104.757 124.23 104.605 124.414 104.414L126.308 102.52L130.674 106.884C131.345 107.554 132.14 108.086 133.016 108.449C133.892 108.812 134.831 108.999 135.779 108.999C136.727 108.999 137.666 108.812 138.542 108.449C139.418 108.086 140.214 107.554 140.884 106.884C141.555 106.214 142.087 105.418 142.45 104.542C142.813 103.666 143 102.727 143 101.779C143 100.831 142.813 99.8917 142.45 99.0158C142.087 98.1398 141.555 97.344 140.884 96.6739L136.52 92.3099L148.32 80.5199L152.684 84.8839C153.354 85.5544 154.15 86.0864 155.026 86.4493C155.902 86.8123 156.841 86.9991 157.789 86.9991C158.737 86.9991 159.676 86.8123 160.552 86.4493C161.428 86.0864 162.224 85.5544 162.894 84.8839C163.565 84.2137 164.097 83.4179 164.46 82.5419C164.823 81.666 165.01 80.7271 165.01 79.7789C165.01 78.8306 164.823 77.8917 164.46 77.0158C164.097 76.1398 163.565 75.344 162.894 74.6739H162.884ZM139 101.78C139.001 102.203 138.918 102.622 138.756 103.012C138.594 103.403 138.356 103.758 138.056 104.056C137.443 104.642 136.628 104.97 135.779 104.97C134.931 104.97 134.115 104.642 133.502 104.056L121.944 92.4979C121.34 91.894 121.001 91.0749 121.001 90.2209C121.001 89.3668 121.34 88.5478 121.944 87.9439C122.548 87.34 123.367 87.0007 124.221 87.0007C125.075 87.0007 125.894 87.34 126.498 87.9439L138.056 99.5019C138.356 99.8003 138.594 100.155 138.756 100.546C138.918 100.937 139.001 101.357 139 101.78ZM160.056 82.0559C159.443 82.6423 158.628 82.9696 157.779 82.9696C156.931 82.9696 156.115 82.6423 155.502 82.0559L143.944 70.4979C143.645 70.1988 143.408 69.8438 143.246 69.4532C143.084 69.0625 143.001 68.6437 143.001 68.2209C143.001 67.3668 143.34 66.5478 143.944 65.9439C144.548 65.34 145.367 65.0007 146.221 65.0007C147.075 65.0007 147.894 65.34 148.498 65.9439L160.056 77.5019C160.355 77.8007 160.593 78.1557 160.755 78.5464C160.917 78.9371 161 79.3559 161 79.7789C161 80.2018 160.917 80.6206 160.755 81.0113C160.593 81.402 160.355 81.757 160.056 82.0559Z" fill="#936CDD"/>
<path d="M15.576 79.216C14.968 79.216 14.504 79.048 14.184 78.712C13.864 78.376 13.704 77.904 13.704 77.296V63.784C13.704 63.176 13.864 62.704 14.184 62.368C14.504 62.032 14.968 61.864 15.576 61.864C16.168 61.864 16.624 62.032 16.944 62.368C17.264 62.704 17.424 63.176 17.424 63.784V68.872H25.296V63.784C25.296 63.176 25.456 62.704 25.776 62.368C26.096 62.032 26.552 61.864 27.144 61.864C27.752 61.864 28.216 62.032 28.536 62.368C28.856 62.704 29.016 63.176 29.016 63.784V77.296C29.016 77.904 28.856 78.376 28.536 78.712C28.216 79.048 27.752 79.216 27.144 79.216C26.552 79.216 26.096 79.048 25.776 78.712C25.456 78.376 25.296 77.904 25.296 77.296V71.968H17.424V77.296C17.424 77.904 17.264 78.376 16.944 78.712C16.64 79.048 16.184 79.216 15.576 79.216ZM39.6786 79.264C38.4786 79.264 37.4146 79.112 36.4866 78.808C35.5746 78.488 34.8066 78.024 34.1826 77.416C33.5586 76.808 33.0866 76.048 32.7666 75.136C32.4626 74.208 32.3106 73.136 32.3106 71.92V63.76C32.3106 63.136 32.4706 62.664 32.7906 62.344C33.1106 62.024 33.5746 61.864 34.1826 61.864C34.7746 61.864 35.2306 62.024 35.5506 62.344C35.8706 62.664 36.0306 63.136 36.0306 63.76V71.944C36.0306 73.32 36.3426 74.36 36.9666 75.064C37.5906 75.752 38.4946 76.096 39.6786 76.096C40.8626 76.096 41.7586 75.752 42.3666 75.064C42.9906 74.36 43.3026 73.32 43.3026 71.944V63.76C43.3026 63.136 43.4626 62.664 43.7826 62.344C44.1026 62.024 44.5586 61.864 45.1506 61.864C45.7426 61.864 46.1906 62.024 46.4946 62.344C46.8146 62.664 46.9746 63.136 46.9746 63.76V71.92C46.9746 73.536 46.6946 74.896 46.1346 76C45.5906 77.088 44.7746 77.904 43.6866 78.448C42.6146 78.992 41.2786 79.264 39.6786 79.264ZM52.1385 79.216C51.5305 79.216 51.0665 79.048 50.7465 78.712C50.4265 78.376 50.2665 77.904 50.2665 77.296V63.784C50.2665 63.176 50.4265 62.704 50.7465 62.368C51.0665 62.032 51.5305 61.864 52.1385 61.864C52.7305 61.864 53.1865 62.032 53.5065 62.368C53.8265 62.704 53.9865 63.176 53.9865 63.784V77.296C53.9865 77.904 53.8265 78.376 53.5065 78.712C53.2025 79.048 52.7465 79.216 52.1385 79.216ZM58.8315 79.12C58.1915 79.12 57.6795 78.928 57.2955 78.544C56.9275 78.16 56.7435 77.664 56.7435 77.056C56.7435 76.464 56.9275 75.984 57.2955 75.616C57.6795 75.232 58.1915 75.04 58.8315 75.04C59.4715 75.04 59.9675 75.232 60.3195 75.616C60.6875 75.984 60.8715 76.464 60.8715 77.056C60.8715 77.664 60.6875 78.16 60.3195 78.544C59.9675 78.928 59.4715 79.12 58.8315 79.12ZM58.8315 71.176C58.1915 71.176 57.6795 70.984 57.2955 70.6C56.9275 70.216 56.7435 69.728 56.7435 69.136C56.7435 68.528 56.9275 68.04 57.2955 67.672C57.6795 67.288 58.1915 67.096 58.8315 67.096C59.4715 67.096 59.9675 67.288 60.3195 67.672C60.6875 68.04 60.8715 68.528 60.8715 69.136C60.8715 69.728 60.6875 70.216 60.3195 70.6C59.9675 70.984 59.4715 71.176 58.8315 71.176ZM72.393 79C71.881 79 71.489 78.864 71.217 78.592C70.945 78.32 70.809 77.944 70.809 77.464C70.809 76.968 70.945 76.592 71.217 76.336C71.489 76.08 71.881 75.952 72.393 75.952H74.817V65.128H76.569L73.065 67.264C72.697 67.488 72.353 67.576 72.033 67.528C71.729 67.48 71.465 67.344 71.241 67.12C71.017 66.896 70.865 66.632 70.785 66.328C70.721 66.008 70.753 65.696 70.881 65.392C71.009 65.072 71.249 64.8 71.601 64.576L74.937 62.56C75.273 62.352 75.609 62.184 75.945 62.056C76.297 61.928 76.641 61.864 76.977 61.864C77.457 61.864 77.833 61.992 78.105 62.248C78.393 62.488 78.537 62.864 78.537 63.376V75.952H80.721C81.217 75.952 81.601 76.08 81.873 76.336C82.145 76.592 82.281 76.968 82.281 77.464C82.281 77.96 82.145 78.344 81.873 78.616C81.601 78.872 81.217 79 80.721 79H72.393ZM90.2156 79.264C88.1676 79.264 86.5996 78.504 85.5116 76.984C84.4396 75.448 83.9036 73.28 83.9036 70.48C83.9036 68.608 84.1436 67.032 84.6236 65.752C85.1196 64.456 85.8316 63.48 86.7596 62.824C87.7036 62.152 88.8556 61.816 90.2156 61.816C92.2796 61.816 93.8476 62.56 94.9196 64.048C95.9916 65.52 96.5276 67.664 96.5276 70.48C96.5276 72.352 96.2796 73.944 95.7836 75.256C95.3036 76.552 94.5996 77.544 93.6716 78.232C92.7436 78.92 91.5916 79.264 90.2156 79.264ZM90.2156 76.24C91.1436 76.24 91.8316 75.784 92.2796 74.872C92.7276 73.944 92.9516 72.48 92.9516 70.48C92.9516 68.48 92.7276 67.04 92.2796 66.16C91.8316 65.28 91.1436 64.84 90.2156 64.84C89.2876 64.84 88.5996 65.28 88.1516 66.16C87.7036 67.04 87.4796 68.48 87.4796 70.48C87.4796 72.48 87.7036 73.944 88.1516 74.872C88.5996 75.784 89.2876 76.24 90.2156 76.24ZM104.606 79.264C103.262 79.264 102.11 79.072 101.15 78.688C100.19 78.304 99.4543 77.752 98.9423 77.032C98.4303 76.296 98.1743 75.416 98.1743 74.392C98.1743 73.592 98.3343 72.88 98.6543 72.256C98.9903 71.632 99.4463 71.128 100.022 70.744C100.598 70.36 101.246 70.12 101.966 70.024V70.648C100.958 70.424 100.142 69.936 99.5183 69.184C98.9103 68.416 98.6063 67.496 98.6063 66.424C98.6063 65.464 98.8463 64.64 99.3263 63.952C99.8223 63.264 100.518 62.736 101.414 62.368C102.326 62 103.39 61.816 104.606 61.816C105.838 61.816 106.902 62 107.798 62.368C108.694 62.736 109.39 63.264 109.886 63.952C110.382 64.64 110.63 65.464 110.63 66.424C110.63 67.144 110.486 67.8 110.198 68.392C109.926 68.984 109.534 69.472 109.022 69.856C108.526 70.24 107.95 70.488 107.294 70.6V70.024C108.398 70.184 109.294 70.656 109.982 71.44C110.686 72.224 111.038 73.208 111.038 74.392C111.038 75.416 110.782 76.296 110.27 77.032C109.758 77.752 109.022 78.304 108.062 78.688C107.102 79.072 105.95 79.264 104.606 79.264ZM104.606 76.408C105.598 76.408 106.35 76.216 106.862 75.832C107.374 75.448 107.63 74.88 107.63 74.128C107.63 73.376 107.374 72.816 106.862 72.448C106.35 72.064 105.598 71.872 104.606 71.872C103.614 71.872 102.862 72.064 102.35 72.448C101.838 72.816 101.582 73.376 101.582 74.128C101.582 74.88 101.838 75.448 102.35 75.832C102.862 76.216 103.614 76.408 104.606 76.408ZM104.606 69.016C105.15 69.016 105.614 68.928 105.998 68.752C106.398 68.576 106.694 68.32 106.886 67.984C107.094 67.648 107.198 67.264 107.198 66.832C107.198 66.16 106.966 65.632 106.502 65.248C106.054 64.864 105.422 64.672 104.606 64.672C103.79 64.672 103.158 64.864 102.71 65.248C102.262 65.632 102.038 66.16 102.038 66.832C102.038 67.504 102.262 68.04 102.71 68.44C103.158 68.824 103.79 69.016 104.606 69.016Z" fill="#2ABA5E"/>
<path d="M15.6 109C14.992 109 14.52 108.832 14.184 108.496C13.864 108.16 13.704 107.696 13.704 107.104V93.928C13.704 93.304 13.864 92.832 14.184 92.512C14.504 92.192 14.968 92.032 15.576 92.032C16.168 92.032 16.624 92.192 16.944 92.512C17.264 92.832 17.424 93.304 17.424 93.928V105.856H23.856C24.368 105.856 24.76 105.992 25.032 106.264C25.32 106.536 25.464 106.92 25.464 107.416C25.464 107.928 25.32 108.32 25.032 108.592C24.76 108.864 24.368 109 23.856 109H15.6ZM34.0067 109.264C32.8067 109.264 31.7427 109.112 30.8147 108.808C29.9027 108.488 29.1347 108.024 28.5107 107.416C27.8867 106.808 27.4147 106.048 27.0947 105.136C26.7907 104.208 26.6387 103.136 26.6387 101.92V93.76C26.6387 93.136 26.7987 92.664 27.1187 92.344C27.4387 92.024 27.9027 91.864 28.5107 91.864C29.1027 91.864 29.5587 92.024 29.8787 92.344C30.1987 92.664 30.3587 93.136 30.3587 93.76V101.944C30.3587 103.32 30.6707 104.36 31.2947 105.064C31.9187 105.752 32.8227 106.096 34.0067 106.096C35.1907 106.096 36.0867 105.752 36.6947 105.064C37.3187 104.36 37.6307 103.32 37.6307 101.944V93.76C37.6307 93.136 37.7907 92.664 38.1107 92.344C38.4307 92.024 38.8867 91.864 39.4787 91.864C40.0707 91.864 40.5187 92.024 40.8227 92.344C41.1427 92.664 41.3027 93.136 41.3027 93.76V101.92C41.3027 103.536 41.0227 104.896 40.4627 106C39.9187 107.088 39.1027 107.904 38.0147 108.448C36.9427 108.992 35.6067 109.264 34.0067 109.264ZM46.4666 109.216C45.8586 109.216 45.3946 109.048 45.0746 108.712C44.7546 108.376 44.5946 107.904 44.5946 107.296V93.784C44.5946 93.176 44.7546 92.704 45.0746 92.368C45.3946 92.032 45.8586 91.864 46.4666 91.864C47.0586 91.864 47.5146 92.032 47.8346 92.368C48.1546 92.704 48.3146 93.176 48.3146 93.784V107.296C48.3146 107.904 48.1546 108.376 47.8346 108.712C47.5306 109.048 47.0746 109.216 46.4666 109.216ZM53.1596 109.12C52.5196 109.12 52.0076 108.928 51.6236 108.544C51.2556 108.16 51.0716 107.664 51.0716 107.056C51.0716 106.464 51.2556 105.984 51.6236 105.616C52.0076 105.232 52.5196 105.04 53.1596 105.04C53.7996 105.04 54.2956 105.232 54.6476 105.616C55.0156 105.984 55.1996 106.464 55.1996 107.056C55.1996 107.664 55.0156 108.16 54.6476 108.544C54.2956 108.928 53.7996 109.12 53.1596 109.12ZM53.1596 101.176C52.5196 101.176 52.0076 100.984 51.6236 100.6C51.2556 100.216 51.0716 99.728 51.0716 99.136C51.0716 98.528 51.2556 98.04 51.6236 97.672C52.0076 97.288 52.5196 97.096 53.1596 97.096C53.7996 97.096 54.2956 97.288 54.6476 97.672C55.0156 98.04 55.1996 98.528 55.1996 99.136C55.1996 99.728 55.0156 100.216 54.6476 100.6C54.2956 100.984 53.7996 101.176 53.1596 101.176ZM70.1531 109.264C68.8091 109.264 67.6571 109.072 66.6971 108.688C65.7371 108.304 65.0011 107.752 64.4891 107.032C63.9771 106.296 63.7211 105.416 63.7211 104.392C63.7211 103.592 63.8811 102.88 64.2011 102.256C64.5371 101.632 64.9931 101.128 65.5691 100.744C66.1451 100.36 66.7931 100.12 67.5131 100.024V100.648C66.5051 100.424 65.6891 99.936 65.0651 99.184C64.4571 98.416 64.1531 97.496 64.1531 96.424C64.1531 95.464 64.3931 94.64 64.8731 93.952C65.3691 93.264 66.0651 92.736 66.9611 92.368C67.8731 92 68.9371 91.816 70.1531 91.816C71.3851 91.816 72.4491 92 73.3451 92.368C74.2411 92.736 74.9371 93.264 75.4331 93.952C75.9291 94.64 76.1771 95.464 76.1771 96.424C76.1771 97.144 76.0331 97.8 75.7451 98.392C75.4731 98.984 75.0811 99.472 74.5691 99.856C74.0731 100.24 73.4971 100.488 72.8411 100.6V100.024C73.9451 100.184 74.8411 100.656 75.5291 101.44C76.2331 102.224 76.5851 103.208 76.5851 104.392C76.5851 105.416 76.3291 106.296 75.8171 107.032C75.3051 107.752 74.5691 108.304 73.6091 108.688C72.6491 109.072 71.4971 109.264 70.1531 109.264ZM70.1531 106.408C71.1451 106.408 71.8971 106.216 72.4091 105.832C72.9211 105.448 73.1771 104.88 73.1771 104.128C73.1771 103.376 72.9211 102.816 72.4091 102.448C71.8971 102.064 71.1451 101.872 70.1531 101.872C69.1611 101.872 68.4091 102.064 67.8971 102.448C67.3851 102.816 67.1291 103.376 67.1291 104.128C67.1291 104.88 67.3851 105.448 67.8971 105.832C68.4091 106.216 69.1611 106.408 70.1531 106.408ZM70.1531 99.016C70.6971 99.016 71.1611 98.928 71.5451 98.752C71.9451 98.576 72.2411 98.32 72.4331 97.984C72.6411 97.648 72.7451 97.264 72.7451 96.832C72.7451 96.16 72.5131 95.632 72.0491 95.248C71.6011 94.864 70.9691 94.672 70.1531 94.672C69.3371 94.672 68.7051 94.864 68.2571 95.248C67.8091 95.632 67.5851 96.16 67.5851 96.832C67.5851 97.504 67.8091 98.04 68.2571 98.44C68.7051 98.824 69.3371 99.016 70.1531 99.016ZM81.1118 109C80.5998 109 80.2078 108.864 79.9358 108.592C79.6638 108.32 79.5278 107.944 79.5278 107.464C79.5278 106.968 79.6638 106.592 79.9358 106.336C80.2078 106.08 80.5998 105.952 81.1118 105.952H83.5358V95.128H85.2878L81.7838 97.264C81.4158 97.488 81.0718 97.576 80.7518 97.528C80.4478 97.48 80.1838 97.344 79.9598 97.12C79.7358 96.896 79.5838 96.632 79.5038 96.328C79.4398 96.008 79.4718 95.696 79.5998 95.392C79.7278 95.072 79.9678 94.8 80.3198 94.576L83.6558 92.56C83.9918 92.352 84.3278 92.184 84.6638 92.056C85.0158 91.928 85.3598 91.864 85.6958 91.864C86.1758 91.864 86.5518 91.992 86.8238 92.248C87.1118 92.488 87.2558 92.864 87.2558 93.376V105.952H89.4398C89.9358 105.952 90.3198 106.08 90.5918 106.336C90.8638 106.592 90.9998 106.968 90.9998 107.464C90.9998 107.96 90.8638 108.344 90.5918 108.616C90.3198 108.872 89.9358 109 89.4398 109H81.1118Z" fill="#6BDD93"/>
</svg>
