<svg width="48" height="48" viewBox="0 0 48 48" fill="none" xmlns="http://www.w3.org/2000/svg">
<g clip-path="url(#clip0_503_552)">
<path d="M45.8842 13.6739L41.5202 9.30786L43.4142 7.41386C43.6052 7.22936 43.7576 7.00867 43.8624 6.76466C43.9672 6.52066 44.0224 6.25822 44.0247 5.99266C44.027 5.7271 43.9764 5.46374 43.8759 5.21795C43.7753 4.97215 43.6268 4.74885 43.439 4.56107C43.2512 4.37328 43.0279 4.22477 42.7821 4.12421C42.5363 4.02365 42.273 3.97305 42.0074 3.97535C41.7418 3.97766 41.4794 4.03283 41.2354 4.13765C40.9914 4.24247 40.7707 4.39483 40.5862 4.58586L38.6922 6.47986L34.3262 2.11586C32.9501 0.8045 31.1221 0.072998 29.2212 0.072998C27.3203 0.072998 25.4923 0.8045 24.1162 2.11586C23.4453 2.78619 22.9131 3.58216 22.55 4.45827C22.1869 5.33439 22 6.27347 22 7.22186C22 8.17024 22.1869 9.10932 22.55 9.98544C22.9131 10.8616 23.4453 11.6575 24.1162 12.3279L28.4802 16.6919L16.6922 28.4799L12.3262 24.1159C10.9501 22.8045 9.1221 22.073 7.22121 22.073C5.32032 22.073 3.49233 22.8045 2.11621 24.1159C1.44532 24.7862 0.913118 25.5822 0.550007 26.4583C0.186896 27.3344 0 28.2735 0 29.2219C0 30.1702 0.186896 31.1093 0.550007 31.9854C0.913118 32.8616 1.44532 33.6575 2.11621 34.3279L6.48021 38.6919L4.58621 40.5859C4.39519 40.7703 4.24282 40.991 4.138 41.235C4.03319 41.4791 3.97801 41.7415 3.97571 42.0071C3.9734 42.2726 4.024 42.536 4.12456 42.7818C4.22513 43.0276 4.37363 43.2509 4.56142 43.4386C4.7492 43.6264 4.97251 43.7749 5.2183 43.8755C5.46409 43.9761 5.72745 44.0267 5.99301 44.0244C6.25857 44.022 6.52101 43.9669 6.76502 43.8621C7.00902 43.7572 7.22971 43.6049 7.41421 43.4139L9.30821 41.5199L13.6742 45.8839C14.3445 46.5544 15.1403 47.0864 16.0163 47.4493C16.8922 47.8123 17.8311 47.9991 18.7792 47.9991C19.7274 47.9991 20.6662 47.8123 21.5421 47.4493C22.4181 47.0864 23.2139 46.5544 23.8842 45.8839C24.555 45.2137 25.0872 44.4179 25.4503 43.5419C25.8134 42.666 26.0002 41.7271 26.0002 40.7789C26.0002 39.8306 25.8134 38.8917 25.4503 38.0158C25.0872 37.1398 24.555 36.344 23.8842 35.6739L19.5202 31.3099L31.3202 19.5199L35.6842 23.8839C36.3545 24.5544 37.1503 25.0864 38.0263 25.4493C38.9022 25.8123 39.8411 25.9991 40.7892 25.9991C41.7374 25.9991 42.6762 25.8123 43.5521 25.4493C44.4281 25.0864 45.2239 24.5544 45.8942 23.8839C46.565 23.2137 47.0972 22.4179 47.4603 21.5419C47.8234 20.666 48.0102 19.7271 48.0102 18.7789C48.0102 17.8306 47.8234 16.8917 47.4603 16.0158C47.0972 15.1398 46.565 14.344 45.8942 13.6739H45.8842ZM22.0002 40.7799C22.0011 41.2028 21.9181 41.6217 21.7561 42.0124C21.594 42.403 21.3562 42.7577 21.0562 43.0559C20.4432 43.6423 19.6276 43.9696 18.7792 43.9696C17.9309 43.9696 17.1152 43.6423 16.5022 43.0559L4.94421 31.4979C4.34031 30.894 4.00104 30.0749 4.00104 29.2209C4.00104 28.3668 4.34031 27.5478 4.94421 26.9439C5.54811 26.34 6.36717 26.0007 7.22121 26.0007C8.07525 26.0007 8.89431 26.34 9.49821 26.9439L21.0562 38.5019C21.3564 38.8003 21.5944 39.1553 21.7564 39.5463C21.9185 39.9373 22.0013 40.3566 22.0002 40.7799ZM43.0562 21.0559C42.4432 21.6423 41.6275 21.9696 40.7792 21.9696C39.9309 21.9696 39.1152 21.6423 38.5022 21.0559L26.9442 9.49786C26.6452 9.19884 26.408 8.84385 26.2462 8.45316C26.0843 8.06247 26.001 7.64373 26.001 7.22086C26.001 6.36682 26.3403 5.54775 26.9442 4.94386C27.5481 4.33996 28.3672 4.00069 29.2212 4.00069C30.0752 4.00069 30.8943 4.33996 31.4982 4.94386L43.0562 16.5019C43.3555 16.8007 43.5929 17.1557 43.7549 17.5464C43.9169 17.9371 44.0003 18.3559 44.0003 18.7789C44.0003 19.2018 43.9169 19.6206 43.7549 20.0113C43.5929 20.402 43.3555 20.757 43.0562 21.0559Z" fill="#F8F8F8"/>
</g>
<defs>
<clipPath id="clip0_503_552">
<rect width="48" height="48" fill="white"/>
</clipPath>
</defs>
</svg>
