<svg width="245" height="329" viewBox="0 0 245 329" fill="none" xmlns="http://www.w3.org/2000/svg">
<rect width="245" height="329" rx="40" fill="#936CDD"/>
<path d="M23.076 289.288C22.332 289.288 21.756 289.084 21.348 288.676C20.964 288.244 20.772 287.656 20.772 286.912V265.96C20.772 265.192 20.976 264.616 21.384 264.232C21.792 263.824 22.368 263.62 23.112 263.62H31.788C34.572 263.62 36.72 264.316 38.232 265.708C39.744 267.1 40.5 269.044 40.5 271.54C40.5 274.036 39.744 275.992 38.232 277.408C36.72 278.8 34.572 279.496 31.788 279.496H25.38V286.912C25.38 287.656 25.188 288.244 24.804 288.676C24.42 289.084 23.844 289.288 23.076 289.288ZM25.38 275.86H31.068C32.7 275.86 33.936 275.5 34.776 274.78C35.616 274.036 36.036 272.956 36.036 271.54C36.036 270.124 35.616 269.056 34.776 268.336C33.936 267.616 32.7 267.256 31.068 267.256H25.38V275.86ZM45.7768 289.288C45.0328 289.288 44.4568 289.096 44.0488 288.712C43.6648 288.304 43.4728 287.728 43.4728 286.984V273.376C43.4728 272.632 43.6648 272.068 44.0488 271.684C44.4328 271.3 44.9728 271.108 45.6688 271.108C46.3648 271.108 46.9048 271.3 47.2888 271.684C47.6728 272.068 47.8648 272.632 47.8648 273.376V275.644H47.5048C47.8408 274.204 48.5008 273.112 49.4848 272.368C50.4688 271.624 51.7768 271.18 53.4088 271.036C53.9128 270.988 54.3088 271.12 54.5968 271.432C54.9088 271.72 55.0888 272.176 55.1368 272.8C55.1848 273.4 55.0408 273.892 54.7048 274.276C54.3928 274.636 53.9128 274.852 53.2648 274.924L52.4728 274.996C51.0088 275.14 49.9048 275.596 49.1608 276.364C48.4168 277.108 48.0448 278.164 48.0448 279.532V286.984C48.0448 287.728 47.8528 288.304 47.4688 288.712C47.0848 289.096 46.5208 289.288 45.7768 289.288ZM65.3172 289.36C63.4932 289.36 61.9092 288.988 60.5652 288.244C59.2212 287.5 58.1772 286.444 57.4332 285.076C56.6892 283.684 56.3172 282.052 56.3172 280.18C56.3172 278.764 56.5212 277.504 56.9292 276.4C57.3612 275.272 57.9732 274.312 58.7652 273.52C59.5572 272.704 60.5052 272.092 61.6092 271.684C62.7132 271.252 63.9492 271.036 65.3172 271.036C67.1412 271.036 68.7252 271.408 70.0692 272.152C71.4132 272.896 72.4572 273.952 73.2012 275.32C73.9452 276.688 74.3172 278.308 74.3172 280.18C74.3172 281.596 74.1012 282.868 73.6692 283.996C73.2612 285.124 72.6612 286.096 71.8692 286.912C71.0772 287.704 70.1292 288.316 69.0252 288.748C67.9212 289.156 66.6852 289.36 65.3172 289.36ZM65.3172 285.94C66.2052 285.94 66.9852 285.724 67.6572 285.292C68.3292 284.86 68.8452 284.224 69.2052 283.384C69.5892 282.52 69.7812 281.452 69.7812 280.18C69.7812 278.26 69.3732 276.832 68.5572 275.896C67.7412 274.936 66.6612 274.456 65.3172 274.456C64.4292 274.456 63.6492 274.672 62.9772 275.104C62.3052 275.512 61.7772 276.148 61.3932 277.012C61.0332 277.852 60.8532 278.908 60.8532 280.18C60.8532 282.076 61.2612 283.516 62.0772 284.5C62.8932 285.46 63.9732 285.94 65.3172 285.94ZM75.8714 295.804C75.3434 295.852 74.9114 295.768 74.5754 295.552C74.2394 295.36 74.0114 295.108 73.8914 294.796C73.7474 294.484 73.6994 294.16 73.7474 293.824C73.7954 293.488 73.9394 293.188 74.1794 292.924C74.3954 292.684 74.6954 292.552 75.0794 292.528C76.1594 292.432 76.9394 292.12 77.4194 291.592C77.9234 291.088 78.1754 290.308 78.1754 289.252V273.376C78.1754 272.632 78.3674 272.068 78.7514 271.684C79.1594 271.3 79.7234 271.108 80.4434 271.108C81.1634 271.108 81.7154 271.3 82.0994 271.684C82.4834 272.068 82.6754 272.632 82.6754 273.376V288.856C82.6754 290.392 82.4234 291.652 81.9194 292.636C81.4394 293.62 80.6954 294.364 79.6874 294.868C78.7034 295.372 77.4314 295.684 75.8714 295.804ZM80.4074 267.796C79.5674 267.796 78.9074 267.592 78.4274 267.184C77.9714 266.752 77.7434 266.164 77.7434 265.42C77.7434 264.652 77.9714 264.064 78.4274 263.656C78.9074 263.248 79.5674 263.044 80.4074 263.044C81.2714 263.044 81.9314 263.248 82.3874 263.656C82.8434 264.064 83.0714 264.652 83.0714 265.42C83.0714 266.164 82.8434 266.752 82.3874 267.184C81.9314 267.592 81.2714 267.796 80.4074 267.796ZM96.0238 289.36C94.0318 289.36 92.3158 288.988 90.8758 288.244C89.4358 287.5 88.3198 286.444 87.5278 285.076C86.7598 283.708 86.3758 282.088 86.3758 280.216C86.3758 278.392 86.7478 276.796 87.4918 275.428C88.2598 274.06 89.3038 272.992 90.6238 272.224C91.9678 271.432 93.4918 271.036 95.1958 271.036C96.4438 271.036 97.5598 271.24 98.5438 271.648C99.5518 272.056 100.404 272.644 101.1 273.412C101.82 274.18 102.36 275.116 102.72 276.22C103.104 277.3 103.296 278.524 103.296 279.892C103.296 280.324 103.14 280.66 102.828 280.9C102.54 281.116 102.12 281.224 101.568 281.224H90.0118V278.632H100.128L99.5518 279.172C99.5518 278.068 99.3838 277.144 99.0478 276.4C98.7358 275.656 98.2678 275.092 97.6438 274.708C97.0438 274.3 96.2878 274.096 95.3758 274.096C94.3678 274.096 93.5038 274.336 92.7838 274.816C92.0878 275.272 91.5478 275.932 91.1638 276.796C90.8038 277.636 90.6238 278.644 90.6238 279.82V280.072C90.6238 282.04 91.0798 283.516 91.9918 284.5C92.9278 285.46 94.2958 285.94 96.0958 285.94C96.7198 285.94 97.4158 285.868 98.1838 285.724C98.9758 285.556 99.7198 285.28 100.416 284.896C100.92 284.608 101.364 284.488 101.748 284.536C102.132 284.56 102.432 284.692 102.648 284.932C102.888 285.172 103.032 285.472 103.08 285.832C103.128 286.168 103.056 286.516 102.864 286.876C102.696 287.236 102.396 287.548 101.964 287.812C101.124 288.34 100.152 288.736 99.0478 289C97.9678 289.24 96.9598 289.36 96.0238 289.36ZM109.092 289.288C108.372 289.288 107.82 289.096 107.436 288.712C107.052 288.304 106.86 287.728 106.86 286.984V265.6C106.86 264.856 107.052 264.292 107.436 263.908C107.82 263.524 108.372 263.332 109.092 263.332C109.812 263.332 110.364 263.524 110.748 263.908C111.156 264.292 111.36 264.856 111.36 265.6V278.884H111.432L117.372 272.62C117.852 272.14 118.272 271.768 118.632 271.504C118.992 271.24 119.484 271.108 120.108 271.108C120.732 271.108 121.2 271.276 121.512 271.612C121.848 271.924 122.016 272.308 122.016 272.764C122.016 273.22 121.8 273.676 121.368 274.132L115.104 280.756V278.884L121.98 286.3C122.412 286.756 122.604 287.224 122.556 287.704C122.532 288.16 122.34 288.544 121.98 288.856C121.62 289.144 121.164 289.288 120.612 289.288C119.94 289.288 119.4 289.156 118.992 288.892C118.608 288.628 118.176 288.232 117.696 287.704L111.432 281.152H111.36V286.984C111.36 288.52 110.604 289.288 109.092 289.288ZM133.945 289.36C132.097 289.36 130.489 288.988 129.121 288.244C127.753 287.476 126.697 286.396 125.953 285.004C125.209 283.612 124.837 281.98 124.837 280.108C124.837 278.692 125.041 277.432 125.449 276.328C125.881 275.2 126.493 274.252 127.285 273.484C128.077 272.692 129.037 272.092 130.165 271.684C131.293 271.252 132.553 271.036 133.945 271.036C134.737 271.036 135.589 271.144 136.501 271.36C137.437 271.576 138.313 271.936 139.129 272.44C139.513 272.68 139.765 272.968 139.885 273.304C140.005 273.64 140.029 273.988 139.957 274.348C139.885 274.684 139.729 274.984 139.489 275.248C139.273 275.488 138.997 275.644 138.661 275.716C138.325 275.764 137.953 275.68 137.545 275.464C137.017 275.152 136.477 274.924 135.925 274.78C135.373 274.612 134.845 274.528 134.341 274.528C133.549 274.528 132.853 274.66 132.253 274.924C131.653 275.164 131.137 275.524 130.705 276.004C130.297 276.46 129.985 277.036 129.769 277.732C129.553 278.428 129.445 279.232 129.445 280.144C129.445 281.92 129.865 283.324 130.705 284.356C131.569 285.364 132.781 285.868 134.341 285.868C134.845 285.868 135.361 285.796 135.889 285.652C136.441 285.508 136.993 285.28 137.545 284.968C137.953 284.752 138.313 284.68 138.625 284.752C138.961 284.824 139.237 284.992 139.453 285.256C139.669 285.496 139.801 285.796 139.849 286.156C139.897 286.492 139.849 286.828 139.705 287.164C139.585 287.5 139.345 287.776 138.985 287.992C138.193 288.472 137.353 288.82 136.465 289.036C135.577 289.252 134.737 289.36 133.945 289.36ZM145.021 289.252C144.301 289.252 143.749 289.036 143.365 288.604C142.981 288.172 142.789 287.572 142.789 286.804V273.592C142.789 272.8 142.981 272.2 143.365 271.792C143.749 271.36 144.301 271.144 145.021 271.144C145.741 271.144 146.293 271.36 146.677 271.792C147.085 272.2 147.289 272.8 147.289 273.592V286.804C147.289 287.572 147.097 288.172 146.713 288.604C146.329 289.036 145.765 289.252 145.021 289.252ZM145.021 267.796C144.181 267.796 143.521 267.592 143.041 267.184C142.585 266.752 142.357 266.164 142.357 265.42C142.357 264.652 142.585 264.064 143.041 263.656C143.521 263.248 144.181 263.044 145.021 263.044C145.885 263.044 146.545 263.248 147.001 263.656C147.457 264.064 147.685 264.652 147.685 265.42C147.685 266.164 147.457 266.752 147.001 267.184C146.545 267.592 145.885 267.796 145.021 267.796ZM149.805 295.804C149.277 295.852 148.845 295.768 148.509 295.552C148.173 295.36 147.945 295.108 147.825 294.796C147.681 294.484 147.633 294.16 147.681 293.824C147.729 293.488 147.873 293.188 148.113 292.924C148.329 292.684 148.629 292.552 149.013 292.528C150.093 292.432 150.873 292.12 151.353 291.592C151.857 291.088 152.109 290.308 152.109 289.252V273.376C152.109 272.632 152.301 272.068 152.685 271.684C153.093 271.3 153.657 271.108 154.377 271.108C155.097 271.108 155.649 271.3 156.033 271.684C156.417 272.068 156.609 272.632 156.609 273.376V288.856C156.609 290.392 156.357 291.652 155.853 292.636C155.373 293.62 154.629 294.364 153.621 294.868C152.637 295.372 151.365 295.684 149.805 295.804ZM154.341 267.796C153.501 267.796 152.841 267.592 152.361 267.184C151.905 266.752 151.677 266.164 151.677 265.42C151.677 264.652 151.905 264.064 152.361 263.656C152.841 263.248 153.501 263.044 154.341 263.044C155.205 263.044 155.865 263.248 156.321 263.656C156.777 264.064 157.005 264.652 157.005 265.42C157.005 266.164 156.777 266.752 156.321 267.184C155.865 267.592 155.205 267.796 154.341 267.796ZM169.957 289.36C167.965 289.36 166.249 288.988 164.809 288.244C163.369 287.5 162.253 286.444 161.461 285.076C160.693 283.708 160.309 282.088 160.309 280.216C160.309 278.392 160.681 276.796 161.425 275.428C162.193 274.06 163.237 272.992 164.557 272.224C165.901 271.432 167.425 271.036 169.129 271.036C170.377 271.036 171.493 271.24 172.477 271.648C173.485 272.056 174.337 272.644 175.033 273.412C175.753 274.18 176.293 275.116 176.653 276.22C177.037 277.3 177.229 278.524 177.229 279.892C177.229 280.324 177.073 280.66 176.761 280.9C176.473 281.116 176.053 281.224 175.501 281.224H163.945V278.632H174.061L173.485 279.172C173.485 278.068 173.317 277.144 172.981 276.4C172.669 275.656 172.201 275.092 171.577 274.708C170.977 274.3 170.221 274.096 169.309 274.096C168.301 274.096 167.437 274.336 166.717 274.816C166.021 275.272 165.481 275.932 165.097 276.796C164.737 277.636 164.557 278.644 164.557 279.82V280.072C164.557 282.04 165.013 283.516 165.925 284.5C166.861 285.46 168.229 285.94 170.029 285.94C170.653 285.94 171.349 285.868 172.117 285.724C172.909 285.556 173.653 285.28 174.349 284.896C174.853 284.608 175.297 284.488 175.681 284.536C176.065 284.56 176.365 284.692 176.581 284.932C176.821 285.172 176.965 285.472 177.013 285.832C177.061 286.168 176.989 286.516 176.797 286.876C176.629 287.236 176.329 287.548 175.897 287.812C175.057 288.34 174.085 288.736 172.981 289C171.901 289.24 170.893 289.36 169.957 289.36Z" fill="#F8F8F8"/>
<path d="M24.076 253.288C23.332 253.288 22.756 253.084 22.348 252.676C21.964 252.244 21.772 251.656 21.772 250.912V229.96C21.772 229.192 21.976 228.616 22.384 228.232C22.792 227.824 23.368 227.62 24.112 227.62H32.788C35.572 227.62 37.72 228.316 39.232 229.708C40.744 231.1 41.5 233.044 41.5 235.54C41.5 238.036 40.744 239.992 39.232 241.408C37.72 242.8 35.572 243.496 32.788 243.496H26.38V250.912C26.38 251.656 26.188 252.244 25.804 252.676C25.42 253.084 24.844 253.288 24.076 253.288ZM26.38 239.86H32.068C33.7 239.86 34.936 239.5 35.776 238.78C36.616 238.036 37.036 236.956 37.036 235.54C37.036 234.124 36.616 233.056 35.776 232.336C34.936 231.616 33.7 231.256 32.068 231.256H26.38V239.86ZM51.9735 253.36C50.1495 253.36 48.5655 252.988 47.2215 252.244C45.8775 251.5 44.8335 250.444 44.0895 249.076C43.3455 247.684 42.9735 246.052 42.9735 244.18C42.9735 242.764 43.1775 241.504 43.5855 240.4C44.0175 239.272 44.6295 238.312 45.4215 237.52C46.2135 236.704 47.1615 236.092 48.2655 235.684C49.3695 235.252 50.6055 235.036 51.9735 235.036C53.7975 235.036 55.3815 235.408 56.7255 236.152C58.0695 236.896 59.1135 237.952 59.8575 239.32C60.6015 240.688 60.9735 242.308 60.9735 244.18C60.9735 245.596 60.7575 246.868 60.3255 247.996C59.9175 249.124 59.3175 250.096 58.5255 250.912C57.7335 251.704 56.7855 252.316 55.6815 252.748C54.5775 253.156 53.3415 253.36 51.9735 253.36ZM51.9735 249.94C52.8615 249.94 53.6415 249.724 54.3135 249.292C54.9855 248.86 55.5015 248.224 55.8615 247.384C56.2455 246.52 56.4375 245.452 56.4375 244.18C56.4375 242.26 56.0295 240.832 55.2135 239.896C54.3975 238.936 53.3175 238.456 51.9735 238.456C51.0855 238.456 50.3055 238.672 49.6335 239.104C48.9615 239.512 48.4335 240.148 48.0495 241.012C47.6895 241.852 47.5095 242.908 47.5095 244.18C47.5095 246.076 47.9175 247.516 48.7335 248.5C49.5495 249.46 50.6295 249.94 51.9735 249.94ZM71.4557 253.36C69.9197 253.36 68.5637 252.988 67.3877 252.244C66.2357 251.5 65.3357 250.444 64.6877 249.076C64.0397 247.684 63.7157 246.052 63.7157 244.18C63.7157 242.284 64.0397 240.664 64.6877 239.32C65.3357 237.952 66.2357 236.896 67.3877 236.152C68.5637 235.408 69.9197 235.036 71.4557 235.036C72.9197 235.036 74.1917 235.396 75.2717 236.116C76.3757 236.836 77.1197 237.784 77.5037 238.96H77.1077V229.6C77.1077 228.856 77.2997 228.292 77.6837 227.908C78.0677 227.524 78.6197 227.332 79.3397 227.332C80.0597 227.332 80.6117 227.524 80.9957 227.908C81.4037 228.292 81.6077 228.856 81.6077 229.6V250.984C81.6077 251.728 81.4157 252.304 81.0317 252.712C80.6477 253.096 80.0957 253.288 79.3757 253.288C78.6557 253.288 78.1037 253.096 77.7197 252.712C77.3357 252.304 77.1437 251.728 77.1437 250.984V248.176L77.5397 249.256C77.1797 250.504 76.4477 251.5 75.3437 252.244C74.2397 252.988 72.9437 253.36 71.4557 253.36ZM72.7157 249.94C73.6037 249.94 74.3837 249.724 75.0557 249.292C75.7277 248.86 76.2437 248.224 76.6037 247.384C76.9877 246.52 77.1797 245.452 77.1797 244.18C77.1797 242.26 76.7717 240.832 75.9557 239.896C75.1397 238.936 74.0597 238.456 72.7157 238.456C71.8277 238.456 71.0477 238.672 70.3757 239.104C69.7037 239.512 69.1757 240.148 68.7917 241.012C68.4317 241.852 68.2517 242.908 68.2517 244.18C68.2517 246.076 68.6597 247.516 69.4757 248.5C70.2917 249.46 71.3717 249.94 72.7157 249.94ZM94.4096 253.36C92.5616 253.36 90.9536 252.988 89.5856 252.244C88.2176 251.476 87.1616 250.396 86.4176 249.004C85.6736 247.612 85.3016 245.98 85.3016 244.108C85.3016 242.692 85.5056 241.432 85.9136 240.328C86.3456 239.2 86.9576 238.252 87.7496 237.484C88.5416 236.692 89.5016 236.092 90.6296 235.684C91.7576 235.252 93.0176 235.036 94.4096 235.036C95.2016 235.036 96.0536 235.144 96.9656 235.36C97.9016 235.576 98.7776 235.936 99.5936 236.44C99.9776 236.68 100.23 236.968 100.35 237.304C100.47 237.64 100.494 237.988 100.422 238.348C100.35 238.684 100.194 238.984 99.9536 239.248C99.7376 239.488 99.4616 239.644 99.1256 239.716C98.7896 239.764 98.4176 239.68 98.0096 239.464C97.4816 239.152 96.9416 238.924 96.3896 238.78C95.8376 238.612 95.3096 238.528 94.8056 238.528C94.0136 238.528 93.3176 238.66 92.7176 238.924C92.1176 239.164 91.6016 239.524 91.1696 240.004C90.7616 240.46 90.4496 241.036 90.2336 241.732C90.0176 242.428 89.9096 243.232 89.9096 244.144C89.9096 245.92 90.3296 247.324 91.1696 248.356C92.0336 249.364 93.2456 249.868 94.8056 249.868C95.3096 249.868 95.8256 249.796 96.3536 249.652C96.9056 249.508 97.4576 249.28 98.0096 248.968C98.4176 248.752 98.7776 248.68 99.0896 248.752C99.4256 248.824 99.7016 248.992 99.9176 249.256C100.134 249.496 100.266 249.796 100.314 250.156C100.362 250.492 100.314 250.828 100.17 251.164C100.05 251.5 99.8096 251.776 99.4496 251.992C98.6576 252.472 97.8176 252.82 96.9296 253.036C96.0416 253.252 95.2016 253.36 94.4096 253.36ZM108.945 253.36C107.673 253.36 106.533 253.12 105.525 252.64C104.541 252.136 103.761 251.464 103.185 250.624C102.633 249.784 102.357 248.836 102.357 247.78C102.357 246.484 102.693 245.464 103.365 244.72C104.037 243.952 105.129 243.4 106.641 243.064C108.153 242.728 110.181 242.56 112.725 242.56H114.525V245.152H112.761C111.273 245.152 110.085 245.224 109.197 245.368C108.309 245.512 107.673 245.764 107.289 246.124C106.929 246.46 106.749 246.94 106.749 247.564C106.749 248.356 107.025 249.004 107.577 249.508C108.129 250.012 108.897 250.264 109.881 250.264C110.673 250.264 111.369 250.084 111.969 249.724C112.593 249.34 113.085 248.824 113.445 248.176C113.805 247.528 113.985 246.784 113.985 245.944V241.804C113.985 240.604 113.721 239.74 113.193 239.212C112.665 238.684 111.777 238.42 110.529 238.42C109.833 238.42 109.077 238.504 108.261 238.672C107.469 238.84 106.629 239.128 105.741 239.536C105.285 239.752 104.877 239.812 104.517 239.716C104.181 239.62 103.917 239.428 103.725 239.14C103.533 238.828 103.437 238.492 103.437 238.132C103.437 237.772 103.533 237.424 103.725 237.088C103.917 236.728 104.241 236.464 104.697 236.296C105.801 235.84 106.857 235.516 107.865 235.324C108.897 235.132 109.833 235.036 110.673 235.036C112.401 235.036 113.817 235.3 114.921 235.828C116.049 236.356 116.889 237.16 117.441 238.24C117.993 239.296 118.269 240.664 118.269 242.344V250.984C118.269 251.728 118.089 252.304 117.729 252.712C117.369 253.096 116.853 253.288 116.181 253.288C115.509 253.288 114.981 253.096 114.597 252.712C114.237 252.304 114.057 251.728 114.057 250.984V249.256H114.345C114.177 250.096 113.841 250.828 113.337 251.452C112.857 252.052 112.245 252.52 111.501 252.856C110.757 253.192 109.905 253.36 108.945 253.36ZM129.28 253.36C128.248 253.36 127.156 253.252 126.004 253.036C124.852 252.82 123.82 252.448 122.908 251.92C122.524 251.68 122.248 251.404 122.08 251.092C121.936 250.756 121.876 250.432 121.9 250.12C121.948 249.784 122.068 249.496 122.26 249.256C122.476 249.016 122.74 248.86 123.052 248.788C123.388 248.716 123.748 248.776 124.132 248.968C125.092 249.424 125.992 249.748 126.832 249.94C127.672 250.108 128.5 250.192 129.316 250.192C130.468 250.192 131.32 250 131.872 249.616C132.448 249.208 132.736 248.68 132.736 248.032C132.736 247.48 132.544 247.06 132.16 246.772C131.8 246.46 131.248 246.232 130.504 246.088L126.904 245.404C125.416 245.116 124.276 244.576 123.484 243.784C122.716 242.968 122.332 241.924 122.332 240.652C122.332 239.5 122.644 238.504 123.268 237.664C123.916 236.824 124.804 236.176 125.932 235.72C127.06 235.264 128.356 235.036 129.82 235.036C130.876 235.036 131.86 235.156 132.772 235.396C133.708 235.612 134.608 235.96 135.472 236.44C135.832 236.632 136.072 236.884 136.192 237.196C136.336 237.508 136.372 237.832 136.3 238.168C136.228 238.48 136.084 238.768 135.868 239.032C135.652 239.272 135.376 239.428 135.04 239.5C134.728 239.548 134.368 239.476 133.96 239.284C133.216 238.9 132.496 238.624 131.8 238.456C131.128 238.288 130.48 238.204 129.856 238.204C128.68 238.204 127.804 238.408 127.228 238.816C126.676 239.224 126.4 239.764 126.4 240.436C126.4 240.94 126.568 241.36 126.904 241.696C127.24 242.032 127.756 242.26 128.452 242.38L132.052 243.064C133.612 243.352 134.788 243.88 135.58 244.648C136.396 245.416 136.804 246.448 136.804 247.744C136.804 249.496 136.12 250.876 134.752 251.884C133.384 252.868 131.56 253.36 129.28 253.36ZM148.302 253.36C146.742 253.36 145.434 253.096 144.378 252.568C143.346 252.04 142.578 251.272 142.074 250.264C141.57 249.232 141.318 247.96 141.318 246.448V238.78H139.446C138.87 238.78 138.426 238.636 138.114 238.348C137.802 238.036 137.646 237.616 137.646 237.088C137.646 236.536 137.802 236.116 138.114 235.828C138.426 235.54 138.87 235.396 139.446 235.396H141.318V232.12C141.318 231.376 141.51 230.812 141.894 230.428C142.302 230.044 142.866 229.852 143.586 229.852C144.306 229.852 144.858 230.044 145.242 230.428C145.626 230.812 145.818 231.376 145.818 232.12V235.396H149.634C150.21 235.396 150.654 235.54 150.966 235.828C151.278 236.116 151.434 236.536 151.434 237.088C151.434 237.616 151.278 238.036 150.966 238.348C150.654 238.636 150.21 238.78 149.634 238.78H145.818V246.196C145.818 247.348 146.07 248.212 146.574 248.788C147.078 249.364 147.894 249.652 149.022 249.652C149.43 249.652 149.79 249.616 150.102 249.544C150.414 249.472 150.69 249.424 150.93 249.4C151.218 249.376 151.458 249.472 151.65 249.688C151.842 249.88 151.938 250.288 151.938 250.912C151.938 251.392 151.854 251.824 151.686 252.208C151.542 252.568 151.266 252.82 150.858 252.964C150.546 253.06 150.138 253.144 149.634 253.216C149.13 253.312 148.686 253.36 148.302 253.36Z" fill="url(#paint0_linear_503_451)"/>
<path fill-rule="evenodd" clip-rule="evenodd" d="M65.2096 76.3832H28.79C23.3954 76.3832 19 72.2047 19 67.0762V36.307C19 31.1786 23.3954 27 28.79 27H65.2096C70.6041 27 75 31.1786 75 36.307V67.0762C75 72.2047 70.6041 76.3832 65.2096 76.3832Z" fill="#F8F8F8"/>
<g clip-path="url(#clip0_503_451)">
<path d="M52.6613 49.313L46.3027 44.6503C45.806 44.2866 45.2184 44.0676 44.6048 44.0174C43.9913 43.9673 43.3759 44.088 42.8268 44.3662C42.2777 44.6444 41.8163 45.0693 41.4939 45.5936C41.1715 46.118 41.0005 46.7214 41 47.337V56.667C40.999 57.2831 41.1691 57.8875 41.4912 58.4127C41.8134 58.938 42.275 59.3635 42.8246 59.642C43.3742 59.9205 43.9904 60.041 44.6045 59.9901C45.2185 59.9392 45.8064 59.7188 46.3027 59.3536L52.6613 54.691C53.0833 54.3813 53.4263 53.9767 53.6628 53.5098C53.8993 53.043 54.0225 52.527 54.0225 52.0036C54.0225 51.4803 53.8993 50.9643 53.6628 50.4974C53.4263 50.0306 53.0833 49.6259 52.6613 49.3163V49.313Z" fill="#936CDD"/>
</g>
<path d="M217.448 209.944C217.448 210.803 217.187 211.4 216.664 211.736C216.141 212.035 215.451 212.109 214.592 211.96L206.92 210.504L207.368 208.152L207.368 212.184C207.368 212.744 207.293 213.229 207.144 213.64C206.957 214.013 206.696 214.312 206.36 214.536C206.024 214.723 205.613 214.816 205.128 214.816C204.381 214.816 203.821 214.592 203.448 214.144C203.075 213.659 202.888 213.005 202.888 212.184L202.888 207.312L203.392 209.832L190.624 207.312L191.184 205.576L191.184 211.008C191.184 211.568 191.091 212.053 190.904 212.464C190.717 212.837 190.456 213.136 190.12 213.36C189.784 213.547 189.373 213.64 188.888 213.64C188.141 213.64 187.6 213.416 187.264 212.968C186.891 212.483 186.704 211.829 186.704 211.008L186.704 204.736L187.208 206.752L179.424 205.184C178.603 204.997 178.005 204.68 177.632 204.232C177.259 203.747 177.072 203.131 177.072 202.384C177.072 201.6 177.333 201.04 177.856 200.704C178.341 200.331 179.032 200.237 179.928 200.424L186.704 201.768L186.704 194.712L179.424 193.256C178.603 193.069 178.005 192.752 177.632 192.304C177.259 191.819 177.072 191.203 177.072 190.456C177.072 189.672 177.333 189.112 177.856 188.776C178.341 188.403 179.032 188.309 179.928 188.496L187.208 189.952L186.704 191.632L186.704 188.216C186.704 187.656 186.797 187.189 186.984 186.816C187.133 186.405 187.376 186.107 187.712 185.92C188.011 185.696 188.403 185.584 188.888 185.584C189.597 185.584 190.157 185.808 190.568 186.256C190.979 186.704 191.184 187.357 191.184 188.216L191.184 192.528L190.624 190.568L203.392 193.088L202.888 194.824L202.888 189.392C202.888 188.832 202.981 188.365 203.168 187.992C203.317 187.581 203.56 187.283 203.896 187.096C204.232 186.872 204.643 186.76 205.128 186.76C205.837 186.76 206.397 186.984 206.808 187.432C207.181 187.88 207.368 188.533 207.368 189.392L207.368 195.664L206.92 193.648L215.096 195.328C215.917 195.477 216.515 195.795 216.888 196.28C217.261 196.728 217.448 197.325 217.448 198.072C217.448 198.856 217.205 199.435 216.72 199.808C216.197 200.144 215.488 200.237 214.592 200.088L207.368 198.632L207.368 205.688L215.096 207.2C215.917 207.349 216.515 207.667 216.888 208.152C217.261 208.6 217.448 209.197 217.448 209.944ZM202.888 204.848L202.888 197.848L191.184 195.552L191.184 202.552L202.888 204.848ZM217.448 175.526C217.448 176.683 217.131 177.579 216.496 178.214C215.824 178.811 214.909 179.11 213.752 179.11L181.16 179.11C179.965 179.11 179.069 178.793 178.472 178.158C177.837 177.523 177.52 176.627 177.52 175.47L177.52 161.974C177.52 157.643 178.603 154.302 180.768 151.95C182.933 149.598 185.957 148.422 189.84 148.422C193.723 148.422 196.765 149.598 198.968 151.95C201.133 154.302 202.216 157.643 202.216 161.974L202.216 171.942L213.752 171.942C214.909 171.942 215.824 172.241 216.496 172.838C217.131 173.435 217.448 174.331 217.448 175.526ZM196.56 171.942L196.56 163.094C196.56 160.555 196 158.633 194.88 157.326C193.723 156.019 192.043 155.366 189.84 155.366C187.637 155.366 185.976 156.019 184.856 157.326C183.736 158.633 183.176 160.555 183.176 163.094L183.176 171.942L196.56 171.942ZM217.56 124.484C217.56 128.591 216.739 132.119 215.096 135.068C213.416 137.98 211.064 140.22 208.04 141.788C204.979 143.356 201.376 144.14 197.232 144.14C194.133 144.14 191.352 143.692 188.888 142.796C186.387 141.9 184.259 140.612 182.504 138.932C180.712 137.252 179.349 135.199 178.416 132.772C177.445 130.308 176.96 127.545 176.96 124.484C176.96 122.431 177.221 120.415 177.744 118.436C178.267 116.457 179.013 114.721 179.984 113.228C180.469 112.444 181.067 111.921 181.776 111.66C182.448 111.399 183.12 111.343 183.792 111.492C184.427 111.641 184.968 111.959 185.416 112.444C185.864 112.892 186.125 113.471 186.2 114.18C186.237 114.852 185.995 115.599 185.472 116.42C184.725 117.577 184.184 118.828 183.848 120.172C183.512 121.516 183.344 122.879 183.344 124.26C183.344 126.911 183.885 129.151 184.968 130.98C186.051 132.809 187.619 134.191 189.672 135.124C191.725 136.057 194.245 136.524 197.232 136.524C200.181 136.524 202.701 136.057 204.792 135.124C206.883 134.191 208.469 132.809 209.552 130.98C210.635 129.151 211.176 126.911 211.176 124.26C211.176 122.841 211.008 121.441 210.672 120.06C210.299 118.679 209.739 117.372 208.992 116.14C208.507 115.319 208.301 114.591 208.376 113.956C208.413 113.284 208.637 112.724 209.048 112.276C209.459 111.828 209.981 111.529 210.616 111.38C211.213 111.231 211.848 111.268 212.52 111.492C213.155 111.716 213.715 112.164 214.2 112.836C215.283 114.329 216.123 116.121 216.72 118.212C217.28 120.265 217.56 122.356 217.56 124.484ZM217.448 101.206C217.448 102.363 217.131 103.259 216.496 103.894C215.824 104.491 214.909 104.79 213.752 104.79L180.768 104.79C179.573 104.79 178.659 104.491 178.024 103.894C177.389 103.259 177.072 102.363 177.072 101.206C177.072 100.048 177.389 99.1709 178.024 98.5736C178.659 97.9389 179.573 97.6216 180.768 97.6216L193.984 97.6216L193.984 77.2936L180.768 77.2936C179.573 77.2936 178.659 76.9949 178.024 76.3976C177.389 75.7629 177.072 74.8669 177.072 73.7096C177.072 72.5522 177.389 71.6749 178.024 71.0776C178.659 70.4429 179.573 70.1256 180.768 70.1256L213.752 70.1256C214.909 70.1256 215.824 70.4429 216.496 71.0776C217.131 71.6749 217.448 72.5522 217.448 73.7096C217.448 74.8669 217.131 75.7629 216.496 76.3976C215.824 76.9949 214.909 77.2936 213.752 77.2936L199.976 77.2936L199.976 97.6216L213.752 97.6216C214.909 97.6216 215.824 97.9202 216.496 98.5176C217.131 99.1149 217.448 100.011 217.448 101.206ZM217.448 57.8931C217.448 59.0504 217.131 59.9464 216.496 60.5811C215.824 61.1784 214.909 61.4771 213.752 61.4771L181.16 61.4771C179.965 61.4771 179.069 61.1597 178.472 60.5251C177.837 59.8904 177.52 58.9944 177.52 57.8371L177.52 44.3411C177.52 40.0104 178.565 36.6691 180.656 34.3171C182.709 31.9651 185.603 30.7891 189.336 30.7891C191.763 30.7891 193.853 31.3304 195.608 32.4131C197.363 33.4584 198.707 34.9891 199.64 37.0051C200.573 39.0211 201.04 41.4664 201.04 44.3411L200.2 43.8371L200.2 41.9891C200.2 40.4584 200.573 39.1331 201.32 38.0131C202.067 36.8557 203.243 35.8477 204.848 34.9891L212.632 30.7891C213.416 30.3411 214.181 30.1357 214.928 30.1731C215.675 30.2104 216.291 30.4904 216.776 31.0131C217.224 31.5357 217.448 32.3011 217.448 33.3091C217.448 34.3171 217.243 35.1384 216.832 35.7731C216.384 36.4077 215.712 36.9677 214.816 37.4531L204.4 43.1091C203.131 43.7811 202.291 44.5837 201.88 45.5171C201.432 46.4131 201.208 47.5704 201.208 48.9891L201.208 54.3091L213.752 54.3091C214.909 54.3091 215.824 54.6077 216.496 55.2051C217.131 55.8024 217.448 56.6984 217.448 57.8931ZM195.888 54.3091L195.888 45.5731C195.888 42.9971 195.365 41.0557 194.32 39.7491C193.237 38.4051 191.632 37.7331 189.504 37.7331C187.413 37.7331 185.845 38.4051 184.8 39.7491C183.717 41.0557 183.176 42.9971 183.176 45.5731L183.176 54.3091L195.888 54.3091Z" fill="#F8F8F8"/>
<defs>
<linearGradient id="paint0_linear_503_451" x1="85.5" y1="195" x2="85.5" y2="287" gradientUnits="userSpaceOnUse">
<stop offset="0.364583" stop-color="#F8F8F8"/>
<stop offset="1" stop-color="#F8F8F8" stop-opacity="0"/>
</linearGradient>
<clipPath id="clip0_503_451">
<rect width="16" height="16" fill="white" transform="translate(39 44)"/>
</clipPath>
</defs>
</svg>
