<svg width="245" height="329" viewBox="0 0 245 329" fill="none" xmlns="http://www.w3.org/2000/svg">
<g clip-path="url(#clip0_3_2)">
<path d="M205 0.00012207H40C17.9086 0.00012207 0 17.9087 0 40.0001V289C0 311.092 17.9086 329 40 329H205C227.091 329 245 311.092 245 289V40.0001C245 17.9087 227.091 0.00012207 205 0.00012207Z" fill="#936CDD"/>
<path d="M23.076 289.288C22.332 289.288 21.756 289.084 21.348 288.676C20.964 288.244 20.772 287.656 20.772 286.912V265.96C20.772 265.192 20.976 264.616 21.384 264.232C21.792 263.824 22.368 263.62 23.112 263.62H31.788C34.572 263.62 36.72 264.316 38.232 265.708C39.744 267.1 40.5 269.044 40.5 271.54C40.5 274.036 39.744 275.992 38.232 277.408C36.72 278.8 34.572 279.496 31.788 279.496H25.38V286.912C25.38 287.656 25.188 288.244 24.804 288.676C24.42 289.084 23.844 289.288 23.076 289.288ZM25.38 275.86H31.068C32.7 275.86 33.936 275.5 34.776 274.78C35.616 274.036 36.036 272.956 36.036 271.54C36.036 270.124 35.616 269.056 34.776 268.336C33.936 267.616 32.7 267.256 31.068 267.256H25.38V275.86ZM45.7768 289.288C45.0328 289.288 44.4568 289.096 44.0488 288.712C43.6648 288.304 43.4728 287.728 43.4728 286.984V273.376C43.4728 272.632 43.6648 272.068 44.0488 271.684C44.4328 271.3 44.9728 271.108 45.6688 271.108C46.3648 271.108 46.9048 271.3 47.2888 271.684C47.6728 272.068 47.8648 272.632 47.8648 273.376V275.644H47.5048C47.8408 274.204 48.5008 273.112 49.4848 272.368C50.4688 271.624 51.7768 271.18 53.4088 271.036C53.9128 270.988 54.3088 271.12 54.5968 271.432C54.9088 271.72 55.0888 272.176 55.1368 272.8C55.1848 273.4 55.0408 273.892 54.7048 274.276C54.3928 274.636 53.9128 274.852 53.2648 274.924L52.4728 274.996C51.0088 275.14 49.9048 275.596 49.1608 276.364C48.4168 277.108 48.0448 278.164 48.0448 279.532V286.984C48.0448 287.728 47.8528 288.304 47.4688 288.712C47.0848 289.096 46.5208 289.288 45.7768 289.288ZM65.3172 289.36C63.4932 289.36 61.9092 288.988 60.5652 288.244C59.2212 287.5 58.1772 286.444 57.4332 285.076C56.6892 283.684 56.3172 282.052 56.3172 280.18C56.3172 278.764 56.5212 277.504 56.9292 276.4C57.3612 275.272 57.9732 274.312 58.7652 273.52C59.5572 272.704 60.5052 272.092 61.6092 271.684C62.7132 271.252 63.9492 271.036 65.3172 271.036C67.1412 271.036 68.7252 271.408 70.0692 272.152C71.4132 272.896 72.4572 273.952 73.2012 275.32C73.9452 276.688 74.3172 278.308 74.3172 280.18C74.3172 281.596 74.1012 282.868 73.6692 283.996C73.2612 285.124 72.6612 286.096 71.8692 286.912C71.0772 287.704 70.1292 288.316 69.0252 288.748C67.9212 289.156 66.6852 289.36 65.3172 289.36ZM65.3172 285.94C66.2052 285.94 66.9852 285.724 67.6572 285.292C68.3292 284.86 68.8452 284.224 69.2052 283.384C69.5892 282.52 69.7812 281.452 69.7812 280.18C69.7812 278.26 69.3732 276.832 68.5572 275.896C67.7412 274.936 66.6612 274.456 65.3172 274.456C64.4292 274.456 63.6492 274.672 62.9772 275.104C62.3052 275.512 61.7772 276.148 61.3932 277.012C61.0332 277.852 60.8532 278.908 60.8532 280.18C60.8532 282.076 61.2612 283.516 62.0772 284.5C62.8932 285.46 63.9732 285.94 65.3172 285.94ZM75.8714 295.804C75.3434 295.852 74.9114 295.768 74.5754 295.552C74.2394 295.36 74.0114 295.108 73.8914 294.796C73.7474 294.484 73.6994 294.16 73.7474 293.824C73.7954 293.488 73.9394 293.188 74.1794 292.924C74.3954 292.684 74.6954 292.552 75.0794 292.528C76.1594 292.432 76.9394 292.12 77.4194 291.592C77.9234 291.088 78.1754 290.308 78.1754 289.252V273.376C78.1754 272.632 78.3674 272.068 78.7514 271.684C79.1594 271.3 79.7234 271.108 80.4434 271.108C81.1634 271.108 81.7154 271.3 82.0994 271.684C82.4834 272.068 82.6754 272.632 82.6754 273.376V288.856C82.6754 290.392 82.4234 291.652 81.9194 292.636C81.4394 293.62 80.6954 294.364 79.6874 294.868C78.7034 295.372 77.4314 295.684 75.8714 295.804ZM80.4074 267.796C79.5674 267.796 78.9074 267.592 78.4274 267.184C77.9714 266.752 77.7434 266.164 77.7434 265.42C77.7434 264.652 77.9714 264.064 78.4274 263.656C78.9074 263.248 79.5674 263.044 80.4074 263.044C81.2714 263.044 81.9314 263.248 82.3874 263.656C82.8434 264.064 83.0714 264.652 83.0714 265.42C83.0714 266.164 82.8434 266.752 82.3874 267.184C81.9314 267.592 81.2714 267.796 80.4074 267.796ZM96.0238 289.36C94.0318 289.36 92.3158 288.988 90.8758 288.244C89.4358 287.5 88.3198 286.444 87.5278 285.076C86.7598 283.708 86.3758 282.088 86.3758 280.216C86.3758 278.392 86.7478 276.796 87.4918 275.428C88.2598 274.06 89.3038 272.992 90.6238 272.224C91.9678 271.432 93.4918 271.036 95.1958 271.036C96.4438 271.036 97.5598 271.24 98.5438 271.648C99.5518 272.056 100.404 272.644 101.1 273.412C101.82 274.18 102.36 275.116 102.72 276.22C103.104 277.3 103.296 278.524 103.296 279.892C103.296 280.324 103.14 280.66 102.828 280.9C102.54 281.116 102.12 281.224 101.568 281.224H90.0118V278.632H100.128L99.5518 279.172C99.5518 278.068 99.3838 277.144 99.0478 276.4C98.7358 275.656 98.2678 275.092 97.6438 274.708C97.0438 274.3 96.2878 274.096 95.3758 274.096C94.3678 274.096 93.5038 274.336 92.7838 274.816C92.0878 275.272 91.5478 275.932 91.1638 276.796C90.8038 277.636 90.6238 278.644 90.6238 279.82V280.072C90.6238 282.04 91.0798 283.516 91.9918 284.5C92.9278 285.46 94.2958 285.94 96.0958 285.94C96.7198 285.94 97.4158 285.868 98.1838 285.724C98.9758 285.556 99.7198 285.28 100.416 284.896C100.92 284.608 101.364 284.488 101.748 284.536C102.132 284.56 102.432 284.692 102.648 284.932C102.888 285.172 103.032 285.472 103.08 285.832C103.128 286.168 103.056 286.516 102.864 286.876C102.696 287.236 102.396 287.548 101.964 287.812C101.124 288.34 100.152 288.736 99.0478 289C97.9678 289.24 96.9598 289.36 96.0238 289.36ZM109.092 289.288C108.372 289.288 107.82 289.096 107.436 288.712C107.052 288.304 106.86 287.728 106.86 286.984V265.6C106.86 264.856 107.052 264.292 107.436 263.908C107.82 263.524 108.372 263.332 109.092 263.332C109.812 263.332 110.364 263.524 110.748 263.908C111.156 264.292 111.36 264.856 111.36 265.6V278.884H111.432L117.372 272.62C117.852 272.14 118.272 271.768 118.632 271.504C118.992 271.24 119.484 271.108 120.108 271.108C120.732 271.108 121.2 271.276 121.512 271.612C121.848 271.924 122.016 272.308 122.016 272.764C122.016 273.22 121.8 273.676 121.368 274.132L115.104 280.756V278.884L121.98 286.3C122.412 286.756 122.604 287.224 122.556 287.704C122.532 288.16 122.34 288.544 121.98 288.856C121.62 289.144 121.164 289.288 120.612 289.288C119.94 289.288 119.4 289.156 118.992 288.892C118.608 288.628 118.176 288.232 117.696 287.704L111.432 281.152H111.36V286.984C111.36 288.52 110.604 289.288 109.092 289.288ZM133.945 289.36C132.097 289.36 130.489 288.988 129.121 288.244C127.753 287.476 126.697 286.396 125.953 285.004C125.209 283.612 124.837 281.98 124.837 280.108C124.837 278.692 125.041 277.432 125.449 276.328C125.881 275.2 126.493 274.252 127.285 273.484C128.077 272.692 129.037 272.092 130.165 271.684C131.293 271.252 132.553 271.036 133.945 271.036C134.737 271.036 135.589 271.144 136.501 271.36C137.437 271.576 138.313 271.936 139.129 272.44C139.513 272.68 139.765 272.968 139.885 273.304C140.005 273.64 140.029 273.988 139.957 274.348C139.885 274.684 139.729 274.984 139.489 275.248C139.273 275.488 138.997 275.644 138.661 275.716C138.325 275.764 137.953 275.68 137.545 275.464C137.017 275.152 136.477 274.924 135.925 274.78C135.373 274.612 134.845 274.528 134.341 274.528C133.549 274.528 132.853 274.66 132.253 274.924C131.653 275.164 131.137 275.524 130.705 276.004C130.297 276.46 129.985 277.036 129.769 277.732C129.553 278.428 129.445 279.232 129.445 280.144C129.445 281.92 129.865 283.324 130.705 284.356C131.569 285.364 132.781 285.868 134.341 285.868C134.845 285.868 135.361 285.796 135.889 285.652C136.441 285.508 136.993 285.28 137.545 284.968C137.953 284.752 138.313 284.68 138.625 284.752C138.961 284.824 139.237 284.992 139.453 285.256C139.669 285.496 139.801 285.796 139.849 286.156C139.897 286.492 139.849 286.828 139.705 287.164C139.585 287.5 139.345 287.776 138.985 287.992C138.193 288.472 137.353 288.82 136.465 289.036C135.577 289.252 134.737 289.36 133.945 289.36ZM145.021 289.252C144.301 289.252 143.749 289.036 143.365 288.604C142.981 288.172 142.789 287.572 142.789 286.804V273.592C142.789 272.8 142.981 272.2 143.365 271.792C143.749 271.36 144.301 271.144 145.021 271.144C145.741 271.144 146.293 271.36 146.677 271.792C147.085 272.2 147.289 272.8 147.289 273.592V286.804C147.289 287.572 147.097 288.172 146.713 288.604C146.329 289.036 145.765 289.252 145.021 289.252ZM145.021 267.796C144.181 267.796 143.521 267.592 143.041 267.184C142.585 266.752 142.357 266.164 142.357 265.42C142.357 264.652 142.585 264.064 143.041 263.656C143.521 263.248 144.181 263.044 145.021 263.044C145.885 263.044 146.545 263.248 147.001 263.656C147.457 264.064 147.685 264.652 147.685 265.42C147.685 266.164 147.457 266.752 147.001 267.184C146.545 267.592 145.885 267.796 145.021 267.796ZM149.805 295.804C149.277 295.852 148.845 295.768 148.509 295.552C148.173 295.36 147.945 295.108 147.825 294.796C147.681 294.484 147.633 294.16 147.681 293.824C147.729 293.488 147.873 293.188 148.113 292.924C148.329 292.684 148.629 292.552 149.013 292.528C150.093 292.432 150.873 292.12 151.353 291.592C151.857 291.088 152.109 290.308 152.109 289.252V273.376C152.109 272.632 152.301 272.068 152.685 271.684C153.093 271.3 153.657 271.108 154.377 271.108C155.097 271.108 155.649 271.3 156.033 271.684C156.417 272.068 156.609 272.632 156.609 273.376V288.856C156.609 290.392 156.357 291.652 155.853 292.636C155.373 293.62 154.629 294.364 153.621 294.868C152.637 295.372 151.365 295.684 149.805 295.804ZM154.341 267.796C153.501 267.796 152.841 267.592 152.361 267.184C151.905 266.752 151.677 266.164 151.677 265.42C151.677 264.652 151.905 264.064 152.361 263.656C152.841 263.248 153.501 263.044 154.341 263.044C155.205 263.044 155.865 263.248 156.321 263.656C156.777 264.064 157.005 264.652 157.005 265.42C157.005 266.164 156.777 266.752 156.321 267.184C155.865 267.592 155.205 267.796 154.341 267.796ZM169.957 289.36C167.965 289.36 166.249 288.988 164.809 288.244C163.369 287.5 162.253 286.444 161.461 285.076C160.693 283.708 160.309 282.088 160.309 280.216C160.309 278.392 160.681 276.796 161.425 275.428C162.193 274.06 163.237 272.992 164.557 272.224C165.901 271.432 167.425 271.036 169.129 271.036C170.377 271.036 171.493 271.24 172.477 271.648C173.485 272.056 174.337 272.644 175.033 273.412C175.753 274.18 176.293 275.116 176.653 276.22C177.037 277.3 177.229 278.524 177.229 279.892C177.229 280.324 177.073 280.66 176.761 280.9C176.473 281.116 176.053 281.224 175.501 281.224H163.945V278.632H174.061L173.485 279.172C173.485 278.068 173.317 277.144 172.981 276.4C172.669 275.656 172.201 275.092 171.577 274.708C170.977 274.3 170.221 274.096 169.309 274.096C168.301 274.096 167.437 274.336 166.717 274.816C166.021 275.272 165.481 275.932 165.097 276.796C164.737 277.636 164.557 278.644 164.557 279.82V280.072C164.557 282.04 165.013 283.516 165.925 284.5C166.861 285.46 168.229 285.94 170.029 285.94C170.653 285.94 171.349 285.868 172.117 285.724C172.909 285.556 173.653 285.28 174.349 284.896C174.853 284.608 175.297 284.488 175.681 284.536C176.065 284.56 176.365 284.692 176.581 284.932C176.821 285.172 176.965 285.472 177.013 285.832C177.061 286.168 176.989 286.516 176.797 286.876C176.629 287.236 176.329 287.548 175.897 287.812C175.057 288.34 174.085 288.736 172.981 289C171.901 289.24 170.893 289.36 169.957 289.36Z" fill="#F8F8F8"/>
<path fill-rule="evenodd" clip-rule="evenodd" d="M65.2096 76.3833H28.79C23.3954 76.3833 19 72.2048 19 67.0764V36.3071C19 31.1787 23.3954 27.0001 28.79 27.0001H65.2096C70.6041 27.0001 75 31.1787 75 36.3071V67.0764C75 72.2048 70.6041 76.3833 65.2096 76.3833Z" fill="#F8F8F8"/>
<path d="M52.6613 49.3131L46.3027 44.6504C45.806 44.2867 45.2184 44.0677 44.6048 44.0175C43.9913 43.9674 43.3759 44.0881 42.8268 44.3663C42.2777 44.6446 41.8163 45.0694 41.4939 45.5937C41.1715 46.1181 41.0005 46.7215 41 47.3371V56.6671C40.999 57.2832 41.1691 57.8876 41.4912 58.4128C41.8134 58.9381 42.275 59.3637 42.8246 59.6421C43.3742 59.9206 43.9904 60.0411 44.6045 59.9902C45.2185 59.9393 45.8064 59.719 46.3027 59.3537L52.6613 54.6911C53.0833 54.3814 53.4263 53.9768 53.6628 53.5099C53.8993 53.0431 54.0225 52.5271 54.0225 52.0037C54.0225 51.4804 53.8993 50.9644 53.6628 50.4975C53.4263 50.0307 53.0833 49.626 52.6613 49.3164V49.3131Z" fill="#936CDD"/>
<path d="M217.456 203.818C217.456 204.692 217.19 205.3 216.658 205.642C216.126 205.946 215.423 206.022 214.549 205.87L206.74 204.388L207.196 201.994V206.098C207.196 206.668 207.12 207.162 206.968 207.58C206.778 207.96 206.512 208.264 206.17 208.492C205.828 208.682 205.41 208.777 204.916 208.777C204.156 208.777 203.586 208.549 203.206 208.093C202.826 207.599 202.636 206.934 202.636 206.098V201.139L203.149 203.704L190.153 201.139L190.723 199.372V204.901C190.723 205.471 190.628 205.965 190.438 206.383C190.248 206.763 189.982 207.067 189.64 207.295C189.298 207.485 188.88 207.58 188.386 207.58C187.626 207.58 187.075 207.352 186.733 206.896C186.353 206.402 186.163 205.737 186.163 204.901V198.517L186.676 200.569L178.753 198.973C177.917 198.783 177.309 198.46 176.929 198.004C176.549 197.51 176.359 196.883 176.359 196.123C176.359 195.325 176.625 194.755 177.157 194.413C177.651 194.033 178.354 193.938 179.266 194.128L186.163 195.496V188.314L178.753 186.832C177.917 186.642 177.309 186.319 176.929 185.863C176.549 185.369 176.359 184.742 176.359 183.982C176.359 183.184 176.625 182.614 177.157 182.272C177.651 181.892 178.354 181.797 179.266 181.987L186.676 183.469L186.163 185.179V181.702C186.163 181.132 186.258 180.657 186.448 180.277C186.6 179.859 186.847 179.555 187.189 179.365C187.493 179.137 187.892 179.023 188.386 179.023C189.108 179.023 189.678 179.251 190.096 179.707C190.514 180.163 190.723 180.828 190.723 181.702V186.091L190.153 184.096L203.149 186.661L202.636 188.428V182.899C202.636 182.329 202.731 181.854 202.921 181.474C203.073 181.056 203.32 180.752 203.662 180.562C204.004 180.334 204.422 180.22 204.916 180.22C205.638 180.22 206.208 180.448 206.626 180.904C207.006 181.36 207.196 182.025 207.196 182.899V189.283L206.74 187.231L215.062 188.941C215.898 189.093 216.506 189.416 216.886 189.91C217.266 190.366 217.456 190.974 217.456 191.734C217.456 192.532 217.209 193.121 216.715 193.501C216.183 193.843 215.461 193.938 214.549 193.786L207.196 192.304V199.486L215.062 201.025C215.898 201.177 216.506 201.5 216.886 201.994C217.266 202.45 217.456 203.058 217.456 203.818ZM202.636 198.631V191.506L190.723 189.169V196.294L202.636 198.631ZM217.456 168.785C217.456 169.963 217.133 170.875 216.487 171.521C215.803 172.129 214.872 172.433 213.694 172.433H180.52C179.304 172.433 178.392 172.11 177.784 171.464C177.138 170.818 176.815 169.906 176.815 168.728V154.991C176.815 150.583 177.917 147.182 180.121 144.788C182.325 142.394 185.403 141.197 189.355 141.197C193.307 141.197 196.404 142.394 198.646 144.788C200.85 147.182 201.952 150.583 201.952 154.991V165.137H213.694C214.872 165.137 215.803 165.441 216.487 166.049C217.133 166.657 217.456 167.569 217.456 168.785ZM196.195 165.137V156.131C196.195 153.547 195.625 151.59 194.485 150.26C193.307 148.93 191.597 148.265 189.355 148.265C187.113 148.265 185.422 148.93 184.282 150.26C183.142 151.59 182.572 153.547 182.572 156.131V165.137H196.195ZM217.57 121.399C217.57 123.071 217.437 124.743 217.171 126.415C216.943 128.087 216.582 129.664 216.088 131.146C215.556 132.628 214.91 133.958 214.15 135.136C213.694 135.82 213.143 136.295 212.497 136.561C211.851 136.827 211.224 136.922 210.616 136.846C209.97 136.732 209.419 136.485 208.963 136.105C208.469 135.687 208.165 135.174 208.051 134.566C207.937 133.958 208.108 133.293 208.564 132.571C209.552 130.899 210.274 129.132 210.73 127.27C211.186 125.408 211.414 123.451 211.414 121.399C211.414 118.397 210.92 116.212 209.932 114.844C208.906 113.476 207.595 112.792 205.999 112.792C204.669 112.792 203.624 113.286 202.864 114.274C202.104 115.224 201.477 116.877 200.983 119.233L199.672 125.503C198.912 129.113 197.639 131.811 195.853 133.597C194.029 135.345 191.635 136.219 188.671 136.219C186.809 136.219 185.118 135.839 183.598 135.079C182.078 134.319 180.767 133.255 179.665 131.887C178.563 130.481 177.727 128.828 177.157 126.928C176.549 124.99 176.245 122.862 176.245 120.544C176.245 118.264 176.53 116.098 177.1 114.046C177.67 111.994 178.506 110.151 179.608 108.517C180.026 107.909 180.539 107.51 181.147 107.32C181.755 107.092 182.363 107.035 182.971 107.149C183.541 107.263 184.035 107.529 184.453 107.947C184.871 108.365 185.118 108.897 185.194 109.543C185.27 110.151 185.08 110.854 184.624 111.652C183.826 113.058 183.256 114.483 182.914 115.927C182.572 117.371 182.401 118.929 182.401 120.601C182.401 122.349 182.648 123.85 183.142 125.104C183.636 126.358 184.339 127.327 185.251 128.011C186.125 128.657 187.17 128.98 188.386 128.98C189.754 128.98 190.856 128.524 191.692 127.612C192.49 126.7 193.117 125.142 193.573 122.938L194.884 116.725C195.682 112.963 196.936 110.17 198.646 108.346C200.356 106.484 202.636 105.553 205.486 105.553C207.31 105.553 208.963 105.933 210.445 106.693C211.927 107.415 213.2 108.479 214.264 109.885C215.328 111.253 216.145 112.906 216.715 114.844C217.285 116.782 217.57 118.967 217.57 121.399ZM217.456 95.6427C217.456 96.8207 217.133 97.7327 216.487 98.3787C215.803 98.9867 214.872 99.2907 213.694 99.2907H180.121C178.905 99.2907 177.974 98.9867 177.328 98.3787C176.682 97.7327 176.359 96.8207 176.359 95.6427C176.359 94.4647 176.682 93.5717 177.328 92.9637C177.974 92.3177 178.905 91.9947 180.121 91.9947H193.573V71.3037H180.121C178.905 71.3037 177.974 70.9997 177.328 70.3917C176.682 69.7457 176.359 68.8337 176.359 67.6557C176.359 66.4777 176.682 65.5847 177.328 64.9767C177.974 64.3307 178.905 64.0077 180.121 64.0077H213.694C214.872 64.0077 215.803 64.3307 216.487 64.9767C217.133 65.5847 217.456 66.4777 217.456 67.6557C217.456 68.8337 217.133 69.7457 216.487 70.3917C215.803 70.9997 214.872 71.3037 213.694 71.3037H199.672V91.9947H213.694C214.872 91.9947 215.803 92.2987 216.487 92.9067C217.133 93.5147 217.456 94.4267 217.456 95.6427ZM217.456 51.5567C217.456 52.7347 217.133 53.6467 216.487 54.2927C215.803 54.9007 214.872 55.2047 213.694 55.2047H180.52C179.304 55.2047 178.392 54.8817 177.784 54.2357C177.138 53.5897 176.815 52.6777 176.815 51.4997V37.7627C176.815 33.3547 177.879 29.9537 180.007 27.5597C182.097 25.1657 185.042 23.9688 188.842 23.9688C191.312 23.9688 193.44 24.5197 195.226 25.6217C197.012 26.6857 198.38 28.2437 199.33 30.2958C200.28 32.3477 200.755 34.8367 200.755 37.7627L199.9 37.2497V35.3687C199.9 33.8107 200.28 32.4617 201.04 31.3217C201.8 30.1437 202.997 29.1177 204.631 28.2437L212.554 23.9688C213.352 23.5127 214.131 23.3037 214.891 23.3417C215.651 23.3797 216.278 23.6647 216.772 24.1967C217.228 24.7287 217.456 25.5077 217.456 26.5337C217.456 27.5597 217.247 28.3957 216.829 29.0417C216.373 29.6877 215.689 30.2577 214.777 30.7517L204.175 36.5087C202.883 37.1927 202.028 38.0097 201.61 38.9597C201.154 39.8717 200.926 41.0497 200.926 42.4937V47.9087H213.694C214.872 47.9087 215.803 48.2127 216.487 48.8207C217.133 49.4287 217.456 50.3407 217.456 51.5567ZM195.511 47.9087V39.0167C195.511 36.3947 194.979 34.4187 193.915 33.0887C192.813 31.7207 191.179 31.0367 189.013 31.0367C186.885 31.0367 185.289 31.7207 184.225 33.0887C183.123 34.4187 182.572 36.3947 182.572 39.0167V47.9087H195.511Z" fill="#F8F8F8"/>
<path d="M24.076 248.288C23.332 248.288 22.756 248.084 22.348 247.676C21.964 247.244 21.772 246.656 21.772 245.912V224.96C21.772 224.192 21.976 223.616 22.384 223.232C22.792 222.824 23.368 222.62 24.112 222.62H32.788C35.572 222.62 37.72 223.316 39.232 224.708C40.744 226.1 41.5 228.044 41.5 230.54C41.5 233.036 40.744 234.992 39.232 236.408C37.72 237.8 35.572 238.496 32.788 238.496H26.38V245.912C26.38 246.656 26.188 247.244 25.804 247.676C25.42 248.084 24.844 248.288 24.076 248.288ZM26.38 234.86H32.068C33.7 234.86 34.936 234.5 35.776 233.78C36.616 233.036 37.036 231.956 37.036 230.54C37.036 229.124 36.616 228.056 35.776 227.336C34.936 226.616 33.7 226.256 32.068 226.256H26.38V234.86ZM51.9735 248.36C50.1495 248.36 48.5655 247.988 47.2215 247.244C45.8775 246.5 44.8335 245.444 44.0895 244.076C43.3455 242.684 42.9735 241.052 42.9735 239.18C42.9735 237.764 43.1775 236.504 43.5855 235.4C44.0175 234.272 44.6295 233.312 45.4215 232.52C46.2135 231.704 47.1615 231.092 48.2655 230.684C49.3695 230.252 50.6055 230.036 51.9735 230.036C53.7975 230.036 55.3815 230.408 56.7255 231.152C58.0695 231.896 59.1135 232.952 59.8575 234.32C60.6015 235.688 60.9735 237.308 60.9735 239.18C60.9735 240.596 60.7575 241.868 60.3255 242.996C59.9175 244.124 59.3175 245.096 58.5255 245.912C57.7335 246.704 56.7855 247.316 55.6815 247.748C54.5775 248.156 53.3415 248.36 51.9735 248.36ZM51.9735 244.94C52.8615 244.94 53.6415 244.724 54.3135 244.292C54.9855 243.86 55.5015 243.224 55.8615 242.384C56.2455 241.52 56.4375 240.452 56.4375 239.18C56.4375 237.26 56.0295 235.832 55.2135 234.896C54.3975 233.936 53.3175 233.456 51.9735 233.456C51.0855 233.456 50.3055 233.672 49.6335 234.104C48.9615 234.512 48.4335 235.148 48.0495 236.012C47.6895 236.852 47.5095 237.908 47.5095 239.18C47.5095 241.076 47.9175 242.516 48.7335 243.5C49.5495 244.46 50.6295 244.94 51.9735 244.94ZM71.4557 248.36C69.9197 248.36 68.5637 247.988 67.3877 247.244C66.2357 246.5 65.3357 245.444 64.6877 244.076C64.0397 242.684 63.7157 241.052 63.7157 239.18C63.7157 237.284 64.0397 235.664 64.6877 234.32C65.3357 232.952 66.2357 231.896 67.3877 231.152C68.5637 230.408 69.9197 230.036 71.4557 230.036C72.9197 230.036 74.1917 230.396 75.2717 231.116C76.3757 231.836 77.1197 232.784 77.5037 233.96H77.1077V224.6C77.1077 223.856 77.2997 223.292 77.6837 222.908C78.0677 222.524 78.6197 222.332 79.3397 222.332C80.0597 222.332 80.6117 222.524 80.9957 222.908C81.4037 223.292 81.6077 223.856 81.6077 224.6V245.984C81.6077 246.728 81.4157 247.304 81.0317 247.712C80.6477 248.096 80.0957 248.288 79.3757 248.288C78.6557 248.288 78.1037 248.096 77.7197 247.712C77.3357 247.304 77.1437 246.728 77.1437 245.984V243.176L77.5397 244.256C77.1797 245.504 76.4477 246.5 75.3437 247.244C74.2397 247.988 72.9437 248.36 71.4557 248.36ZM72.7157 244.94C73.6037 244.94 74.3837 244.724 75.0557 244.292C75.7277 243.86 76.2437 243.224 76.6037 242.384C76.9877 241.52 77.1797 240.452 77.1797 239.18C77.1797 237.26 76.7717 235.832 75.9557 234.896C75.1397 233.936 74.0597 233.456 72.7157 233.456C71.8277 233.456 71.0477 233.672 70.3757 234.104C69.7037 234.512 69.1757 235.148 68.7917 236.012C68.4317 236.852 68.2517 237.908 68.2517 239.18C68.2517 241.076 68.6597 242.516 69.4757 243.5C70.2917 244.46 71.3717 244.94 72.7157 244.94ZM94.4096 248.36C92.5616 248.36 90.9536 247.988 89.5856 247.244C88.2176 246.476 87.1616 245.396 86.4176 244.004C85.6736 242.612 85.3016 240.98 85.3016 239.108C85.3016 237.692 85.5056 236.432 85.9136 235.328C86.3456 234.2 86.9576 233.252 87.7496 232.484C88.5416 231.692 89.5016 231.092 90.6296 230.684C91.7576 230.252 93.0176 230.036 94.4096 230.036C95.2016 230.036 96.0536 230.144 96.9656 230.36C97.9016 230.576 98.7776 230.936 99.5936 231.44C99.9776 231.68 100.23 231.968 100.35 232.304C100.47 232.64 100.494 232.988 100.422 233.348C100.35 233.684 100.194 233.984 99.9536 234.248C99.7376 234.488 99.4616 234.644 99.1256 234.716C98.7896 234.764 98.4176 234.68 98.0096 234.464C97.4816 234.152 96.9416 233.924 96.3896 233.78C95.8376 233.612 95.3096 233.528 94.8056 233.528C94.0136 233.528 93.3176 233.66 92.7176 233.924C92.1176 234.164 91.6016 234.524 91.1696 235.004C90.7616 235.46 90.4496 236.036 90.2336 236.732C90.0176 237.428 89.9096 238.232 89.9096 239.144C89.9096 240.92 90.3296 242.324 91.1696 243.356C92.0336 244.364 93.2456 244.868 94.8056 244.868C95.3096 244.868 95.8256 244.796 96.3536 244.652C96.9056 244.508 97.4576 244.28 98.0096 243.968C98.4176 243.752 98.7776 243.68 99.0896 243.752C99.4256 243.824 99.7016 243.992 99.9176 244.256C100.134 244.496 100.266 244.796 100.314 245.156C100.362 245.492 100.314 245.828 100.17 246.164C100.05 246.5 99.8096 246.776 99.4496 246.992C98.6576 247.472 97.8176 247.82 96.9296 248.036C96.0416 248.252 95.2016 248.36 94.4096 248.36ZM108.945 248.36C107.673 248.36 106.533 248.12 105.525 247.64C104.541 247.136 103.761 246.464 103.185 245.624C102.633 244.784 102.357 243.836 102.357 242.78C102.357 241.484 102.693 240.464 103.365 239.72C104.037 238.952 105.129 238.4 106.641 238.064C108.153 237.728 110.181 237.56 112.725 237.56H114.525V240.152H112.761C111.273 240.152 110.085 240.224 109.197 240.368C108.309 240.512 107.673 240.764 107.289 241.124C106.929 241.46 106.749 241.94 106.749 242.564C106.749 243.356 107.025 244.004 107.577 244.508C108.129 245.012 108.897 245.264 109.881 245.264C110.673 245.264 111.369 245.084 111.969 244.724C112.593 244.34 113.085 243.824 113.445 243.176C113.805 242.528 113.985 241.784 113.985 240.944V236.804C113.985 235.604 113.721 234.74 113.193 234.212C112.665 233.684 111.777 233.42 110.529 233.42C109.833 233.42 109.077 233.504 108.261 233.672C107.469 233.84 106.629 234.128 105.741 234.536C105.285 234.752 104.877 234.812 104.517 234.716C104.181 234.62 103.917 234.428 103.725 234.14C103.533 233.828 103.437 233.492 103.437 233.132C103.437 232.772 103.533 232.424 103.725 232.088C103.917 231.728 104.241 231.464 104.697 231.296C105.801 230.84 106.857 230.516 107.865 230.324C108.897 230.132 109.833 230.036 110.673 230.036C112.401 230.036 113.817 230.3 114.921 230.828C116.049 231.356 116.889 232.16 117.441 233.24C117.993 234.296 118.269 235.664 118.269 237.344V245.984C118.269 246.728 118.089 247.304 117.729 247.712C117.369 248.096 116.853 248.288 116.181 248.288C115.509 248.288 114.981 248.096 114.597 247.712C114.237 247.304 114.057 246.728 114.057 245.984V244.256H114.345C114.177 245.096 113.841 245.828 113.337 246.452C112.857 247.052 112.245 247.52 111.501 247.856C110.757 248.192 109.905 248.36 108.945 248.36ZM129.28 248.36C128.248 248.36 127.156 248.252 126.004 248.036C124.852 247.82 123.82 247.448 122.908 246.92C122.524 246.68 122.248 246.404 122.08 246.092C121.936 245.756 121.876 245.432 121.9 245.12C121.948 244.784 122.068 244.496 122.26 244.256C122.476 244.016 122.74 243.86 123.052 243.788C123.388 243.716 123.748 243.776 124.132 243.968C125.092 244.424 125.992 244.748 126.832 244.94C127.672 245.108 128.5 245.192 129.316 245.192C130.468 245.192 131.32 245 131.872 244.616C132.448 244.208 132.736 243.68 132.736 243.032C132.736 242.48 132.544 242.06 132.16 241.772C131.8 241.46 131.248 241.232 130.504 241.088L126.904 240.404C125.416 240.116 124.276 239.576 123.484 238.784C122.716 237.968 122.332 236.924 122.332 235.652C122.332 234.5 122.644 233.504 123.268 232.664C123.916 231.824 124.804 231.176 125.932 230.72C127.06 230.264 128.356 230.036 129.82 230.036C130.876 230.036 131.86 230.156 132.772 230.396C133.708 230.612 134.608 230.96 135.472 231.44C135.832 231.632 136.072 231.884 136.192 232.196C136.336 232.508 136.372 232.832 136.3 233.168C136.228 233.48 136.084 233.768 135.868 234.032C135.652 234.272 135.376 234.428 135.04 234.5C134.728 234.548 134.368 234.476 133.96 234.284C133.216 233.9 132.496 233.624 131.8 233.456C131.128 233.288 130.48 233.204 129.856 233.204C128.68 233.204 127.804 233.408 127.228 233.816C126.676 234.224 126.4 234.764 126.4 235.436C126.4 235.94 126.568 236.36 126.904 236.696C127.24 237.032 127.756 237.26 128.452 237.38L132.052 238.064C133.612 238.352 134.788 238.88 135.58 239.648C136.396 240.416 136.804 241.448 136.804 242.744C136.804 244.496 136.12 245.876 134.752 246.884C133.384 247.868 131.56 248.36 129.28 248.36ZM148.302 248.36C146.742 248.36 145.434 248.096 144.378 247.568C143.346 247.04 142.578 246.272 142.074 245.264C141.57 244.232 141.318 242.96 141.318 241.448V233.78H139.446C138.87 233.78 138.426 233.636 138.114 233.348C137.802 233.036 137.646 232.616 137.646 232.088C137.646 231.536 137.802 231.116 138.114 230.828C138.426 230.54 138.87 230.396 139.446 230.396H141.318V227.12C141.318 226.376 141.51 225.812 141.894 225.428C142.302 225.044 142.866 224.852 143.586 224.852C144.306 224.852 144.858 225.044 145.242 225.428C145.626 225.812 145.818 226.376 145.818 227.12V230.396H149.634C150.21 230.396 150.654 230.54 150.966 230.828C151.278 231.116 151.434 231.536 151.434 232.088C151.434 232.616 151.278 233.036 150.966 233.348C150.654 233.636 150.21 233.78 149.634 233.78H145.818V241.196C145.818 242.348 146.07 243.212 146.574 243.788C147.078 244.364 147.894 244.652 149.022 244.652C149.43 244.652 149.79 244.616 150.102 244.544C150.414 244.472 150.69 244.424 150.93 244.4C151.218 244.376 151.458 244.472 151.65 244.688C151.842 244.88 151.938 245.288 151.938 245.912C151.938 246.392 151.854 246.824 151.686 247.208C151.542 247.568 151.266 247.82 150.858 247.964C150.546 248.06 150.138 248.144 149.634 248.216C149.13 248.312 148.686 248.36 148.302 248.36Z" fill="#F8F8F8"/>
</g>
<defs>
<clipPath id="clip0_3_2">
<rect width="245" height="329" fill="white"/>
</clipPath>
</defs>
</svg>
