<svg width="49" height="48" viewBox="0 0 49 48" fill="none" xmlns="http://www.w3.org/2000/svg">
<g clip-path="url(#clip0_503_433)">
<path d="M2.0098 48.0009C2.5429 48.0008 3.05413 47.79 3.43104 47.4149L16.7367 34.1769L19.2455 36.7609C21.1364 38.7489 23.7425 39.9097 26.4924 39.9889C27.4091 39.9916 28.3195 39.8381 29.1841 39.5349C30.52 39.0773 31.6936 38.2437 32.5625 37.1353C33.4314 36.0269 33.9582 34.6914 34.079 33.2909C34.2971 31.2626 34.146 29.2118 33.6327 27.2369L33.2025 25.1529C33.121 24.8196 33.127 24.4711 33.22 24.1408C33.3129 23.8105 33.4897 23.5096 33.7332 23.2669L36.9235 20.0909C37.0493 19.9652 37.2196 19.8934 37.3979 19.8909C37.4605 19.8793 37.5251 19.8853 37.5844 19.9083C37.6437 19.9313 37.6954 19.9702 37.7336 20.0209C38.7433 21.0862 40.1017 21.7584 41.5648 21.9168C43.028 22.0751 44.4999 21.7092 45.7162 20.8849C46.43 20.3786 47.0242 19.7237 47.4576 18.9657C47.8909 18.2077 48.153 17.3648 48.2255 16.4957C48.298 15.6266 48.1793 14.7522 47.8775 13.9335C47.5757 13.1147 47.0982 12.3713 46.4781 11.7549L36.5858 1.90887C35.57 0.873073 34.2206 0.22544 32.7736 0.0792029C31.3265 -0.0670345 29.8738 0.297429 28.6695 1.10887C27.9556 1.61494 27.3612 2.26975 26.9276 3.0277C26.4941 3.78565 26.2318 4.62851 26.1591 5.4976C26.0864 6.36668 26.205 7.24109 26.5066 8.05993C26.8082 8.87877 27.2856 9.62234 27.9056 10.2389L28.0584 10.3909C28.1735 10.5063 28.2381 10.6623 28.2381 10.8249C28.2381 10.9875 28.1735 11.1435 28.0584 11.2589L24.842 14.4589C24.5953 14.7038 24.2887 14.8808 23.9525 14.9723C23.6163 15.0638 23.262 15.0668 22.9242 14.9809L21.2819 14.5629C19.2617 14.038 17.1629 13.8801 15.0864 14.0969C13.6136 14.2486 12.2151 14.8161 11.0558 15.7325C9.89647 16.6488 9.02464 17.8759 8.54305 19.2689C8.0175 20.7004 7.91388 22.2515 8.24436 23.7396C8.57485 25.2277 9.32569 26.5909 10.4085 27.6689L13.9425 31.3089L0.588569 44.5869C0.30752 44.8666 0.116133 45.2229 0.0386035 45.6108C-0.0389262 45.9987 0.000882303 46.4008 0.152997 46.7662C0.305111 47.1316 0.562701 47.4439 0.893202 47.6637C1.2237 47.8834 1.61228 48.0008 2.0098 48.0009ZM12.3323 20.6009C12.5589 19.9195 12.9791 19.3181 13.542 18.8694C14.105 18.4207 14.7867 18.1441 15.5045 18.0729C15.9673 18.0249 16.4323 18.0009 16.8976 18.0009C18.038 18.0009 19.1737 18.1468 20.2768 18.4349L21.9312 18.8549C22.9448 19.11 24.0075 19.0995 25.0158 18.8243C26.0241 18.5492 26.9435 18.0188 27.6845 17.2849L30.9008 14.0849C31.7687 13.2188 32.2561 12.0458 32.2561 10.8229C32.2561 9.59994 31.7687 8.42689 30.9008 7.56087L30.7481 7.40887C30.5399 7.20228 30.3799 6.95277 30.2792 6.67795C30.1785 6.40312 30.1396 6.10967 30.1653 5.81827C30.191 5.52688 30.2806 5.24463 30.4278 4.99144C30.5751 4.73825 30.7763 4.52027 31.0174 4.35287C31.4464 4.09452 31.9517 3.99125 32.4483 4.06047C32.9449 4.1297 33.4022 4.36718 33.7433 4.73287L43.6417 14.5809C43.8498 14.7875 44.0099 15.037 44.1106 15.3118C44.2113 15.5866 44.2501 15.8801 44.2244 16.1715C44.1988 16.4629 44.1091 16.7451 43.9619 16.9983C43.8147 17.2515 43.6134 17.4695 43.3723 17.6369C42.9387 17.8988 42.4269 18.0021 41.925 17.9291C41.4231 17.8561 40.9624 17.6113 40.6223 17.2369C40.2087 16.8126 39.7138 16.475 39.1669 16.2442C38.62 16.0134 38.0322 15.8939 37.4381 15.8929C36.1849 15.8985 34.9831 16.3892 34.087 17.2609L30.8988 20.4349C30.1749 21.1556 29.6473 22.048 29.366 23.0277C29.0846 24.0075 29.0587 25.0424 29.2906 26.0349L29.7309 28.1509C30.1365 29.6937 30.2597 31.2966 30.0947 32.8829C30.0467 33.5298 29.8086 34.1484 29.4101 34.6619C29.0116 35.1753 28.4703 35.561 27.8533 35.7709C26.825 36.0399 25.7411 36.0135 24.7272 35.695C23.7132 35.3764 22.8107 34.7787 22.1242 33.9709L13.2792 24.8709C12.7276 24.3236 12.3453 23.6305 12.1775 22.8738C12.0097 22.117 12.0634 21.3282 12.3323 20.6009Z" fill="#936CDD"/>
</g>
<defs>
<clipPath id="clip0_503_433">
<rect width="48.2455" height="48" fill="white"/>
</clipPath>
</defs>
</svg>
