<svg width="60" height="60" viewBox="0 0 60 60" fill="none" xmlns="http://www.w3.org/2000/svg">
<circle cx="30" cy="30" r="30" transform="rotate(-180 30 30)" fill="#D9D9D9"/>
<path d="M16.0001 33H33.5861L28.7081 37.878C28.1453 38.4405 27.829 39.2036 27.8288 39.9993C27.8286 40.795 28.1446 41.5582 28.7071 42.121C29.2696 42.6838 30.0327 43.0001 30.8284 43.0003C31.6241 43.0005 32.3873 42.6845 32.9501 42.122L40.1221 34.95C41.4325 33.636 42.1685 31.8558 42.1685 30C42.1685 28.1442 41.4325 26.3641 40.1221 25.05L32.9501 17.878C32.3873 17.3155 31.6241 16.9996 30.8284 16.9998C30.0327 17 29.2696 17.3162 28.7071 17.879C28.1446 18.4418 27.8286 19.205 27.8288 20.0007C27.829 20.7964 28.1453 21.5595 28.7081 22.122L33.5861 27L16.0001 27C15.2044 27 14.4414 27.3161 13.8788 27.8787C13.3162 28.4413 13.0001 29.2044 13.0001 30C13.0001 30.7957 13.3162 31.5587 13.8788 32.1213C14.4414 32.684 15.2044 33 16.0001 33Z" fill="#374957"/>
</svg>
