<svg width="136" height="39" viewBox="0 0 136 39" fill="none" xmlns="http://www.w3.org/2000/svg">
<rect width="136" height="39" rx="8" fill="#10172A"/>
<path d="M54.8188 30V10.26H64.5066C66.7838 10.26 68.5012 10.82 69.6585 11.94C70.8158 13.0413 71.3944 14.544 71.3944 16.448C71.3944 18.3333 70.8158 19.836 69.6585 20.956C68.5012 22.076 66.7838 22.636 64.5066 22.636H59.9987V30H54.8188ZM59.9987 18.66H63.8346C64.7119 18.66 65.3653 18.4733 65.7946 18.1C66.2239 17.708 66.4386 17.1573 66.4386 16.448C66.4386 15.7387 66.2239 15.188 65.7946 14.796C65.3653 14.404 64.7119 14.208 63.8346 14.208H59.9987V18.66ZM81.3788 30.308C79.7922 30.308 78.2803 30.1213 76.8429 29.748C75.4243 29.356 74.2297 28.8333 73.259 28.18L74.715 24.176C75.3309 24.568 76.0029 24.904 76.7309 25.184C77.4589 25.464 78.2149 25.688 78.9989 25.856C79.8015 26.0053 80.6135 26.08 81.4348 26.08C82.6668 26.08 83.5161 25.9213 83.9827 25.604C84.4681 25.2867 84.7107 24.876 84.7107 24.372C84.7107 23.924 84.5521 23.5787 84.2347 23.336C83.9174 23.0747 83.3202 22.8507 82.4428 22.664L79.0269 21.964C77.2163 21.5907 75.8629 20.9467 74.967 20.032C74.071 19.0987 73.623 17.8853 73.623 16.392C73.623 15.0853 73.9684 13.956 74.659 13.004C75.3683 12.0333 76.3576 11.2867 77.6269 10.764C78.8963 10.2227 80.3802 9.952 82.0788 9.952C83.4787 9.952 84.7947 10.148 86.0267 10.54C87.2587 10.9133 88.2666 11.436 89.0506 12.108L87.5947 15.86C86.8481 15.3187 86.0081 14.908 85.0747 14.628C84.1414 14.3293 83.1055 14.18 81.9668 14.18C80.8842 14.18 80.0628 14.348 79.5028 14.684C78.9616 15.0013 78.6909 15.4587 78.6909 16.056C78.6909 16.4667 78.8496 16.8213 79.1669 17.12C79.5028 17.4 80.1095 17.6333 80.9868 17.82L84.3467 18.492C86.1574 18.8467 87.5107 19.4813 88.4066 20.396C89.3213 21.3107 89.7786 22.5053 89.7786 23.98C89.7786 25.2493 89.424 26.36 88.7146 27.312C88.024 28.264 87.0534 29.0013 85.8027 29.524C84.5521 30.0467 83.0775 30.308 81.3788 30.308ZM92.7437 30V10.26H97.9236V17.876H105.876V10.26H111.056V30H105.876V22.104H97.9236V30H92.7437ZM114.7 30V10.26H124.024C126.301 10.26 128.056 10.8013 129.288 11.884C130.538 12.9667 131.164 14.4693 131.164 16.392C131.164 17.68 130.884 18.7813 130.324 19.696C129.764 20.592 128.952 21.292 127.888 21.796C126.824 22.2813 125.554 22.524 124.08 22.524L124.332 21.824H125.732C126.553 21.824 127.281 22.048 127.916 22.496C128.55 22.944 129.073 23.5693 129.484 24.372L132.48 30H126.824L123.604 23.7C123.398 23.2893 123.09 23.0093 122.68 22.86C122.288 22.7107 121.84 22.636 121.336 22.636H119.88V30H114.7ZM119.88 18.968H123.128C124.136 18.968 124.901 18.772 125.424 18.38C125.946 17.9693 126.208 17.3627 126.208 16.56C126.208 15.776 125.946 15.188 125.424 14.796C124.901 14.404 124.136 14.208 123.128 14.208H119.88V18.968Z" fill="white"/>
<path fill-rule="evenodd" clip-rule="evenodd" d="M35.0426 35H11.3648C7.85763 35 5 32.2923 5 28.9691V9.03086C5 5.70768 7.85763 3 11.3648 3H35.0426C38.5498 3 41.4077 5.70768 41.4077 9.03086V28.9691C41.4077 32.2923 38.5498 35 35.0426 35Z" fill="white"/>
<path d="M27.0686 17.0945L22.7279 13.9115C22.3889 13.6633 21.9877 13.5137 21.5689 13.4795C21.1501 13.4453 20.7299 13.5277 20.3551 13.7176C19.9802 13.9075 19.6653 14.1975 19.4452 14.5555C19.2251 14.9135 19.1084 15.3254 19.1081 15.7456V22.1148C19.1074 22.5355 19.2235 22.948 19.4433 23.3066C19.6633 23.6652 19.9784 23.9557 20.3536 24.1458C20.7288 24.3359 21.1494 24.4182 21.5686 24.3834C21.9878 24.3486 22.3891 24.1982 22.7279 23.9489L27.0686 20.7659C27.3567 20.5545 27.5909 20.2783 27.7523 19.9596C27.9136 19.6409 27.9978 19.2886 27.9978 18.9314C27.9978 18.5741 27.9136 18.2218 27.7523 17.9031C27.5909 17.5844 27.3567 17.3082 27.0686 17.0968V17.0945Z" fill="#10172A"/>
</svg>
