<svg width="37" height="32" viewBox="0 0 37 32" fill="none" xmlns="http://www.w3.org/2000/svg">
<rect width="37" height="32" rx="8" fill="#10172A"/>
<path d="M22.0691 14.0945L17.7283 10.9115C17.3893 10.6633 16.9881 10.5137 16.5693 10.4795C16.1505 10.4453 15.7303 10.5277 15.3555 10.7176C14.9806 10.9075 14.6657 11.1975 14.4456 11.5555C14.2254 11.9135 14.1087 12.3254 14.1084 12.7456V19.1148C14.1077 19.5355 14.2238 19.948 14.4437 20.3066C14.6637 20.6652 14.9788 20.9557 15.354 21.1458C15.7292 21.3359 16.1498 21.4182 16.569 21.3834C16.9882 21.3486 17.3895 21.1982 17.7283 20.9489L22.0691 17.7659C22.3572 17.5545 22.5914 17.2783 22.7528 16.9596C22.9142 16.6409 22.9984 16.2886 22.9984 15.9314C22.9984 15.5741 22.9142 15.2218 22.7528 14.9031C22.5914 14.5844 22.3572 14.3082 22.0691 14.0968V14.0945Z" fill="white"/>
</svg>
