<svg width="179" height="132" viewBox="0 0 179 132" fill="none" xmlns="http://www.w3.org/2000/svg">
<rect width="179" height="132" rx="20" fill="#F8F8F8"/>
<path d="M20.952 38.264C19.752 38.264 18.688 38.112 17.76 37.808C16.848 37.488 16.08 37.024 15.456 36.416C14.832 35.808 14.36 35.048 14.04 34.136C13.736 33.208 13.584 32.136 13.584 30.92V22.76C13.584 22.136 13.744 21.664 14.064 21.344C14.384 21.024 14.848 20.864 15.456 20.864C16.048 20.864 16.504 21.024 16.824 21.344C17.144 21.664 17.304 22.136 17.304 22.76V30.944C17.304 32.32 17.616 33.36 18.24 34.064C18.864 34.752 19.768 35.096 20.952 35.096C22.136 35.096 23.032 34.752 23.64 34.064C24.264 33.36 24.576 32.32 24.576 30.944V22.76C24.576 22.136 24.736 21.664 25.056 21.344C25.376 21.024 25.832 20.864 26.424 20.864C27.016 20.864 27.464 21.024 27.768 21.344C28.088 21.664 28.248 22.136 28.248 22.76V30.92C28.248 32.536 27.968 33.896 27.408 35C26.864 36.088 26.048 36.904 24.96 37.448C23.888 37.992 22.552 38.264 20.952 38.264ZM39.7551 42.536C39.1631 42.536 38.7071 42.376 38.3871 42.056C38.0831 41.752 37.9311 41.296 37.9311 40.688V27.848C37.9311 27.256 38.0831 26.808 38.3871 26.504C38.7071 26.184 39.1471 26.024 39.7071 26.024C40.2991 26.024 40.7471 26.184 41.0511 26.504C41.3551 26.808 41.5071 27.256 41.5071 27.848V29.48L41.2431 28.544C41.4831 27.776 41.9631 27.16 42.6831 26.696C43.4191 26.216 44.2591 25.976 45.2031 25.976C46.2271 25.976 47.1231 26.224 47.8911 26.72C48.6751 27.216 49.2831 27.92 49.7151 28.832C50.1471 29.744 50.3631 30.832 50.3631 32.096C50.3631 33.36 50.1471 34.456 49.7151 35.384C49.2831 36.312 48.6831 37.024 47.9151 37.52C47.1471 38.016 46.2431 38.264 45.2031 38.264C44.2751 38.264 43.4511 38.04 42.7311 37.592C42.0111 37.128 41.5231 36.528 41.2671 35.792H41.5551V40.688C41.5551 41.296 41.3951 41.752 41.0751 42.056C40.7711 42.376 40.3311 42.536 39.7551 42.536ZM44.1231 35.552C44.6351 35.552 45.0831 35.424 45.4671 35.168C45.8671 34.912 46.1711 34.536 46.3791 34.04C46.6031 33.528 46.7151 32.88 46.7151 32.096C46.7151 30.928 46.4751 30.072 45.9951 29.528C45.5151 28.968 44.8911 28.688 44.1231 28.688C43.6111 28.688 43.1551 28.808 42.7551 29.048C42.3711 29.288 42.0671 29.664 41.8431 30.176C41.6191 30.672 41.5071 31.312 41.5071 32.096C41.5071 33.264 41.7471 34.136 42.2271 34.712C42.7071 35.272 43.3391 35.552 44.1231 35.552ZM54.4515 38.216C53.8435 38.216 53.3795 38.056 53.0595 37.736C52.7395 37.416 52.5795 36.96 52.5795 36.368V27.848C52.5795 27.256 52.7315 26.808 53.0355 26.504C53.3555 26.184 53.7955 26.024 54.3555 26.024C54.9315 26.024 55.3715 26.184 55.6755 26.504C55.9795 26.808 56.1315 27.256 56.1315 27.848V29.096H55.8915C56.0835 28.136 56.5075 27.392 57.1635 26.864C57.8195 26.336 58.6675 26.04 59.7075 25.976C60.1075 25.944 60.4115 26.048 60.6195 26.288C60.8435 26.512 60.9635 26.888 60.9795 27.416C61.0115 27.912 60.9075 28.304 60.6675 28.592C60.4435 28.88 60.0595 29.056 59.5155 29.12L58.9635 29.168C58.0515 29.248 57.3715 29.512 56.9235 29.96C56.4915 30.408 56.2755 31.056 56.2755 31.904V36.368C56.2755 36.96 56.1155 37.416 55.7955 37.736C55.4915 38.056 55.0435 38.216 54.4515 38.216ZM67.9232 38.264C66.6592 38.264 65.5552 38.016 64.6112 37.52C63.6832 37.024 62.9632 36.312 62.4512 35.384C61.9392 34.456 61.6832 33.36 61.6832 32.096C61.6832 31.152 61.8272 30.304 62.1152 29.552C62.4032 28.8 62.8192 28.16 63.3632 27.632C63.9232 27.088 64.5872 26.68 65.3552 26.408C66.1232 26.12 66.9792 25.976 67.9232 25.976C69.1872 25.976 70.2832 26.224 71.2112 26.72C72.1552 27.216 72.8832 27.92 73.3952 28.832C73.9232 29.744 74.1872 30.832 74.1872 32.096C74.1872 33.056 74.0352 33.912 73.7312 34.664C73.4432 35.416 73.0272 36.064 72.4832 36.608C71.9392 37.152 71.2752 37.568 70.4912 37.856C69.7232 38.128 68.8672 38.264 67.9232 38.264ZM67.9232 35.552C68.4512 35.552 68.9072 35.424 69.2912 35.168C69.6752 34.912 69.9792 34.536 70.2032 34.04C70.4272 33.528 70.5392 32.88 70.5392 32.096C70.5392 30.928 70.2992 30.072 69.8192 29.528C69.3392 28.968 68.7072 28.688 67.9232 28.688C67.4112 28.688 66.9552 28.808 66.5552 29.048C66.1712 29.288 65.8672 29.664 65.6432 30.176C65.4352 30.672 65.3312 31.312 65.3312 32.096C65.3312 33.264 65.5712 34.136 66.0512 34.712C66.5312 35.272 67.1552 35.552 67.9232 35.552ZM78.264 38.216C77.672 38.216 77.216 38.056 76.896 37.736C76.592 37.416 76.44 36.96 76.44 36.368V27.848C76.44 27.256 76.592 26.808 76.896 26.504C77.216 26.184 77.656 26.024 78.216 26.024C78.792 26.024 79.232 26.184 79.536 26.504C79.84 26.808 79.992 27.256 79.992 27.848V29.384L79.728 28.424C80.048 27.688 80.544 27.096 81.216 26.648C81.888 26.2 82.68 25.976 83.592 25.976C84.504 25.976 85.264 26.192 85.872 26.624C86.48 27.056 86.912 27.72 87.168 28.616H86.832C87.184 27.8 87.72 27.16 88.44 26.696C89.176 26.216 90.016 25.976 90.96 25.976C91.872 25.976 92.616 26.16 93.192 26.528C93.784 26.88 94.224 27.424 94.512 28.16C94.8 28.88 94.944 29.8 94.944 30.92V36.368C94.944 36.96 94.784 37.416 94.464 37.736C94.16 38.056 93.72 38.216 93.144 38.216C92.552 38.216 92.096 38.056 91.776 37.736C91.472 37.416 91.32 36.96 91.32 36.368V31.04C91.32 30.256 91.192 29.688 90.936 29.336C90.696 28.968 90.28 28.784 89.688 28.784C89 28.784 88.464 29.024 88.08 29.504C87.696 29.984 87.504 30.664 87.504 31.544V36.368C87.504 36.96 87.344 37.416 87.024 37.736C86.72 38.056 86.28 38.216 85.704 38.216C85.128 38.216 84.68 38.056 84.36 37.736C84.04 37.416 83.88 36.96 83.88 36.368V31.04C83.88 30.256 83.752 29.688 83.496 29.336C83.256 28.968 82.84 28.784 82.248 28.784C81.56 28.784 81.024 29.024 80.64 29.504C80.256 29.984 80.064 30.664 80.064 31.544V36.368C80.064 37.6 79.464 38.216 78.264 38.216ZM103.84 38.264C102.448 38.264 101.248 38.016 100.24 37.52C99.2481 37.008 98.4801 36.296 97.9361 35.384C97.4081 34.456 97.1441 33.368 97.1441 32.12C97.1441 30.904 97.4001 29.84 97.9121 28.928C98.4241 28 99.1361 27.28 100.048 26.768C100.976 26.24 102.024 25.976 103.192 25.976C104.04 25.976 104.808 26.12 105.496 26.408C106.184 26.68 106.776 27.08 107.272 27.608C107.768 28.12 108.144 28.752 108.4 29.504C108.656 30.24 108.784 31.064 108.784 31.976C108.784 32.28 108.688 32.512 108.496 32.672C108.304 32.816 108.024 32.888 107.656 32.888H100.12V31.016H106.168L105.784 31.352C105.784 30.696 105.688 30.152 105.496 29.72C105.304 29.272 105.024 28.936 104.656 28.712C104.304 28.488 103.864 28.376 103.336 28.376C102.744 28.376 102.24 28.512 101.824 28.784C101.408 29.056 101.088 29.448 100.864 29.96C100.64 30.472 100.528 31.088 100.528 31.808V32C100.528 33.216 100.808 34.112 101.368 34.688C101.944 35.264 102.792 35.552 103.912 35.552C104.296 35.552 104.736 35.504 105.232 35.408C105.728 35.312 106.192 35.16 106.624 34.952C106.992 34.776 107.32 34.72 107.608 34.784C107.896 34.832 108.12 34.96 108.28 35.168C108.44 35.376 108.528 35.616 108.544 35.888C108.576 36.16 108.52 36.432 108.376 36.704C108.232 36.96 107.992 37.176 107.656 37.352C107.112 37.656 106.496 37.88 105.808 38.024C105.136 38.184 104.48 38.264 103.84 38.264ZM116.606 38.264C115.502 38.264 114.574 38.08 113.822 37.712C113.086 37.344 112.534 36.808 112.166 36.104C111.814 35.4 111.638 34.512 111.638 33.44V28.928H110.63C110.182 28.928 109.83 28.808 109.574 28.568C109.334 28.328 109.214 28 109.214 27.584C109.214 27.136 109.334 26.8 109.574 26.576C109.83 26.336 110.182 26.216 110.63 26.216H111.638V24.392C111.638 23.784 111.798 23.328 112.118 23.024C112.438 22.704 112.886 22.544 113.462 22.544C114.054 22.544 114.502 22.704 114.806 23.024C115.11 23.328 115.262 23.784 115.262 24.392V26.216H117.542C117.99 26.216 118.334 26.336 118.574 26.576C118.814 26.8 118.934 27.136 118.934 27.584C118.934 28 118.814 28.328 118.574 28.568C118.334 28.808 117.99 28.928 117.542 28.928H115.262V33.296C115.262 33.968 115.414 34.472 115.718 34.808C116.038 35.144 116.542 35.312 117.23 35.312C117.47 35.312 117.694 35.288 117.902 35.24C118.11 35.192 118.302 35.16 118.478 35.144C118.702 35.128 118.886 35.2 119.03 35.36C119.174 35.504 119.246 35.832 119.246 36.344C119.246 36.728 119.182 37.064 119.054 37.352C118.926 37.64 118.702 37.848 118.382 37.976C118.174 38.056 117.886 38.12 117.518 38.168C117.166 38.232 116.862 38.264 116.606 38.264ZM124.869 38.264C123.877 38.264 123.053 38.08 122.397 37.712C121.741 37.344 121.253 36.792 120.933 36.056C120.629 35.304 120.477 34.376 120.477 33.272V27.848C120.477 27.24 120.629 26.784 120.933 26.48C121.253 26.176 121.701 26.024 122.277 26.024C122.853 26.024 123.301 26.176 123.621 26.48C123.941 26.784 124.101 27.24 124.101 27.848V33.368C124.101 34.072 124.245 34.6 124.533 34.952C124.821 35.288 125.277 35.456 125.901 35.456C126.589 35.456 127.149 35.216 127.581 34.736C128.029 34.24 128.253 33.592 128.253 32.792V27.848C128.253 27.24 128.405 26.784 128.709 26.48C129.029 26.176 129.477 26.024 130.053 26.024C130.645 26.024 131.093 26.176 131.397 26.48C131.717 26.784 131.877 27.24 131.877 27.848V36.368C131.877 37.6 131.293 38.216 130.125 38.216C129.549 38.216 129.109 38.056 128.805 37.736C128.501 37.416 128.349 36.96 128.349 36.368V34.76L128.709 35.696C128.357 36.512 127.853 37.144 127.197 37.592C126.541 38.04 125.765 38.264 124.869 38.264Z" fill="#545862"/>
<path d="M158.8 69.582C158.096 67.6544 156.816 65.9896 155.135 64.8125C153.454 63.6353 151.452 63.0027 149.4 63H132.6C130.548 63.0027 128.546 63.6353 126.865 64.8125C125.184 65.9896 123.904 67.6544 123.2 69.582L117.8 84.436C117.269 85.899 116.998 87.4436 117 89V91C117.004 92.5456 117.367 94.0691 118.061 95.45C118.755 96.8309 119.762 98.0313 121 98.956C121 98.972 121 98.984 121 99V103C121 104.591 121.632 106.117 122.757 107.243C123.883 108.368 125.409 109 127 109C128.591 109 130.117 108.368 131.243 107.243C132.368 106.117 133 104.591 133 103V101H149V103C149 104.591 149.632 106.117 150.757 107.243C151.883 108.368 153.409 109 155 109C156.591 109 158.117 108.368 159.243 107.243C160.368 106.117 161 104.591 161 103V99C161 98.984 161 98.972 161 98.956C162.238 98.0313 163.245 96.8309 163.939 95.45C164.633 94.0691 164.996 92.5456 165 91V89C165.002 87.4443 164.731 85.9002 164.2 84.438L158.8 69.582ZM126.964 70.95C127.387 69.7943 128.154 68.7961 129.162 68.0898C130.169 67.3835 131.369 67.0032 132.6 67H149.4C150.631 67.0024 151.832 67.3823 152.841 68.0887C153.849 68.795 154.617 69.7937 155.04 70.95L159.416 83H122.582L126.964 70.95ZM129 103C129 103.53 128.789 104.039 128.414 104.414C128.039 104.789 127.53 105 127 105C126.47 105 125.961 104.789 125.586 104.414C125.211 104.039 125 103.53 125 103V100.8C125.658 100.934 126.328 101.001 127 101H129V103ZM157 103C157 103.53 156.789 104.039 156.414 104.414C156.039 104.789 155.53 105 155 105C154.47 105 153.961 104.789 153.586 104.414C153.211 104.039 153 103.53 153 103V101H155C155.672 101.001 156.342 100.934 157 100.8V103ZM161 91C161 92.5913 160.368 94.1174 159.243 95.2426C158.117 96.3679 156.591 97 155 97H127C125.409 97 123.883 96.3679 122.757 95.2426C121.632 94.1174 121 92.5913 121 91V89C121.008 88.3265 121.089 87.656 121.242 87H125V89C125 89.5304 125.211 90.0391 125.586 90.4142C125.961 90.7893 126.47 91 127 91C127.53 91 128.039 90.7893 128.414 90.4142C128.789 90.0391 129 89.5304 129 89V87H153V89C153 89.5304 153.211 90.0391 153.586 90.4142C153.961 90.7893 154.47 91 155 91C155.53 91 156.039 90.7893 156.414 90.4142C156.789 90.0391 157 89.5304 157 89V87H160.758C160.911 87.6559 160.992 88.3265 161 89V91Z" fill="#936CDD"/>
<path d="M15.576 79.216C14.968 79.216 14.504 79.048 14.184 78.712C13.864 78.376 13.704 77.904 13.704 77.296V63.784C13.704 63.176 13.864 62.704 14.184 62.368C14.504 62.032 14.968 61.864 15.576 61.864C16.168 61.864 16.624 62.032 16.944 62.368C17.264 62.704 17.424 63.176 17.424 63.784V68.872H25.296V63.784C25.296 63.176 25.456 62.704 25.776 62.368C26.096 62.032 26.552 61.864 27.144 61.864C27.752 61.864 28.216 62.032 28.536 62.368C28.856 62.704 29.016 63.176 29.016 63.784V77.296C29.016 77.904 28.856 78.376 28.536 78.712C28.216 79.048 27.752 79.216 27.144 79.216C26.552 79.216 26.096 79.048 25.776 78.712C25.456 78.376 25.296 77.904 25.296 77.296V71.968H17.424V77.296C17.424 77.904 17.264 78.376 16.944 78.712C16.64 79.048 16.184 79.216 15.576 79.216ZM39.6786 79.264C38.4786 79.264 37.4146 79.112 36.4866 78.808C35.5746 78.488 34.8066 78.024 34.1826 77.416C33.5586 76.808 33.0866 76.048 32.7666 75.136C32.4626 74.208 32.3106 73.136 32.3106 71.92V63.76C32.3106 63.136 32.4706 62.664 32.7906 62.344C33.1106 62.024 33.5746 61.864 34.1826 61.864C34.7746 61.864 35.2306 62.024 35.5506 62.344C35.8706 62.664 36.0306 63.136 36.0306 63.76V71.944C36.0306 73.32 36.3426 74.36 36.9666 75.064C37.5906 75.752 38.4946 76.096 39.6786 76.096C40.8626 76.096 41.7586 75.752 42.3666 75.064C42.9906 74.36 43.3026 73.32 43.3026 71.944V63.76C43.3026 63.136 43.4626 62.664 43.7826 62.344C44.1026 62.024 44.5586 61.864 45.1506 61.864C45.7426 61.864 46.1906 62.024 46.4946 62.344C46.8146 62.664 46.9746 63.136 46.9746 63.76V71.92C46.9746 73.536 46.6946 74.896 46.1346 76C45.5906 77.088 44.7746 77.904 43.6866 78.448C42.6146 78.992 41.2786 79.264 39.6786 79.264ZM52.1385 79.216C51.5305 79.216 51.0665 79.048 50.7465 78.712C50.4265 78.376 50.2665 77.904 50.2665 77.296V63.784C50.2665 63.176 50.4265 62.704 50.7465 62.368C51.0665 62.032 51.5305 61.864 52.1385 61.864C52.7305 61.864 53.1865 62.032 53.5065 62.368C53.8265 62.704 53.9865 63.176 53.9865 63.784V77.296C53.9865 77.904 53.8265 78.376 53.5065 78.712C53.2025 79.048 52.7465 79.216 52.1385 79.216ZM58.8315 79.12C58.1915 79.12 57.6795 78.928 57.2955 78.544C56.9275 78.16 56.7435 77.664 56.7435 77.056C56.7435 76.464 56.9275 75.984 57.2955 75.616C57.6795 75.232 58.1915 75.04 58.8315 75.04C59.4715 75.04 59.9675 75.232 60.3195 75.616C60.6875 75.984 60.8715 76.464 60.8715 77.056C60.8715 77.664 60.6875 78.16 60.3195 78.544C59.9675 78.928 59.4715 79.12 58.8315 79.12ZM58.8315 71.176C58.1915 71.176 57.6795 70.984 57.2955 70.6C56.9275 70.216 56.7435 69.728 56.7435 69.136C56.7435 68.528 56.9275 68.04 57.2955 67.672C57.6795 67.288 58.1915 67.096 58.8315 67.096C59.4715 67.096 59.9675 67.288 60.3195 67.672C60.6875 68.04 60.8715 68.528 60.8715 69.136C60.8715 69.728 60.6875 70.216 60.3195 70.6C59.9675 70.984 59.4715 71.176 58.8315 71.176ZM72.393 79C71.881 79 71.489 78.864 71.217 78.592C70.945 78.32 70.809 77.944 70.809 77.464C70.809 76.968 70.945 76.592 71.217 76.336C71.489 76.08 71.881 75.952 72.393 75.952H74.817V65.128H76.569L73.065 67.264C72.697 67.488 72.353 67.576 72.033 67.528C71.729 67.48 71.465 67.344 71.241 67.12C71.017 66.896 70.865 66.632 70.785 66.328C70.721 66.008 70.753 65.696 70.881 65.392C71.009 65.072 71.249 64.8 71.601 64.576L74.937 62.56C75.273 62.352 75.609 62.184 75.945 62.056C76.297 61.928 76.641 61.864 76.977 61.864C77.457 61.864 77.833 61.992 78.105 62.248C78.393 62.488 78.537 62.864 78.537 63.376V75.952H80.721C81.217 75.952 81.601 76.08 81.873 76.336C82.145 76.592 82.281 76.968 82.281 77.464C82.281 77.96 82.145 78.344 81.873 78.616C81.601 78.872 81.217 79 80.721 79H72.393ZM89.8076 79.264C88.9596 79.264 88.0956 79.168 87.2156 78.976C86.3516 78.768 85.5996 78.48 84.9596 78.112C84.5436 77.888 84.2556 77.624 84.0956 77.32C83.9516 77 83.8956 76.688 83.9276 76.384C83.9756 76.08 84.1036 75.816 84.3116 75.592C84.5196 75.352 84.7836 75.2 85.1036 75.136C85.4396 75.072 85.8076 75.136 86.2076 75.328C86.8316 75.632 87.4236 75.848 87.9836 75.976C88.5436 76.104 89.1036 76.168 89.6636 76.168C90.3036 76.168 90.8396 76.088 91.2716 75.928C91.7036 75.752 92.0316 75.504 92.2556 75.184C92.4796 74.864 92.5916 74.464 92.5916 73.984C92.5916 73.312 92.3596 72.808 91.8956 72.472C91.4316 72.136 90.7516 71.968 89.8556 71.968H88.4396C87.9116 71.968 87.5036 71.84 87.2156 71.584C86.9436 71.312 86.8076 70.944 86.8076 70.48C86.8076 70 86.9436 69.632 87.2156 69.376C87.5036 69.104 87.9116 68.968 88.4396 68.968H89.4956C90.0396 68.968 90.4956 68.888 90.8636 68.728C91.2476 68.552 91.5436 68.312 91.7516 68.008C91.9756 67.704 92.0876 67.328 92.0876 66.88C92.0876 66.24 91.8636 65.752 91.4156 65.416C90.9836 65.08 90.3516 64.912 89.5196 64.912C89.0076 64.912 88.5036 64.976 88.0076 65.104C87.5116 65.216 86.9756 65.424 86.3996 65.728C86.0476 65.904 85.7196 65.96 85.4156 65.896C85.1116 65.832 84.8556 65.688 84.6476 65.464C84.4556 65.24 84.3276 64.984 84.2636 64.696C84.2156 64.392 84.2556 64.088 84.3836 63.784C84.5276 63.48 84.7836 63.232 85.1516 63.04C85.8396 62.64 86.5836 62.336 87.3836 62.128C88.1996 61.92 89.0236 61.816 89.8556 61.816C91.0716 61.816 92.1116 62 92.9756 62.368C93.8396 62.736 94.5036 63.264 94.9676 63.952C95.4316 64.624 95.6636 65.44 95.6636 66.4C95.6636 67.056 95.5356 67.656 95.2796 68.2C95.0236 68.744 94.6636 69.208 94.1996 69.592C93.7516 69.96 93.1996 70.224 92.5436 70.384V70.072C93.6796 70.264 94.5676 70.736 95.2076 71.488C95.8476 72.24 96.1676 73.184 96.1676 74.32C96.1676 75.328 95.9116 76.208 95.3996 76.96C94.8876 77.696 94.1516 78.264 93.1916 78.664C92.2476 79.064 91.1196 79.264 89.8076 79.264ZM104.606 79.264C102.558 79.264 100.99 78.504 99.9023 76.984C98.8303 75.448 98.2943 73.28 98.2943 70.48C98.2943 68.608 98.5343 67.032 99.0143 65.752C99.5103 64.456 100.222 63.48 101.15 62.824C102.094 62.152 103.246 61.816 104.606 61.816C106.67 61.816 108.238 62.56 109.31 64.048C110.382 65.52 110.918 67.664 110.918 70.48C110.918 72.352 110.67 73.944 110.174 75.256C109.694 76.552 108.99 77.544 108.062 78.232C107.134 78.92 105.982 79.264 104.606 79.264ZM104.606 76.24C105.534 76.24 106.222 75.784 106.67 74.872C107.118 73.944 107.342 72.48 107.342 70.48C107.342 68.48 107.118 67.04 106.67 66.16C106.222 65.28 105.534 64.84 104.606 64.84C103.678 64.84 102.99 65.28 102.542 66.16C102.094 67.04 101.87 68.48 101.87 70.48C101.87 72.48 102.094 73.944 102.542 74.872C102.99 75.784 103.678 76.24 104.606 76.24Z" fill="#2ABA5E"/>
<path d="M15.6 109C14.992 109 14.52 108.832 14.184 108.496C13.864 108.16 13.704 107.696 13.704 107.104V93.928C13.704 93.304 13.864 92.832 14.184 92.512C14.504 92.192 14.968 92.032 15.576 92.032C16.168 92.032 16.624 92.192 16.944 92.512C17.264 92.832 17.424 93.304 17.424 93.928V105.856H23.856C24.368 105.856 24.76 105.992 25.032 106.264C25.32 106.536 25.464 106.92 25.464 107.416C25.464 107.928 25.32 108.32 25.032 108.592C24.76 108.864 24.368 109 23.856 109H15.6ZM34.0067 109.264C32.8067 109.264 31.7427 109.112 30.8147 108.808C29.9027 108.488 29.1347 108.024 28.5107 107.416C27.8867 106.808 27.4147 106.048 27.0947 105.136C26.7907 104.208 26.6387 103.136 26.6387 101.92V93.76C26.6387 93.136 26.7987 92.664 27.1187 92.344C27.4387 92.024 27.9027 91.864 28.5107 91.864C29.1027 91.864 29.5587 92.024 29.8787 92.344C30.1987 92.664 30.3587 93.136 30.3587 93.76V101.944C30.3587 103.32 30.6707 104.36 31.2947 105.064C31.9187 105.752 32.8227 106.096 34.0067 106.096C35.1907 106.096 36.0867 105.752 36.6947 105.064C37.3187 104.36 37.6307 103.32 37.6307 101.944V93.76C37.6307 93.136 37.7907 92.664 38.1107 92.344C38.4307 92.024 38.8867 91.864 39.4787 91.864C40.0707 91.864 40.5187 92.024 40.8227 92.344C41.1427 92.664 41.3027 93.136 41.3027 93.76V101.92C41.3027 103.536 41.0227 104.896 40.4627 106C39.9187 107.088 39.1027 107.904 38.0147 108.448C36.9427 108.992 35.6067 109.264 34.0067 109.264ZM46.4666 109.216C45.8586 109.216 45.3946 109.048 45.0746 108.712C44.7546 108.376 44.5946 107.904 44.5946 107.296V93.784C44.5946 93.176 44.7546 92.704 45.0746 92.368C45.3946 92.032 45.8586 91.864 46.4666 91.864C47.0586 91.864 47.5146 92.032 47.8346 92.368C48.1546 92.704 48.3146 93.176 48.3146 93.784V107.296C48.3146 107.904 48.1546 108.376 47.8346 108.712C47.5306 109.048 47.0746 109.216 46.4666 109.216ZM53.1596 109.12C52.5196 109.12 52.0076 108.928 51.6236 108.544C51.2556 108.16 51.0716 107.664 51.0716 107.056C51.0716 106.464 51.2556 105.984 51.6236 105.616C52.0076 105.232 52.5196 105.04 53.1596 105.04C53.7996 105.04 54.2956 105.232 54.6476 105.616C55.0156 105.984 55.1996 106.464 55.1996 107.056C55.1996 107.664 55.0156 108.16 54.6476 108.544C54.2956 108.928 53.7996 109.12 53.1596 109.12ZM53.1596 101.176C52.5196 101.176 52.0076 100.984 51.6236 100.6C51.2556 100.216 51.0716 99.728 51.0716 99.136C51.0716 98.528 51.2556 98.04 51.6236 97.672C52.0076 97.288 52.5196 97.096 53.1596 97.096C53.7996 97.096 54.2956 97.288 54.6476 97.672C55.0156 98.04 55.1996 98.528 55.1996 99.136C55.1996 99.728 55.0156 100.216 54.6476 100.6C54.2956 100.984 53.7996 101.176 53.1596 101.176ZM70.8011 109.264C69.3611 109.264 68.1371 108.928 67.1291 108.256C66.1211 107.584 65.3531 106.616 64.8251 105.352C64.2971 104.088 64.0331 102.56 64.0331 100.768C64.0331 99.344 64.2011 98.08 64.5371 96.976C64.8891 95.872 65.3851 94.936 66.0251 94.168C66.6651 93.4 67.4491 92.816 68.3771 92.416C69.3211 92.016 70.3771 91.816 71.5451 91.816C72.2331 91.816 72.9291 91.912 73.6331 92.104C74.3371 92.296 74.9931 92.584 75.6011 92.968C75.9211 93.128 76.1371 93.36 76.2491 93.664C76.3771 93.952 76.4171 94.248 76.3691 94.552C76.3211 94.856 76.2011 95.128 76.0091 95.368C75.8171 95.592 75.5691 95.744 75.2651 95.824C74.9771 95.888 74.6411 95.832 74.2571 95.656C73.7611 95.384 73.2811 95.192 72.8171 95.08C72.3691 94.968 71.9291 94.912 71.4971 94.912C70.6491 94.912 69.9291 95.104 69.3371 95.488C68.7451 95.872 68.2971 96.448 67.9931 97.216C67.7051 97.984 67.5611 98.936 67.5611 100.072V101.632H67.2251C67.3691 100.864 67.6331 100.216 68.0171 99.688C68.4171 99.144 68.9211 98.728 69.5291 98.44C70.1371 98.152 70.8091 98.008 71.5451 98.008C72.5051 98.008 73.3531 98.248 74.0891 98.728C74.8411 99.192 75.4331 99.84 75.8651 100.672C76.2971 101.488 76.5131 102.424 76.5131 103.48C76.5131 104.6 76.2731 105.6 75.7931 106.48C75.3131 107.344 74.6411 108.024 73.7771 108.52C72.9291 109.016 71.9371 109.264 70.8011 109.264ZM70.6091 106.36C71.1051 106.36 71.5371 106.248 71.9051 106.024C72.2891 105.8 72.5771 105.48 72.7691 105.064C72.9771 104.648 73.0811 104.168 73.0811 103.624C73.0811 103.08 72.9771 102.608 72.7691 102.208C72.5771 101.792 72.2891 101.472 71.9051 101.248C71.5371 101.008 71.1051 100.888 70.6091 100.888C70.1131 100.888 69.6731 101.008 69.2891 101.248C68.9211 101.472 68.6331 101.792 68.4251 102.208C68.2171 102.608 68.1131 103.08 68.1131 103.624C68.1131 104.168 68.2171 104.648 68.4251 105.064C68.6331 105.48 68.9211 105.8 69.2891 106.024C69.6731 106.248 70.1131 106.36 70.6091 106.36ZM83.1518 109.264C82.4638 109.264 81.7678 109.168 81.0638 108.976C80.3598 108.784 79.7038 108.496 79.0958 108.112C78.7758 107.952 78.5518 107.728 78.4238 107.44C78.3118 107.136 78.2798 106.832 78.3278 106.528C78.3758 106.224 78.4958 105.96 78.6878 105.736C78.8798 105.496 79.1198 105.344 79.4078 105.28C79.7118 105.2 80.0558 105.248 80.4398 105.424C80.9358 105.696 81.4078 105.888 81.8558 106C82.3198 106.112 82.7678 106.168 83.1998 106.168C84.0478 106.168 84.7678 105.976 85.3598 105.592C85.9518 105.208 86.3918 104.632 86.6798 103.864C86.9838 103.08 87.1358 102.128 87.1358 101.008V99.448H87.4718C87.3438 100.2 87.0798 100.848 86.6798 101.392C86.2798 101.936 85.7758 102.352 85.1678 102.64C84.5598 102.928 83.8878 103.072 83.1518 103.072C82.2078 103.072 81.3598 102.84 80.6078 102.376C79.8558 101.896 79.2638 101.24 78.8318 100.408C78.3998 99.576 78.1838 98.64 78.1838 97.6C78.1838 96.48 78.4238 95.488 78.9038 94.624C79.3838 93.744 80.0558 93.056 80.9198 92.56C81.7838 92.064 82.7758 91.816 83.8958 91.816C85.3518 91.816 86.5758 92.152 87.5678 92.824C88.5758 93.48 89.3438 94.448 89.8718 95.728C90.3998 96.992 90.6638 98.52 90.6638 100.312C90.6638 101.736 90.4878 103 90.1358 104.104C89.7998 105.208 89.3118 106.144 88.6718 106.912C88.0318 107.68 87.2398 108.264 86.2958 108.664C85.3678 109.064 84.3198 109.264 83.1518 109.264ZM84.1118 100.168C84.6078 100.168 85.0398 100.056 85.4078 99.832C85.7918 99.592 86.0878 99.264 86.2958 98.848C86.5038 98.432 86.6078 97.96 86.6078 97.432C86.6078 96.888 86.5038 96.408 86.2958 95.992C86.0878 95.576 85.7918 95.256 85.4078 95.032C85.0398 94.808 84.6078 94.696 84.1118 94.696C83.6158 94.696 83.1838 94.808 82.8158 95.032C82.4478 95.256 82.1518 95.576 81.9278 95.992C81.7198 96.408 81.6158 96.888 81.6158 97.432C81.6158 97.96 81.7198 98.432 81.9278 98.848C82.1518 99.264 82.4478 99.592 82.8158 99.832C83.1838 100.056 83.6158 100.168 84.1118 100.168Z" fill="#6BDD93"/>
</svg>
