<svg width="48" height="48" viewBox="0 0 48 48" fill="none" xmlns="http://www.w3.org/2000/svg">
<g clip-path="url(#clip0_503_551)">
<path d="M41.8 8.58212C41.0956 6.65456 39.8164 4.98972 38.1353 3.81259C36.4542 2.63547 34.4523 2.00281 32.4 2.00012H15.6C13.5478 2.00281 11.5458 2.63547 9.86473 3.81259C8.18363 4.98972 6.90443 6.65456 6.20001 8.58212L0.80001 23.4361C0.268908 24.8991 -0.00184946 26.4437 9.50773e-06 28.0001V30.0001C0.00357816 31.5457 0.366874 33.0693 1.06114 34.4502C1.7554 35.831 2.76158 37.0314 4.00001 37.9561C4.00001 37.9721 4.00001 37.9841 4.00001 38.0001V42.0001C4.00001 43.5914 4.63215 45.1175 5.75737 46.2428C6.88259 47.368 8.40871 48.0001 10 48.0001C11.5913 48.0001 13.1174 47.368 14.2427 46.2428C15.3679 45.1175 16 43.5914 16 42.0001V40.0001H32V42.0001C32 43.5914 32.6322 45.1175 33.7574 46.2428C34.8826 47.368 36.4087 48.0001 38 48.0001C39.5913 48.0001 41.1174 47.368 42.2427 46.2428C43.3679 45.1175 44 43.5914 44 42.0001V38.0001C44 37.9841 44 37.9721 44 37.9561C45.2384 37.0314 46.2446 35.831 46.9389 34.4502C47.6331 33.0693 47.9964 31.5457 48 30.0001V28.0001C48.0021 26.4444 47.7313 24.9003 47.2 23.4381L41.8 8.58212ZM9.96401 9.95012C10.3869 8.79446 11.1539 7.79622 12.1616 7.08994C13.1694 6.38366 14.3694 6.0033 15.6 6.00012H32.4C33.6313 6.00248 34.8322 6.38246 35.8408 7.08879C36.8493 7.79513 37.6169 8.79382 38.04 9.95012L42.416 22.0001H5.58201L9.96401 9.95012ZM12 42.0001C12 42.5306 11.7893 43.0393 11.4142 43.4143C11.0392 43.7894 10.5304 44.0001 10 44.0001C9.46958 44.0001 8.96087 43.7894 8.5858 43.4143C8.21072 43.0393 8.00001 42.5306 8.00001 42.0001V39.8001C8.65827 39.9338 9.32832 40.0008 10 40.0001H12V42.0001ZM40 42.0001C40 42.5306 39.7893 43.0393 39.4142 43.4143C39.0392 43.7894 38.5304 44.0001 38 44.0001C37.4696 44.0001 36.9609 43.7894 36.5858 43.4143C36.2107 43.0393 36 42.5306 36 42.0001V40.0001H38C38.6717 40.0008 39.3418 39.9338 40 39.8001V42.0001ZM44 30.0001C44 31.5914 43.3679 33.1175 42.2427 34.2428C41.1174 35.368 39.5913 36.0001 38 36.0001H10C8.40871 36.0001 6.88259 35.368 5.75737 34.2428C4.63215 33.1175 4.00001 31.5914 4.00001 30.0001V28.0001C4.00816 27.3267 4.0893 26.6561 4.24201 26.0001H8.00001V28.0001C8.00001 28.5306 8.21072 29.0393 8.5858 29.4143C8.96087 29.7894 9.46958 30.0001 10 30.0001C10.5304 30.0001 11.0392 29.7894 11.4142 29.4143C11.7893 29.0393 12 28.5306 12 28.0001V26.0001H36V28.0001C36 28.5306 36.2107 29.0393 36.5858 29.4143C36.9609 29.7894 37.4696 30.0001 38 30.0001C38.5304 30.0001 39.0392 29.7894 39.4142 29.4143C39.7893 29.0393 40 28.5306 40 28.0001V26.0001H43.758C43.9108 26.6561 43.992 27.3267 44 28.0001V30.0001Z" fill="#F8F8F8"/>
</g>
<defs>
<clipPath id="clip0_503_551">
<rect width="48" height="48" fill="white"/>
</clipPath>
</defs>
</svg>
