<svg width="115" height="258" viewBox="0 0 115 258" fill="none" xmlns="http://www.w3.org/2000/svg">
<path d="M114.2 -0.000366211L114.2 37.9996C114.2 69.4799 88.6804 94.9996 57.2002 94.9996C25.72 94.9996 0.20022 69.4799 0.200216 37.9996L0.200211 -0.000351262L114.2 -0.000366211Z" fill="#6BDD93"/>
<path opacity="0.8" d="M114.2 80.999L114.2 118.999C114.2 150.479 88.6804 175.999 57.2002 175.999C25.72 175.999 0.20022 150.479 0.200216 118.999L0.200211 80.999L114.2 80.999Z" fill="#6BDD93"/>
<path opacity="0.6" d="M114.2 163L114.2 201C114.2 232.48 88.6804 258 57.2002 258C25.72 258 0.20022 232.48 0.200216 201L0.200211 163L114.2 163Z" fill="#6BDD93"/>
<path d="M40.616 55.0469C40.616 54.3109 40.84 53.7989 41.288 53.5109C41.736 53.2549 42.328 53.1909 43.064 53.3189L49.64 54.5669L49.256 56.5829V53.1269C49.256 52.6469 49.32 52.2309 49.448 51.8789C49.608 51.5589 49.832 51.3029 50.12 51.1109C50.408 50.9509 50.76 50.8709 51.176 50.8709C51.816 50.8709 52.296 51.0629 52.616 51.4469C52.936 51.8629 53.096 52.4229 53.096 53.1269V57.3029L52.664 55.1429L63.608 57.3029L63.128 58.7909V54.1349C63.128 53.6549 63.208 53.2389 63.368 52.8869C63.528 52.5669 63.752 52.3109 64.04 52.1189C64.328 51.9589 64.68 51.8789 65.096 51.8789C65.736 51.8789 66.2 52.0709 66.488 52.4549C66.808 52.8709 66.968 53.4309 66.968 54.1349V59.5109L66.536 57.7829L73.208 59.1269C73.912 59.2869 74.424 59.5589 74.744 59.9429C75.064 60.3589 75.224 60.8869 75.224 61.5269C75.224 62.1989 75 62.6789 74.552 62.9669C74.136 63.2869 73.544 63.3669 72.776 63.2069L66.968 62.0549V68.1029L73.208 69.3509C73.912 69.5109 74.424 69.7829 74.744 70.1669C75.064 70.5829 75.224 71.1109 75.224 71.7509C75.224 72.4229 75 72.9029 74.552 73.1909C74.136 73.5109 73.544 73.5909 72.776 73.4309L66.536 72.1829L66.968 70.7429V73.6709C66.968 74.1509 66.888 74.5509 66.728 74.8709C66.6 75.2229 66.392 75.4789 66.104 75.6389C65.848 75.8309 65.512 75.9269 65.096 75.9269C64.488 75.9269 64.008 75.7349 63.656 75.3509C63.304 74.9669 63.128 74.4069 63.128 73.6709V69.9749L63.608 71.6549L52.664 69.4949L53.096 68.0069V72.6629C53.096 73.1429 53.016 73.5429 52.856 73.8629C52.728 74.2149 52.52 74.4709 52.232 74.6309C51.944 74.8229 51.592 74.9189 51.176 74.9189C50.568 74.9189 50.088 74.7269 49.736 74.3429C49.416 73.9589 49.256 73.3989 49.256 72.6629V67.2869L49.64 69.0149L42.632 67.5749C41.928 67.4469 41.416 67.1749 41.096 66.7589C40.776 66.3749 40.616 65.8629 40.616 65.2229C40.616 64.5509 40.824 64.0549 41.24 63.7349C41.688 63.4469 42.296 63.3669 43.064 63.4949L49.256 64.7429V58.6949L42.632 57.3989C41.928 57.2709 41.416 56.9989 41.096 56.5829C40.776 56.1989 40.616 55.6869 40.616 55.0469ZM53.096 59.4149V65.4149L63.128 67.3829V61.3829L53.096 59.4149ZM40.616 84.5482C40.616 83.5562 40.888 82.7882 41.432 82.2442C42.008 81.7322 42.792 81.4762 43.784 81.4762H71.72C72.744 81.4762 73.512 81.7482 74.024 82.2922C74.568 82.8362 74.84 83.6042 74.84 84.5962V96.1642C74.84 99.8762 73.912 102.74 72.056 104.756C70.2 106.772 67.608 107.78 64.28 107.78C60.952 107.78 58.344 106.772 56.456 104.756C54.6 102.74 53.672 99.8762 53.672 96.1642V87.6202H43.784C42.792 87.6202 42.008 87.3642 41.432 86.8522C40.888 86.3402 40.616 85.5722 40.616 84.5482ZM58.52 87.6202V95.2042C58.52 97.3802 59 99.0282 59.96 100.148C60.952 101.268 62.392 101.828 64.28 101.828C66.168 101.828 67.592 101.268 68.552 100.148C69.512 99.0282 69.992 97.3802 69.992 95.2042V87.6202H58.52ZM40.52 124.453C40.52 123.045 40.632 121.637 40.856 120.229C41.048 118.821 41.352 117.493 41.768 116.245C42.216 114.997 42.76 113.877 43.4 112.885C43.784 112.309 44.248 111.909 44.792 111.685C45.336 111.461 45.864 111.381 46.376 111.445C46.92 111.541 47.384 111.749 47.768 112.069C48.184 112.421 48.44 112.853 48.536 113.365C48.632 113.877 48.488 114.437 48.104 115.045C47.272 116.453 46.664 117.941 46.28 119.509C45.896 121.077 45.704 122.725 45.704 124.453C45.704 126.981 46.12 128.821 46.952 129.973C47.816 131.125 48.92 131.701 50.264 131.701C51.384 131.701 52.264 131.285 52.904 130.453C53.544 129.653 54.072 128.261 54.488 126.277L55.592 120.997C56.232 117.957 57.304 115.685 58.808 114.181C60.344 112.709 62.36 111.973 64.856 111.973C66.424 111.973 67.848 112.293 69.128 112.933C70.408 113.573 71.512 114.469 72.44 115.621C73.368 116.805 74.072 118.197 74.552 119.797C75.064 121.429 75.32 123.221 75.32 125.173C75.32 127.093 75.08 128.917 74.6 130.645C74.12 132.373 73.416 133.925 72.488 135.301C72.136 135.813 71.704 136.149 71.192 136.309C70.68 136.501 70.168 136.549 69.656 136.453C69.176 136.357 68.76 136.133 68.408 135.781C68.056 135.429 67.848 134.981 67.784 134.437C67.72 133.925 67.88 133.333 68.264 132.661C68.936 131.477 69.416 130.277 69.704 129.061C69.992 127.845 70.136 126.533 70.136 125.125C70.136 123.653 69.928 122.389 69.512 121.333C69.096 120.277 68.504 119.461 67.736 118.885C67 118.341 66.12 118.069 65.096 118.069C63.944 118.069 63.016 118.453 62.312 119.221C61.64 119.989 61.112 121.301 60.728 123.157L59.624 128.389C58.952 131.557 57.896 133.909 56.456 135.445C55.016 137.013 53.096 137.797 50.696 137.797C49.16 137.797 47.768 137.477 46.52 136.837C45.272 136.229 44.2 135.333 43.304 134.149C42.408 132.997 41.72 131.605 41.24 129.973C40.76 128.341 40.52 126.501 40.52 124.453ZM40.616 146.142C40.616 145.15 40.888 144.382 41.432 143.838C42.008 143.326 42.792 143.07 43.784 143.07H72.056C73.08 143.07 73.864 143.326 74.408 143.838C74.952 144.382 75.224 145.15 75.224 146.142C75.224 147.134 74.952 147.886 74.408 148.398C73.864 148.942 73.08 149.214 72.056 149.214H60.728V166.638H72.056C73.08 166.638 73.864 166.894 74.408 167.406C74.952 167.95 75.224 168.718 75.224 169.71C75.224 170.702 74.952 171.454 74.408 171.966C73.864 172.51 73.08 172.782 72.056 172.782H43.784C42.792 172.782 42.008 172.51 41.432 171.966C40.888 171.454 40.616 170.702 40.616 169.71C40.616 168.718 40.888 167.95 41.432 167.406C42.008 166.894 42.792 166.638 43.784 166.638H55.592V149.214H43.784C42.792 149.214 42.008 148.958 41.432 148.446C40.888 147.934 40.616 147.166 40.616 146.142ZM40.616 183.267C40.616 182.275 40.888 181.507 41.432 180.963C42.008 180.451 42.792 180.195 43.784 180.195H71.72C72.744 180.195 73.512 180.467 74.024 181.011C74.568 181.555 74.84 182.323 74.84 183.315V194.883C74.84 198.595 73.944 201.459 72.152 203.475C70.392 205.491 67.912 206.499 64.712 206.499C62.632 206.499 60.84 206.035 59.336 205.107C57.832 204.211 56.68 202.899 55.88 201.171C55.08 199.443 54.68 197.347 54.68 194.883L55.4 195.315V196.899C55.4 198.211 55.08 199.347 54.44 200.307C53.8 201.299 52.792 202.163 51.416 202.899L44.744 206.499C44.072 206.883 43.416 207.059 42.776 207.027C42.136 206.995 41.608 206.755 41.192 206.307C40.808 205.859 40.616 205.203 40.616 204.339C40.616 203.475 40.792 202.771 41.144 202.227C41.528 201.683 42.104 201.203 42.872 200.787L51.8 195.939C52.888 195.363 53.608 194.675 53.96 193.875C54.344 193.107 54.536 192.115 54.536 190.899V186.339H43.784C42.792 186.339 42.008 186.083 41.432 185.571C40.888 185.059 40.616 184.291 40.616 183.267ZM59.096 186.339V193.827C59.096 196.035 59.544 197.699 60.44 198.819C61.368 199.971 62.744 200.547 64.568 200.547C66.36 200.547 67.704 199.971 68.6 198.819C69.528 197.699 69.992 196.035 69.992 193.827V186.339H59.096Z" fill="#F8F8F8"/>
</svg>
