<svg width="114" height="260" viewBox="0 0 114 260" fill="none" xmlns="http://www.w3.org/2000/svg">
<path fill-rule="evenodd" clip-rule="evenodd" d="M113.366 2.2933C113.366 1.03822 112.328 -4.72811e-08 111.072 -1.02142e-07C109.817 -1.57032e-07 108.778 1.03822 108.778 2.2933C108.778 3.54837 109.817 4.58724 111.072 4.58724C112.328 4.58724 113.366 3.59188 113.366 2.2933ZM113.409 31.1576C113.409 29.9025 112.371 28.8643 111.115 28.8643C109.861 28.8643 108.821 29.9025 108.821 31.1576C108.821 32.4127 109.861 33.4509 111.115 33.4509C112.371 33.4509 113.409 32.4127 113.409 31.1576ZM113.409 59.9781C113.409 58.7237 112.371 57.6848 111.115 57.6848C109.861 57.6848 108.821 58.7237 108.821 59.9781C108.821 61.2332 109.861 62.2714 111.115 62.2714C112.371 62.2714 113.409 61.2767 113.409 59.9781ZM113.409 88.8424C113.409 87.5873 112.371 86.5491 111.115 86.5491C109.861 86.5491 108.821 87.5873 108.821 88.8424C108.821 90.0975 109.861 91.1363 111.115 91.1363C112.371 91.1363 113.409 90.0975 113.409 88.8424ZM108.778 117.663C108.778 118.918 109.817 119.957 111.072 119.957C112.328 119.957 113.366 118.918 113.366 117.663C113.366 116.408 112.328 115.37 111.072 115.37C109.817 115.37 108.778 116.408 108.778 117.663ZM86.7883 2.29329C86.7883 1.03822 85.75 -1.20902e-06 84.4943 -1.26391e-06C83.2399 -1.31874e-06 82.2004 1.03821 82.2004 2.29329C82.2004 3.54837 83.2399 4.58724 84.4943 4.58724C85.75 4.63009 86.7883 3.59188 86.7883 2.29329ZM86.7883 31.1576C86.7883 29.9025 85.75 28.8643 84.4943 28.8643C83.2399 28.8643 82.2004 29.9025 82.2004 31.1576C82.2004 32.4127 83.2399 33.4509 84.4943 33.4509C85.75 33.4509 86.7883 32.4127 86.7883 31.1576ZM86.7882 59.9781C86.7882 58.7237 85.75 57.6848 84.4943 57.6848C83.2399 57.6848 82.2004 58.7237 82.2004 59.9781C82.2004 61.2332 83.2399 62.2714 84.4943 62.2714C85.75 62.3149 86.7882 61.2767 86.7882 59.9781ZM86.7882 88.8424C86.7882 87.5873 85.75 86.5491 84.4943 86.5491C83.2399 86.5491 82.2004 87.5873 82.2004 88.8424C82.2004 90.0975 83.2399 91.1363 84.4943 91.1363C85.75 91.1363 86.7882 90.1403 86.7882 88.8424ZM86.7882 117.707C86.7882 116.452 85.75 115.413 84.4943 115.413C83.2399 115.413 82.2004 116.452 82.2004 117.707C82.2004 118.962 83.2399 120 84.4943 120C85.75 120 86.7882 118.962 86.7882 117.707ZM59.3888 2.29329C59.3888 1.03821 58.35 -2.40671e-06 57.0942 -2.4616e-06C55.8392 -2.51647e-06 54.8003 1.03821 54.8003 2.29329C54.8003 3.54837 55.8392 4.58724 57.0942 4.58724C58.35 4.63009 59.3888 3.59188 59.3888 2.29329ZM59.3888 31.1576C59.3888 29.9025 58.35 28.8643 57.0942 28.8643C55.8392 28.8643 54.8003 29.9025 54.8003 31.1576C54.8003 32.4127 55.8392 33.4509 57.0942 33.4509C58.35 33.4509 59.3888 32.4127 59.3888 31.1576ZM59.3888 60.0219C59.3888 58.7668 58.35 57.7279 57.0942 57.7279C55.8392 57.7279 54.8003 58.7668 54.8003 60.0219C54.8003 61.2769 55.8392 62.3152 57.0942 62.3152C58.35 62.3152 59.3888 61.2769 59.3888 60.0219ZM59.3888 88.8424C59.3888 87.5873 58.35 86.5491 57.0942 86.5491C55.8392 86.5491 54.8003 87.5873 54.8003 88.8424C54.8003 90.0975 55.8392 91.1363 57.0942 91.1363C58.35 91.1363 59.3888 90.1403 59.3888 88.8424ZM59.3888 117.707C59.3888 116.452 58.35 115.413 57.0942 115.413C55.8392 115.413 54.8003 116.452 54.8003 117.707C54.8003 118.962 55.8392 120 57.0942 120C58.35 120 59.3888 118.962 59.3888 117.707ZM32.7679 2.33673C32.7679 1.08165 31.729 0.0434304 30.4733 0.0434304C29.2182 0.0434303 28.1794 1.08165 28.1794 2.33673C28.1794 3.59181 29.2182 4.63002 30.4733 4.63002C31.729 4.63002 32.7679 3.59181 32.7679 2.33673ZM32.7679 31.1576C32.7679 29.9025 31.729 28.8643 30.4733 28.8643C29.2182 28.8643 28.1794 29.9025 28.1794 31.1576C28.1794 32.4127 29.2182 33.4509 30.4733 33.4509C31.729 33.4509 32.7679 32.4562 32.7679 31.1576ZM32.7679 60.0219C32.7679 58.7668 31.729 57.7279 30.4733 57.7279C29.2182 57.7279 28.1794 58.7668 28.1794 60.0219C28.1794 61.2769 29.2182 62.3152 30.4733 62.3152C31.729 62.3152 32.7679 61.2769 32.7679 60.0219ZM32.7679 88.8424C32.7679 87.5873 31.729 86.5491 30.4733 86.5491C29.2182 86.5491 28.1794 87.5873 28.1794 88.8424C28.1794 90.0975 29.2182 91.1363 30.4733 91.1363C31.729 91.1792 32.7679 90.1403 32.7679 88.8424ZM32.7679 117.707C32.7679 116.452 31.729 115.413 30.4733 115.413C29.2182 115.413 28.1794 116.452 28.1794 117.707C28.1794 118.962 29.2182 120 30.4733 120C31.729 120 32.7679 118.962 32.7679 117.707ZM4.58859 2.33672C4.58859 1.08165 3.54973 0.0434292 2.29465 0.0434292C1.03892 0.0434291 5.33585e-05 1.08165 5.33036e-05 2.33672C5.32488e-05 3.5918 1.03892 4.63002 2.29465 4.63002C3.54973 4.63002 4.58859 3.5918 4.58859 2.33672ZM4.58859 31.1576C4.58859 29.9025 3.54973 28.8643 2.29465 28.8643C1.03892 28.8643 5.20987e-05 29.9025 5.20438e-05 31.1576C5.1989e-05 32.4126 1.03892 33.4509 2.29465 33.4509C3.54973 33.4944 4.58859 32.4562 4.58859 31.1576ZM4.58859 60.0219C4.58859 58.7668 3.54973 57.7279 2.29464 57.7279C1.03892 57.7279 5.0837e-05 58.7668 5.07821e-05 60.0219C5.07273e-05 61.2769 1.03891 62.3152 2.29464 62.3152C3.54973 62.3152 4.58859 61.2769 4.58859 60.0219ZM4.58859 88.8424C4.58859 87.5873 3.54972 86.5491 2.29464 86.5491C1.03891 86.5491 4.95772e-05 87.5873 4.95223e-05 88.8424C4.94675e-05 90.0975 1.03891 91.1363 2.29464 91.1363C3.54972 91.1792 4.58859 90.1403 4.58859 88.8424ZM4.58859 117.707C4.58859 116.452 3.54972 115.413 2.29464 115.413C1.03891 115.413 4.83155e-05 116.452 4.82606e-05 117.707C4.82058e-05 118.962 1.03891 120 2.29464 120C3.54972 120 4.58859 118.962 4.58859 117.707ZM113.366 142.293C113.366 141.038 112.328 140 111.073 140C109.817 140 108.779 141.038 108.779 142.293C108.779 143.548 109.817 144.587 111.073 144.587C112.328 144.587 113.366 143.592 113.366 142.293ZM113.409 171.158C113.409 169.902 112.371 168.864 111.115 168.864C109.861 168.864 108.821 169.902 108.821 171.158C108.821 172.413 109.861 173.451 111.115 173.451C112.371 173.451 113.409 172.413 113.409 171.158ZM113.409 199.978C113.409 198.723 112.371 197.685 111.115 197.685C109.861 197.685 108.821 198.723 108.821 199.978C108.821 201.233 109.861 202.271 111.115 202.271C112.371 202.271 113.409 201.276 113.409 199.978ZM113.409 228.843C113.409 227.588 112.371 226.549 111.115 226.549C109.861 226.549 108.821 227.588 108.821 228.843C108.821 230.098 109.861 231.137 111.115 231.137C112.371 231.137 113.409 230.098 113.409 228.843ZM108.779 257.663C108.779 258.918 109.817 259.957 111.072 259.957C112.328 259.957 113.366 258.918 113.366 257.663C113.366 256.408 112.328 255.37 111.072 255.37C109.817 255.37 108.779 256.408 108.779 257.663ZM86.7883 142.293C86.7883 141.038 85.7501 140 84.4944 140C83.2399 140 82.2004 141.038 82.2004 142.293C82.2004 143.548 83.2399 144.587 84.4944 144.587C85.7501 144.63 86.7883 143.592 86.7883 142.293ZM86.7883 171.158C86.7883 169.902 85.7501 168.864 84.4944 168.864C83.2399 168.864 82.2004 169.902 82.2004 171.158C82.2004 172.413 83.2399 173.451 84.4944 173.451C85.7501 173.451 86.7883 172.413 86.7883 171.158ZM86.7883 199.978C86.7883 198.723 85.7501 197.685 84.4944 197.685C83.2399 197.685 82.2004 198.723 82.2004 199.978C82.2004 201.233 83.2399 202.271 84.4944 202.271C85.7501 202.315 86.7883 201.276 86.7883 199.978ZM86.7883 228.843C86.7883 227.588 85.7501 226.549 84.4944 226.549C83.2399 226.549 82.2004 227.588 82.2004 228.843C82.2004 230.098 83.2399 231.137 84.4944 231.137C85.7501 231.137 86.7883 230.141 86.7883 228.843ZM86.7883 257.707C86.7883 256.452 85.7501 255.414 84.4944 255.414C83.2399 255.414 82.2004 256.452 82.2004 257.707C82.2004 258.962 83.2399 260 84.4944 260C85.7501 260 86.7883 258.962 86.7883 257.707ZM59.3889 142.293C59.3889 141.038 58.35 140 57.0943 140C55.8392 140 54.8004 141.038 54.8004 142.293C54.8004 143.548 55.8392 144.587 57.0943 144.587C58.35 144.63 59.3889 143.592 59.3889 142.293ZM59.3889 171.158C59.3889 169.902 58.35 168.864 57.0943 168.864C55.8392 168.864 54.8004 169.902 54.8004 171.158C54.8004 172.413 55.8392 173.451 57.0943 173.451C58.35 173.451 59.3889 172.413 59.3889 171.158ZM59.3889 200.022C59.3889 198.767 58.35 197.728 57.0943 197.728C55.8392 197.728 54.8004 198.767 54.8004 200.022C54.8004 201.277 55.8392 202.315 57.0943 202.315C58.35 202.315 59.3889 201.277 59.3889 200.022ZM59.3889 228.843C59.3889 227.588 58.35 226.549 57.0943 226.549C55.8392 226.549 54.8004 227.588 54.8004 228.843C54.8004 230.098 55.8392 231.137 57.0943 231.137C58.35 231.137 59.3889 230.141 59.3889 228.843ZM59.3889 257.707C59.3889 256.452 58.35 255.414 57.0943 255.414C55.8392 255.414 54.8004 256.452 54.8004 257.707C54.8004 258.962 55.8392 260 57.0943 260C58.35 260 59.3889 258.962 59.3889 257.707ZM32.7678 142.337C32.7678 141.082 31.729 140.043 30.4732 140.043C29.2181 140.043 28.1793 141.082 28.1793 142.337C28.1793 143.592 29.2181 144.63 30.4732 144.63C31.729 144.63 32.7678 143.592 32.7678 142.337ZM32.7678 171.158C32.7678 169.902 31.729 168.864 30.4732 168.864C29.2181 168.864 28.1793 169.902 28.1793 171.158C28.1793 172.413 29.2181 173.451 30.4732 173.451C31.729 173.451 32.7678 172.456 32.7678 171.158ZM32.7678 200.022C32.7678 198.767 31.7289 197.728 30.4732 197.728C29.2181 197.728 28.1793 198.767 28.1793 200.022C28.1793 201.277 29.2181 202.315 30.4732 202.315C31.7289 202.315 32.7678 201.277 32.7678 200.022ZM32.7678 228.843C32.7678 227.588 31.7289 226.549 30.4732 226.549C29.2181 226.549 28.1793 227.588 28.1793 228.843C28.1793 230.098 29.2181 231.137 30.4732 231.137C31.7289 231.179 32.7678 230.141 32.7678 228.843ZM32.7678 257.707C32.7678 256.452 31.7289 255.414 30.4732 255.414C29.2181 255.414 28.1793 256.452 28.1793 257.707C28.1793 258.962 29.2181 260 30.4732 260C31.7289 260 32.7678 258.962 32.7678 257.707ZM4.58862 142.337C4.58862 141.082 3.54975 140.043 2.29467 140.043C1.03894 140.043 7.77565e-05 141.082 7.77016e-05 142.337C7.76467e-05 143.592 1.03894 144.63 2.29467 144.63C3.54975 144.63 4.58862 143.592 4.58862 142.337ZM4.58862 171.158C4.58862 169.902 3.54975 168.864 2.29467 168.864C1.03894 168.864 7.64967e-05 169.902 7.64418e-05 171.158C7.63869e-05 172.413 1.03894 173.451 2.29467 173.451C3.54975 173.494 4.58862 172.456 4.58862 171.158ZM4.58861 200.022C4.58861 198.767 3.54975 197.728 2.29467 197.728C1.03894 197.728 7.5235e-05 198.767 7.51801e-05 200.022C7.51252e-05 201.277 1.03894 202.315 2.29467 202.315C3.54975 202.315 4.58861 201.277 4.58861 200.022ZM4.58861 228.843C4.58861 227.588 3.54975 226.549 2.29467 226.549C1.03894 226.549 7.39752e-05 227.588 7.39203e-05 228.843C7.38655e-05 230.098 1.03894 231.137 2.29467 231.137C3.54975 231.179 4.58861 230.141 4.58861 228.843ZM4.58861 257.707C4.58861 256.452 3.54975 255.414 2.29467 255.414C1.03894 255.414 7.27135e-05 256.452 7.26586e-05 257.707C7.26038e-05 258.962 1.03894 260 2.29467 260C3.54975 260 4.58861 258.962 4.58861 257.707Z" fill="#6BDD93"/>
</svg>
