<svg width="114" height="244" viewBox="0 0 114 244" fill="none" xmlns="http://www.w3.org/2000/svg">
<path fill-rule="evenodd" clip-rule="evenodd" d="M0.0427998 241.6C0.0427999 242.777 1.08167 243.75 2.33674 243.75C3.59247 243.75 4.63069 242.777 4.63069 241.6C4.63069 240.424 3.59247 239.45 2.33674 239.45C1.08167 239.45 0.0427998 240.383 0.0427998 241.6ZM-1.36194e-06 214.54C-1.3029e-06 215.717 1.03821 216.69 2.29394 216.69C3.54837 216.69 4.58789 215.717 4.58789 214.54C4.58789 213.363 3.54837 212.39 2.29394 212.39C1.03821 212.39 -1.42098e-06 213.363 -1.36194e-06 214.54ZM-2.62173e-06 187.521C-2.56272e-06 188.697 1.03821 189.671 2.29394 189.671C3.54837 189.671 4.58789 188.697 4.58789 187.521C4.58789 186.344 3.54837 185.371 2.29394 185.371C1.03821 185.371 -2.68281e-06 186.303 -2.62173e-06 187.521ZM-3.88342e-06 160.46C-3.82438e-06 161.637 1.03821 162.61 2.29394 162.61C3.54837 162.61 4.58789 161.637 4.58789 160.46C4.58789 159.284 3.54837 158.31 2.29394 158.31C1.03821 158.31 -3.94246e-06 159.284 -3.88342e-06 160.46ZM4.63068 133.441C4.63068 132.264 3.59247 131.29 2.33674 131.29C1.08166 131.29 0.0427947 132.264 0.0427948 133.441C0.0427949 134.617 1.08166 135.591 2.33674 135.591C3.59247 135.591 4.63068 134.617 4.63068 133.441ZM26.6209 241.6C26.6209 242.777 27.6591 243.75 28.9149 243.75C30.1693 243.75 31.2088 242.777 31.2088 241.6C31.2088 240.424 30.1693 239.45 28.9149 239.45C27.6591 239.409 26.6209 240.383 26.6209 241.6ZM26.6209 214.54C26.6209 215.717 27.6591 216.69 28.9149 216.69C30.1693 216.69 31.2088 215.717 31.2088 214.54C31.2088 213.363 30.1693 212.39 28.9149 212.39C27.6591 212.39 26.6209 213.363 26.6209 214.54ZM26.6209 187.521C26.6209 188.697 27.6591 189.671 28.9149 189.671C30.1693 189.671 31.2088 188.697 31.2088 187.521C31.2088 186.344 30.1693 185.371 28.9149 185.371C27.6591 185.33 26.6209 186.303 26.6209 187.521ZM26.6209 160.46C26.6209 161.637 27.6591 162.61 28.9149 162.61C30.1693 162.61 31.2088 161.637 31.2088 160.46C31.2088 159.284 30.1693 158.31 28.9149 158.31C27.6591 158.31 26.6209 159.244 26.6209 160.46ZM26.6209 133.4C26.6209 134.577 27.6591 135.55 28.9149 135.55C30.1693 135.55 31.2088 134.577 31.2088 133.4C31.2088 132.223 30.1693 131.25 28.9149 131.25C27.6591 131.25 26.6209 132.223 26.6209 133.4ZM54.0203 241.6C54.0203 242.777 55.0592 243.75 56.3149 243.75C57.57 243.75 58.6089 242.777 58.6089 241.6C58.6089 240.424 57.57 239.45 56.3149 239.45C55.0592 239.409 54.0203 240.383 54.0203 241.6ZM54.0203 214.54C54.0203 215.717 55.0592 216.69 56.3149 216.69C57.57 216.69 58.6089 215.717 58.6089 214.54C58.6089 213.363 57.57 212.39 56.3149 212.39C55.0592 212.39 54.0203 213.363 54.0203 214.54ZM54.0203 187.48C54.0203 188.656 55.0592 189.63 56.3149 189.63C57.57 189.63 58.6089 188.656 58.6089 187.48C58.6089 186.303 57.57 185.33 56.3149 185.33C55.0592 185.33 54.0203 186.303 54.0203 187.48ZM54.0203 160.46C54.0203 161.637 55.0592 162.61 56.3149 162.61C57.57 162.61 58.6089 161.637 58.6089 160.46C58.6089 159.284 57.57 158.31 56.3149 158.31C55.0592 158.31 54.0203 159.244 54.0203 160.46ZM54.0203 133.4C54.0203 134.577 55.0592 135.55 56.3149 135.55C57.57 135.55 58.6089 134.577 58.6089 133.4C58.6089 132.223 57.57 131.25 56.3149 131.25C55.0592 131.25 54.0203 132.223 54.0203 133.4ZM80.6413 241.559C80.6413 242.736 81.6801 243.709 82.9359 243.709C84.1909 243.709 85.2298 242.736 85.2298 241.559C85.2298 240.383 84.1909 239.409 82.9359 239.409C81.6801 239.409 80.6413 240.383 80.6413 241.559ZM80.6413 214.54C80.6413 215.717 81.6801 216.69 82.9359 216.69C84.1909 216.69 85.2298 215.717 85.2298 214.54C85.2298 213.363 84.1909 212.39 82.9359 212.39C81.6801 212.39 80.6413 213.322 80.6413 214.54ZM80.6413 187.48C80.6413 188.656 81.6801 189.63 82.9359 189.63C84.1909 189.63 85.2298 188.656 85.2298 187.48C85.2298 186.303 84.1909 185.33 82.9359 185.33C81.6801 185.33 80.6413 186.303 80.6413 187.48ZM80.6413 160.46C80.6413 161.637 81.6801 162.61 82.9359 162.61C84.1909 162.61 85.2298 161.637 85.2298 160.46C85.2298 159.284 84.1909 158.31 82.9359 158.31C81.6801 158.27 80.6413 159.244 80.6413 160.46ZM80.6413 133.4C80.6413 134.577 81.6801 135.55 82.9359 135.55C84.1909 135.55 85.2298 134.577 85.2298 133.4C85.2298 132.223 84.1909 131.25 82.9359 131.25C81.6801 131.25 80.6413 132.223 80.6413 133.4ZM108.821 241.559C108.821 242.736 109.859 243.709 111.115 243.709C112.37 243.709 113.409 242.736 113.409 241.559C113.409 240.383 112.37 239.409 111.115 239.409C109.859 239.409 108.821 240.383 108.821 241.559ZM108.821 214.54C108.821 215.717 109.859 216.69 111.115 216.69C112.37 216.69 113.409 215.717 113.409 214.54C113.409 213.363 112.37 212.39 111.115 212.39C109.859 212.349 108.821 213.322 108.821 214.54ZM108.821 187.48C108.821 188.656 109.859 189.63 111.115 189.63C112.37 189.63 113.409 188.656 113.409 187.48C113.409 186.303 112.37 185.33 111.115 185.33C109.859 185.33 108.821 186.303 108.821 187.48ZM108.821 160.46C108.821 161.637 109.859 162.61 111.115 162.61C112.37 162.61 113.409 161.637 113.409 160.46C113.409 159.284 112.37 158.31 111.115 158.31C109.859 158.27 108.821 159.244 108.821 160.46ZM108.821 133.4C108.821 134.577 109.859 135.55 111.115 135.55C112.37 135.55 113.409 134.577 113.409 133.4C113.409 132.223 112.37 131.25 111.115 131.25C109.859 131.25 108.821 132.223 108.821 133.4ZM0.0427184 110.35C0.0427184 111.527 1.08158 112.5 2.33666 112.5C3.59239 112.5 4.63061 111.527 4.63061 110.35C4.63061 109.174 3.59239 108.2 2.33666 108.2C1.08158 108.2 0.0427183 109.133 0.0427184 110.35ZM-7.48153e-06 83.2899C-7.42249e-06 84.4666 1.03821 85.4399 2.29394 85.4399C3.54837 85.4399 4.58788 84.4666 4.58788 83.2899C4.58788 82.1133 3.54837 81.14 2.29394 81.14C1.03821 81.14 -7.54058e-06 82.1133 -7.48153e-06 83.2899ZM-8.74131e-06 56.2709C-8.6823e-06 57.4469 1.03821 58.4208 2.29394 58.4208C3.54837 58.4208 4.58788 57.4469 4.58788 56.2709C4.58788 55.0942 3.54837 54.1209 2.29394 54.1209C1.03821 54.1209 -8.8024e-06 55.0535 -8.74131e-06 56.2709ZM-1.0003e-05 29.2102C-9.94398e-06 30.3868 1.03821 31.3601 2.29393 31.3601C3.54836 31.3601 4.58788 30.3868 4.58788 29.2102C4.58788 28.0335 3.54836 27.0596 2.29393 27.0596C1.03821 27.0596 -1.00621e-05 28.0335 -1.0003e-05 29.2102ZM4.6306 2.19067C4.6306 1.01404 3.59239 0.0401 2.33666 0.0401C1.08158 0.0401001 0.0427133 1.01404 0.0427133 2.19067C0.0427134 3.36731 1.08158 4.34064 2.33666 4.34064C3.59239 4.34064 4.6306 3.36731 4.6306 2.19067ZM26.6208 110.35C26.6208 111.527 27.6591 112.5 28.9148 112.5C30.1692 112.5 31.2087 111.527 31.2087 110.35C31.2087 109.174 30.1692 108.2 28.9148 108.2C27.6591 108.159 26.6208 109.133 26.6208 110.35ZM26.6208 83.2899C26.6208 84.4666 27.6591 85.4399 28.9148 85.4399C30.1692 85.4399 31.2087 84.4666 31.2087 83.2899C31.2087 82.1133 30.1692 81.14 28.9148 81.14C27.6591 81.14 26.6208 82.1133 26.6208 83.2899ZM26.6208 56.2709C26.6208 57.4469 27.6591 58.4208 28.9148 58.4208C30.1692 58.4208 31.2087 57.4469 31.2087 56.2709C31.2087 55.0942 30.1692 54.1209 28.9148 54.1209C27.6591 54.0801 26.6208 55.0535 26.6208 56.2709ZM26.6208 29.2102C26.6208 30.3868 27.6591 31.3601 28.9148 31.3601C30.1692 31.3601 31.2087 30.3868 31.2087 29.2102C31.2087 28.0335 30.1692 27.0596 28.9148 27.0596C27.6591 27.0596 26.6208 27.9934 26.6208 29.2102ZM26.6208 2.14993C26.6208 3.32657 27.6591 4.2999 28.9148 4.2999C30.1692 4.2999 31.2087 3.32657 31.2087 2.14993C31.2087 0.973296 30.1692 -3.17539e-05 28.9148 -3.17025e-05C27.6591 -3.1651e-05 26.6208 0.973296 26.6208 2.14993ZM54.0203 110.35C54.0203 111.527 55.0591 112.5 56.3149 112.5C57.5699 112.5 58.6088 111.527 58.6088 110.35C58.6088 109.174 57.5699 108.2 56.3149 108.2C55.0591 108.159 54.0203 109.133 54.0203 110.35ZM54.0203 83.2899C54.0203 84.4666 55.0591 85.4399 56.3149 85.4399C57.5699 85.4399 58.6088 84.4666 58.6088 83.2899C58.6088 82.1133 57.5699 81.14 56.3148 81.14C55.0591 81.14 54.0203 82.1133 54.0203 83.2899ZM54.0203 56.2295C54.0203 57.4062 55.0591 58.3801 56.3148 58.3801C57.5699 58.3801 58.6088 57.4062 58.6088 56.2295C58.6088 55.0529 57.5699 54.0796 56.3148 54.0796C55.0591 54.0796 54.0203 55.0529 54.0203 56.2295ZM54.0203 29.2102C54.0203 30.3868 55.0591 31.3601 56.3148 31.3601C57.5699 31.3601 58.6088 30.3868 58.6088 29.2102C58.6088 28.0335 57.5699 27.0596 56.3148 27.0596C55.0591 27.0596 54.0203 27.9934 54.0203 29.2102ZM54.0203 2.14993C54.0203 3.32657 55.0591 4.29989 56.3148 4.29989C57.5699 4.29989 58.6088 3.32657 58.6088 2.14993C58.6088 0.973295 57.5699 -3.28768e-05 56.3148 -3.28253e-05C55.0591 -3.27739e-05 54.0203 0.973295 54.0203 2.14993ZM80.6414 110.309C80.6414 111.486 81.6802 112.459 82.9359 112.459C84.191 112.459 85.2299 111.486 85.2299 110.309C85.2299 109.133 84.191 108.159 82.9359 108.159C81.6802 108.159 80.6414 109.133 80.6414 110.309ZM80.6413 83.2899C80.6413 84.4665 81.6802 85.4399 82.9359 85.4399C84.191 85.4399 85.2299 84.4665 85.2299 83.2899C85.2299 82.1133 84.191 81.14 82.9359 81.14C81.6802 81.14 80.6413 82.0725 80.6413 83.2899ZM80.6413 56.2295C80.6413 57.4062 81.6802 58.3801 82.9359 58.3801C84.191 58.3801 85.2299 57.4062 85.2299 56.2295C85.2299 55.0529 84.191 54.0796 82.9359 54.0796C81.6802 54.0796 80.6413 55.0529 80.6413 56.2295ZM80.6413 29.2102C80.6413 30.3868 81.6802 31.3601 82.9359 31.3601C84.191 31.3601 85.2299 30.3868 85.2299 29.2102C85.2299 28.0335 84.191 27.0596 82.9359 27.0596C81.6802 27.0194 80.6413 27.9934 80.6413 29.2102ZM80.6413 2.14993C80.6413 3.32657 81.6802 4.29989 82.9359 4.29989C84.191 4.29989 85.2299 3.32657 85.2299 2.14993C85.2299 0.973294 84.191 -3.39677e-05 82.9359 -3.39162e-05C81.6802 -3.38648e-05 80.6413 0.973294 80.6413 2.14993ZM108.821 110.309C108.821 111.486 109.859 112.459 111.114 112.459C112.37 112.459 113.409 111.486 113.409 110.309C113.409 109.133 112.37 108.159 111.114 108.159C109.859 108.159 108.821 109.133 108.821 110.309ZM108.821 83.2899C108.821 84.4665 109.859 85.4399 111.114 85.4399C112.37 85.4399 113.409 84.4665 113.409 83.2899C113.409 82.1133 112.37 81.1399 111.114 81.1399C109.859 81.0992 108.821 82.0725 108.821 83.2899ZM108.821 56.2295C108.821 57.4062 109.859 58.3801 111.114 58.3801C112.37 58.3801 113.409 57.4062 113.409 56.2295C113.409 55.0529 112.37 54.0796 111.114 54.0796C109.859 54.0796 108.821 55.0529 108.821 56.2295ZM108.821 29.2102C108.821 30.3868 109.859 31.3601 111.114 31.3601C112.37 31.3601 113.409 30.3868 113.409 29.2102C113.409 28.0335 112.37 27.0596 111.114 27.0596C109.859 27.0194 108.821 27.9934 108.821 29.2102ZM108.821 2.14993C108.821 3.32656 109.859 4.29989 111.114 4.29989C112.37 4.29989 113.409 3.32656 113.409 2.14993C113.409 0.973292 112.37 -3.51224e-05 111.114 -3.5071e-05C109.859 -3.50196e-05 108.821 0.973293 108.821 2.14993Z" fill="#936CDD"/>
</svg>
