<svg width="191" height="50" viewBox="0 0 191 50" fill="none" xmlns="http://www.w3.org/2000/svg">
<path fill-rule="evenodd" clip-rule="evenodd" d="M0 0.0966319C0 0.278497 15.6661 30.9583 15.8683 31.1723C16.0861 31.4028 20.2993 23.5896 20.2993 22.9549C20.2993 22.7443 17.7132 17.493 14.5525 11.286L8.80572 0H4.40286C1.98126 0 0 0.0435231 0 0.0966319ZM22.4669 15.6088C26.831 24.1938 30.4999 31.2054 30.6204 31.1907C30.7407 31.1756 31.798 29.3104 32.9697 27.0456L35.1001 22.9275L29.2437 11.4637L23.3874 0H18.9598H14.5322L22.4669 15.6088ZM33.9995 1.10104C34.2647 2.78523 35.0501 4.87746 35.9297 6.24171C36.7024 7.44041 38.8195 9.58549 39.2297 9.58549C39.3421 9.58549 40.5153 7.42876 41.8371 4.79275L44.2402 0H39.0332H33.8259L33.9995 1.10104ZM49.447 15.544V31.0881L50.4229 31.0858C51.7158 31.0824 53.7728 29.8891 55.1287 28.356C55.7158 27.692 56.4502 26.4904 56.7612 25.6858C57.2078 24.5293 57.353 23.4764 57.4537 20.6606L57.5813 17.0984H59.7684C62.7516 17.0984 64.1647 16.4433 64.6582 14.8316L64.8367 14.2487H61.1755H57.5146V7.12435V0H53.4808H49.447V15.544ZM61.7413 4.79275C63.0631 7.42876 64.2126 9.58549 64.2959 9.58549C64.66 9.58549 66.6988 7.62668 67.4181 6.58575C68.3485 5.2399 69.3582 2.64896 69.556 1.10104L69.6968 0H64.5174H59.3382L61.7413 4.79275ZM83.8529 0.490673C80.4684 1.6544 78.0742 5.00907 78.0742 8.58731C78.0742 9.99145 78.6358 11.8329 79.4644 13.1461C79.7733 13.6355 83.3637 16.8342 87.4431 20.2541C91.5224 23.6741 95.0025 26.7238 95.1763 27.0313C95.6796 27.9223 95.5766 29.3806 94.9543 30.1679C94.6483 30.5552 94.1504 30.9718 93.8483 31.0933C93.3699 31.2858 93.4053 31.3163 94.1218 31.3308C94.5744 31.3396 95.6799 30.9681 96.5785 30.5052C101.163 28.1425 102.635 22.4381 99.7717 18.1313C99.4233 17.6073 95.8212 14.4171 91.7671 11.0422C87.7132 7.66736 84.2621 4.61269 84.0978 4.2544C83.9339 3.89586 83.7996 3.30544 83.7996 2.94223C83.7996 1.99793 84.5543 0.8557 85.4779 0.401814C86.0843 0.103886 86.1491 0.0124353 85.7515 0.0142488C85.4652 0.0158032 84.6108 0.230052 83.8529 0.490673ZM93.2312 4.79275C94.553 7.42876 95.7109 9.58549 95.8045 9.58549C95.8982 9.58549 96.5725 9.05052 97.303 8.39663C98.9921 6.88523 100.67 3.65699 100.895 1.48523L101.049 0H95.9383H90.8281L93.2312 4.79275ZM110.217 0.291451C110.141 0.487306 110.11 7.5842 110.147 16.0622L110.215 31.4767L114.195 31.5482L118.175 31.6199L118.099 18.7244L118.022 5.82902L117.41 4.60207C116.239 2.25751 113.9 0.492228 111.455 0.10829C110.637 -0.0204665 110.318 0.026684 110.217 0.291451ZM120.494 0.43886L118.803 0.859845L120.467 1.35674C121.382 1.63031 122.558 2.12254 123.08 2.45052C124.412 3.28731 125.663 4.78135 126.441 6.46477C126.954 7.57332 127.13 8.4342 127.21 10.2332C127.295 12.1321 127.209 12.8731 126.749 14.2272C126.065 16.2425 125.071 17.7293 123.468 19.1342C122.424 20.0482 120.099 21.1896 119.118 21.2692C118.335 21.3326 121.261 22.0207 122.93 22.1655C126.556 22.4803 130.579 21.0718 132.75 18.7267C134.167 17.1969 135.014 15.2725 135.384 12.7451C135.76 10.1777 135.433 8.10596 134.287 5.78782C133.26 3.71269 130.941 1.54741 128.897 0.757254C126.902 -0.0137305 122.92 -0.164508 120.494 0.43886ZM147.2 4.22409L144.964 8.48031L150.835 20.0433L156.706 31.6062H161.112C163.535 31.6062 165.517 31.5534 165.517 31.4889C165.517 31.3663 149.648 0.190414 149.513 0.0487046C149.471 0.00440407 148.43 1.88316 147.2 4.22409ZM137.463 26.5754C136.146 29.2018 135.068 31.4083 135.068 31.4785C135.068 31.5487 137.368 31.6062 140.18 31.6062H145.291L145.14 30.1544C144.868 27.5282 142.699 23.8145 140.546 22.2883L139.857 21.8003L137.463 26.5754ZM61.6799 26.6811C60.3909 29.2446 59.3364 31.4013 59.3364 31.4738C59.3364 31.699 69.4472 31.6194 69.5875 31.393C69.8636 30.9487 68.9556 27.6448 68.1377 26.1168C67.2049 24.3751 65.0738 22.0207 64.4294 22.0207C64.1637 22.0207 63.2146 23.6293 61.6799 26.6811ZM81.6749 22.7938C79.8449 24.2953 78.0952 27.6192 77.6783 30.3858L77.4946 31.6062H82.5988C85.8032 31.6062 87.7033 31.5104 87.7033 31.349C87.7033 30.8396 83.1495 22.0207 82.8864 22.0207C82.7383 22.0207 82.1931 22.3687 81.6749 22.7938ZM118.513 39.114C116.87 39.7751 116.258 42.4386 117.472 43.6474C117.814 43.9878 118.546 44.336 119.099 44.4212C121.098 44.7293 121.405 44.9028 121.405 45.722C121.405 46.3591 121.267 46.5228 120.557 46.7254C119.922 46.9067 119.432 46.8598 118.613 46.5391C117.532 46.1166 117.508 46.1192 116.885 46.7402L116.252 47.3694L117.129 47.9003C118.953 49.0047 121.62 48.828 122.854 47.521C123.344 47.0013 123.487 46.5671 123.487 45.6021C123.487 43.7339 122.723 43.0964 119.923 42.6293C119.276 42.5212 118.908 42.299 118.796 41.9474C118.704 41.6606 118.771 41.2567 118.943 41.0497C119.327 40.5899 121.304 40.5464 121.747 40.9881C121.995 41.2345 122.211 41.1549 122.749 40.6192L123.436 39.9363L122.55 39.3992C121.952 39.0357 121.244 38.8671 120.364 38.8775C119.649 38.886 118.816 38.9925 118.513 39.114ZM125.352 39.0329C125.257 39.1277 125.179 41.2845 125.179 43.8256V48.4456H126.22H127.261V46.7977V45.1497L128.806 45.0101C131.107 44.8026 132.227 43.8259 132.252 42.0057C132.27 40.7415 131.868 40 130.823 39.3653C130.172 38.9705 129.512 38.8619 127.76 38.8611C126.531 38.8606 125.448 38.9378 125.352 39.0329ZM135.729 39.2995C135.315 40.3389 132.466 48.2241 132.466 48.3308C132.466 48.394 132.923 48.4456 133.481 48.4456C134.376 48.4456 134.529 48.3529 134.769 47.6684C135.034 46.9127 135.088 46.8912 136.726 46.8912C138.386 46.8912 138.413 46.9026 138.582 47.6684C138.74 48.3842 138.841 48.4456 139.867 48.4456H140.981L139.238 43.7176C137.53 39.085 137.479 38.9881 136.705 38.9109C136.138 38.8544 135.863 38.9637 135.729 39.2995ZM143.474 39.3679C142.198 40.1422 141.835 41.0943 141.835 43.6655C141.835 46.5578 142.272 47.5461 143.859 48.2453C144.687 48.6096 145.277 48.7026 145.955 48.5759C146.475 48.479 147.113 48.286 147.374 48.1469C147.957 47.8365 148.859 46.406 148.86 45.7902C148.861 45.4474 148.646 45.3368 147.98 45.3368C147.335 45.3368 146.989 45.5049 146.686 45.9648C146.122 46.8215 145.334 47.0262 144.555 46.5181C143.957 46.128 143.917 45.9578 143.917 43.7948C143.917 41.2137 144.189 40.6736 145.491 40.6736C146.01 40.6736 146.38 40.8764 146.673 41.3212C146.989 41.801 147.328 41.9689 147.98 41.9689C148.613 41.9689 148.861 41.8526 148.861 41.5554C148.861 40.8889 148.067 39.7412 147.29 39.2839C146.307 38.706 144.499 38.7456 143.474 39.3679ZM150.683 43.6448V48.4456H153.953H157.222L157.141 47.6036L157.059 46.7617L154.912 46.6865L152.765 46.6111V45.5855V44.5596H154.587H156.409V43.6528V42.7461H154.587H152.765V41.7098V40.6736H154.994H157.222L157.141 39.8316L157.059 38.9896L153.871 38.9168L150.683 38.844V43.6448ZM160.111 39.3793C159.186 39.9404 158.751 40.7813 158.751 42.0057C158.751 43.0666 159.934 44.2137 161.249 44.4275C163.516 44.7961 164.245 45.563 163.16 46.4373C162.675 46.828 162.309 46.9023 161.503 46.7741C160.934 46.6834 160.309 46.4782 160.115 46.3176C159.842 46.0922 159.605 46.1821 159.071 46.7137C158.393 47.3889 158.39 47.4085 158.891 47.7899C160.173 48.765 162.593 48.8925 164.193 48.0689C165.801 47.2409 165.981 44.4604 164.499 43.3412C164.272 43.1697 163.559 42.9508 162.915 42.8547C161.214 42.6008 160.787 42.3163 160.882 41.4982C160.954 40.8821 161.087 40.794 162.059 40.7238C162.662 40.6803 163.378 40.7632 163.65 40.9083C164.04 41.1163 164.261 41.0479 164.701 40.5821C165.007 40.2578 165.257 39.9259 165.257 39.8443C165.257 39.763 164.859 39.5083 164.372 39.2782C163.136 38.6946 161.161 38.7414 160.111 39.3793ZM129.977 41.1731C130.883 42.1702 129.862 43.2642 128.025 43.2642C127.282 43.2642 127.261 43.229 127.261 41.9689V40.6736H128.392C129.178 40.6736 129.661 40.8259 129.977 41.1731ZM137.521 44.4948C137.692 45.0332 137.626 45.0777 136.659 45.0777H135.612L135.995 43.9767C136.672 42.0303 136.664 42.0381 137.011 43.0052C137.19 43.5039 137.419 44.1741 137.521 44.4948ZM12.7521 45.9845C12.7521 48.2728 12.7885 48.4456 13.2726 48.4456C13.6143 48.4456 13.7931 48.2728 13.7931 47.9427C13.7931 47.1694 14.204 47.0933 14.5301 47.806C14.7313 48.2453 15.0329 48.4456 15.4938 48.4456H16.1647L15.5084 47.3495L14.8518 46.2536L15.5422 45.536L16.2327 44.8187H15.6154C15.2757 44.8187 14.7266 45.072 14.3953 45.3819L13.7931 45.9453V44.7342C13.7931 43.6961 13.7189 43.5233 13.2726 43.5233C12.7885 43.5233 12.7521 43.6961 12.7521 45.9845ZM45.283 43.9119C45.283 44.1277 45.5144 44.3005 45.8035 44.3005C46.0926 44.3005 46.324 44.1277 46.324 43.9119C46.324 43.6961 46.0926 43.5233 45.8035 43.5233C45.5144 43.5233 45.283 43.6961 45.283 43.9119ZM51.0636 45.9197L51.1386 48.3161L51.8543 48.3979C52.3654 48.4565 52.5699 48.364 52.5699 48.0741C52.5699 47.851 52.4528 47.6684 52.3097 47.6684C52.158 47.6684 52.0494 46.8049 52.0494 45.5959C52.0494 43.6834 52.0086 43.5233 51.5191 43.5233C51.0186 43.5233 50.9931 43.657 51.0636 45.9197ZM53.3507 43.9119C53.3507 44.1277 53.582 44.3005 53.8712 44.3005C54.1603 44.3005 54.3917 44.1277 54.3917 43.9119C54.3917 43.6961 54.1603 43.5233 53.8712 43.5233C53.582 43.5233 53.3507 43.6961 53.3507 43.9119ZM70.0617 45.9197C70.1325 48.1813 70.1694 48.3207 70.7222 48.399C71.3767 48.4915 71.524 48.0655 70.9174 47.8337C70.6152 47.7184 70.527 47.2145 70.527 45.6039C70.527 44.3394 70.4211 43.5233 70.2569 43.5233C70.0846 43.5233 70.014 44.3891 70.0617 45.9197ZM96.812 43.9119C96.812 44.1277 97.0433 44.3005 97.3325 44.3005C97.6216 44.3005 97.853 44.1277 97.853 43.9119C97.853 43.6961 97.6216 43.5233 97.3325 43.5233C97.0433 43.5233 96.812 43.6961 96.812 43.9119ZM28.5332 43.9622C28.4419 44.0534 28.3669 44.3415 28.3669 44.6029C28.3669 44.864 28.2355 45.0777 28.0749 45.0777C27.8675 45.0777 27.8626 45.1736 28.0583 45.408C28.2098 45.5899 28.3703 46.3184 28.4154 47.0272C28.4856 48.137 28.5785 48.3275 29.0826 48.399C29.4048 48.4443 29.6682 48.357 29.6682 48.2047C29.6682 48.0521 29.5511 47.9275 29.4079 47.9275C29.0251 47.9275 29.0855 45.6679 29.473 45.4878C29.7332 45.3671 29.7332 45.3065 29.473 45.1858C29.2942 45.1026 29.1477 44.8179 29.1477 44.5534C29.1477 44.0306 28.8003 43.6964 28.5332 43.9622ZM94.4697 44.3005C94.4697 44.7176 94.2962 44.8187 93.5794 44.8187C92.8021 44.8187 92.6675 44.9171 92.5179 45.5959C92.4237 46.0233 92.248 46.3731 92.1275 46.3731C92.007 46.3731 91.8314 46.0233 91.7371 45.5959C91.6044 44.9943 91.4238 44.8187 90.9379 44.8187H90.3102L90.9486 46.5073C91.5498 48.0969 91.5885 48.9637 91.0587 48.9637C90.9309 48.9637 90.8263 49.1969 90.8263 49.4819C90.8263 49.7668 90.9174 50 91.0285 50C91.6661 50 92.3485 49.0394 93.023 47.1922C93.6924 45.3598 93.8269 45.1583 94.1111 45.5622C94.2894 45.8158 94.4723 46.5391 94.5176 47.1697C94.5918 48.2039 94.6699 48.3241 95.3155 48.3979C95.8267 48.4565 96.0312 48.364 96.0312 48.0741C96.0312 47.851 95.9141 47.6684 95.771 47.6684C95.6278 47.6684 95.5107 47.2021 95.5107 46.6321C95.5107 46.0622 95.6278 45.5959 95.771 45.5959C95.9141 45.5959 96.0312 45.421 96.0312 45.2073C96.0312 44.9935 95.9141 44.8187 95.771 44.8187C95.6278 44.8187 95.5107 44.5855 95.5107 44.3005C95.5107 43.9552 95.3371 43.7824 94.9902 43.7824C94.6433 43.7824 94.4697 43.9552 94.4697 44.3005ZM0 45.0275C0 45.1422 0.244892 45.9583 0.544437 46.8409C0.957189 48.0578 1.20885 48.4456 1.58543 48.4456C1.85843 48.4456 2.08198 48.3365 2.08198 48.2034C2.08198 48.0702 2.21262 47.6329 2.37241 47.2319L2.66285 46.5026L2.98113 47.4093C3.45921 48.771 4.14287 48.6171 4.70683 47.0207C5.31685 45.2948 5.31737 44.8187 4.71021 44.8187C4.35446 44.8187 4.14912 45.0912 3.97814 45.7902L3.74079 46.7617L3.41158 45.7902C2.99466 44.5593 2.20377 44.4541 1.95185 45.5959C1.85764 46.0233 1.68718 46.3731 1.57346 46.3731C1.45947 46.3731 1.29603 46.0233 1.21015 45.5959C1.09824 45.0394 0.904359 44.8187 0.527001 44.8187C0.237086 44.8187 0 44.9127 0 45.0275ZM5.95836 45.2399C5.46779 45.8282 5.51386 47.5687 6.03331 48.086C6.59362 48.6438 7.69603 48.6262 8.3365 48.0492C8.95641 47.4909 9.0082 46.1974 8.4432 45.3946C8.16291 44.9961 7.77202 44.8187 7.17398 44.8187C6.6933 44.8187 6.15381 45.0057 5.95836 45.2399ZM9.62915 46.6321C9.62915 48.2567 9.68198 48.4456 10.1361 48.4456C10.564 48.4456 10.6553 48.2339 10.7217 47.0855C10.7781 46.106 10.8989 45.7461 11.1529 45.7992C11.544 45.8811 12.2316 45.4008 12.2316 45.0461C12.2316 44.921 11.6461 44.8187 10.9304 44.8187H9.62915V46.6321ZM21.3241 45.2977C20.8729 45.6614 20.7217 46.035 20.7417 46.7363C20.7711 47.7702 21.1063 48.3244 21.8139 48.5085C22.3844 48.657 23.4222 48.2915 23.4222 47.9422C23.4222 47.7886 23.0904 47.7474 22.6152 47.842C22.0643 47.9518 21.7351 47.8878 21.5781 47.6412C21.4517 47.4425 21.3465 47.1922 21.3442 47.0855C21.3421 46.9788 21.8673 46.8912 22.5114 46.8912C23.4678 46.8912 23.6825 46.8052 23.6825 46.4225C23.6825 45.8005 23.1604 45.1679 22.4825 44.9684C22.134 44.8658 21.7109 44.986 21.3241 45.2977ZM24.8383 45.199C24.3146 45.5933 24.3513 45.6163 25.6114 45.6845C26.6558 45.7409 26.8299 46.3731 25.8009 46.3731C24.8422 46.3731 24.0976 47.2471 24.4684 47.937C24.7878 48.5311 25.1802 48.65 26.35 48.5078L27.326 48.3889V47.122C27.326 46.2003 27.1841 45.7137 26.8055 45.3368C26.1884 44.7225 25.5321 44.6764 24.8383 45.199ZM34.5585 45.4819C34.2761 46.0984 34.3079 46.2285 34.8463 46.6624C35.1789 46.9308 35.6726 47.1503 35.943 47.1503C36.2134 47.1503 36.4346 47.2759 36.4346 47.4295C36.4346 47.5948 36.0359 47.6741 35.4587 47.6238C34.75 47.5622 34.4828 47.6394 34.4828 47.906C34.4828 48.1078 34.8008 48.3785 35.1893 48.5073C36.096 48.8083 37.3155 48.2609 37.4243 47.5039C37.5258 46.8 36.8354 46.114 36.0258 46.114C35.6781 46.114 35.3936 45.9899 35.3936 45.8383C35.3936 45.6834 35.764 45.5984 36.2394 45.644C36.8541 45.7031 37.0852 45.6192 37.0852 45.3368C37.0852 45.0648 36.7534 44.9243 35.9805 44.8686C34.9991 44.7979 34.8401 44.8663 34.5585 45.4819ZM38.4049 45.2256C37.9024 45.7262 37.8696 47.3971 38.3495 48.0508C38.5699 48.3505 39.0254 48.5319 39.5576 48.5319C40.0898 48.5319 40.5452 48.3505 40.7656 48.0508C41.2455 47.3971 41.2127 45.7262 40.7102 45.2256C40.4851 45.0018 39.9664 44.8187 39.5576 44.8187C39.1487 44.8187 38.6301 45.0018 38.4049 45.2256ZM42.2129 45.144C41.7478 45.7016 41.5992 46.7518 41.8808 47.4889C42.2173 48.3702 43.2114 48.7865 44.1403 48.435C44.7076 48.2202 44.7656 48.114 44.4939 47.7878C44.3126 47.5705 43.9612 47.4632 43.7007 47.5453C43.0407 47.7539 42.5601 46.8223 42.9517 46.0938C43.1316 45.7593 43.3936 45.614 43.6442 45.7098C43.8662 45.7946 44.2142 45.7264 44.4174 45.5585C44.7162 45.3117 44.7224 45.2122 44.4494 45.0399C43.9321 44.7132 42.5171 44.779 42.2129 45.144ZM45.283 46.6321C45.283 48.2728 45.3325 48.4456 45.8035 48.4456C46.2746 48.4456 46.324 48.2728 46.324 46.6321C46.324 44.9915 46.2746 44.8187 45.8035 44.8187C45.3325 44.8187 45.283 44.9915 45.283 46.6321ZM47.2804 44.9891C47.1862 45.0829 47.2388 45.315 47.397 45.5047C47.5695 45.7119 47.9331 45.7878 48.3055 45.6948C48.6587 45.6065 48.9265 45.6547 48.9265 45.8062C48.9265 45.9528 48.5741 46.1497 48.1437 46.244C47.2742 46.4339 46.7584 47.1435 47.0118 47.8008C47.2375 48.3865 47.9482 48.6075 49.2182 48.487L50.286 48.3858L50.1736 46.8407C50.1044 45.8852 49.9193 45.2062 49.689 45.0611C49.2578 44.7894 47.5329 44.7378 47.2804 44.9891ZM53.3507 46.6321C53.3507 48.2728 53.4001 48.4456 53.8712 48.4456C54.3422 48.4456 54.3917 48.2728 54.3917 46.6321C54.3917 44.9915 54.3422 44.8187 53.8712 44.8187C53.4001 44.8187 53.3507 44.9915 53.3507 46.6321ZM54.9595 45.2606C55.0066 45.5039 55.3129 45.7661 55.6403 45.8435L56.2355 45.9845L55.5737 46.8767C54.5777 48.2199 54.6886 48.4456 56.3435 48.4456C57.4423 48.4456 57.7749 48.3554 57.7749 48.057C57.7749 47.8153 57.5292 47.6684 57.1243 47.6684C56.7664 47.6684 56.4736 47.592 56.4736 47.4984C56.4736 47.4052 56.7664 46.9466 57.1243 46.4795C57.4821 46.0124 57.7749 45.4477 57.7749 45.2246C57.7749 44.9047 57.4678 44.8187 56.3245 44.8187C55.0975 44.8187 54.8872 44.8868 54.9595 45.2606ZM58.7006 45.3946C57.5633 47.0106 59.0056 49.1124 60.7888 48.4376C61.6895 48.0966 61.4504 47.5179 60.4492 47.6158C59.9256 47.6671 59.6099 47.5585 59.5071 47.292C59.3819 46.9671 59.5732 46.8912 60.5155 46.8912C61.4566 46.8912 61.6786 46.8034 61.6786 46.4308C61.6786 46.1775 61.4962 45.7111 61.2734 45.3946C60.9905 44.9922 60.6027 44.8187 59.987 44.8187C59.3712 44.8187 58.9835 44.9922 58.7006 45.3946ZM66.8185 45.0041L66.1028 45.1122V47.556C66.1028 49.5557 66.1738 50 66.4932 50C66.7563 50 66.8835 49.7378 66.8835 49.1951C66.8835 48.5554 66.9712 48.4236 67.3106 48.5534C67.5453 48.643 68.0138 48.5363 68.3516 48.3161C68.8435 47.9951 68.9655 47.6878 68.9655 46.7705C68.9655 45.8808 68.8364 45.5352 68.387 45.222C68.069 45.0003 67.747 44.836 67.6713 44.8575C67.5958 44.8788 67.212 44.9448 66.8185 45.0041ZM72.5439 44.9971C72.2936 45.0624 72.0885 45.2746 72.0885 45.4689C72.0885 45.7282 72.3313 45.7832 72.9993 45.6751C73.7283 45.5575 73.9102 45.6124 73.9102 45.9505C73.9102 46.2049 73.696 46.3731 73.3725 46.3731C72.4723 46.3731 71.8282 46.8658 71.8282 47.5544C71.8282 48.3267 72.6066 48.6964 73.8451 48.5124C74.6777 48.3889 74.6909 48.3653 74.6909 47.006C74.6909 45.8728 74.5871 45.5528 74.1124 45.222C73.5243 44.8119 73.3517 44.787 72.5439 44.9971ZM83.149 45.0777C82.8713 45.5249 83.2856 45.8632 83.9172 45.7054C84.2506 45.622 84.6017 45.6798 84.6975 45.8339C84.7979 45.9959 84.6696 46.114 84.3935 46.114C83.6044 46.114 82.7206 46.8829 82.8088 47.4927C82.9137 48.2168 83.7978 48.6311 84.9525 48.4969L85.8816 48.3889V46.9148C85.8816 46.1039 85.741 45.3005 85.5693 45.1295C85.1917 44.7536 83.3744 44.7148 83.149 45.0777ZM86.6623 46.6321C86.6623 48.3938 86.6808 48.4456 87.3129 48.4456C87.9172 48.4456 87.9636 48.3565 87.9636 47.1935C87.9636 46.5047 88.0406 45.8645 88.1348 45.7707C88.52 45.3873 89.0045 46.2453 89.0045 47.3114C89.0045 48.2728 89.0839 48.4456 89.525 48.4456C89.9771 48.4456 90.0455 48.2728 90.0455 47.1332C90.0455 46.4114 89.9243 45.5953 89.7762 45.3197C89.5602 44.9181 89.2242 44.8187 88.0846 44.8187H86.6623V46.6321ZM96.812 46.6321C96.812 48.2728 96.8614 48.4456 97.3325 48.4456C97.8035 48.4456 97.853 48.2728 97.853 46.6321C97.853 44.9915 97.8035 44.8187 97.3325 44.8187C96.8614 44.8187 96.812 44.9915 96.812 46.6321ZM98.6337 46.6637C98.6337 48.2728 98.6842 48.4456 99.1542 48.4456C99.5953 48.4456 99.6747 48.2728 99.6747 47.3114C99.6747 46.2453 100.159 45.3873 100.544 45.7707C100.639 45.8645 100.716 46.5047 100.716 47.1935C100.716 48.2728 100.787 48.4456 101.236 48.4456C101.677 48.4456 101.757 48.2728 101.757 47.3114C101.757 46.0697 102.234 45.3979 102.752 45.913C102.92 46.0806 103.058 46.7189 103.058 47.3316C103.058 48.2728 103.139 48.4456 103.578 48.4456C104.026 48.4456 104.099 48.2728 104.099 47.208C104.099 46.5272 103.924 45.722 103.711 45.4189C103.363 44.9249 103.079 44.8684 100.978 44.8749L98.6337 44.8821V46.6637ZM105.025 45.3946C103.887 47.0106 105.33 49.1124 107.113 48.4376C108.022 48.0935 107.769 47.5389 106.703 47.5389C106.228 47.5389 105.789 47.3933 105.728 47.215C105.65 46.987 105.97 46.8912 106.81 46.8912C107.779 46.8912 108.003 46.8049 108.003 46.4308C108.003 46.1775 107.82 45.7111 107.597 45.3946C107.314 44.9922 106.927 44.8187 106.311 44.8187C105.695 44.8187 105.307 44.9922 105.025 45.3946ZM75.2114 45.158C75.2114 45.2023 75.4863 45.9365 75.8222 46.7899C76.2423 47.8572 76.3667 48.5192 76.2209 48.9114C76.1043 49.2251 75.8881 49.4819 75.7403 49.4819C75.5927 49.4819 75.4717 49.5984 75.4717 49.7409C75.4717 50.1111 76.1377 50.0611 76.4671 49.6661C76.6202 49.4824 77.1001 48.3749 77.5334 47.2049C78.1468 45.549 78.2386 45.0777 77.9479 45.0777C77.7379 45.0777 77.4381 45.5308 77.2627 46.114C77.0912 46.6839 76.8708 47.1503 76.7729 47.1503C76.6751 47.1503 76.4546 46.6839 76.2831 46.114C76.1044 45.5199 75.8092 45.0777 75.5914 45.0777C75.3824 45.0777 75.2114 45.114 75.2114 45.158ZM7.75563 46.8689C7.71008 47.257 7.51308 47.5389 7.28692 47.5389C6.86818 47.5389 6.62667 46.5909 6.87911 45.9365C7.00559 45.6083 7.10371 45.5961 7.43318 45.8684C7.65517 46.0516 7.79883 46.4979 7.75563 46.8689ZM22.838 46.0492C22.9083 46.2614 22.6683 46.3731 22.1426 46.3731C21.3694 46.3731 21.1381 46.1425 21.5248 45.7575C21.8043 45.4793 22.7165 45.6819 22.838 46.0492ZM39.9479 46.6536C39.9479 47.2679 39.8285 47.5389 39.5576 47.5389C39.1409 47.5389 38.8971 46.592 39.1466 45.944C39.4108 45.2593 39.9479 45.7352 39.9479 46.6536ZM60.5075 45.8549C60.596 45.9974 60.4271 46.114 60.1325 46.114C59.8379 46.114 59.5966 45.9974 59.5966 45.8549C59.5966 45.7124 59.7653 45.5959 59.9716 45.5959C60.178 45.5959 60.419 45.7124 60.5075 45.8549ZM68.3334 46.2249C68.4206 46.5707 68.4127 47.1021 68.3159 47.4057C68.1949 47.7857 67.9646 47.9329 67.5768 47.8777C67.1763 47.821 66.9892 47.5858 66.9291 47.0637C66.8125 46.0484 67.035 45.5959 67.6513 45.5959C67.9885 45.5959 68.2314 45.8197 68.3334 46.2249ZM106.831 45.8549C106.923 46.0023 106.699 46.114 106.311 46.114C105.923 46.114 105.699 46.0023 105.79 45.8549C105.879 45.7124 106.113 45.5959 106.311 45.5959C106.509 45.5959 106.743 45.7124 106.831 45.8549ZM26.4971 47.3446C26.3896 47.9085 24.9837 48.1451 24.9837 47.5992C24.9837 47.0795 25.2427 46.8912 25.9571 46.8912C26.413 46.8912 26.5598 47.0145 26.4971 47.3446ZM48.9265 47.2798C48.9265 47.4935 48.7578 47.6684 48.5515 47.6684C48.0484 47.6684 47.7991 47.228 48.2092 47.0632C48.7774 46.8352 48.9265 46.8803 48.9265 47.2798ZM73.9102 47.4093C73.9102 47.786 73.7366 47.9275 73.2749 47.9275C72.5179 47.9275 72.1356 47.4438 72.6407 47.1254C73.2828 46.7205 73.9102 46.8609 73.9102 47.4093ZM84.8406 47.2798C84.8406 47.4956 84.6092 47.6684 84.3201 47.6684C83.7442 47.6684 83.6148 47.2676 84.1249 47.0627C84.6912 46.8352 84.8406 46.8806 84.8406 47.2798Z" fill="#10172A"/>
</svg>
