<svg width="179" height="132" viewBox="0 0 179 132" fill="none" xmlns="http://www.w3.org/2000/svg">
<rect width="179" height="132" rx="20" fill="#F8F8F8"/>
<path d="M15.432 38.216C14.872 38.216 14.44 38.064 14.136 37.76C13.848 37.44 13.704 36.992 13.704 36.416V22.736C13.704 22.128 13.848 21.664 14.136 21.344C14.44 21.024 14.84 20.864 15.336 20.864C15.768 20.864 16.096 20.952 16.32 21.128C16.56 21.288 16.832 21.56 17.136 21.944L25.56 32.672H24.912V22.64C24.912 22.08 25.056 21.648 25.344 21.344C25.648 21.024 26.08 20.864 26.64 20.864C27.2 20.864 27.624 21.024 27.912 21.344C28.216 21.648 28.368 22.08 28.368 22.64V36.488C28.368 37.016 28.232 37.44 27.96 37.76C27.688 38.064 27.32 38.216 26.856 38.216C26.408 38.216 26.048 38.128 25.776 37.952C25.52 37.776 25.24 37.496 24.936 37.112L16.536 26.384H17.16V36.416C17.16 36.992 17.016 37.44 16.728 37.76C16.44 38.064 16.008 38.216 15.432 38.216ZM35.4463 38.264C34.5823 38.264 33.8063 38.096 33.1183 37.76C32.4303 37.424 31.8943 36.968 31.5103 36.392C31.1263 35.816 30.9343 35.168 30.9343 34.448C30.9343 33.584 31.1583 32.904 31.6063 32.408C32.0543 31.896 32.7823 31.536 33.7903 31.328C34.7983 31.104 36.1343 30.992 37.7983 30.992H39.0703V32.864H37.8223C37.0063 32.864 36.3423 32.912 35.8303 33.008C35.3343 33.088 34.9743 33.232 34.7503 33.44C34.5423 33.648 34.4383 33.936 34.4383 34.304C34.4383 34.752 34.5903 35.12 34.8943 35.408C35.2143 35.696 35.6703 35.84 36.2623 35.84C36.7263 35.84 37.1343 35.736 37.4863 35.528C37.8543 35.304 38.1423 35.008 38.3503 34.64C38.5583 34.256 38.6623 33.824 38.6623 33.344V30.584C38.6623 29.88 38.5023 29.384 38.1823 29.096C37.8623 28.792 37.3183 28.64 36.5503 28.64C36.1183 28.64 35.6463 28.696 35.1343 28.808C34.6383 28.904 34.0863 29.072 33.4783 29.312C33.1263 29.472 32.8143 29.512 32.5423 29.432C32.2703 29.336 32.0623 29.176 31.9183 28.952C31.7743 28.712 31.7023 28.456 31.7023 28.184C31.7023 27.896 31.7823 27.624 31.9423 27.368C32.1023 27.096 32.3663 26.896 32.7343 26.768C33.4863 26.464 34.1903 26.256 34.8463 26.144C35.5183 26.032 36.1343 25.976 36.6943 25.976C37.9263 25.976 38.9343 26.16 39.7183 26.528C40.5183 26.88 41.1183 27.432 41.5183 28.184C41.9183 28.92 42.1183 29.872 42.1183 31.04V36.368C42.1183 36.96 41.9743 37.416 41.6863 37.736C41.3983 38.056 40.9823 38.216 40.4383 38.216C39.8943 38.216 39.4703 38.056 39.1663 37.736C38.8783 37.416 38.7343 36.96 38.7343 36.368V35.48L38.9023 35.624C38.8063 36.168 38.5983 36.64 38.2783 37.04C37.9743 37.424 37.5823 37.728 37.1023 37.952C36.6223 38.16 36.0703 38.264 35.4463 38.264ZM53.3488 42.536C52.7568 42.536 52.3008 42.376 51.9808 42.056C51.6768 41.752 51.5248 41.296 51.5248 40.688V27.848C51.5248 27.256 51.6768 26.808 51.9808 26.504C52.3008 26.184 52.7408 26.024 53.3008 26.024C53.8928 26.024 54.3408 26.184 54.6448 26.504C54.9488 26.808 55.1008 27.256 55.1008 27.848V29.48L54.8368 28.544C55.0768 27.776 55.5568 27.16 56.2768 26.696C57.0128 26.216 57.8528 25.976 58.7968 25.976C59.8208 25.976 60.7168 26.224 61.4848 26.72C62.2688 27.216 62.8768 27.92 63.3088 28.832C63.7408 29.744 63.9568 30.832 63.9568 32.096C63.9568 33.36 63.7408 34.456 63.3088 35.384C62.8768 36.312 62.2768 37.024 61.5088 37.52C60.7408 38.016 59.8368 38.264 58.7968 38.264C57.8688 38.264 57.0448 38.04 56.3248 37.592C55.6048 37.128 55.1168 36.528 54.8608 35.792H55.1488V40.688C55.1488 41.296 54.9888 41.752 54.6688 42.056C54.3648 42.376 53.9248 42.536 53.3488 42.536ZM57.7168 35.552C58.2288 35.552 58.6768 35.424 59.0608 35.168C59.4608 34.912 59.7648 34.536 59.9728 34.04C60.1968 33.528 60.3088 32.88 60.3088 32.096C60.3088 30.928 60.0688 30.072 59.5888 29.528C59.1088 28.968 58.4848 28.688 57.7168 28.688C57.2048 28.688 56.7488 28.808 56.3488 29.048C55.9648 29.288 55.6608 29.664 55.4368 30.176C55.2128 30.672 55.1008 31.312 55.1008 32.096C55.1008 33.264 55.3408 34.136 55.8208 34.712C56.3008 35.272 56.9328 35.552 57.7168 35.552ZM71.8372 38.264C70.5733 38.264 69.4693 38.016 68.5253 37.52C67.5973 37.024 66.8773 36.312 66.3652 35.384C65.8533 34.456 65.5973 33.36 65.5973 32.096C65.5973 31.152 65.7413 30.304 66.0293 29.552C66.3173 28.8 66.7333 28.16 67.2773 27.632C67.8373 27.088 68.5013 26.68 69.2693 26.408C70.0373 26.12 70.8933 25.976 71.8372 25.976C73.1013 25.976 74.1973 26.224 75.1253 26.72C76.0693 27.216 76.7973 27.92 77.3093 28.832C77.8373 29.744 78.1013 30.832 78.1013 32.096C78.1013 33.056 77.9493 33.912 77.6453 34.664C77.3573 35.416 76.9413 36.064 76.3973 36.608C75.8533 37.152 75.1893 37.568 74.4053 37.856C73.6373 38.128 72.7813 38.264 71.8372 38.264ZM71.8372 35.552C72.3653 35.552 72.8213 35.424 73.2053 35.168C73.5893 34.912 73.8933 34.536 74.1173 34.04C74.3413 33.528 74.4533 32.88 74.4533 32.096C74.4533 30.928 74.2133 30.072 73.7333 29.528C73.2533 28.968 72.6213 28.688 71.8372 28.688C71.3253 28.688 70.8693 28.808 70.4693 29.048C70.0853 29.288 69.7813 29.664 69.5573 30.176C69.3493 30.672 69.2453 31.312 69.2453 32.096C69.2453 33.264 69.4853 34.136 69.9653 34.712C70.4453 35.272 71.0693 35.552 71.8372 35.552ZM84.8181 38.264C84.1141 38.264 83.3861 38.2 82.6341 38.072C81.8981 37.944 81.2261 37.728 80.6181 37.424C80.2981 37.264 80.0661 37.064 79.9221 36.824C79.7941 36.568 79.7381 36.312 79.7541 36.056C79.7701 35.8 79.8501 35.568 79.9941 35.36C80.1541 35.152 80.3541 35.016 80.5941 34.952C80.8501 34.872 81.1301 34.896 81.4341 35.024C82.0901 35.296 82.6901 35.488 83.2341 35.6C83.7781 35.712 84.3141 35.768 84.8421 35.768C85.5301 35.768 86.0261 35.664 86.3301 35.456C86.6501 35.232 86.8101 34.944 86.8101 34.592C86.8101 34.272 86.7061 34.032 86.4981 33.872C86.2901 33.712 85.9861 33.6 85.5861 33.536L83.0661 33.08C82.0741 32.904 81.3061 32.544 80.7621 32C80.2341 31.44 79.9701 30.728 79.9701 29.864C79.9701 29.064 80.1941 28.376 80.6421 27.8C81.0901 27.208 81.7061 26.76 82.4901 26.456C83.2901 26.136 84.1941 25.976 85.2021 25.976C85.9221 25.976 86.5861 26.04 87.1941 26.168C87.8021 26.296 88.3861 26.504 88.9461 26.792C89.2341 26.936 89.4341 27.128 89.5461 27.368C89.6741 27.608 89.7141 27.856 89.6661 28.112C89.6341 28.368 89.5381 28.6 89.3781 28.808C89.2181 29.016 89.0101 29.152 88.7541 29.216C88.5141 29.28 88.2341 29.248 87.9141 29.12C87.4021 28.88 86.9301 28.712 86.4981 28.616C86.0661 28.504 85.6501 28.448 85.2501 28.448C84.5301 28.448 84.0101 28.568 83.6901 28.808C83.3701 29.032 83.2101 29.32 83.2101 29.672C83.2101 29.944 83.2981 30.176 83.4741 30.368C83.6661 30.544 83.9541 30.664 84.3381 30.728L86.8581 31.184C87.8981 31.36 88.6901 31.712 89.2341 32.24C89.7781 32.752 90.0501 33.456 90.0501 34.352C90.0501 35.568 89.5701 36.528 88.6101 37.232C87.6661 37.92 86.4021 38.264 84.8181 38.264ZM96.3666 38.264C94.9426 38.264 93.8786 37.872 93.1746 37.088C92.4706 36.288 92.1186 35.104 92.1186 33.536V22.712C92.1186 22.104 92.2706 21.648 92.5746 21.344C92.8946 21.024 93.3506 20.864 93.9426 20.864C94.5186 20.864 94.9586 21.024 95.2626 21.344C95.5826 21.648 95.7426 22.104 95.7426 22.712V33.392C95.7426 34.048 95.8786 34.536 96.1506 34.856C96.4386 35.16 96.8146 35.312 97.2786 35.312C97.4066 35.312 97.5266 35.304 97.6386 35.288C97.7506 35.272 97.8706 35.264 97.9986 35.264C98.2546 35.232 98.4306 35.312 98.5266 35.504C98.6386 35.68 98.6946 36.04 98.6946 36.584C98.6946 37.064 98.5986 37.432 98.4066 37.688C98.2146 37.928 97.9186 38.088 97.5186 38.168C97.3586 38.184 97.1746 38.2 96.9666 38.216C96.7586 38.248 96.5586 38.264 96.3666 38.264ZM104.455 38.264C103.463 38.264 102.639 38.08 101.983 37.712C101.327 37.344 100.839 36.792 100.519 36.056C100.215 35.304 100.063 34.376 100.063 33.272V27.848C100.063 27.24 100.215 26.784 100.519 26.48C100.839 26.176 101.287 26.024 101.863 26.024C102.439 26.024 102.887 26.176 103.207 26.48C103.527 26.784 103.687 27.24 103.687 27.848V33.368C103.687 34.072 103.831 34.6 104.119 34.952C104.407 35.288 104.863 35.456 105.487 35.456C106.175 35.456 106.735 35.216 107.167 34.736C107.615 34.24 107.839 33.592 107.839 32.792V27.848C107.839 27.24 107.991 26.784 108.295 26.48C108.615 26.176 109.063 26.024 109.639 26.024C110.231 26.024 110.679 26.176 110.983 26.48C111.303 26.784 111.463 27.24 111.463 27.848V36.368C111.463 37.6 110.879 38.216 109.711 38.216C109.135 38.216 108.695 38.056 108.391 37.736C108.087 37.416 107.935 36.96 107.935 36.368V34.76L108.295 35.696C107.943 36.512 107.439 37.144 106.783 37.592C106.127 38.04 105.351 38.264 104.455 38.264Z" fill="#545862"/>
<path d="M50 69H47.8C47.3358 66.7428 46.1076 64.7147 44.3225 63.2574C42.5374 61.8002 40.3044 61.0029 38 61H34C31.6956 61.0029 29.4626 61.8002 27.6775 63.2574C25.8924 64.7147 24.6642 66.7428 24.2 69H22C19.3488 69.0032 16.8071 70.0578 14.9324 71.9324C13.0578 73.8071 12.0032 76.3488 12 79V99C12.0032 101.651 13.0578 104.193 14.9324 106.068C16.8071 107.942 19.3488 108.997 22 109H50C52.6512 108.997 55.1929 107.942 57.0676 106.068C58.9422 104.193 59.9968 101.651 60 99V79C59.9968 76.3488 58.9422 73.8071 57.0676 71.9324C55.1929 70.0578 52.6512 69.0032 50 69ZM34 65H38C39.2365 65.0051 40.4413 65.3922 41.4494 66.1082C42.4575 66.8242 43.2198 67.8342 43.632 69H28.368C28.7802 67.8342 29.5425 66.8242 30.5506 66.1082C31.5587 65.3922 32.7635 65.0051 34 65ZM22 73H50C51.5913 73 53.1174 73.6321 54.2426 74.7574C55.3679 75.8826 56 77.4087 56 79V85H16V79C16 77.4087 16.6321 75.8826 17.7574 74.7574C18.8826 73.6321 20.4087 73 22 73ZM50 105H22C20.4087 105 18.8826 104.368 17.7574 103.243C16.6321 102.117 16 100.591 16 99V89H34V91C34 91.5304 34.2107 92.0391 34.5858 92.4142C34.9609 92.7893 35.4696 93 36 93C36.5304 93 37.0391 92.7893 37.4142 92.4142C37.7893 92.0391 38 91.5304 38 91V89H56V99C56 100.591 55.3679 102.117 54.2426 103.243C53.1174 104.368 51.5913 105 50 105Z" fill="#936CDD"/>
<path d="M75.576 79.216C74.968 79.216 74.504 79.048 74.184 78.712C73.864 78.376 73.704 77.904 73.704 77.296V63.784C73.704 63.176 73.864 62.704 74.184 62.368C74.504 62.032 74.968 61.864 75.576 61.864C76.168 61.864 76.624 62.032 76.944 62.368C77.264 62.704 77.424 63.176 77.424 63.784V68.872H85.296V63.784C85.296 63.176 85.456 62.704 85.776 62.368C86.096 62.032 86.552 61.864 87.144 61.864C87.752 61.864 88.216 62.032 88.536 62.368C88.856 62.704 89.016 63.176 89.016 63.784V77.296C89.016 77.904 88.856 78.376 88.536 78.712C88.216 79.048 87.752 79.216 87.144 79.216C86.552 79.216 86.096 79.048 85.776 78.712C85.456 78.376 85.296 77.904 85.296 77.296V71.968H77.424V77.296C77.424 77.904 77.264 78.376 76.944 78.712C76.64 79.048 76.184 79.216 75.576 79.216ZM99.6786 79.264C98.4786 79.264 97.4146 79.112 96.4866 78.808C95.5746 78.488 94.8066 78.024 94.1826 77.416C93.5586 76.808 93.0866 76.048 92.7666 75.136C92.4626 74.208 92.3106 73.136 92.3106 71.92V63.76C92.3106 63.136 92.4706 62.664 92.7906 62.344C93.1106 62.024 93.5746 61.864 94.1826 61.864C94.7746 61.864 95.2306 62.024 95.5506 62.344C95.8706 62.664 96.0306 63.136 96.0306 63.76V71.944C96.0306 73.32 96.3426 74.36 96.9666 75.064C97.5906 75.752 98.4946 76.096 99.6786 76.096C100.863 76.096 101.759 75.752 102.367 75.064C102.991 74.36 103.303 73.32 103.303 71.944V63.76C103.303 63.136 103.463 62.664 103.783 62.344C104.103 62.024 104.559 61.864 105.151 61.864C105.743 61.864 106.191 62.024 106.495 62.344C106.815 62.664 106.975 63.136 106.975 63.76V71.92C106.975 73.536 106.695 74.896 106.135 76C105.591 77.088 104.775 77.904 103.687 78.448C102.615 78.992 101.279 79.264 99.6786 79.264ZM112.139 79.216C111.531 79.216 111.067 79.048 110.747 78.712C110.427 78.376 110.267 77.904 110.267 77.296V63.784C110.267 63.176 110.427 62.704 110.747 62.368C111.067 62.032 111.531 61.864 112.139 61.864C112.731 61.864 113.187 62.032 113.507 62.368C113.827 62.704 113.987 63.176 113.987 63.784V77.296C113.987 77.904 113.827 78.376 113.507 78.712C113.203 79.048 112.747 79.216 112.139 79.216ZM118.832 79.12C118.192 79.12 117.68 78.928 117.296 78.544C116.928 78.16 116.744 77.664 116.744 77.056C116.744 76.464 116.928 75.984 117.296 75.616C117.68 75.232 118.192 75.04 118.832 75.04C119.472 75.04 119.968 75.232 120.32 75.616C120.688 75.984 120.872 76.464 120.872 77.056C120.872 77.664 120.688 78.16 120.32 78.544C119.968 78.928 119.472 79.12 118.832 79.12ZM118.832 71.176C118.192 71.176 117.68 70.984 117.296 70.6C116.928 70.216 116.744 69.728 116.744 69.136C116.744 68.528 116.928 68.04 117.296 67.672C117.68 67.288 118.192 67.096 118.832 67.096C119.472 67.096 119.968 67.288 120.32 67.672C120.688 68.04 120.872 68.528 120.872 69.136C120.872 69.728 120.688 70.216 120.32 70.6C119.968 70.984 119.472 71.176 118.832 71.176ZM132.393 79C131.881 79 131.489 78.864 131.217 78.592C130.945 78.32 130.809 77.944 130.809 77.464C130.809 76.968 130.945 76.592 131.217 76.336C131.489 76.08 131.881 75.952 132.393 75.952H134.817V65.128H136.569L133.065 67.264C132.697 67.488 132.353 67.576 132.033 67.528C131.729 67.48 131.465 67.344 131.241 67.12C131.017 66.896 130.865 66.632 130.785 66.328C130.721 66.008 130.753 65.696 130.881 65.392C131.009 65.072 131.249 64.8 131.601 64.576L134.937 62.56C135.273 62.352 135.609 62.184 135.945 62.056C136.297 61.928 136.641 61.864 136.977 61.864C137.457 61.864 137.833 61.992 138.105 62.248C138.393 62.488 138.537 62.864 138.537 63.376V75.952H140.721C141.217 75.952 141.601 76.08 141.873 76.336C142.145 76.592 142.281 76.968 142.281 77.464C142.281 77.96 142.145 78.344 141.873 78.616C141.601 78.872 141.217 79 140.721 79H132.393ZM150.216 79.264C148.168 79.264 146.6 78.504 145.512 76.984C144.44 75.448 143.904 73.28 143.904 70.48C143.904 68.608 144.144 67.032 144.624 65.752C145.12 64.456 145.832 63.48 146.76 62.824C147.704 62.152 148.856 61.816 150.216 61.816C152.28 61.816 153.848 62.56 154.92 64.048C155.992 65.52 156.528 67.664 156.528 70.48C156.528 72.352 156.28 73.944 155.784 75.256C155.304 76.552 154.6 77.544 153.672 78.232C152.744 78.92 151.592 79.264 150.216 79.264ZM150.216 76.24C151.144 76.24 151.832 75.784 152.28 74.872C152.728 73.944 152.952 72.48 152.952 70.48C152.952 68.48 152.728 67.04 152.28 66.16C151.832 65.28 151.144 64.84 150.216 64.84C149.288 64.84 148.6 65.28 148.152 66.16C147.704 67.04 147.48 68.48 147.48 70.48C147.48 72.48 147.704 73.944 148.152 74.872C148.6 75.784 149.288 76.24 150.216 76.24ZM163.214 79.264C162.526 79.264 161.83 79.168 161.126 78.976C160.422 78.784 159.766 78.496 159.158 78.112C158.838 77.952 158.614 77.728 158.486 77.44C158.374 77.136 158.342 76.832 158.39 76.528C158.438 76.224 158.558 75.96 158.75 75.736C158.942 75.496 159.182 75.344 159.47 75.28C159.774 75.2 160.118 75.248 160.502 75.424C160.998 75.696 161.47 75.888 161.918 76C162.382 76.112 162.83 76.168 163.262 76.168C164.11 76.168 164.83 75.976 165.422 75.592C166.014 75.208 166.454 74.632 166.742 73.864C167.046 73.08 167.198 72.128 167.198 71.008V69.448H167.534C167.406 70.2 167.142 70.848 166.742 71.392C166.342 71.936 165.838 72.352 165.23 72.64C164.622 72.928 163.95 73.072 163.214 73.072C162.27 73.072 161.422 72.84 160.67 72.376C159.918 71.896 159.326 71.24 158.894 70.408C158.462 69.576 158.246 68.64 158.246 67.6C158.246 66.48 158.486 65.488 158.966 64.624C159.446 63.744 160.118 63.056 160.982 62.56C161.846 62.064 162.838 61.816 163.958 61.816C165.414 61.816 166.638 62.152 167.63 62.824C168.638 63.48 169.406 64.448 169.934 65.728C170.462 66.992 170.726 68.52 170.726 70.312C170.726 71.736 170.55 73 170.198 74.104C169.862 75.208 169.374 76.144 168.734 76.912C168.094 77.68 167.302 78.264 166.358 78.664C165.43 79.064 164.382 79.264 163.214 79.264ZM164.174 70.168C164.67 70.168 165.102 70.056 165.47 69.832C165.854 69.592 166.15 69.264 166.358 68.848C166.566 68.432 166.67 67.96 166.67 67.432C166.67 66.888 166.566 66.408 166.358 65.992C166.15 65.576 165.854 65.256 165.47 65.032C165.102 64.808 164.67 64.696 164.174 64.696C163.678 64.696 163.246 64.808 162.878 65.032C162.51 65.256 162.214 65.576 161.99 65.992C161.782 66.408 161.678 66.888 161.678 67.432C161.678 67.96 161.782 68.432 161.99 68.848C162.214 69.264 162.51 69.592 162.878 69.832C163.246 70.056 163.678 70.168 164.174 70.168Z" fill="#2ABA5E"/>
<path d="M75.6 109C74.992 109 74.52 108.832 74.184 108.496C73.864 108.16 73.704 107.696 73.704 107.104V93.928C73.704 93.304 73.864 92.832 74.184 92.512C74.504 92.192 74.968 92.032 75.576 92.032C76.168 92.032 76.624 92.192 76.944 92.512C77.264 92.832 77.424 93.304 77.424 93.928V105.856H83.856C84.368 105.856 84.76 105.992 85.032 106.264C85.32 106.536 85.464 106.92 85.464 107.416C85.464 107.928 85.32 108.32 85.032 108.592C84.76 108.864 84.368 109 83.856 109H75.6ZM94.0067 109.264C92.8067 109.264 91.7427 109.112 90.8147 108.808C89.9027 108.488 89.1347 108.024 88.5107 107.416C87.8867 106.808 87.4147 106.048 87.0947 105.136C86.7907 104.208 86.6387 103.136 86.6387 101.92V93.76C86.6387 93.136 86.7987 92.664 87.1187 92.344C87.4387 92.024 87.9027 91.864 88.5107 91.864C89.1027 91.864 89.5587 92.024 89.8787 92.344C90.1987 92.664 90.3587 93.136 90.3587 93.76V101.944C90.3587 103.32 90.6707 104.36 91.2947 105.064C91.9187 105.752 92.8227 106.096 94.0067 106.096C95.1907 106.096 96.0867 105.752 96.6947 105.064C97.3187 104.36 97.6307 103.32 97.6307 101.944V93.76C97.6307 93.136 97.7907 92.664 98.1107 92.344C98.4307 92.024 98.8867 91.864 99.4787 91.864C100.071 91.864 100.519 92.024 100.823 92.344C101.143 92.664 101.303 93.136 101.303 93.76V101.92C101.303 103.536 101.023 104.896 100.463 106C99.9187 107.088 99.1027 107.904 98.0147 108.448C96.9427 108.992 95.6067 109.264 94.0067 109.264ZM106.467 109.216C105.859 109.216 105.395 109.048 105.075 108.712C104.755 108.376 104.595 107.904 104.595 107.296V93.784C104.595 93.176 104.755 92.704 105.075 92.368C105.395 92.032 105.859 91.864 106.467 91.864C107.059 91.864 107.515 92.032 107.835 92.368C108.155 92.704 108.315 93.176 108.315 93.784V107.296C108.315 107.904 108.155 108.376 107.835 108.712C107.531 109.048 107.075 109.216 106.467 109.216ZM113.16 109.12C112.52 109.12 112.008 108.928 111.624 108.544C111.256 108.16 111.072 107.664 111.072 107.056C111.072 106.464 111.256 105.984 111.624 105.616C112.008 105.232 112.52 105.04 113.16 105.04C113.8 105.04 114.296 105.232 114.648 105.616C115.016 105.984 115.2 106.464 115.2 107.056C115.2 107.664 115.016 108.16 114.648 108.544C114.296 108.928 113.8 109.12 113.16 109.12ZM113.16 101.176C112.52 101.176 112.008 100.984 111.624 100.6C111.256 100.216 111.072 99.728 111.072 99.136C111.072 98.528 111.256 98.04 111.624 97.672C112.008 97.288 112.52 97.096 113.16 97.096C113.8 97.096 114.296 97.288 114.648 97.672C115.016 98.04 115.2 98.528 115.2 99.136C115.2 99.728 115.016 100.216 114.648 100.6C114.296 100.984 113.8 101.176 113.16 101.176ZM128.761 109.264C128.073 109.264 127.377 109.168 126.673 108.976C125.969 108.784 125.313 108.496 124.705 108.112C124.385 107.952 124.161 107.728 124.033 107.44C123.921 107.136 123.889 106.832 123.937 106.528C123.985 106.224 124.105 105.96 124.297 105.736C124.489 105.496 124.729 105.344 125.017 105.28C125.321 105.2 125.665 105.248 126.049 105.424C126.545 105.696 127.017 105.888 127.465 106C127.929 106.112 128.377 106.168 128.809 106.168C129.657 106.168 130.377 105.976 130.969 105.592C131.561 105.208 132.001 104.632 132.289 103.864C132.593 103.08 132.745 102.128 132.745 101.008V99.448H133.081C132.953 100.2 132.689 100.848 132.289 101.392C131.889 101.936 131.385 102.352 130.777 102.64C130.169 102.928 129.497 103.072 128.761 103.072C127.817 103.072 126.969 102.84 126.217 102.376C125.465 101.896 124.873 101.24 124.441 100.408C124.009 99.576 123.793 98.64 123.793 97.6C123.793 96.48 124.033 95.488 124.513 94.624C124.993 93.744 125.665 93.056 126.529 92.56C127.393 92.064 128.385 91.816 129.505 91.816C130.961 91.816 132.185 92.152 133.177 92.824C134.185 93.48 134.953 94.448 135.481 95.728C136.009 96.992 136.273 98.52 136.273 100.312C136.273 101.736 136.097 103 135.745 104.104C135.409 105.208 134.921 106.144 134.281 106.912C133.641 107.68 132.849 108.264 131.905 108.664C130.977 109.064 129.929 109.264 128.761 109.264ZM129.721 100.168C130.217 100.168 130.649 100.056 131.017 99.832C131.401 99.592 131.697 99.264 131.905 98.848C132.113 98.432 132.217 97.96 132.217 97.432C132.217 96.888 132.113 96.408 131.905 95.992C131.697 95.576 131.401 95.256 131.017 95.032C130.649 94.808 130.217 94.696 129.721 94.696C129.225 94.696 128.793 94.808 128.425 95.032C128.057 95.256 127.761 95.576 127.537 95.992C127.329 96.408 127.225 96.888 127.225 97.432C127.225 97.96 127.329 98.432 127.537 98.848C127.761 99.264 128.057 99.592 128.425 99.832C128.793 100.056 129.225 100.168 129.721 100.168ZM144.544 109.264C142.496 109.264 140.928 108.504 139.84 106.984C138.768 105.448 138.232 103.28 138.232 100.48C138.232 98.608 138.472 97.032 138.952 95.752C139.448 94.456 140.16 93.48 141.088 92.824C142.032 92.152 143.184 91.816 144.544 91.816C146.608 91.816 148.176 92.56 149.248 94.048C150.32 95.52 150.856 97.664 150.856 100.48C150.856 102.352 150.608 103.944 150.112 105.256C149.632 106.552 148.928 107.544 148 108.232C147.072 108.92 145.92 109.264 144.544 109.264ZM144.544 106.24C145.472 106.24 146.16 105.784 146.608 104.872C147.056 103.944 147.28 102.48 147.28 100.48C147.28 98.48 147.056 97.04 146.608 96.16C146.16 95.28 145.472 94.84 144.544 94.84C143.616 94.84 142.928 95.28 142.48 96.16C142.032 97.04 141.808 98.48 141.808 100.48C141.808 102.48 142.032 103.944 142.48 104.872C142.928 105.784 143.616 106.24 144.544 106.24Z" fill="#6BDD93"/>
</svg>
