<svg width="432" height="292" viewBox="0 0 432 292" fill="none" xmlns="http://www.w3.org/2000/svg">
<path opacity="0.19803" fill-rule="evenodd" clip-rule="evenodd" d="M0 264H432V264.666H0V264Z" fill="#B9C7D9"/>
<path opacity="0.19803" fill-rule="evenodd" clip-rule="evenodd" d="M0 223H432V223.666H0V223Z" fill="#B9C7D9"/>
<path opacity="0.19803" fill-rule="evenodd" clip-rule="evenodd" d="M0 181H432V181.666H0V181Z" fill="#B9C7D9"/>
<path opacity="0.19803" fill-rule="evenodd" clip-rule="evenodd" d="M0 140H432V140.666H0V140Z" fill="#B9C7D9"/>
<path opacity="0.19803" fill-rule="evenodd" clip-rule="evenodd" d="M0 99H432V99.6662H0V99Z" fill="#B9C7D9"/>
<rect y="238" width="40" height="26" fill="#2620F6"/>
<rect x="56" y="214" width="40" height="50" fill="#2620F6"/>
<rect x="112" y="187" width="40" height="77" fill="#2620F6"/>
<rect x="168" y="152" width="40" height="112" fill="#2620F6"/>
<rect x="224" y="127" width="40" height="137" fill="#2620F6"/>
<rect x="280" y="107" width="40" height="157" fill="#2620F6"/>
<rect x="336" y="87" width="40" height="177" fill="#2620F6"/>
<rect x="392" y="65" width="40" height="199" fill="#2620F6"/>
<path d="M400.789 77.07C400.789 77.6033 400.599 78.05 400.219 78.41C399.839 78.77 399.335 78.9867 398.709 79.06V80.16H398.009V79.07C397.549 79.0433 397.122 78.9533 396.729 78.8C396.342 78.6467 396.002 78.4333 395.709 78.16L396.019 77.53C396.339 77.8033 396.659 78.0067 396.979 78.14C397.305 78.2733 397.659 78.35 398.039 78.37V75.83C397.579 75.71 397.199 75.5833 396.899 75.45C396.599 75.3167 396.345 75.1233 396.139 74.87C395.939 74.61 395.839 74.27 395.839 73.85C395.839 73.4833 395.929 73.1533 396.109 72.86C396.295 72.5667 396.552 72.33 396.879 72.15C397.205 71.9633 397.582 71.85 398.009 71.81V70.72H398.709V71.82C399.095 71.8533 399.462 71.9467 399.809 72.1C400.162 72.2533 400.462 72.4533 400.709 72.7L400.399 73.33C399.912 72.8633 399.339 72.5933 398.679 72.52V75.21C399.119 75.3167 399.482 75.4333 399.769 75.56C400.062 75.6867 400.305 75.8733 400.499 76.12C400.692 76.36 400.789 76.6767 400.789 77.07ZM396.679 73.82C396.679 74.16 396.795 74.42 397.029 74.6C397.262 74.78 397.599 74.93 398.039 75.05V72.52C397.612 72.56 397.279 72.6967 397.039 72.93C396.799 73.1567 396.679 73.4533 396.679 73.82ZM398.679 78.35C399.085 78.2967 399.399 78.1633 399.619 77.95C399.845 77.73 399.959 77.4433 399.959 77.09C399.959 76.7967 399.849 76.57 399.629 76.41C399.409 76.2433 399.092 76.1033 398.679 75.99V78.35ZM406.942 78.31V79H402.972V78.31H404.542V72.9L403.082 73.83V73.04L404.902 71.88H405.372V78.31H406.942ZM409.796 77.97V78.7C409.796 78.98 409.749 79.2367 409.656 79.47C409.563 79.7033 409.406 79.93 409.186 80.15L408.806 79.86C409.066 79.56 409.213 79.2733 409.246 79H408.766V77.97H409.796ZM416.288 78.31V79H411.708V78.38L414.198 75.62C414.531 75.2467 414.775 74.91 414.928 74.61C415.081 74.31 415.158 74.01 415.158 73.71C415.158 73.3167 415.045 73.0167 414.818 72.81C414.591 72.5967 414.268 72.49 413.848 72.49C413.168 72.49 412.495 72.7633 411.828 73.31L411.518 72.68C411.798 72.4133 412.151 72.2 412.578 72.04C413.005 71.88 413.435 71.8 413.868 71.8C414.521 71.8 415.038 71.97 415.418 72.31C415.798 72.6433 415.988 73.0967 415.988 73.67C415.988 74.0767 415.895 74.47 415.708 74.85C415.528 75.2233 415.225 75.6433 414.798 76.11L412.768 78.31H416.288ZM420.312 79.08C419.498 79.08 418.878 78.7733 418.452 78.16C418.032 77.54 417.822 76.6333 417.822 75.44C417.822 74.2467 418.032 73.3433 418.452 72.73C418.878 72.11 419.498 71.8 420.312 71.8C421.125 71.8 421.742 72.11 422.162 72.73C422.588 73.3433 422.802 74.2433 422.802 75.43C422.802 76.6233 422.588 77.53 422.162 78.15C421.742 78.77 421.125 79.08 420.312 79.08ZM420.312 78.39C420.878 78.39 421.295 78.15 421.562 77.67C421.835 77.19 421.972 76.4433 421.972 75.43C421.972 74.4233 421.838 73.6833 421.572 73.21C421.305 72.7367 420.885 72.5 420.312 72.5C419.745 72.5 419.325 72.7367 419.052 73.21C418.785 73.6833 418.652 74.4233 418.652 75.43C418.652 76.4367 418.785 77.1833 419.052 77.67C419.325 78.15 419.745 78.39 420.312 78.39ZM429.415 77.45H428.335V79H427.515V77.45H424.235V76.83L427.665 71.88H428.335V76.77H429.415V77.45ZM427.515 76.77V73.27L425.085 76.77H427.515Z" fill="white"/>
<path d="M343.789 99.07C343.789 99.6033 343.599 100.05 343.219 100.41C342.839 100.77 342.335 100.987 341.709 101.06V102.16H341.009V101.07C340.549 101.043 340.122 100.953 339.729 100.8C339.342 100.647 339.002 100.433 338.709 100.16L339.019 99.53C339.339 99.8033 339.659 100.007 339.979 100.14C340.305 100.273 340.659 100.35 341.039 100.37V97.83C340.579 97.71 340.199 97.5833 339.899 97.45C339.599 97.3167 339.345 97.1233 339.139 96.87C338.939 96.61 338.839 96.27 338.839 95.85C338.839 95.4833 338.929 95.1533 339.109 94.86C339.295 94.5667 339.552 94.33 339.879 94.15C340.205 93.9633 340.582 93.85 341.009 93.81V92.72H341.709V93.82C342.095 93.8533 342.462 93.9467 342.809 94.1C343.162 94.2533 343.462 94.4533 343.709 94.7L343.399 95.33C342.912 94.8633 342.339 94.5933 341.679 94.52V97.21C342.119 97.3167 342.482 97.4333 342.769 97.56C343.062 97.6867 343.305 97.8733 343.499 98.12C343.692 98.36 343.789 98.6767 343.789 99.07ZM339.679 95.82C339.679 96.16 339.795 96.42 340.029 96.6C340.262 96.78 340.599 96.93 341.039 97.05V94.52C340.612 94.56 340.279 94.6967 340.039 94.93C339.799 95.1567 339.679 95.4533 339.679 95.82ZM341.679 100.35C342.085 100.297 342.399 100.163 342.619 99.95C342.845 99.73 342.959 99.4433 342.959 99.09C342.959 98.7967 342.849 98.57 342.629 98.41C342.409 98.2433 342.092 98.1033 341.679 97.99V100.35ZM349.942 100.31V101H345.972V100.31H347.542V94.9L346.082 95.83V95.04L347.902 93.88H348.372V100.31H349.942ZM352.796 99.97V100.7C352.796 100.98 352.749 101.237 352.656 101.47C352.563 101.703 352.406 101.93 352.186 102.15L351.806 101.86C352.066 101.56 352.213 101.273 352.246 101H351.766V99.97H352.796ZM356.878 101.08C356.065 101.08 355.445 100.773 355.018 100.16C354.598 99.54 354.388 98.6333 354.388 97.44C354.388 96.2467 354.598 95.3433 355.018 94.73C355.445 94.11 356.065 93.8 356.878 93.8C357.691 93.8 358.308 94.11 358.728 94.73C359.155 95.3433 359.368 96.2433 359.368 97.43C359.368 98.6233 359.155 99.53 358.728 100.15C358.308 100.77 357.691 101.08 356.878 101.08ZM356.878 100.39C357.445 100.39 357.861 100.15 358.128 99.67C358.401 99.19 358.538 98.4433 358.538 97.43C358.538 96.4233 358.405 95.6833 358.138 95.21C357.871 94.7367 357.451 94.5 356.878 94.5C356.311 94.5 355.891 94.7367 355.618 95.21C355.351 95.6833 355.218 96.4233 355.218 97.43C355.218 98.4367 355.351 99.1833 355.618 99.67C355.891 100.15 356.311 100.39 356.878 100.39ZM364.392 97.34C364.858 97.4667 365.218 97.6867 365.472 98C365.732 98.3067 365.862 98.6767 365.862 99.11C365.862 99.7167 365.632 100.197 365.172 100.55C364.712 100.897 364.092 101.07 363.312 101.07C362.532 101.07 361.912 100.897 361.452 100.55C360.992 100.197 360.762 99.7167 360.762 99.11C360.762 98.6767 360.892 98.3033 361.152 97.99C361.418 97.6767 361.782 97.46 362.242 97.34C361.815 97.2133 361.488 97.0067 361.262 96.72C361.035 96.4267 360.922 96.0833 360.922 95.69C360.922 95.31 361.022 94.98 361.222 94.7C361.422 94.4133 361.702 94.1933 362.062 94.04C362.428 93.88 362.845 93.8 363.312 93.8C363.778 93.8 364.192 93.88 364.552 94.04C364.918 94.1933 365.202 94.4133 365.402 94.7C365.602 94.98 365.702 95.31 365.702 95.69C365.702 96.0833 365.585 96.4267 365.352 96.72C365.125 97.0067 364.805 97.2133 364.392 97.34ZM361.742 95.75C361.742 96.13 361.882 96.44 362.162 96.68C362.448 96.9133 362.832 97.0567 363.312 97.11C363.792 97.0567 364.172 96.9133 364.452 96.68C364.738 96.44 364.882 96.13 364.882 95.75C364.882 95.3567 364.742 95.0467 364.462 94.82C364.188 94.5933 363.805 94.48 363.312 94.48C362.818 94.48 362.432 94.5933 362.152 94.82C361.878 95.0467 361.742 95.3567 361.742 95.75ZM363.312 100.39C363.872 100.39 364.302 100.277 364.602 100.05C364.902 99.8233 365.052 99.4933 365.052 99.06C365.052 98.6667 364.892 98.3533 364.572 98.12C364.258 97.88 363.838 97.7333 363.312 97.68C362.785 97.7333 362.362 97.88 362.042 98.12C361.728 98.3533 361.572 98.6667 361.572 99.06C361.572 99.4933 361.722 99.8233 362.022 100.05C362.322 100.277 362.752 100.39 363.312 100.39ZM370.045 96.53C370.492 96.53 370.882 96.6267 371.215 96.82C371.555 97.0067 371.815 97.27 371.995 97.61C372.175 97.95 372.265 98.3433 372.265 98.79C372.265 99.2367 372.165 99.6333 371.965 99.98C371.772 100.327 371.492 100.597 371.125 100.79C370.765 100.977 370.342 101.07 369.855 101.07C369.422 101.07 368.995 100.993 368.575 100.84C368.155 100.68 367.802 100.463 367.515 100.19L367.825 99.56C368.485 100.107 369.162 100.38 369.855 100.38C370.355 100.38 370.745 100.24 371.025 99.96C371.312 99.6733 371.455 99.2867 371.455 98.8C371.455 98.3267 371.315 97.9467 371.035 97.66C370.755 97.3667 370.382 97.22 369.915 97.22C369.235 97.22 368.692 97.4967 368.285 98.05H367.715V93.88H371.985V94.56H368.535V97.1C368.928 96.72 369.432 96.53 370.045 96.53Z" fill="white"/>
<path d="M292.382 119.07C292.382 119.603 292.192 120.05 291.812 120.41C291.432 120.77 290.928 120.987 290.302 121.06V122.16H289.602V121.07C289.142 121.043 288.715 120.953 288.322 120.8C287.935 120.647 287.595 120.433 287.302 120.16L287.612 119.53C287.932 119.803 288.252 120.007 288.572 120.14C288.898 120.273 289.252 120.35 289.632 120.37V117.83C289.172 117.71 288.792 117.583 288.492 117.45C288.192 117.317 287.938 117.123 287.732 116.87C287.532 116.61 287.432 116.27 287.432 115.85C287.432 115.483 287.522 115.153 287.702 114.86C287.888 114.567 288.145 114.33 288.472 114.15C288.798 113.963 289.175 113.85 289.602 113.81V112.72H290.302V113.82C290.688 113.853 291.055 113.947 291.402 114.1C291.755 114.253 292.055 114.453 292.302 114.7L291.992 115.33C291.505 114.863 290.932 114.593 290.272 114.52V117.21C290.712 117.317 291.075 117.433 291.362 117.56C291.655 117.687 291.898 117.873 292.092 118.12C292.285 118.36 292.382 118.677 292.382 119.07ZM288.272 115.82C288.272 116.16 288.388 116.42 288.622 116.6C288.855 116.78 289.192 116.93 289.632 117.05V114.52C289.205 114.56 288.872 114.697 288.632 114.93C288.392 115.157 288.272 115.453 288.272 115.82ZM290.272 120.35C290.678 120.297 290.992 120.163 291.212 119.95C291.438 119.73 291.552 119.443 291.552 119.09C291.552 118.797 291.442 118.57 291.222 118.41C291.002 118.243 290.685 118.103 290.272 117.99V120.35ZM296.065 113.8C296.925 113.8 297.588 114.1 298.055 114.7C298.522 115.3 298.755 116.153 298.755 117.26C298.755 118.467 298.512 119.407 298.025 120.08C297.545 120.747 296.872 121.08 296.005 121.08C295.598 121.08 295.198 121.003 294.805 120.85C294.418 120.697 294.075 120.48 293.775 120.2L294.095 119.57C294.435 119.857 294.758 120.067 295.065 120.2C295.372 120.327 295.682 120.39 295.995 120.39C296.608 120.39 297.082 120.117 297.415 119.57C297.755 119.023 297.925 118.257 297.925 117.27V117.14C297.772 117.513 297.522 117.81 297.175 118.03C296.828 118.243 296.432 118.35 295.985 118.35C295.552 118.35 295.168 118.257 294.835 118.07C294.502 117.877 294.242 117.61 294.055 117.27C293.868 116.923 293.775 116.53 293.775 116.09C293.775 115.65 293.872 115.257 294.065 114.91C294.265 114.563 294.538 114.293 294.885 114.1C295.232 113.9 295.625 113.8 296.065 113.8ZM296.115 117.66C296.582 117.66 296.962 117.513 297.255 117.22C297.548 116.927 297.695 116.547 297.695 116.08C297.695 115.607 297.548 115.223 297.255 114.93C296.962 114.637 296.578 114.49 296.105 114.49C295.652 114.49 295.285 114.637 295.005 114.93C294.725 115.217 294.585 115.6 294.585 116.08C294.585 116.553 294.725 116.937 295.005 117.23C295.285 117.517 295.655 117.66 296.115 117.66ZM303.019 116.53C303.452 116.53 303.835 116.627 304.169 116.82C304.509 117.007 304.772 117.273 304.959 117.62C305.145 117.96 305.239 118.35 305.239 118.79C305.239 119.23 305.139 119.623 304.939 119.97C304.745 120.317 304.475 120.59 304.129 120.79C303.782 120.983 303.389 121.08 302.949 121.08C302.089 121.08 301.425 120.78 300.959 120.18C300.492 119.58 300.259 118.727 300.259 117.62C300.259 116.82 300.365 116.133 300.579 115.56C300.799 114.987 301.112 114.55 301.519 114.25C301.932 113.95 302.425 113.8 302.999 113.8C303.412 113.8 303.812 113.877 304.199 114.03C304.592 114.183 304.935 114.4 305.229 114.68L304.919 115.31C304.585 115.03 304.265 114.823 303.959 114.69C303.652 114.557 303.339 114.49 303.019 114.49C302.405 114.49 301.929 114.763 301.589 115.31C301.249 115.857 301.079 116.623 301.079 117.61V117.76C301.232 117.38 301.482 117.08 301.829 116.86C302.175 116.64 302.572 116.53 303.019 116.53ZM302.909 120.39C303.362 120.39 303.729 120.247 304.009 119.96C304.289 119.667 304.429 119.28 304.429 118.8C304.429 118.327 304.285 117.947 303.999 117.66C303.719 117.367 303.352 117.22 302.899 117.22C302.432 117.22 302.052 117.367 301.759 117.66C301.465 117.953 301.319 118.333 301.319 118.8C301.319 119.273 301.465 119.657 301.759 119.95C302.052 120.243 302.435 120.39 302.909 120.39ZM309.152 121.08C308.339 121.08 307.719 120.773 307.292 120.16C306.872 119.54 306.662 118.633 306.662 117.44C306.662 116.247 306.872 115.343 307.292 114.73C307.719 114.11 308.339 113.8 309.152 113.8C309.966 113.8 310.582 114.11 311.002 114.73C311.429 115.343 311.642 116.243 311.642 117.43C311.642 118.623 311.429 119.53 311.002 120.15C310.582 120.77 309.966 121.08 309.152 121.08ZM309.152 120.39C309.719 120.39 310.136 120.15 310.402 119.67C310.676 119.19 310.812 118.443 310.812 117.43C310.812 116.423 310.679 115.683 310.412 115.21C310.146 114.737 309.726 114.5 309.152 114.5C308.586 114.5 308.166 114.737 307.892 115.21C307.626 115.683 307.492 116.423 307.492 117.43C307.492 118.437 307.626 119.183 307.892 119.67C308.166 120.15 308.586 120.39 309.152 120.39Z" fill="white"/>
<path d="M236.382 139.07C236.382 139.603 236.192 140.05 235.812 140.41C235.432 140.77 234.928 140.987 234.302 141.06V142.16H233.602V141.07C233.142 141.043 232.715 140.953 232.322 140.8C231.935 140.647 231.595 140.433 231.302 140.16L231.612 139.53C231.932 139.803 232.252 140.007 232.572 140.14C232.898 140.273 233.252 140.35 233.632 140.37V137.83C233.172 137.71 232.792 137.583 232.492 137.45C232.192 137.317 231.938 137.123 231.732 136.87C231.532 136.61 231.432 136.27 231.432 135.85C231.432 135.483 231.522 135.153 231.702 134.86C231.888 134.567 232.145 134.33 232.472 134.15C232.798 133.963 233.175 133.85 233.602 133.81V132.72H234.302V133.82C234.688 133.853 235.055 133.947 235.402 134.1C235.755 134.253 236.055 134.453 236.302 134.7L235.992 135.33C235.505 134.863 234.932 134.593 234.272 134.52V137.21C234.712 137.317 235.075 137.433 235.362 137.56C235.655 137.687 235.898 137.873 236.092 138.12C236.285 138.36 236.382 138.677 236.382 139.07ZM232.272 135.82C232.272 136.16 232.388 136.42 232.622 136.6C232.855 136.78 233.192 136.93 233.632 137.05V134.52C233.205 134.56 232.872 134.697 232.632 134.93C232.392 135.157 232.272 135.453 232.272 135.82ZM234.272 140.35C234.678 140.297 234.992 140.163 235.212 139.95C235.438 139.73 235.552 139.443 235.552 139.09C235.552 138.797 235.442 138.57 235.222 138.41C235.002 138.243 234.685 138.103 234.272 137.99V140.35ZM241.365 137.34C241.832 137.467 242.192 137.687 242.445 138C242.705 138.307 242.835 138.677 242.835 139.11C242.835 139.717 242.605 140.197 242.145 140.55C241.685 140.897 241.065 141.07 240.285 141.07C239.505 141.07 238.885 140.897 238.425 140.55C237.965 140.197 237.735 139.717 237.735 139.11C237.735 138.677 237.865 138.303 238.125 137.99C238.392 137.677 238.755 137.46 239.215 137.34C238.788 137.213 238.462 137.007 238.235 136.72C238.008 136.427 237.895 136.083 237.895 135.69C237.895 135.31 237.995 134.98 238.195 134.7C238.395 134.413 238.675 134.193 239.035 134.04C239.402 133.88 239.818 133.8 240.285 133.8C240.752 133.8 241.165 133.88 241.525 134.04C241.892 134.193 242.175 134.413 242.375 134.7C242.575 134.98 242.675 135.31 242.675 135.69C242.675 136.083 242.558 136.427 242.325 136.72C242.098 137.007 241.778 137.213 241.365 137.34ZM238.715 135.75C238.715 136.13 238.855 136.44 239.135 136.68C239.422 136.913 239.805 137.057 240.285 137.11C240.765 137.057 241.145 136.913 241.425 136.68C241.712 136.44 241.855 136.13 241.855 135.75C241.855 135.357 241.715 135.047 241.435 134.82C241.162 134.593 240.778 134.48 240.285 134.48C239.792 134.48 239.405 134.593 239.125 134.82C238.852 135.047 238.715 135.357 238.715 135.75ZM240.285 140.39C240.845 140.39 241.275 140.277 241.575 140.05C241.875 139.823 242.025 139.493 242.025 139.06C242.025 138.667 241.865 138.353 241.545 138.12C241.232 137.88 240.812 137.733 240.285 137.68C239.758 137.733 239.335 137.88 239.015 138.12C238.702 138.353 238.545 138.667 238.545 139.06C238.545 139.493 238.695 139.823 238.995 140.05C239.295 140.277 239.725 140.39 240.285 140.39ZM247.699 137.34C248.119 137.46 248.439 137.667 248.659 137.96C248.879 138.253 248.989 138.623 248.989 139.07C248.989 139.69 248.779 140.18 248.359 140.54C247.939 140.893 247.369 141.07 246.649 141.07C246.189 141.07 245.745 140.993 245.319 140.84C244.899 140.687 244.542 140.47 244.249 140.19L244.569 139.56C245.229 140.107 245.915 140.38 246.629 140.38C247.135 140.38 247.519 140.267 247.779 140.04C248.045 139.813 248.179 139.48 248.179 139.04C248.179 138.167 247.632 137.73 246.539 137.73H245.719V137.04H246.379C246.905 137.04 247.309 136.923 247.589 136.69C247.869 136.457 248.009 136.123 248.009 135.69C248.009 135.303 247.892 135.007 247.659 134.8C247.432 134.593 247.109 134.49 246.689 134.49C246.009 134.49 245.335 134.763 244.669 135.31L244.359 134.68C244.645 134.407 244.995 134.193 245.409 134.04C245.829 133.88 246.265 133.8 246.719 133.8C247.359 133.8 247.869 133.963 248.249 134.29C248.635 134.617 248.829 135.057 248.829 135.61C248.829 136.017 248.729 136.373 248.529 136.68C248.329 136.987 248.052 137.207 247.699 137.34ZM255.402 140.31V141H251.432V140.31H253.002V134.9L251.542 135.83V135.04L253.362 133.88H253.832V140.31H255.402Z" fill="white"/>
<path d="M180.382 164.07C180.382 164.603 180.192 165.05 179.812 165.41C179.432 165.77 178.928 165.987 178.302 166.06V167.16H177.602V166.07C177.142 166.043 176.715 165.953 176.322 165.8C175.935 165.647 175.595 165.433 175.302 165.16L175.612 164.53C175.932 164.803 176.252 165.007 176.572 165.14C176.898 165.273 177.252 165.35 177.632 165.37V162.83C177.172 162.71 176.792 162.583 176.492 162.45C176.192 162.317 175.938 162.123 175.732 161.87C175.532 161.61 175.432 161.27 175.432 160.85C175.432 160.483 175.522 160.153 175.702 159.86C175.888 159.567 176.145 159.33 176.472 159.15C176.798 158.963 177.175 158.85 177.602 158.81V157.72H178.302V158.82C178.688 158.853 179.055 158.947 179.402 159.1C179.755 159.253 180.055 159.453 180.302 159.7L179.992 160.33C179.505 159.863 178.932 159.593 178.272 159.52V162.21C178.712 162.317 179.075 162.433 179.362 162.56C179.655 162.687 179.898 162.873 180.092 163.12C180.285 163.36 180.382 163.677 180.382 164.07ZM176.272 160.82C176.272 161.16 176.388 161.42 176.622 161.6C176.855 161.78 177.192 161.93 177.632 162.05V159.52C177.205 159.56 176.872 159.697 176.632 159.93C176.392 160.157 176.272 160.453 176.272 160.82ZM178.272 165.35C178.678 165.297 178.992 165.163 179.212 164.95C179.438 164.73 179.552 164.443 179.552 164.09C179.552 163.797 179.442 163.57 179.222 163.41C179.002 163.243 178.685 163.103 178.272 162.99V165.35ZM184.585 161.53C185.018 161.53 185.402 161.627 185.735 161.82C186.075 162.007 186.338 162.273 186.525 162.62C186.712 162.96 186.805 163.35 186.805 163.79C186.805 164.23 186.705 164.623 186.505 164.97C186.312 165.317 186.042 165.59 185.695 165.79C185.348 165.983 184.955 166.08 184.515 166.08C183.655 166.08 182.992 165.78 182.525 165.18C182.058 164.58 181.825 163.727 181.825 162.62C181.825 161.82 181.932 161.133 182.145 160.56C182.365 159.987 182.678 159.55 183.085 159.25C183.498 158.95 183.992 158.8 184.565 158.8C184.978 158.8 185.378 158.877 185.765 159.03C186.158 159.183 186.502 159.4 186.795 159.68L186.485 160.31C186.152 160.03 185.832 159.823 185.525 159.69C185.218 159.557 184.905 159.49 184.585 159.49C183.972 159.49 183.495 159.763 183.155 160.31C182.815 160.857 182.645 161.623 182.645 162.61V162.76C182.798 162.38 183.048 162.08 183.395 161.86C183.742 161.64 184.138 161.53 184.585 161.53ZM184.475 165.39C184.928 165.39 185.295 165.247 185.575 164.96C185.855 164.667 185.995 164.28 185.995 163.8C185.995 163.327 185.852 162.947 185.565 162.66C185.285 162.367 184.918 162.22 184.465 162.22C183.998 162.22 183.618 162.367 183.325 162.66C183.032 162.953 182.885 163.333 182.885 163.8C182.885 164.273 183.032 164.657 183.325 164.95C183.618 165.243 184.002 165.39 184.475 165.39ZM193.069 158.88V159.49L189.729 166H188.849L192.169 159.57H188.369V158.88H193.069ZM196.932 158.8C197.792 158.8 198.456 159.1 198.922 159.7C199.389 160.3 199.622 161.153 199.622 162.26C199.622 163.467 199.379 164.407 198.892 165.08C198.412 165.747 197.739 166.08 196.872 166.08C196.466 166.08 196.066 166.003 195.672 165.85C195.286 165.697 194.942 165.48 194.642 165.2L194.962 164.57C195.302 164.857 195.626 165.067 195.932 165.2C196.239 165.327 196.549 165.39 196.862 165.39C197.476 165.39 197.949 165.117 198.282 164.57C198.622 164.023 198.792 163.257 198.792 162.27V162.14C198.639 162.513 198.389 162.81 198.042 163.03C197.696 163.243 197.299 163.35 196.852 163.35C196.419 163.35 196.036 163.257 195.702 163.07C195.369 162.877 195.109 162.61 194.922 162.27C194.736 161.923 194.642 161.53 194.642 161.09C194.642 160.65 194.739 160.257 194.932 159.91C195.132 159.563 195.406 159.293 195.752 159.1C196.099 158.9 196.492 158.8 196.932 158.8ZM196.982 162.66C197.449 162.66 197.829 162.513 198.122 162.22C198.416 161.927 198.562 161.547 198.562 161.08C198.562 160.607 198.416 160.223 198.122 159.93C197.829 159.637 197.446 159.49 196.972 159.49C196.519 159.49 196.152 159.637 195.872 159.93C195.592 160.217 195.452 160.6 195.452 161.08C195.452 161.553 195.592 161.937 195.872 162.23C196.152 162.517 196.522 162.66 196.982 162.66Z" fill="white"/>
<path d="M68.3816 226.07C68.3816 226.603 68.1916 227.05 67.8116 227.41C67.4316 227.77 66.9282 227.987 66.3016 228.06V229.16H65.6016V228.07C65.1416 228.043 64.7149 227.953 64.3216 227.8C63.9349 227.647 63.5949 227.433 63.3016 227.16L63.6116 226.53C63.9316 226.803 64.2516 227.007 64.5716 227.14C64.8982 227.273 65.2516 227.35 65.6316 227.37V224.83C65.1716 224.71 64.7916 224.583 64.4916 224.45C64.1916 224.317 63.9382 224.123 63.7316 223.87C63.5316 223.61 63.4316 223.27 63.4316 222.85C63.4316 222.483 63.5216 222.153 63.7016 221.86C63.8882 221.567 64.1449 221.33 64.4716 221.15C64.7982 220.963 65.1749 220.85 65.6016 220.81V219.72H66.3016V220.82C66.6882 220.853 67.0549 220.947 67.4016 221.1C67.7549 221.253 68.0549 221.453 68.3016 221.7L67.9916 222.33C67.5049 221.863 66.9316 221.593 66.2716 221.52V224.21C66.7116 224.317 67.0749 224.433 67.3616 224.56C67.6549 224.687 67.8982 224.873 68.0916 225.12C68.2849 225.36 68.3816 225.677 68.3816 226.07ZM64.2716 222.82C64.2716 223.16 64.3882 223.42 64.6216 223.6C64.8549 223.78 65.1916 223.93 65.6316 224.05V221.52C65.2049 221.56 64.8716 221.697 64.6316 221.93C64.3916 222.157 64.2716 222.453 64.2716 222.82ZM66.2716 227.35C66.6782 227.297 66.9916 227.163 67.2116 226.95C67.4382 226.73 67.5516 226.443 67.5516 226.09C67.5516 225.797 67.4416 225.57 67.2216 225.41C67.0016 225.243 66.6849 225.103 66.2716 224.99V227.35ZM73.2652 224.34C73.6852 224.46 74.0052 224.667 74.2252 224.96C74.4452 225.253 74.5552 225.623 74.5552 226.07C74.5552 226.69 74.3452 227.18 73.9252 227.54C73.5052 227.893 72.9352 228.07 72.2152 228.07C71.7552 228.07 71.3118 227.993 70.8852 227.84C70.4652 227.687 70.1085 227.47 69.8152 227.19L70.1352 226.56C70.7952 227.107 71.4818 227.38 72.1952 227.38C72.7018 227.38 73.0852 227.267 73.3452 227.04C73.6118 226.813 73.7452 226.48 73.7452 226.04C73.7452 225.167 73.1985 224.73 72.1052 224.73H71.2852V224.04H71.9452C72.4718 224.04 72.8752 223.923 73.1552 223.69C73.4352 223.457 73.5752 223.123 73.5752 222.69C73.5752 222.303 73.4585 222.007 73.2252 221.8C72.9985 221.593 72.6752 221.49 72.2552 221.49C71.5752 221.49 70.9018 221.763 70.2352 222.31L69.9252 221.68C70.2118 221.407 70.5618 221.193 70.9752 221.04C71.3952 220.88 71.8318 220.8 72.2852 220.8C72.9252 220.8 73.4352 220.963 73.8152 221.29C74.2018 221.617 74.3952 222.057 74.3952 222.61C74.3952 223.017 74.2952 223.373 74.0952 223.68C73.8952 223.987 73.6185 224.207 73.2652 224.34ZM80.9688 227.31V228H76.9988V227.31H78.5688V221.9L77.1088 222.83V222.04L78.9288 220.88H79.3988V227.31H80.9688ZM87.8223 226.45H86.7423V228H85.9223V226.45H82.6423V225.83L86.0723 220.88H86.7423V225.77H87.8223V226.45ZM85.9223 225.77V222.27L83.4923 225.77H85.9223Z" fill="white"/>
<path d="M125.382 199.07C125.382 199.603 125.192 200.05 124.812 200.41C124.432 200.77 123.928 200.987 123.302 201.06V202.16H122.602V201.07C122.142 201.043 121.715 200.953 121.322 200.8C120.935 200.647 120.595 200.433 120.302 200.16L120.612 199.53C120.932 199.803 121.252 200.007 121.572 200.14C121.898 200.273 122.252 200.35 122.632 200.37V197.83C122.172 197.71 121.792 197.583 121.492 197.45C121.192 197.317 120.938 197.123 120.732 196.87C120.532 196.61 120.432 196.27 120.432 195.85C120.432 195.483 120.522 195.153 120.702 194.86C120.888 194.567 121.145 194.33 121.472 194.15C121.798 193.963 122.175 193.85 122.602 193.81V192.72H123.302V193.82C123.688 193.853 124.055 193.947 124.402 194.1C124.755 194.253 125.055 194.453 125.302 194.7L124.992 195.33C124.505 194.863 123.932 194.593 123.272 194.52V197.21C123.712 197.317 124.075 197.433 124.362 197.56C124.655 197.687 124.898 197.873 125.092 198.12C125.285 198.36 125.382 198.677 125.382 199.07ZM121.272 195.82C121.272 196.16 121.388 196.42 121.622 196.6C121.855 196.78 122.192 196.93 122.632 197.05V194.52C122.205 194.56 121.872 194.697 121.632 194.93C121.392 195.157 121.272 195.453 121.272 195.82ZM123.272 200.35C123.678 200.297 123.992 200.163 124.212 199.95C124.438 199.73 124.552 199.443 124.552 199.09C124.552 198.797 124.442 198.57 124.222 198.41C124.002 198.243 123.685 198.103 123.272 197.99V200.35ZM131.955 199.45H130.875V201H130.055V199.45H126.775V198.83L130.205 193.88H130.875V198.77H131.955V199.45ZM130.055 198.77V195.27L127.625 198.77H130.055ZM138.069 193.88V194.49L134.729 201H133.849L137.169 194.57H133.369V193.88H138.069ZM141.932 193.8C142.792 193.8 143.456 194.1 143.922 194.7C144.389 195.3 144.622 196.153 144.622 197.26C144.622 198.467 144.379 199.407 143.892 200.08C143.412 200.747 142.739 201.08 141.872 201.08C141.466 201.08 141.066 201.003 140.672 200.85C140.286 200.697 139.942 200.48 139.642 200.2L139.962 199.57C140.302 199.857 140.626 200.067 140.932 200.2C141.239 200.327 141.549 200.39 141.862 200.39C142.476 200.39 142.949 200.117 143.282 199.57C143.622 199.023 143.792 198.257 143.792 197.27V197.14C143.639 197.513 143.389 197.81 143.042 198.03C142.696 198.243 142.299 198.35 141.852 198.35C141.419 198.35 141.036 198.257 140.702 198.07C140.369 197.877 140.109 197.61 139.922 197.27C139.736 196.923 139.642 196.53 139.642 196.09C139.642 195.65 139.739 195.257 139.932 194.91C140.132 194.563 140.406 194.293 140.752 194.1C141.099 193.9 141.492 193.8 141.932 193.8ZM141.982 197.66C142.449 197.66 142.829 197.513 143.122 197.22C143.416 196.927 143.562 196.547 143.562 196.08C143.562 195.607 143.416 195.223 143.122 194.93C142.829 194.637 142.446 194.49 141.972 194.49C141.519 194.49 141.152 194.637 140.872 194.93C140.592 195.217 140.452 195.6 140.452 196.08C140.452 196.553 140.592 196.937 140.872 197.23C141.152 197.517 141.522 197.66 141.982 197.66Z" fill="white"/>
<path d="M12.3816 250.07C12.3816 250.603 12.1916 251.05 11.8116 251.41C11.4316 251.77 10.9282 251.987 10.3016 252.06V253.16H9.60156V252.07C9.14156 252.043 8.7149 251.953 8.32156 251.8C7.9349 251.647 7.5949 251.433 7.30156 251.16L7.61156 250.53C7.93156 250.803 8.25156 251.007 8.57156 251.14C8.89823 251.273 9.25156 251.35 9.63156 251.37V248.83C9.17156 248.71 8.79156 248.583 8.49156 248.45C8.19156 248.317 7.93823 248.123 7.73156 247.87C7.53156 247.61 7.43156 247.27 7.43156 246.85C7.43156 246.483 7.52156 246.153 7.70156 245.86C7.88823 245.567 8.1449 245.33 8.47156 245.15C8.79823 244.963 9.1749 244.85 9.60156 244.81V243.72H10.3016V244.82C10.6882 244.853 11.0549 244.947 11.4016 245.1C11.7549 245.253 12.0549 245.453 12.3016 245.7L11.9916 246.33C11.5049 245.863 10.9316 245.593 10.2716 245.52V248.21C10.7116 248.317 11.0749 248.433 11.3616 248.56C11.6549 248.687 11.8982 248.873 12.0916 249.12C12.2849 249.36 12.3816 249.677 12.3816 250.07ZM8.27156 246.82C8.27156 247.16 8.38823 247.42 8.62156 247.6C8.8549 247.78 9.19156 247.93 9.63156 248.05V245.52C9.2049 245.56 8.87156 245.697 8.63156 245.93C8.39156 246.157 8.27156 246.453 8.27156 246.82ZM10.2716 251.35C10.6782 251.297 10.9916 251.163 11.2116 250.95C11.4382 250.73 11.5516 250.443 11.5516 250.09C11.5516 249.797 11.4416 249.57 11.2216 249.41C11.0016 249.243 10.6849 249.103 10.2716 248.99V251.35ZM18.5352 251.31V252H14.5652V251.31H16.1352V245.9L14.6752 246.83V246.04L16.4952 244.88H16.9652V251.31H18.5352ZM23.0188 247.53C23.4521 247.53 23.8354 247.627 24.1688 247.82C24.5088 248.007 24.7721 248.273 24.9588 248.62C25.1454 248.96 25.2388 249.35 25.2388 249.79C25.2388 250.23 25.1388 250.623 24.9388 250.97C24.7454 251.317 24.4754 251.59 24.1288 251.79C23.7821 251.983 23.3888 252.08 22.9488 252.08C22.0888 252.08 21.4254 251.78 20.9588 251.18C20.4921 250.58 20.2588 249.727 20.2588 248.62C20.2588 247.82 20.3654 247.133 20.5788 246.56C20.7988 245.987 21.1121 245.55 21.5188 245.25C21.9321 244.95 22.4254 244.8 22.9988 244.8C23.4121 244.8 23.8121 244.877 24.1988 245.03C24.5921 245.183 24.9354 245.4 25.2287 245.68L24.9188 246.31C24.5854 246.03 24.2654 245.823 23.9588 245.69C23.6521 245.557 23.3388 245.49 23.0188 245.49C22.4054 245.49 21.9288 245.763 21.5888 246.31C21.2488 246.857 21.0788 247.623 21.0788 248.61V248.76C21.2321 248.38 21.4821 248.08 21.8288 247.86C22.1754 247.64 22.5721 247.53 23.0188 247.53ZM22.9088 251.39C23.3621 251.39 23.7288 251.247 24.0088 250.96C24.2888 250.667 24.4288 250.28 24.4288 249.8C24.4288 249.327 24.2854 248.947 23.9988 248.66C23.7188 248.367 23.3521 248.22 22.8988 248.22C22.4321 248.22 22.0521 248.367 21.7588 248.66C21.4654 248.953 21.3188 249.333 21.3188 249.8C21.3188 250.273 21.4654 250.657 21.7588 250.95C22.0521 251.243 22.4354 251.39 22.9088 251.39ZM28.9323 244.8C29.7923 244.8 30.4557 245.1 30.9223 245.7C31.389 246.3 31.6223 247.153 31.6223 248.26C31.6223 249.467 31.379 250.407 30.8923 251.08C30.4123 251.747 29.739 252.08 28.8723 252.08C28.4657 252.08 28.0657 252.003 27.6723 251.85C27.2857 251.697 26.9423 251.48 26.6423 251.2L26.9623 250.57C27.3023 250.857 27.6257 251.067 27.9323 251.2C28.239 251.327 28.549 251.39 28.8623 251.39C29.4757 251.39 29.949 251.117 30.2823 250.57C30.6223 250.023 30.7923 249.257 30.7923 248.27V248.14C30.639 248.513 30.389 248.81 30.0423 249.03C29.6957 249.243 29.299 249.35 28.8523 249.35C28.419 249.35 28.0357 249.257 27.7023 249.07C27.369 248.877 27.109 248.61 26.9223 248.27C26.7357 247.923 26.6423 247.53 26.6423 247.09C26.6423 246.65 26.739 246.257 26.9323 245.91C27.1323 245.563 27.4057 245.293 27.7523 245.1C28.099 244.9 28.4923 244.8 28.9323 244.8ZM28.9823 248.66C29.449 248.66 29.829 248.513 30.1223 248.22C30.4157 247.927 30.5623 247.547 30.5623 247.08C30.5623 246.607 30.4157 246.223 30.1223 245.93C29.829 245.637 29.4457 245.49 28.9723 245.49C28.519 245.49 28.1523 245.637 27.8723 245.93C27.5923 246.217 27.4523 246.6 27.4523 247.08C27.4523 247.553 27.5923 247.937 27.8723 248.23C28.1523 248.517 28.5223 248.66 28.9823 248.66Z" fill="white"/>
<g clip-path="url(#clip0)">
<path d="M123.262 287.328V288.967H117.74V287.449L120.292 284.787C120.769 284.288 121.007 283.823 121.007 283.39C121.007 282.884 120.707 282.631 120.105 282.631C119.797 282.631 119.471 282.693 119.126 282.818C118.789 282.935 118.448 283.108 118.103 283.335L117.454 281.872C117.77 281.615 118.177 281.414 118.675 281.267C119.181 281.113 119.695 281.036 120.215 281.036C120.78 281.036 121.271 281.128 121.689 281.311C122.115 281.487 122.441 281.744 122.668 282.081C122.903 282.411 123.02 282.8 123.02 283.247C123.02 283.702 122.929 284.116 122.745 284.49C122.569 284.857 122.265 285.271 121.832 285.733L120.27 287.328H123.262ZM127.501 289.066C126.533 289.066 125.789 288.721 125.268 288.032C124.755 287.343 124.498 286.345 124.498 285.04C124.498 283.757 124.755 282.774 125.268 282.092C125.789 281.403 126.533 281.058 127.501 281.058C128.469 281.058 129.21 281.403 129.723 282.092C130.244 282.774 130.504 283.757 130.504 285.04C130.504 286.345 130.244 287.343 129.723 288.032C129.21 288.721 128.469 289.066 127.501 289.066ZM127.501 287.515C127.853 287.515 128.106 287.324 128.26 286.943C128.414 286.554 128.491 285.92 128.491 285.04C128.491 284.182 128.414 283.562 128.26 283.181C128.106 282.8 127.853 282.609 127.501 282.609C127.149 282.609 126.896 282.8 126.742 283.181C126.588 283.562 126.511 284.182 126.511 285.04C126.511 285.92 126.588 286.554 126.742 286.943C126.896 287.324 127.149 287.515 127.501 287.515ZM137.724 287.328V288.967H132.29V287.328H133.973V283.379L132.4 284.281V282.51L134.82 281.135H136.03V287.328H137.724ZM143.162 284.93C143.661 285.062 144.049 285.289 144.328 285.612C144.607 285.935 144.746 286.334 144.746 286.811C144.746 287.273 144.614 287.673 144.35 288.01C144.086 288.347 143.719 288.608 143.25 288.791C142.788 288.967 142.256 289.055 141.655 289.055C141.054 289.055 140.518 288.967 140.049 288.791C139.587 288.608 139.224 288.347 138.96 288.01C138.696 287.673 138.564 287.273 138.564 286.811C138.564 286.327 138.703 285.924 138.982 285.601C139.261 285.271 139.653 285.044 140.159 284.919C139.726 284.772 139.385 284.549 139.136 284.248C138.887 283.94 138.762 283.581 138.762 283.17C138.762 282.737 138.887 282.36 139.136 282.037C139.393 281.714 139.737 281.469 140.17 281.3C140.61 281.124 141.105 281.036 141.655 281.036C142.205 281.036 142.696 281.124 143.129 281.3C143.569 281.469 143.914 281.714 144.163 282.037C144.42 282.36 144.548 282.737 144.548 283.17C144.548 283.588 144.42 283.955 144.163 284.27C143.914 284.578 143.58 284.798 143.162 284.93ZM141.655 282.587C141.369 282.587 141.134 282.657 140.951 282.796C140.775 282.928 140.687 283.133 140.687 283.412C140.687 283.896 141.01 284.219 141.655 284.38C142.3 284.219 142.623 283.896 142.623 283.412C142.623 283.133 142.531 282.928 142.348 282.796C142.172 282.657 141.941 282.587 141.655 282.587ZM141.655 287.504C142.007 287.504 142.293 287.431 142.513 287.284C142.733 287.137 142.843 286.925 142.843 286.646C142.843 286.375 142.737 286.155 142.524 285.986C142.311 285.817 142.022 285.7 141.655 285.634C141.288 285.7 140.999 285.817 140.786 285.986C140.573 286.155 140.467 286.375 140.467 286.646C140.467 286.925 140.577 287.137 140.797 287.284C141.017 287.431 141.303 287.504 141.655 287.504Z" fill="white"/>
<path d="M179.262 287.328V288.967H173.74V287.449L176.292 284.787C176.769 284.288 177.007 283.823 177.007 283.39C177.007 282.884 176.707 282.631 176.105 282.631C175.797 282.631 175.471 282.693 175.126 282.818C174.789 282.935 174.448 283.108 174.103 283.335L173.454 281.872C173.77 281.615 174.177 281.414 174.675 281.267C175.181 281.113 175.695 281.036 176.215 281.036C176.78 281.036 177.271 281.128 177.689 281.311C178.115 281.487 178.441 281.744 178.668 282.081C178.903 282.411 179.02 282.8 179.02 283.247C179.02 283.702 178.929 284.116 178.745 284.49C178.569 284.857 178.265 285.271 177.832 285.733L176.27 287.328H179.262ZM183.501 289.066C182.533 289.066 181.789 288.721 181.268 288.032C180.755 287.343 180.498 286.345 180.498 285.04C180.498 283.757 180.755 282.774 181.268 282.092C181.789 281.403 182.533 281.058 183.501 281.058C184.469 281.058 185.21 281.403 185.723 282.092C186.244 282.774 186.504 283.757 186.504 285.04C186.504 286.345 186.244 287.343 185.723 288.032C185.21 288.721 184.469 289.066 183.501 289.066ZM183.501 287.515C183.853 287.515 184.106 287.324 184.26 286.943C184.414 286.554 184.491 285.92 184.491 285.04C184.491 284.182 184.414 283.562 184.26 283.181C184.106 282.8 183.853 282.609 183.501 282.609C183.149 282.609 182.896 282.8 182.742 283.181C182.588 283.562 182.511 284.182 182.511 285.04C182.511 285.92 182.588 286.554 182.742 286.943C182.896 287.324 183.149 287.515 183.501 287.515ZM193.724 287.328V288.967H188.29V287.328H189.973V283.379L188.4 284.281V282.51L190.82 281.135H192.03V287.328H193.724ZM197.38 281.036C198.429 281.036 199.235 281.377 199.8 282.059C200.372 282.741 200.658 283.713 200.658 284.974C200.658 285.817 200.522 286.547 200.251 287.163C199.98 287.779 199.587 288.252 199.074 288.582C198.561 288.905 197.952 289.066 197.248 289.066C196.749 289.066 196.269 288.993 195.807 288.846C195.345 288.699 194.953 288.494 194.63 288.23L195.279 286.767C195.932 287.236 196.555 287.471 197.149 287.471C198.029 287.471 198.513 286.822 198.601 285.524C198.432 285.766 198.205 285.957 197.919 286.096C197.633 286.228 197.318 286.294 196.973 286.294C196.526 286.294 196.122 286.184 195.763 285.964C195.411 285.744 195.132 285.443 194.927 285.062C194.729 284.673 194.63 284.233 194.63 283.742C194.63 283.221 194.747 282.756 194.982 282.345C195.217 281.934 195.543 281.615 195.961 281.388C196.379 281.153 196.852 281.036 197.38 281.036ZM197.501 284.699C197.78 284.699 198.003 284.604 198.172 284.413C198.348 284.222 198.436 283.969 198.436 283.654C198.436 283.353 198.348 283.108 198.172 282.917C197.996 282.719 197.772 282.62 197.501 282.62C197.215 282.62 196.988 282.715 196.819 282.906C196.65 283.097 196.566 283.346 196.566 283.654C196.566 283.977 196.647 284.233 196.808 284.424C196.977 284.607 197.208 284.699 197.501 284.699Z" fill="white"/>
<path d="M235.257 287.328V288.967H229.735V287.449L232.287 284.787C232.764 284.288 233.002 283.823 233.002 283.39C233.002 282.884 232.701 282.631 232.1 282.631C231.792 282.631 231.466 282.693 231.121 282.818C230.784 282.935 230.443 283.108 230.098 283.335L229.449 281.872C229.764 281.615 230.171 281.414 230.67 281.267C231.176 281.113 231.689 281.036 232.21 281.036C232.775 281.036 233.266 281.128 233.684 281.311C234.109 281.487 234.436 281.744 234.663 282.081C234.898 282.411 235.015 282.8 235.015 283.247C235.015 283.702 234.923 284.116 234.74 284.49C234.564 284.857 234.26 285.271 233.827 285.733L232.265 287.328H235.257ZM239.496 289.066C238.528 289.066 237.783 288.721 237.263 288.032C236.749 287.343 236.493 286.345 236.493 285.04C236.493 283.757 236.749 282.774 237.263 282.092C237.783 281.403 238.528 281.058 239.496 281.058C240.464 281.058 241.204 281.403 241.718 282.092C242.238 282.774 242.499 283.757 242.499 285.04C242.499 286.345 242.238 287.343 241.718 288.032C241.204 288.721 240.464 289.066 239.496 289.066ZM239.496 287.515C239.848 287.515 240.101 287.324 240.255 286.943C240.409 286.554 240.486 285.92 240.486 285.04C240.486 284.182 240.409 283.562 240.255 283.181C240.101 282.8 239.848 282.609 239.496 282.609C239.144 282.609 238.891 282.8 238.737 283.181C238.583 283.562 238.506 284.182 238.506 285.04C238.506 285.92 238.583 286.554 238.737 286.943C238.891 287.324 239.144 287.515 239.496 287.515ZM249.422 287.328V288.967H243.9V287.449L246.452 284.787C246.928 284.288 247.167 283.823 247.167 283.39C247.167 282.884 246.866 282.631 246.265 282.631C245.957 282.631 245.63 282.693 245.286 282.818C244.948 282.935 244.607 283.108 244.263 283.335L243.614 281.872C243.929 281.615 244.336 281.414 244.835 281.267C245.341 281.113 245.854 281.036 246.375 281.036C246.939 281.036 247.431 281.128 247.849 281.311C248.274 281.487 248.6 281.744 248.828 282.081C249.062 282.411 249.18 282.8 249.18 283.247C249.18 283.702 249.088 284.116 248.905 284.49C248.729 284.857 248.424 285.271 247.992 285.733L246.43 287.328H249.422ZM253.66 289.066C252.692 289.066 251.948 288.721 251.427 288.032C250.914 287.343 250.657 286.345 250.657 285.04C250.657 283.757 250.914 282.774 251.427 282.092C251.948 281.403 252.692 281.058 253.66 281.058C254.628 281.058 255.369 281.403 255.882 282.092C256.403 282.774 256.663 283.757 256.663 285.04C256.663 286.345 256.403 287.343 255.882 288.032C255.369 288.721 254.628 289.066 253.66 289.066ZM253.66 287.515C254.012 287.515 254.265 287.324 254.419 286.943C254.573 286.554 254.65 285.92 254.65 285.04C254.65 284.182 254.573 283.562 254.419 283.181C254.265 282.8 254.012 282.609 253.66 282.609C253.308 282.609 253.055 282.8 252.901 283.181C252.747 283.562 252.67 284.182 252.67 285.04C252.67 285.92 252.747 286.554 252.901 286.943C253.055 287.324 253.308 287.515 253.66 287.515Z" fill="white"/>
<path d="M291.257 287.328V288.967H285.735V287.449L288.287 284.787C288.764 284.288 289.002 283.823 289.002 283.39C289.002 282.884 288.701 282.631 288.1 282.631C287.792 282.631 287.466 282.693 287.121 282.818C286.784 282.935 286.443 283.108 286.098 283.335L285.449 281.872C285.764 281.615 286.171 281.414 286.67 281.267C287.176 281.113 287.689 281.036 288.21 281.036C288.775 281.036 289.266 281.128 289.684 281.311C290.109 281.487 290.436 281.744 290.663 282.081C290.898 282.411 291.015 282.8 291.015 283.247C291.015 283.702 290.923 284.116 290.74 284.49C290.564 284.857 290.26 285.271 289.827 285.733L288.265 287.328H291.257ZM295.496 289.066C294.528 289.066 293.783 288.721 293.263 288.032C292.749 287.343 292.493 286.345 292.493 285.04C292.493 283.757 292.749 282.774 293.263 282.092C293.783 281.403 294.528 281.058 295.496 281.058C296.464 281.058 297.204 281.403 297.718 282.092C298.238 282.774 298.499 283.757 298.499 285.04C298.499 286.345 298.238 287.343 297.718 288.032C297.204 288.721 296.464 289.066 295.496 289.066ZM295.496 287.515C295.848 287.515 296.101 287.324 296.255 286.943C296.409 286.554 296.486 285.92 296.486 285.04C296.486 284.182 296.409 283.562 296.255 283.181C296.101 282.8 295.848 282.609 295.496 282.609C295.144 282.609 294.891 282.8 294.737 283.181C294.583 283.562 294.506 284.182 294.506 285.04C294.506 285.92 294.583 286.554 294.737 286.943C294.891 287.324 295.144 287.515 295.496 287.515ZM305.422 287.328V288.967H299.9V287.449L302.452 284.787C302.928 284.288 303.167 283.823 303.167 283.39C303.167 282.884 302.866 282.631 302.265 282.631C301.957 282.631 301.63 282.693 301.286 282.818C300.948 282.935 300.607 283.108 300.263 283.335L299.614 281.872C299.929 281.615 300.336 281.414 300.835 281.267C301.341 281.113 301.854 281.036 302.375 281.036C302.939 281.036 303.431 281.128 303.849 281.311C304.274 281.487 304.6 281.744 304.828 282.081C305.062 282.411 305.18 282.8 305.18 283.247C305.18 283.702 305.088 284.116 304.905 284.49C304.729 284.857 304.424 285.271 303.992 285.733L302.43 287.328H305.422ZM312.806 287.328V288.967H307.372V287.328H309.055V283.379L307.482 284.281V282.51L309.902 281.135H311.112V287.328H312.806Z" fill="white"/>
<path d="M347.252 287.328V288.967H341.73V287.449L344.282 284.787C344.758 284.288 344.997 283.823 344.997 283.39C344.997 282.884 344.696 282.631 344.095 282.631C343.787 282.631 343.46 282.693 343.116 282.818C342.778 282.935 342.437 283.108 342.093 283.335L341.444 281.872C341.759 281.615 342.166 281.414 342.665 281.267C343.171 281.113 343.684 281.036 344.205 281.036C344.769 281.036 345.261 281.128 345.679 281.311C346.104 281.487 346.43 281.744 346.658 282.081C346.892 282.411 347.01 282.8 347.01 283.247C347.01 283.702 346.918 284.116 346.735 284.49C346.559 284.857 346.254 285.271 345.822 285.733L344.26 287.328H347.252ZM351.49 289.066C350.522 289.066 349.778 288.721 349.257 288.032C348.744 287.343 348.487 286.345 348.487 285.04C348.487 283.757 348.744 282.774 349.257 282.092C349.778 281.403 350.522 281.058 351.49 281.058C352.458 281.058 353.199 281.403 353.712 282.092C354.233 282.774 354.493 283.757 354.493 285.04C354.493 286.345 354.233 287.343 353.712 288.032C353.199 288.721 352.458 289.066 351.49 289.066ZM351.49 287.515C351.842 287.515 352.095 287.324 352.249 286.943C352.403 286.554 352.48 285.92 352.48 285.04C352.48 284.182 352.403 283.562 352.249 283.181C352.095 282.8 351.842 282.609 351.49 282.609C351.138 282.609 350.885 282.8 350.731 283.181C350.577 283.562 350.5 284.182 350.5 285.04C350.5 285.92 350.577 286.554 350.731 286.943C350.885 287.324 351.138 287.515 351.49 287.515ZM361.416 287.328V288.967H355.894V287.449L358.446 284.787C358.923 284.288 359.161 283.823 359.161 283.39C359.161 282.884 358.861 282.631 358.259 282.631C357.951 282.631 357.625 282.693 357.28 282.818C356.943 282.935 356.602 283.108 356.257 283.335L355.608 281.872C355.924 281.615 356.331 281.414 356.829 281.267C357.335 281.113 357.849 281.036 358.369 281.036C358.934 281.036 359.425 281.128 359.843 281.311C360.269 281.487 360.595 281.744 360.822 282.081C361.057 282.411 361.174 282.8 361.174 283.247C361.174 283.702 361.083 284.116 360.899 284.49C360.723 284.857 360.419 285.271 359.986 285.733L358.424 287.328H361.416ZM368.504 287.328V288.967H362.982V287.449L365.534 284.787C366.011 284.288 366.249 283.823 366.249 283.39C366.249 282.884 365.948 282.631 365.347 282.631C365.039 282.631 364.713 282.693 364.368 282.818C364.031 282.935 363.69 283.108 363.345 283.335L362.696 281.872C363.011 281.615 363.418 281.414 363.917 281.267C364.423 281.113 364.936 281.036 365.457 281.036C366.022 281.036 366.513 281.128 366.931 281.311C367.356 281.487 367.683 281.744 367.91 282.081C368.145 282.411 368.262 282.8 368.262 283.247C368.262 283.702 368.17 284.116 367.987 284.49C367.811 284.857 367.507 285.271 367.074 285.733L365.512 287.328H368.504Z" fill="white"/>
<path d="M403.257 287.328V288.967H397.735V287.449L400.287 284.787C400.764 284.288 401.002 283.823 401.002 283.39C401.002 282.884 400.701 282.631 400.1 282.631C399.792 282.631 399.466 282.693 399.121 282.818C398.784 282.935 398.443 283.108 398.098 283.335L397.449 281.872C397.764 281.615 398.171 281.414 398.67 281.267C399.176 281.113 399.689 281.036 400.21 281.036C400.775 281.036 401.266 281.128 401.684 281.311C402.109 281.487 402.436 281.744 402.663 282.081C402.898 282.411 403.015 282.8 403.015 283.247C403.015 283.702 402.923 284.116 402.74 284.49C402.564 284.857 402.26 285.271 401.827 285.733L400.265 287.328H403.257ZM407.496 289.066C406.528 289.066 405.783 288.721 405.263 288.032C404.749 287.343 404.493 286.345 404.493 285.04C404.493 283.757 404.749 282.774 405.263 282.092C405.783 281.403 406.528 281.058 407.496 281.058C408.464 281.058 409.204 281.403 409.718 282.092C410.238 282.774 410.499 283.757 410.499 285.04C410.499 286.345 410.238 287.343 409.718 288.032C409.204 288.721 408.464 289.066 407.496 289.066ZM407.496 287.515C407.848 287.515 408.101 287.324 408.255 286.943C408.409 286.554 408.486 285.92 408.486 285.04C408.486 284.182 408.409 283.562 408.255 283.181C408.101 282.8 407.848 282.609 407.496 282.609C407.144 282.609 406.891 282.8 406.737 283.181C406.583 283.562 406.506 284.182 406.506 285.04C406.506 285.92 406.583 286.554 406.737 286.943C406.891 287.324 407.144 287.515 407.496 287.515ZM417.422 287.328V288.967H411.9V287.449L414.452 284.787C414.928 284.288 415.167 283.823 415.167 283.39C415.167 282.884 414.866 282.631 414.265 282.631C413.957 282.631 413.63 282.693 413.286 282.818C412.948 282.935 412.607 283.108 412.263 283.335L411.614 281.872C411.929 281.615 412.336 281.414 412.835 281.267C413.341 281.113 413.854 281.036 414.375 281.036C414.939 281.036 415.431 281.128 415.849 281.311C416.274 281.487 416.6 281.744 416.828 282.081C417.062 282.411 417.18 282.8 417.18 283.247C417.18 283.702 417.088 284.116 416.905 284.49C416.729 284.857 416.424 285.271 415.992 285.733L414.43 287.328H417.422ZM423.057 284.93C423.512 285.062 423.86 285.293 424.102 285.623C424.352 285.953 424.476 286.356 424.476 286.833C424.476 287.288 424.352 287.684 424.102 288.021C423.86 288.351 423.508 288.608 423.046 288.791C422.584 288.967 422.045 289.055 421.429 289.055C420.879 289.055 420.344 288.982 419.823 288.835C419.31 288.681 418.899 288.476 418.591 288.219L419.24 286.756C419.922 287.225 420.619 287.46 421.33 287.46C421.77 287.46 422.082 287.398 422.265 287.273C422.449 287.141 422.54 286.921 422.54 286.613C422.54 286.32 422.449 286.111 422.265 285.986C422.089 285.861 421.792 285.799 421.374 285.799H420.153V284.215H421.165C421.576 284.215 421.869 284.16 422.045 284.05C422.229 283.933 422.32 283.746 422.32 283.489C422.32 283.21 422.232 282.998 422.056 282.851C421.888 282.704 421.649 282.631 421.341 282.631C421.026 282.631 420.692 282.693 420.34 282.818C419.996 282.935 419.666 283.108 419.35 283.335L418.701 281.872C419.017 281.623 419.427 281.421 419.933 281.267C420.447 281.113 420.964 281.036 421.484 281.036C422.042 281.036 422.529 281.124 422.947 281.3C423.365 281.476 423.688 281.729 423.915 282.059C424.15 282.382 424.267 282.759 424.267 283.192C424.275 283.603 424.172 283.958 423.959 284.259C423.747 284.56 423.446 284.783 423.057 284.93Z" fill="white"/>
<path d="M11.2623 287.328V288.967H5.74027V287.449L8.29227 284.787C8.76894 284.288 9.00727 283.823 9.00727 283.39C9.00727 282.884 8.7066 282.631 8.10527 282.631C7.79727 282.631 7.47094 282.693 7.12627 282.818C6.78894 282.935 6.44794 283.108 6.10327 283.335L5.45427 281.872C5.7696 281.615 6.1766 281.414 6.67527 281.267C7.18127 281.113 7.6946 281.036 8.21527 281.036C8.77994 281.036 9.27127 281.128 9.68927 281.311C10.1146 281.487 10.4409 281.744 10.6683 282.081C10.9029 282.411 11.0203 282.8 11.0203 283.247C11.0203 283.702 10.9286 284.116 10.7453 284.49C10.5693 284.857 10.2649 285.271 9.83227 285.733L8.27027 287.328H11.2623ZM15.501 289.066C14.533 289.066 13.7886 288.721 13.268 288.032C12.7546 287.343 12.498 286.345 12.498 285.04C12.498 283.757 12.7546 282.774 13.268 282.092C13.7886 281.403 14.533 281.058 15.501 281.058C16.469 281.058 17.2096 281.403 17.723 282.092C18.2436 282.774 18.504 283.757 18.504 285.04C18.504 286.345 18.2436 287.343 17.723 288.032C17.2096 288.721 16.469 289.066 15.501 289.066ZM15.501 287.515C15.853 287.515 16.106 287.324 16.26 286.943C16.414 286.554 16.491 285.92 16.491 285.04C16.491 284.182 16.414 283.562 16.26 283.181C16.106 282.8 15.853 282.609 15.501 282.609C15.149 282.609 14.896 282.8 14.742 283.181C14.588 283.562 14.511 284.182 14.511 285.04C14.511 285.92 14.588 286.554 14.742 286.943C14.896 287.324 15.149 287.515 15.501 287.515ZM25.7239 287.328V288.967H20.2899V287.328H21.9729V283.379L20.3999 284.281V282.51L22.8199 281.135H24.0299V287.328H25.7239ZM30.3259 283.808C30.7732 283.808 31.1729 283.918 31.5249 284.138C31.8842 284.358 32.1629 284.662 32.3609 285.051C32.5662 285.432 32.6689 285.869 32.6689 286.36C32.6689 286.881 32.5515 287.346 32.3169 287.757C32.0822 288.168 31.7559 288.49 31.3379 288.725C30.9199 288.952 30.4469 289.066 29.9189 289.066C28.8702 289.066 28.0599 288.725 27.4879 288.043C26.9232 287.361 26.6409 286.389 26.6409 285.128C26.6409 284.285 26.7765 283.555 27.0479 282.939C27.3265 282.323 27.7225 281.854 28.2359 281.531C28.7492 281.201 29.3579 281.036 30.0619 281.036C30.5605 281.036 31.0409 281.109 31.5029 281.256C31.9649 281.403 32.3572 281.608 32.6799 281.872L32.0309 283.335C31.7009 283.093 31.3745 282.917 31.0519 282.807C30.7292 282.69 30.4322 282.631 30.1609 282.631C29.2809 282.631 28.7969 283.28 28.7089 284.578C28.8775 284.343 29.1049 284.156 29.3909 284.017C29.6769 283.878 29.9885 283.808 30.3259 283.808ZM29.8089 287.482C30.0949 287.482 30.3222 287.387 30.4909 287.196C30.6595 287.005 30.7439 286.756 30.7439 286.448C30.7439 286.125 30.6595 285.872 30.4909 285.689C30.3295 285.498 30.1022 285.403 29.8089 285.403C29.5302 285.403 29.3029 285.498 29.1269 285.689C28.9582 285.88 28.8739 286.133 28.8739 286.448C28.8739 286.749 28.9582 286.998 29.1269 287.196C29.3029 287.387 29.5302 287.482 29.8089 287.482Z" fill="white"/>
<path d="M67.2623 287.328V288.967H61.7403V287.449L64.2923 284.787C64.7689 284.288 65.0073 283.823 65.0073 283.39C65.0073 282.884 64.7066 282.631 64.1053 282.631C63.7973 282.631 63.4709 282.693 63.1263 282.818C62.7889 282.935 62.4479 283.108 62.1033 283.335L61.4543 281.872C61.7696 281.615 62.1766 281.414 62.6753 281.267C63.1813 281.113 63.6946 281.036 64.2153 281.036C64.7799 281.036 65.2713 281.128 65.6893 281.311C66.1146 281.487 66.4409 281.744 66.6683 282.081C66.9029 282.411 67.0203 282.8 67.0203 283.247C67.0203 283.702 66.9286 284.116 66.7453 284.49C66.5693 284.857 66.2649 285.271 65.8323 285.733L64.2703 287.328H67.2623ZM71.501 289.066C70.533 289.066 69.7886 288.721 69.268 288.032C68.7546 287.343 68.498 286.345 68.498 285.04C68.498 283.757 68.7546 282.774 69.268 282.092C69.7886 281.403 70.533 281.058 71.501 281.058C72.469 281.058 73.2096 281.403 73.723 282.092C74.2436 282.774 74.504 283.757 74.504 285.04C74.504 286.345 74.2436 287.343 73.723 288.032C73.2096 288.721 72.469 289.066 71.501 289.066ZM71.501 287.515C71.853 287.515 72.106 287.324 72.26 286.943C72.414 286.554 72.491 285.92 72.491 285.04C72.491 284.182 72.414 283.562 72.26 283.181C72.106 282.8 71.853 282.609 71.501 282.609C71.149 282.609 70.896 282.8 70.742 283.181C70.588 283.562 70.511 284.182 70.511 285.04C70.511 285.92 70.588 286.554 70.742 286.943C70.896 287.324 71.149 287.515 71.501 287.515ZM81.7239 287.328V288.967H76.2899V287.328H77.9729V283.379L76.3999 284.281V282.51L78.8199 281.135H80.0299V287.328H81.7239ZM88.5699 281.135V282.675L85.1599 288.967H82.9599L86.3589 282.774H82.7509V281.135H88.5699Z" fill="white"/>
</g>
<path d="M1.79496 6.048H8.91396C10.622 6.048 11.945 6.461 12.883 7.287C13.821 8.099 14.29 9.205 14.29 10.605C14.29 11.991 13.814 13.097 12.862 13.923C11.91 14.749 10.594 15.162 8.91396 15.162H5.74296V21H1.79496V6.048ZM8.38896 12.222C9.87296 12.222 10.615 11.697 10.615 10.647C10.615 10.115 10.433 9.716 10.069 9.45C9.71896 9.17 9.15896 9.03 8.38896 9.03H5.74296V12.222H8.38896ZM24.1021 21.189C22.5761 21.189 21.2461 20.881 20.1121 20.265C18.9781 19.635 18.1031 18.739 17.4871 17.577C16.8851 16.415 16.5841 15.057 16.5841 13.503C16.5841 11.949 16.8921 10.598 17.5081 9.45C18.1241 8.302 18.9921 7.42 20.1121 6.804C21.2461 6.174 22.5761 5.859 24.1021 5.859C25.6281 5.859 26.9511 6.174 28.0711 6.804C29.2051 7.42 30.0731 8.302 30.6751 9.45C31.2771 10.598 31.5781 11.949 31.5781 13.503C31.5781 15.057 31.2771 16.415 30.6751 17.577C30.0731 18.739 29.2051 19.635 28.0711 20.265C26.9511 20.881 25.6281 21.189 24.1021 21.189ZM24.1021 18.186C25.2221 18.186 26.0971 17.787 26.7271 16.989C27.3711 16.191 27.6931 15.029 27.6931 13.503C27.6931 11.991 27.3711 10.843 26.7271 10.059C26.0971 9.261 25.2221 8.862 24.1021 8.862C22.9821 8.862 22.1071 9.254 21.4771 10.038C20.8471 10.822 20.5321 11.977 20.5321 13.503C20.5321 15.043 20.8471 16.212 21.4771 17.01C22.1071 17.794 22.9821 18.186 24.1021 18.186ZM34.6526 6.048H40.7636C42.4156 6.048 43.8366 6.349 45.0266 6.951C46.2306 7.539 47.1476 8.393 47.7776 9.513C48.4216 10.633 48.7436 11.963 48.7436 13.503C48.7436 15.057 48.4286 16.401 47.7986 17.535C47.1686 18.655 46.2516 19.516 45.0476 20.118C43.8576 20.706 42.4296 21 40.7636 21H34.6526V6.048ZM40.4906 17.85C41.9466 17.85 43.0316 17.493 43.7456 16.779C44.4736 16.051 44.8376 14.959 44.8376 13.503C44.8376 10.633 43.3886 9.198 40.4906 9.198H38.6006V17.85H40.4906ZM59.096 21.189C57.542 21.189 56.184 20.874 55.022 20.244C53.874 19.6 52.985 18.697 52.355 17.535C51.739 16.373 51.431 15.029 51.431 13.503C51.431 11.991 51.739 10.661 52.355 9.513C52.985 8.351 53.874 7.455 55.022 6.825C56.184 6.181 57.542 5.859 59.096 5.859C60.076 5.859 61.021 6.006 61.931 6.3C62.855 6.594 63.597 6.993 64.157 7.497L62.96 10.29C61.742 9.408 60.482 8.967 59.18 8.967C57.976 8.967 57.052 9.352 56.408 10.122C55.764 10.878 55.442 12.005 55.442 13.503C55.442 15.015 55.764 16.156 56.408 16.926C57.052 17.696 57.976 18.081 59.18 18.081C60.482 18.081 61.742 17.64 62.96 16.758L64.157 19.551C63.597 20.055 62.855 20.454 61.931 20.748C61.021 21.042 60.076 21.189 59.096 21.189ZM76.893 17.913H70.257L68.934 21H64.986L71.979 6.048H75.087L82.101 21H78.216L76.893 17.913ZM75.612 14.952L73.575 10.227L71.538 14.952H75.612ZM88.9162 21.189C87.7962 21.189 86.6902 21.042 85.5982 20.748C84.5062 20.454 83.6172 20.055 82.9312 19.551L84.1702 16.758C84.8982 17.22 85.6682 17.577 86.4802 17.829C87.3062 18.067 88.1322 18.186 88.9582 18.186C89.7982 18.186 90.4422 18.074 90.8902 17.85C91.3382 17.612 91.5622 17.283 91.5622 16.863C91.5622 16.485 91.3592 16.177 90.9532 15.939C90.5472 15.687 89.7842 15.442 88.6642 15.204C87.2502 14.924 86.1512 14.581 85.3672 14.175C84.5832 13.755 84.0302 13.265 83.7082 12.705C83.4002 12.145 83.2462 11.466 83.2462 10.668C83.2462 9.758 83.5052 8.939 84.0232 8.211C84.5412 7.469 85.2692 6.895 86.2072 6.489C87.1452 6.069 88.2162 5.859 89.4202 5.859C90.4982 5.859 91.5412 6.013 92.5492 6.321C93.5712 6.615 94.3692 7.007 94.9432 7.497L93.7252 10.29C93.0672 9.828 92.3742 9.478 91.6462 9.24C90.9182 8.988 90.1902 8.862 89.4622 8.862C88.7482 8.862 88.1742 9.002 87.7402 9.282C87.3062 9.548 87.0892 9.912 87.0892 10.374C87.0892 10.626 87.1662 10.836 87.3202 11.004C87.4742 11.172 87.7612 11.34 88.1812 11.508C88.6012 11.662 89.2312 11.83 90.0712 12.012C91.4292 12.306 92.4932 12.663 93.2632 13.083C94.0472 13.489 94.6002 13.972 94.9222 14.532C95.2442 15.078 95.4052 15.736 95.4052 16.506C95.4052 17.962 94.8382 19.11 93.7042 19.95C92.5702 20.776 90.9742 21.189 88.9162 21.189ZM101.431 9.24H96.9791V6.048H109.873V9.24H105.421V21H101.431V9.24ZM129.176 17.913H122.54L121.217 21H117.269L124.262 6.048H127.37L134.384 21H130.499L129.176 17.913ZM127.895 14.952L125.858 10.227L123.821 14.952H127.895ZM136.007 6.048H142.118C143.77 6.048 145.191 6.349 146.381 6.951C147.585 7.539 148.502 8.393 149.132 9.513C149.776 10.633 150.098 11.963 150.098 13.503C150.098 15.057 149.783 16.401 149.153 17.535C148.523 18.655 147.606 19.516 146.402 20.118C145.212 20.706 143.784 21 142.118 21H136.007V6.048ZM141.845 17.85C143.301 17.85 144.386 17.493 145.1 16.779C145.828 16.051 146.192 14.959 146.192 13.503C146.192 10.633 144.743 9.198 141.845 9.198H139.955V17.85H141.845ZM165.464 21.189C164.344 21.189 163.238 21.042 162.146 20.748C161.054 20.454 160.165 20.055 159.479 19.551L160.718 16.758C161.446 17.22 162.216 17.577 163.028 17.829C163.854 18.067 164.68 18.186 165.506 18.186C166.346 18.186 166.99 18.074 167.438 17.85C167.886 17.612 168.11 17.283 168.11 16.863C168.11 16.485 167.907 16.177 167.501 15.939C167.095 15.687 166.332 15.442 165.212 15.204C163.798 14.924 162.699 14.581 161.915 14.175C161.131 13.755 160.578 13.265 160.256 12.705C159.948 12.145 159.794 11.466 159.794 10.668C159.794 9.758 160.053 8.939 160.571 8.211C161.089 7.469 161.817 6.895 162.755 6.489C163.693 6.069 164.764 5.859 165.968 5.859C167.046 5.859 168.089 6.013 169.097 6.321C170.119 6.615 170.917 7.007 171.491 7.497L170.273 10.29C169.615 9.828 168.922 9.478 168.194 9.24C167.466 8.988 166.738 8.862 166.01 8.862C165.296 8.862 164.722 9.002 164.288 9.282C163.854 9.548 163.637 9.912 163.637 10.374C163.637 10.626 163.714 10.836 163.868 11.004C164.022 11.172 164.309 11.34 164.729 11.508C165.149 11.662 165.779 11.83 166.619 12.012C167.977 12.306 169.041 12.663 169.811 13.083C170.595 13.489 171.148 13.972 171.47 14.532C171.792 15.078 171.953 15.736 171.953 16.506C171.953 17.962 171.386 19.11 170.252 19.95C169.118 20.776 167.522 21.189 165.464 21.189ZM174.926 6.048H182.045C183.753 6.048 185.076 6.461 186.014 7.287C186.952 8.099 187.421 9.205 187.421 10.605C187.421 11.991 186.945 13.097 185.993 13.923C185.041 14.749 183.725 15.162 182.045 15.162H178.874V21H174.926V6.048ZM181.52 12.222C183.004 12.222 183.746 11.697 183.746 10.647C183.746 10.115 183.564 9.716 183.2 9.45C182.85 9.17 182.29 9.03 181.52 9.03H178.874V12.222H181.52ZM190.073 6.048H200.741V9.072H193.916V11.886H200.3V14.91H193.916V17.976H200.741V21H190.073V6.048ZM216.895 6.048V21H213.976L207.193 12.516V21H203.518V6.048H206.395L213.178 14.49V6.048H216.895ZM220.368 6.048H226.479C228.131 6.048 229.552 6.349 230.742 6.951C231.946 7.539 232.863 8.393 233.493 9.513C234.137 10.633 234.459 11.963 234.459 13.503C234.459 15.057 234.144 16.401 233.514 17.535C232.884 18.655 231.967 19.516 230.763 20.118C229.573 20.706 228.145 21 226.479 21H220.368V6.048ZM226.206 17.85C227.662 17.85 228.747 17.493 229.461 16.779C230.189 16.051 230.553 14.959 230.553 13.503C230.553 10.633 229.104 9.198 226.206 9.198H224.316V17.85H226.206ZM237.545 6.048H241.493V21H237.545V6.048ZM258.338 6.048V21H255.419L248.636 12.516V21H244.961V6.048H247.838L254.621 14.49V6.048H258.338ZM275.082 12.558V20.055C274.284 20.419 273.388 20.699 272.394 20.895C271.414 21.091 270.406 21.189 269.37 21.189C267.746 21.189 266.332 20.881 265.128 20.265C263.938 19.649 263.021 18.767 262.377 17.619C261.733 16.457 261.411 15.085 261.411 13.503C261.411 11.963 261.733 10.619 262.377 9.471C263.021 8.309 263.931 7.42 265.107 6.804C266.283 6.174 267.655 5.859 269.223 5.859C270.301 5.859 271.316 5.999 272.268 6.279C273.234 6.559 274.018 6.944 274.62 7.434L273.381 10.227C272.695 9.779 272.03 9.457 271.386 9.261C270.756 9.051 270.077 8.946 269.349 8.946C268.019 8.946 267.025 9.324 266.367 10.08C265.723 10.822 265.401 11.963 265.401 13.503C265.401 15.099 265.737 16.282 266.409 17.052C267.095 17.822 268.145 18.207 269.559 18.207C270.217 18.207 270.875 18.137 271.533 17.997V15.225H268.929V12.558H275.082ZM281.88 17.094V19.551C281.88 20.461 281.712 21.287 281.376 22.029C281.054 22.771 280.494 23.527 279.696 24.297L278.289 23.163C279.059 22.393 279.528 21.672 279.696 21H277.911V17.094H281.88ZM291.788 6.048H295.736V21H291.788V6.048ZM312.581 6.048V21H309.662L302.879 12.516V21H299.204V6.048H302.081L308.864 14.49V6.048H312.581ZM338.056 6.048V21H334.612L334.591 14.154L331.756 21H329.257L326.401 14.238V21H322.978V6.048H326.065L330.538 16.254L334.99 6.048H338.056ZM341.569 6.048H345.517V21H341.569V6.048ZM348.985 6.048H352.933V17.808H359.254V21H348.985V6.048ZM361.917 6.048H365.865V17.808H372.186V21H361.917V6.048ZM374.849 6.048H378.797V21H374.849V6.048ZM389.384 21.189C387.858 21.189 386.528 20.881 385.394 20.265C384.26 19.635 383.385 18.739 382.769 17.577C382.167 16.415 381.866 15.057 381.866 13.503C381.866 11.949 382.174 10.598 382.79 9.45C383.406 8.302 384.274 7.42 385.394 6.804C386.528 6.174 387.858 5.859 389.384 5.859C390.91 5.859 392.233 6.174 393.353 6.804C394.487 7.42 395.355 8.302 395.957 9.45C396.559 10.598 396.86 11.949 396.86 13.503C396.86 15.057 396.559 16.415 395.957 17.577C395.355 18.739 394.487 19.635 393.353 20.265C392.233 20.881 390.91 21.189 389.384 21.189ZM389.384 18.186C390.504 18.186 391.379 17.787 392.009 16.989C392.653 16.191 392.975 15.029 392.975 13.503C392.975 11.991 392.653 10.843 392.009 10.059C391.379 9.261 390.504 8.862 389.384 8.862C388.264 8.862 387.389 9.254 386.759 10.038C386.129 10.822 385.814 11.977 385.814 13.503C385.814 15.043 386.129 16.212 386.759 17.01C387.389 17.794 388.264 18.186 389.384 18.186ZM413.311 6.048V21H410.392L403.609 12.516V21H399.934V6.048H402.811L409.594 14.49V6.048H413.311ZM422.202 21.189C421.082 21.189 419.976 21.042 418.884 20.748C417.792 20.454 416.903 20.055 416.217 19.551L417.456 16.758C418.184 17.22 418.954 17.577 419.766 17.829C420.592 18.067 421.418 18.186 422.244 18.186C423.084 18.186 423.728 18.074 424.176 17.85C424.624 17.612 424.848 17.283 424.848 16.863C424.848 16.485 424.645 16.177 424.239 15.939C423.833 15.687 423.07 15.442 421.95 15.204C420.536 14.924 419.437 14.581 418.653 14.175C417.869 13.755 417.316 13.265 416.994 12.705C416.686 12.145 416.532 11.466 416.532 10.668C416.532 9.758 416.791 8.939 417.309 8.211C417.827 7.469 418.555 6.895 419.493 6.489C420.431 6.069 421.502 5.859 422.706 5.859C423.784 5.859 424.827 6.013 425.835 6.321C426.857 6.615 427.655 7.007 428.229 7.497L427.011 10.29C426.353 9.828 425.66 9.478 424.932 9.24C424.204 8.988 423.476 8.862 422.748 8.862C422.034 8.862 421.46 9.002 421.026 9.282C420.592 9.548 420.375 9.912 420.375 10.374C420.375 10.626 420.452 10.836 420.606 11.004C420.76 11.172 421.047 11.34 421.467 11.508C421.887 11.662 422.517 11.83 423.357 12.012C424.715 12.306 425.779 12.663 426.549 13.083C427.333 13.489 427.886 13.972 428.208 14.532C428.53 15.078 428.691 15.736 428.691 16.506C428.691 17.962 428.124 19.11 426.99 19.95C425.856 20.776 424.26 21.189 422.202 21.189Z" fill="white"/>
<defs>
<clipPath id="clip0">
<rect width="421" height="14" fill="white" transform="translate(5.03192 277.967)"/>
</clipPath>
</defs>
</svg>
