<svg width="185" height="175" viewBox="0 0 185 175" fill="none" xmlns="http://www.w3.org/2000/svg">
<path fill-rule="evenodd" clip-rule="evenodd" d="M3.532 0.066C1.599 0.066 0 1.666 0 3.599C0 5.533 1.599 7.132 3.532 7.132C5.465 7.132 7.065 5.533 7.065 3.599C7.065 1.666 5.532 0.066 3.532 0.066ZM47.987 0C46.054 0 44.455 1.599 44.455 3.533C44.455 5.465 46.054 7.066 47.987 7.066C49.92 7.066 51.519 5.465 51.519 3.533C51.519 1.599 49.92 0 47.987 0ZM92.375 0C90.443 0 88.843 1.599 88.843 3.533C88.843 5.465 90.443 7.066 92.375 7.066C94.308 7.066 95.907 5.465 95.907 3.533C95.907 1.599 94.375 0 92.375 0ZM136.83 0C134.897 0 133.298 1.599 133.298 3.533C133.298 5.465 134.897 7.066 136.83 7.066C138.763 7.066 140.363 5.465 140.363 3.533C140.363 1.599 138.763 0 136.83 0ZM181.218 7.132C183.151 7.132 184.751 5.533 184.751 3.599C184.751 1.666 183.151 0.066 181.218 0.066C179.285 0.066 177.686 1.666 177.686 3.599C177.686 5.533 179.285 7.132 181.218 7.132ZM3.532 41C1.599 41 0 42.599 0 44.533C0 46.465 1.599 48.066 3.532 48.066C5.465 48.066 7.065 46.465 7.065 44.533C7.131 42.599 5.532 41 3.532 41ZM47.987 41C46.054 41 44.455 42.599 44.455 44.533C44.455 46.465 46.054 48.066 47.987 48.066C49.92 48.066 51.519 46.465 51.519 44.533C51.519 42.599 49.92 41 47.987 41ZM92.375 41C90.443 41 88.843 42.599 88.843 44.533C88.843 46.465 90.443 48.066 92.375 48.066C94.308 48.066 95.907 46.465 95.907 44.533C95.974 42.599 94.375 41 92.375 41ZM136.83 41C134.897 41 133.298 42.599 133.298 44.533C133.298 46.465 134.897 48.066 136.83 48.066C138.763 48.066 140.363 46.465 140.363 44.533C140.363 42.599 138.829 41 136.83 41ZM181.285 41C179.352 41 177.753 42.599 177.753 44.533C177.753 46.465 179.352 48.066 181.285 48.066C183.218 48.066 184.817 46.465 184.817 44.533C184.817 42.599 183.218 41 181.285 41ZM3.532 83.199C1.599 83.199 0 84.799 0 86.733C0 88.666 1.599 90.266 3.532 90.266C5.465 90.266 7.065 88.666 7.065 86.733C7.131 84.799 5.532 83.199 3.532 83.199ZM47.987 83.199C46.054 83.199 44.455 84.799 44.455 86.733C44.455 88.666 46.054 90.266 47.987 90.266C49.92 90.266 51.519 88.666 51.519 86.733C51.519 84.799 49.92 83.199 47.987 83.199ZM92.442 83.199C90.509 83.199 88.909 84.799 88.909 86.733C88.909 88.666 90.509 90.266 92.442 90.266C94.375 90.266 95.974 88.666 95.974 86.733C95.974 84.799 94.375 83.199 92.442 83.199ZM136.83 83.199C134.897 83.199 133.298 84.799 133.298 86.733C133.298 88.666 134.897 90.266 136.83 90.266C138.763 90.266 140.363 88.666 140.363 86.733C140.363 84.799 138.829 83.199 136.83 83.199ZM181.285 83.199C179.352 83.199 177.753 84.799 177.753 86.733C177.753 88.666 179.352 90.266 181.285 90.266C183.218 90.266 184.817 88.666 184.817 86.733C184.817 84.799 183.218 83.199 181.285 83.199ZM3.599 124.199C1.666 124.199 0.067 125.799 0.067 127.733C0.067 129.666 1.666 131.266 3.599 131.266C5.532 131.266 7.131 129.666 7.131 127.733C7.131 125.799 5.532 124.199 3.599 124.199ZM47.987 124.199C46.054 124.199 44.455 125.799 44.455 127.733C44.455 129.666 46.054 131.266 47.987 131.266C49.92 131.266 51.519 129.666 51.519 127.733C51.519 125.799 49.987 124.199 47.987 124.199ZM92.442 124.199C90.509 124.199 88.909 125.799 88.909 127.733C88.909 129.666 90.509 131.266 92.442 131.266C94.375 131.266 95.974 129.666 95.974 127.733C95.974 125.799 94.375 124.199 92.442 124.199ZM136.83 124.199C134.897 124.199 133.298 125.799 133.298 127.733C133.298 129.666 134.897 131.266 136.83 131.266C138.763 131.266 140.363 129.666 140.363 127.733C140.429 125.799 138.829 124.199 136.83 124.199ZM181.285 124.199C179.352 124.199 177.753 125.799 177.753 127.733C177.753 129.666 179.352 131.266 181.285 131.266C183.218 131.266 184.817 129.666 184.817 127.733C184.817 125.799 183.218 124.199 181.285 124.199ZM3.599 167.599C1.666 167.599 0.067 169.199 0.067 171.132C0.067 173.066 1.666 174.666 3.599 174.666C5.532 174.666 7.131 173.066 7.131 171.132C7.131 169.199 5.532 167.599 3.599 167.599ZM47.987 167.599C46.054 167.599 44.455 169.199 44.455 171.132C44.455 173.066 46.054 174.666 47.987 174.666C49.92 174.666 51.519 173.066 51.519 171.132C51.586 169.199 49.987 167.599 47.987 167.599ZM92.442 167.599C90.509 167.599 88.909 169.199 88.909 171.132C88.909 173.066 90.509 174.666 92.442 174.666C94.375 174.666 95.974 173.066 95.974 171.132C95.974 169.199 94.375 167.599 92.442 167.599ZM136.83 167.599C134.897 167.599 133.298 169.199 133.298 171.132C133.298 173.066 134.897 174.666 136.83 174.666C138.763 174.666 140.363 173.066 140.363 171.132C140.429 169.199 138.829 167.599 136.83 167.599ZM181.285 167.599C179.352 167.599 177.753 169.199 177.753 171.132C177.753 173.066 179.352 174.666 181.285 174.666C183.218 174.666 184.817 173.066 184.817 171.132C184.817 169.199 183.218 167.599 181.285 167.599Z" fill="#F8F8F8"/>
</svg>
