<svg width="513" height="290" viewBox="0 0 513 290" fill="none" xmlns="http://www.w3.org/2000/svg">
<path d="M15.12 6.048V21H11.256V14.952H5.208V21H1.344V6.048H5.208V11.865H11.256V6.048H15.12ZM17.9662 6.048H28.6342V9.072H21.8092V11.886H28.1932V14.91H21.8092V17.976H28.6342V21H17.9662V6.048ZM40.6899 17.913H34.0539L32.7309 21H28.7829L35.7759 6.048H38.8839L45.8979 21H42.0129L40.6899 17.913ZM39.4089 14.952L37.3719 10.227L35.3349 14.952H39.4089ZM60.2758 6.048L53.4718 21H50.3428L43.5388 6.048H47.6338L51.9388 16.086L56.3068 6.048H60.2758ZM69.3219 15.288V21H65.3529V15.267L59.0739 6.048H63.5259L67.3059 12.012L71.1489 6.048H75.6429L69.3219 15.288ZM88.5573 21.189C86.3733 21.189 84.7213 20.643 83.6013 19.551C82.4813 18.445 81.9213 16.828 81.9213 14.7V6.048H85.7643V14.847C85.7643 15.925 86.0023 16.751 86.4783 17.325C86.9683 17.899 87.6613 18.186 88.5573 18.186C89.4393 18.186 90.1183 17.899 90.5943 17.325C91.0703 16.737 91.3083 15.911 91.3083 14.847V6.048H95.1933V14.7C95.1933 16.8 94.6193 18.41 93.4713 19.53C92.3373 20.636 90.6993 21.189 88.5573 21.189ZM103.348 21.189C102.228 21.189 101.122 21.042 100.03 20.748C98.9378 20.454 98.0488 20.055 97.3628 19.551L98.6018 16.758C99.3298 17.22 100.1 17.577 100.912 17.829C101.738 18.067 102.564 18.186 103.39 18.186C104.23 18.186 104.874 18.074 105.322 17.85C105.77 17.612 105.994 17.283 105.994 16.863C105.994 16.485 105.791 16.177 105.385 15.939C104.979 15.687 104.216 15.442 103.096 15.204C101.682 14.924 100.583 14.581 99.7988 14.175C99.0148 13.755 98.4618 13.265 98.1398 12.705C97.8318 12.145 97.6778 11.466 97.6778 10.668C97.6778 9.758 97.9368 8.939 98.4548 8.211C98.9728 7.469 99.7008 6.895 100.639 6.489C101.577 6.069 102.648 5.859 103.852 5.859C104.93 5.859 105.973 6.013 106.981 6.321C108.003 6.615 108.801 7.007 109.375 7.497L108.157 10.29C107.499 9.828 106.806 9.478 106.078 9.24C105.35 8.988 104.622 8.862 103.894 8.862C103.18 8.862 102.606 9.002 102.172 9.282C101.738 9.548 101.521 9.912 101.521 10.374C101.521 10.626 101.598 10.836 101.752 11.004C101.906 11.172 102.193 11.34 102.613 11.508C103.033 11.662 103.663 11.83 104.503 12.012C105.861 12.306 106.925 12.663 107.695 13.083C108.479 13.489 109.032 13.972 109.354 14.532C109.676 15.078 109.837 15.736 109.837 16.506C109.837 17.962 109.27 19.11 108.136 19.95C107.002 20.776 105.406 21.189 103.348 21.189ZM112.194 6.048H122.862V9.072H116.037V11.886H122.421V14.91H116.037V17.976H122.862V21H112.194V6.048ZM138.021 21H133.842L131.91 16.023C131.686 15.463 131.161 15.183 130.335 15.183H128.907V21H125.022V6.048H131.973C133.779 6.048 135.137 6.44 136.047 7.224C136.957 7.994 137.412 9.1 137.412 10.542C137.412 11.55 137.139 12.425 136.593 13.167C136.061 13.895 135.305 14.413 134.325 14.721C134.745 14.805 135.123 15.001 135.459 15.309C135.795 15.617 136.061 16.03 136.257 16.548L138.021 21ZM131.343 12.243C132.183 12.243 132.792 12.117 133.17 11.865C133.548 11.599 133.737 11.193 133.737 10.647C133.737 10.073 133.548 9.66 133.17 9.408C132.806 9.156 132.197 9.03 131.343 9.03H128.865V12.243H131.343ZM145.462 21.189C144.342 21.189 143.236 21.042 142.144 20.748C141.052 20.454 140.163 20.055 139.477 19.551L140.716 16.758C141.444 17.22 142.214 17.577 143.026 17.829C143.852 18.067 144.678 18.186 145.504 18.186C146.344 18.186 146.988 18.074 147.436 17.85C147.884 17.612 148.108 17.283 148.108 16.863C148.108 16.485 147.905 16.177 147.499 15.939C147.093 15.687 146.33 15.442 145.21 15.204C143.796 14.924 142.697 14.581 141.913 14.175C141.129 13.755 140.576 13.265 140.254 12.705C139.946 12.145 139.792 11.466 139.792 10.668C139.792 9.758 140.051 8.939 140.569 8.211C141.087 7.469 141.815 6.895 142.753 6.489C143.691 6.069 144.762 5.859 145.966 5.859C147.044 5.859 148.087 6.013 149.095 6.321C150.117 6.615 150.915 7.007 151.489 7.497L150.271 10.29C149.613 9.828 148.92 9.478 148.192 9.24C147.464 8.988 146.736 8.862 146.008 8.862C145.294 8.862 144.72 9.002 144.286 9.282C143.852 9.548 143.635 9.912 143.635 10.374C143.635 10.626 143.712 10.836 143.866 11.004C144.02 11.172 144.307 11.34 144.727 11.508C145.147 11.662 145.777 11.83 146.617 12.012C147.975 12.306 149.039 12.663 149.809 13.083C150.593 13.489 151.146 13.972 151.468 14.532C151.79 15.078 151.951 15.736 151.951 16.506C151.951 17.962 151.384 19.11 150.25 19.95C149.116 20.776 147.52 21.189 145.462 21.189ZM160.553 6.048H164.501V17.808H170.822V21H160.553V6.048ZM172.869 6.048H176.817V21H172.869V6.048ZM185.086 21.189C183.966 21.189 182.86 21.042 181.768 20.748C180.676 20.454 179.787 20.055 179.101 19.551L180.34 16.758C181.068 17.22 181.838 17.577 182.65 17.829C183.476 18.067 184.302 18.186 185.128 18.186C185.968 18.186 186.612 18.074 187.06 17.85C187.508 17.612 187.732 17.283 187.732 16.863C187.732 16.485 187.529 16.177 187.123 15.939C186.717 15.687 185.954 15.442 184.834 15.204C183.42 14.924 182.321 14.581 181.537 14.175C180.753 13.755 180.2 13.265 179.878 12.705C179.57 12.145 179.416 11.466 179.416 10.668C179.416 9.758 179.675 8.939 180.193 8.211C180.711 7.469 181.439 6.895 182.377 6.489C183.315 6.069 184.386 5.859 185.59 5.859C186.668 5.859 187.711 6.013 188.719 6.321C189.741 6.615 190.539 7.007 191.113 7.497L189.895 10.29C189.237 9.828 188.544 9.478 187.816 9.24C187.088 8.988 186.36 8.862 185.632 8.862C184.918 8.862 184.344 9.002 183.91 9.282C183.476 9.548 183.259 9.912 183.259 10.374C183.259 10.626 183.336 10.836 183.49 11.004C183.644 11.172 183.931 11.34 184.351 11.508C184.771 11.662 185.401 11.83 186.241 12.012C187.599 12.306 188.663 12.663 189.433 13.083C190.217 13.489 190.77 13.972 191.092 14.532C191.414 15.078 191.575 15.736 191.575 16.506C191.575 17.962 191.008 19.11 189.874 19.95C188.74 20.776 187.144 21.189 185.086 21.189ZM196.984 9.24H192.532V6.048H205.426V9.24H200.974V21H196.984V9.24ZM207.17 6.048H217.838V9.072H211.013V11.886H217.397V14.91H211.013V17.976H217.838V21H207.17V6.048ZM233.375 6.048V21H230.456L223.673 12.516V21H219.998V6.048H222.875L229.658 14.49V6.048H233.375ZM252.556 17.913H245.92L244.597 21H240.649L247.642 6.048H250.75L257.764 21H253.879L252.556 17.913ZM251.275 14.952L249.238 10.227L247.201 14.952H251.275ZM279.408 6.048L274.053 21H270.924L267.795 12.117L264.603 21H261.474L256.14 6.048H260.151L263.217 15.477L266.556 6.048H269.244L272.457 15.645L275.67 6.048H279.408ZM289.697 17.913H283.061L281.738 21H277.79L284.783 6.048H287.891L294.905 21H291.02L289.697 17.913ZM288.416 14.952L286.379 10.227L284.342 14.952H288.416ZM301.604 15.288V21H297.635V15.267L291.356 6.048H295.808L299.588 12.012L303.431 6.048H307.925L301.604 15.288ZM314.267 6.048H324.704V9.135H318.152V11.865H324.284V14.931H318.152V21H314.267V6.048ZM339.684 21H335.505L333.573 16.023C333.349 15.463 332.824 15.183 331.998 15.183H330.57V21H326.685V6.048H333.636C335.442 6.048 336.8 6.44 337.71 7.224C338.62 7.994 339.075 9.1 339.075 10.542C339.075 11.55 338.802 12.425 338.256 13.167C337.724 13.895 336.968 14.413 335.988 14.721C336.408 14.805 336.786 15.001 337.122 15.309C337.458 15.617 337.724 16.03 337.92 16.548L339.684 21ZM333.006 12.243C333.846 12.243 334.455 12.117 334.833 11.865C335.211 11.599 335.4 11.193 335.4 10.647C335.4 10.073 335.211 9.66 334.833 9.408C334.469 9.156 333.86 9.03 333.006 9.03H330.528V12.243H333.006ZM348.847 21.189C347.321 21.189 345.991 20.881 344.857 20.265C343.723 19.635 342.848 18.739 342.232 17.577C341.63 16.415 341.329 15.057 341.329 13.503C341.329 11.949 341.637 10.598 342.253 9.45C342.869 8.302 343.737 7.42 344.857 6.804C345.991 6.174 347.321 5.859 348.847 5.859C350.373 5.859 351.696 6.174 352.816 6.804C353.95 7.42 354.818 8.302 355.42 9.45C356.022 10.598 356.323 11.949 356.323 13.503C356.323 15.057 356.022 16.415 355.42 17.577C354.818 18.739 353.95 19.635 352.816 20.265C351.696 20.881 350.373 21.189 348.847 21.189ZM348.847 18.186C349.967 18.186 350.842 17.787 351.472 16.989C352.116 16.191 352.438 15.029 352.438 13.503C352.438 11.991 352.116 10.843 351.472 10.059C350.842 9.261 349.967 8.862 348.847 8.862C347.727 8.862 346.852 9.254 346.222 10.038C345.592 10.822 345.277 11.977 345.277 13.503C345.277 15.043 345.592 16.212 346.222 17.01C346.852 17.794 347.727 18.186 348.847 18.186ZM373.922 6.048V21H370.478L370.457 14.154L367.622 21H365.123L362.267 14.238V21H358.844V6.048H361.931L366.404 16.254L370.856 6.048H373.922ZM396.839 6.048V21H392.975V14.952H386.927V21H383.063V6.048H386.927V11.865H392.975V6.048H396.839ZM406.804 21.189C405.278 21.189 403.948 20.881 402.814 20.265C401.68 19.635 400.805 18.739 400.189 17.577C399.587 16.415 399.286 15.057 399.286 13.503C399.286 11.949 399.594 10.598 400.21 9.45C400.826 8.302 401.694 7.42 402.814 6.804C403.948 6.174 405.278 5.859 406.804 5.859C408.33 5.859 409.653 6.174 410.773 6.804C411.907 7.42 412.775 8.302 413.377 9.45C413.979 10.598 414.28 11.949 414.28 13.503C414.28 15.057 413.979 16.415 413.377 17.577C412.775 18.739 411.907 19.635 410.773 20.265C409.653 20.881 408.33 21.189 406.804 21.189ZM406.804 18.186C407.924 18.186 408.799 17.787 409.429 16.989C410.073 16.191 410.395 15.029 410.395 13.503C410.395 11.991 410.073 10.843 409.429 10.059C408.799 9.261 407.924 8.862 406.804 8.862C405.684 8.862 404.809 9.254 404.179 10.038C403.549 10.822 403.234 11.977 403.234 13.503C403.234 15.043 403.549 16.212 404.179 17.01C404.809 17.794 405.684 18.186 406.804 18.186ZM431.879 6.048V21H428.435L428.414 14.154L425.579 21H423.08L420.224 14.238V21H416.801V6.048H419.888L424.361 16.254L428.813 6.048H431.879ZM434.775 6.048H445.443V9.072H438.618V11.886H445.002V14.91H438.618V17.976H445.443V21H434.775V6.048Z" fill="#F8F8F8"/>
<path d="M12.96 72.184V85H9.648V79.816H4.464V85H1.152V72.184H4.464V77.17H9.648V72.184H12.96ZM15.3996 72.184H24.5436V74.776H18.6936V77.188H24.1656V79.78H18.6936V82.408H24.5436V85H15.3996V72.184ZM34.877 82.354H29.189L28.055 85H24.671L30.665 72.184H33.329L39.341 85H36.011L34.877 82.354ZM33.779 79.816L32.033 75.766L30.287 79.816H33.779ZM51.665 72.184L45.833 85H43.151L37.319 72.184H40.829L44.519 80.788L48.263 72.184H51.665ZM59.4188 80.104V85H56.0168V80.086L50.6348 72.184H54.4508L57.6908 77.296L60.9848 72.184H64.8368L59.4188 80.104ZM75.9063 85.162C74.0343 85.162 72.6183 84.694 71.6583 83.758C70.6983 82.81 70.2183 81.424 70.2183 79.6V72.184H73.5123V79.726C73.5123 80.65 73.7163 81.358 74.1243 81.85C74.5443 82.342 75.1383 82.588 75.9063 82.588C76.6623 82.588 77.2443 82.342 77.6523 81.85C78.0603 81.346 78.2643 80.638 78.2643 79.726V72.184H81.5943V79.6C81.5943 81.4 81.1023 82.78 80.1183 83.74C79.1463 84.688 77.7423 85.162 75.9063 85.162ZM88.5838 85.162C87.6238 85.162 86.6758 85.036 85.7398 84.784C84.8038 84.532 84.0418 84.19 83.4538 83.758L84.5158 81.364C85.1398 81.76 85.7998 82.066 86.4958 82.282C87.2038 82.486 87.9118 82.588 88.6198 82.588C89.3398 82.588 89.8918 82.492 90.2758 82.3C90.6598 82.096 90.8518 81.814 90.8518 81.454C90.8518 81.13 90.6778 80.866 90.3298 80.662C89.9818 80.446 89.3278 80.236 88.3678 80.032C87.1558 79.792 86.2138 79.498 85.5418 79.15C84.8698 78.79 84.3958 78.37 84.1198 77.89C83.8558 77.41 83.7238 76.828 83.7238 76.144C83.7238 75.364 83.9458 74.662 84.3898 74.038C84.8338 73.402 85.4578 72.91 86.2618 72.562C87.0658 72.202 87.9838 72.022 89.0158 72.022C89.9398 72.022 90.8338 72.154 91.6978 72.418C92.5738 72.67 93.2578 73.006 93.7498 73.426L92.7058 75.82C92.1418 75.424 91.5478 75.124 90.9238 74.92C90.2998 74.704 89.6758 74.596 89.0518 74.596C88.4398 74.596 87.9478 74.716 87.5758 74.956C87.2038 75.184 87.0178 75.496 87.0178 75.892C87.0178 76.108 87.0838 76.288 87.2158 76.432C87.3478 76.576 87.5938 76.72 87.9538 76.864C88.3138 76.996 88.8538 77.14 89.5738 77.296C90.7378 77.548 91.6498 77.854 92.3098 78.214C92.9818 78.562 93.4558 78.976 93.7318 79.456C94.0078 79.924 94.1458 80.488 94.1458 81.148C94.1458 82.396 93.6598 83.38 92.6878 84.1C91.7158 84.808 90.3478 85.162 88.5838 85.162ZM96.1659 72.184H105.31V74.776H99.4599V77.188H104.932V79.78H99.4599V82.408H105.31V85H96.1659V72.184ZM118.304 85H114.722L113.066 80.734C112.874 80.254 112.424 80.014 111.716 80.014H110.492V85H107.162V72.184H113.12C114.668 72.184 115.832 72.52 116.612 73.192C117.392 73.852 117.782 74.8 117.782 76.036C117.782 76.9 117.548 77.65 117.08 78.286C116.624 78.91 115.976 79.354 115.136 79.618C115.496 79.69 115.82 79.858 116.108 80.122C116.396 80.386 116.624 80.74 116.792 81.184L118.304 85ZM112.58 77.494C113.3 77.494 113.822 77.386 114.146 77.17C114.47 76.942 114.632 76.594 114.632 76.126C114.632 75.634 114.47 75.28 114.146 75.064C113.834 74.848 113.312 74.74 112.58 74.74H110.456V77.494H112.58ZM124.682 85.162C123.722 85.162 122.774 85.036 121.838 84.784C120.902 84.532 120.14 84.19 119.552 83.758L120.614 81.364C121.238 81.76 121.898 82.066 122.594 82.282C123.302 82.486 124.01 82.588 124.718 82.588C125.438 82.588 125.99 82.492 126.374 82.3C126.758 82.096 126.95 81.814 126.95 81.454C126.95 81.13 126.776 80.866 126.428 80.662C126.08 80.446 125.426 80.236 124.466 80.032C123.254 79.792 122.312 79.498 121.64 79.15C120.968 78.79 120.494 78.37 120.218 77.89C119.954 77.41 119.822 76.828 119.822 76.144C119.822 75.364 120.044 74.662 120.488 74.038C120.932 73.402 121.556 72.91 122.36 72.562C123.164 72.202 124.082 72.022 125.114 72.022C126.038 72.022 126.932 72.154 127.796 72.418C128.672 72.67 129.356 73.006 129.848 73.426L128.804 75.82C128.24 75.424 127.646 75.124 127.022 74.92C126.398 74.704 125.774 74.596 125.15 74.596C124.538 74.596 124.046 74.716 123.674 74.956C123.302 75.184 123.116 75.496 123.116 75.892C123.116 76.108 123.182 76.288 123.314 76.432C123.446 76.576 123.692 76.72 124.052 76.864C124.412 76.996 124.952 77.14 125.672 77.296C126.836 77.548 127.748 77.854 128.408 78.214C129.08 78.562 129.554 78.976 129.83 79.456C130.106 79.924 130.244 80.488 130.244 81.148C130.244 82.396 129.758 83.38 128.786 84.1C127.814 84.808 126.446 85.162 124.682 85.162Z" fill="#F8F8F8"/>
<path d="M193.34 67.368V72.408L182.18 93H174.98L186.104 72.732H174.296V67.368H193.34ZM207.847 76.116C209.311 76.116 210.619 76.476 211.771 77.196C212.947 77.916 213.859 78.912 214.507 80.184C215.179 81.432 215.515 82.86 215.515 84.468C215.515 86.172 215.131 87.696 214.363 89.04C213.595 90.384 212.527 91.44 211.159 92.208C209.791 92.952 208.243 93.324 206.515 93.324C203.083 93.324 200.431 92.208 198.559 89.976C196.711 87.744 195.787 84.564 195.787 80.436C195.787 77.676 196.231 75.288 197.119 73.272C198.031 71.256 199.327 69.72 201.007 68.664C202.687 67.584 204.679 67.044 206.983 67.044C208.615 67.044 210.187 67.284 211.699 67.764C213.211 68.244 214.495 68.916 215.551 69.78L213.427 74.568C212.347 73.776 211.279 73.2 210.223 72.84C209.167 72.456 208.195 72.264 207.307 72.264C204.427 72.264 202.843 74.388 202.555 78.636C203.107 77.868 203.851 77.256 204.787 76.8C205.723 76.344 206.743 76.116 207.847 76.116ZM206.155 88.14C207.091 88.14 207.835 87.828 208.387 87.204C208.939 86.58 209.215 85.764 209.215 84.756C209.215 83.7 208.939 82.872 208.387 82.272C207.859 81.648 207.115 81.336 206.155 81.336C205.243 81.336 204.499 81.648 203.923 82.272C203.371 82.896 203.095 83.724 203.095 84.756C203.095 85.74 203.371 86.556 203.923 87.204C204.499 87.828 205.243 88.14 206.155 88.14Z" fill="#C824CB"/>
<path d="M183.096 275.636V281H165.312V275.636H170.82V262.712L165.672 265.664V259.868L173.592 255.368H177.552V275.636H183.096ZM203.975 275.636V281H185.903V276.032L194.255 267.32C195.815 265.688 196.595 264.164 196.595 262.748C196.595 261.092 195.611 260.264 193.643 260.264C192.635 260.264 191.567 260.468 190.439 260.876C189.335 261.26 188.219 261.824 187.091 262.568L184.967 257.78C185.999 256.94 187.331 256.28 188.963 255.8C190.619 255.296 192.299 255.044 194.003 255.044C195.851 255.044 197.459 255.344 198.827 255.944C200.219 256.52 201.287 257.36 202.031 258.464C202.799 259.544 203.183 260.816 203.183 262.28C203.183 263.768 202.883 265.124 202.283 266.348C201.707 267.548 200.711 268.904 199.295 270.416L194.183 275.636H203.975ZM221.468 267.788C223.1 268.22 224.372 268.964 225.284 270.02C226.196 271.076 226.652 272.384 226.652 273.944C226.652 275.456 226.22 276.764 225.356 277.868C224.492 278.972 223.292 279.824 221.756 280.424C220.244 281 218.504 281.288 216.536 281.288C214.568 281.288 212.816 281 211.28 280.424C209.768 279.824 208.58 278.972 207.716 277.868C206.852 276.764 206.42 275.456 206.42 273.944C206.42 272.36 206.876 271.04 207.788 269.984C208.7 268.904 209.984 268.16 211.64 267.752C210.224 267.272 209.108 266.54 208.292 265.556C207.476 264.548 207.068 263.372 207.068 262.028C207.068 260.612 207.476 259.376 208.292 258.32C209.132 257.264 210.26 256.46 211.676 255.908C213.116 255.332 214.736 255.044 216.536 255.044C218.336 255.044 219.944 255.332 221.36 255.908C222.8 256.46 223.928 257.264 224.744 258.32C225.584 259.376 226.004 260.612 226.004 262.028C226.004 263.396 225.584 264.596 224.744 265.628C223.928 266.636 222.836 267.356 221.468 267.788ZM216.536 260.12C215.6 260.12 214.832 260.348 214.232 260.804C213.656 261.236 213.368 261.908 213.368 262.82C213.368 264.404 214.424 265.46 216.536 265.988C218.648 265.46 219.704 264.404 219.704 262.82C219.704 261.908 219.404 261.236 218.804 260.804C218.228 260.348 217.472 260.12 216.536 260.12ZM216.536 276.212C217.688 276.212 218.624 275.972 219.344 275.492C220.064 275.012 220.424 274.316 220.424 273.404C220.424 272.516 220.076 271.796 219.38 271.244C218.684 270.692 217.736 270.308 216.536 270.092C215.336 270.308 214.388 270.692 213.692 271.244C212.996 271.796 212.648 272.516 212.648 273.404C212.648 274.316 213.008 275.012 213.728 275.492C214.448 275.972 215.384 276.212 216.536 276.212Z" fill="#F8F8F8"/>
<path d="M174.448 226.804H169.984L169.036 229H168.016L171.772 220.456H172.636L176.392 229H175.384L174.448 226.804ZM174.1 225.988L172.216 221.596L170.332 225.988H174.1ZM178.824 221.296H175.848V220.456H182.796V221.296H179.82V229H178.824V221.296ZM194.376 220.456V229H193.392V225.076H188.268V229H187.296V220.456H188.268V224.248H193.392V220.456H194.376ZM200.148 229.096C199.356 229.096 198.668 228.92 198.084 228.568C197.5 228.216 197.048 227.712 196.728 227.056C196.416 226.392 196.26 225.616 196.26 224.728C196.26 223.832 196.416 223.056 196.728 222.4C197.04 221.744 197.488 221.24 198.072 220.888C198.656 220.536 199.348 220.36 200.148 220.36C200.948 220.36 201.64 220.536 202.224 220.888C202.808 221.24 203.256 221.744 203.568 222.4C203.88 223.056 204.036 223.828 204.036 224.716C204.036 225.612 203.876 226.388 203.556 227.044C203.244 227.7 202.796 228.208 202.212 228.568C201.628 228.92 200.94 229.096 200.148 229.096ZM200.148 228.256C201.052 228.256 201.756 227.948 202.26 227.332C202.764 226.716 203.016 225.844 203.016 224.716C203.016 223.588 202.764 222.72 202.26 222.112C201.764 221.504 201.06 221.2 200.148 221.2C199.236 221.2 198.528 221.508 198.024 222.124C197.52 222.732 197.268 223.596 197.268 224.716C197.268 225.844 197.52 226.716 198.024 227.332C198.528 227.948 199.236 228.256 200.148 228.256ZM214.006 220.456V229H213.094V222.652L210.322 229H209.626L206.83 222.7L206.842 229H205.93V220.456H206.746L209.986 227.824L213.19 220.456H214.006ZM216.202 220.456H221.602V221.272H217.174V224.248H221.362V225.076H217.174V228.184H221.602V229H216.202V220.456Z" fill="#F8F8F8"/>
<rect x="163" y="129" width="64" height="64" rx="32" fill="#C824CB"/>
<path fill-rule="evenodd" clip-rule="evenodd" d="M198.334 177H207.667C208.034 177 208.334 176.701 208.334 176.333V159.667H210.334C210.611 159.667 210.861 159.494 210.958 159.234C211.055 158.973 210.979 158.681 210.771 158.497L205.667 154.06V145.667C205.667 145.299 205.367 145 205 145H199.667C199.3 145 199 145.299 199 145.667V148.263L195.437 145.164C195.187 144.945 194.813 144.945 194.563 145.164L179.229 158.497C179.02 158.681 178.945 158.973 179.042 159.234C179.14 159.495 179.389 159.667 179.666 159.667H181.666V176.333C181.666 176.701 181.965 177 182.333 177H191.667C192.035 177 192.333 176.701 192.333 176.333V167.667H197.667V176.333C197.667 176.701 197.967 177 198.334 177ZM207.001 175.667H199V167C199 166.632 198.7 166.334 198.334 166.334H191.667C191.299 166.334 191 166.632 191 167V175.667H183V159.001C183 158.633 182.701 158.334 182.333 158.334H181.449L195 146.552L199.23 150.232C199.427 150.401 199.708 150.442 199.944 150.333C200.183 150.225 200.334 149.988 200.332 149.726V146.335H204.332V153.638C204.299 153.668 204.267 153.7 204.239 153.736C204.015 154.016 204.051 154.422 204.322 154.658L208.551 158.334H207.667C207.301 158.334 207.001 158.633 207.001 159.001V175.667Z" fill="white"/>
<path d="M208.334 159.667V159.542H208.209V159.667H208.334ZM210.958 159.234L211.075 159.278L211.075 159.278L210.958 159.234ZM210.771 158.497L210.854 158.403L210.853 158.402L210.771 158.497ZM205.667 154.06H205.542V154.117L205.585 154.154L205.667 154.06ZM199 148.263L198.918 148.357L199.125 148.537V148.263H199ZM195.437 145.164L195.355 145.258L195.355 145.258L195.437 145.164ZM194.563 145.164L194.645 145.258L194.645 145.258L194.563 145.164ZM179.229 158.497L179.147 158.402L179.146 158.403L179.229 158.497ZM179.042 159.234L179.159 159.19L179.042 159.234ZM181.666 159.667H181.791V159.542H181.666V159.667ZM192.333 167.667V167.542H192.208V167.667H192.333ZM197.667 167.667H197.792V167.542H197.667V167.667ZM199 175.667H198.875V175.792H199V175.667ZM207.001 175.667V175.792H207.126V175.667H207.001ZM191 175.667V175.792H191.125V175.667H191ZM183 175.667H182.875V175.792H183V175.667ZM181.449 158.334L181.367 158.24L181.115 158.459H181.449V158.334ZM195 146.552L195.082 146.458L195 146.386L194.918 146.458L195 146.552ZM199.23 150.232L199.148 150.326L199.148 150.327L199.23 150.232ZM199.944 150.333L199.893 150.219L199.892 150.22L199.944 150.333ZM200.332 149.726H200.207L200.207 149.727L200.332 149.726ZM200.332 146.335V146.21H200.207V146.335H200.332ZM204.332 146.335H204.457V146.21H204.332V146.335ZM204.332 153.638L204.415 153.732L204.457 153.695V153.638H204.332ZM204.239 153.736L204.337 153.814L204.338 153.812L204.239 153.736ZM204.322 154.658L204.24 154.752L204.24 154.753L204.322 154.658ZM208.551 158.334V158.459H208.886L208.633 158.24L208.551 158.334ZM207.667 176.875H198.334V177.125H207.667V176.875ZM208.209 176.333C208.209 176.632 207.965 176.875 207.667 176.875V177.125C208.103 177.125 208.459 176.771 208.459 176.333H208.209ZM208.209 159.667V176.333H208.459V159.667H208.209ZM210.334 159.542H208.334V159.792H210.334V159.542ZM210.841 159.19C210.762 159.402 210.559 159.542 210.334 159.542V159.792C210.664 159.792 210.96 159.587 211.075 159.278L210.841 159.19ZM210.689 158.59C210.859 158.741 210.92 158.978 210.841 159.19L211.075 159.278C211.191 158.967 211.1 158.621 210.854 158.403L210.689 158.59ZM205.585 154.154L210.689 158.591L210.853 158.402L205.749 153.965L205.585 154.154ZM205.542 145.667V154.06H205.792V145.667H205.542ZM205 145.125C205.298 145.125 205.542 145.368 205.542 145.667H205.792C205.792 145.229 205.436 144.875 205 144.875V145.125ZM199.667 145.125H205V144.875H199.667V145.125ZM199.125 145.667C199.125 145.368 199.369 145.125 199.667 145.125V144.875C199.231 144.875 198.875 145.229 198.875 145.667H199.125ZM199.125 148.263V145.667H198.875V148.263H199.125ZM195.355 145.258L198.918 148.357L199.082 148.168L195.519 145.07L195.355 145.258ZM194.645 145.258C194.849 145.081 195.152 145.081 195.355 145.258L195.52 145.07C195.222 144.81 194.778 144.81 194.481 145.07L194.645 145.258ZM179.311 158.591L194.645 145.258L194.481 145.07L179.147 158.402L179.311 158.591ZM179.159 159.19C179.08 158.978 179.141 158.741 179.311 158.591L179.146 158.403C178.898 158.621 178.809 158.967 178.925 159.278L179.159 159.19ZM179.666 159.542C179.441 159.542 179.238 159.403 179.159 159.19L178.925 159.278C179.041 159.588 179.337 159.792 179.666 159.792V159.542ZM181.666 159.542H179.666V159.792H181.666V159.542ZM181.791 176.333V159.667H181.541V176.333H181.791ZM182.333 176.875C182.034 176.875 181.791 176.632 181.791 176.333H181.541C181.541 176.77 181.896 177.125 182.333 177.125V176.875ZM191.667 176.875H182.333V177.125H191.667V176.875ZM192.208 176.333C192.208 176.632 191.966 176.875 191.667 176.875V177.125C192.104 177.125 192.458 176.77 192.458 176.333H192.208ZM192.208 167.667V176.333H192.458V167.667H192.208ZM197.667 167.542H192.333V167.792H197.667V167.542ZM197.792 176.333V167.667H197.542V176.333H197.792ZM198.334 176.875C198.036 176.875 197.792 176.632 197.792 176.333H197.542C197.542 176.771 197.898 177.125 198.334 177.125V176.875ZM199 175.792H207.001V175.542H199V175.792ZM198.875 167V175.667H199.125V167H198.875ZM198.334 166.459C198.631 166.459 198.875 166.702 198.875 167H199.125C199.125 166.563 198.769 166.209 198.334 166.209V166.459ZM191.667 166.459H198.334V166.209H191.667V166.459ZM191.125 167C191.125 166.701 191.368 166.459 191.667 166.459V166.209C191.23 166.209 190.875 166.563 190.875 167H191.125ZM191.125 175.667V167H190.875V175.667H191.125ZM183 175.792H191V175.542H183V175.792ZM182.875 159.001V175.667H183.125V159.001H182.875ZM182.333 158.459C182.632 158.459 182.875 158.702 182.875 159.001H183.125C183.125 158.564 182.77 158.209 182.333 158.209V158.459ZM181.449 158.459H182.333V158.209H181.449V158.459ZM194.918 146.458L181.367 158.24L181.531 158.428L195.082 146.646L194.918 146.458ZM199.312 150.137L195.082 146.458L194.918 146.646L199.148 150.326L199.312 150.137ZM199.892 150.22C199.701 150.308 199.472 150.275 199.311 150.137L199.148 150.327C199.382 150.527 199.716 150.577 199.997 150.447L199.892 150.22ZM200.207 149.727C200.208 149.94 200.086 150.132 199.893 150.219L199.996 150.447C200.28 150.318 200.459 150.036 200.457 149.726L200.207 149.727ZM200.207 146.335V149.726H200.457V146.335H200.207ZM204.332 146.21H200.332V146.46H204.332V146.21ZM204.457 153.638V146.335H204.207V153.638H204.457ZM204.338 153.812C204.36 153.784 204.386 153.758 204.415 153.732L204.25 153.544C204.213 153.577 204.175 153.615 204.14 153.659L204.338 153.812ZM204.404 154.564C204.184 154.372 204.155 154.041 204.337 153.814L204.142 153.658C203.876 153.99 203.918 154.472 204.24 154.752L204.404 154.564ZM208.633 158.24L204.404 154.564L204.24 154.753L208.469 158.428L208.633 158.24ZM207.667 158.459H208.551V158.209H207.667V158.459ZM207.126 159.001C207.126 158.702 207.369 158.459 207.667 158.459V158.209C207.232 158.209 206.876 158.564 206.876 159.001H207.126ZM207.126 175.667V159.001H206.876V175.667H207.126Z" fill="white"/>
<path d="M279.096 87.636V93H261.312V87.636H266.82V74.712L261.672 77.664V71.868L269.592 67.368H273.552V87.636H279.096ZM290.651 93.324C287.483 93.324 285.047 92.196 283.343 89.94C281.663 87.684 280.823 84.42 280.823 80.148C280.823 75.948 281.663 72.732 283.343 70.5C285.047 68.244 287.483 67.116 290.651 67.116C293.819 67.116 296.243 68.244 297.923 70.5C299.627 72.732 300.479 75.948 300.479 80.148C300.479 84.42 299.627 87.684 297.923 89.94C296.243 92.196 293.819 93.324 290.651 93.324ZM290.651 88.248C291.803 88.248 292.631 87.624 293.135 86.376C293.639 85.104 293.891 83.028 293.891 80.148C293.891 77.34 293.639 75.312 293.135 74.064C292.631 72.816 291.803 72.192 290.651 72.192C289.499 72.192 288.671 72.816 288.167 74.064C287.663 75.312 287.411 77.34 287.411 80.148C287.411 83.028 287.663 85.104 288.167 86.376C288.671 87.624 289.499 88.248 290.651 88.248ZM311.601 67.044C315.033 67.044 317.673 68.16 319.521 70.392C321.393 72.624 322.329 75.804 322.329 79.932C322.329 82.692 321.885 85.08 320.997 87.096C320.109 89.112 318.825 90.66 317.145 91.74C315.465 92.796 313.473 93.324 311.169 93.324C309.537 93.324 307.965 93.084 306.453 92.604C304.941 92.124 303.657 91.452 302.601 90.588L304.725 85.8C306.861 87.336 308.901 88.104 310.845 88.104C313.725 88.104 315.309 85.98 315.597 81.732C315.045 82.524 314.301 83.148 313.365 83.604C312.429 84.036 311.397 84.252 310.269 84.252C308.805 84.252 307.485 83.892 306.309 83.172C305.157 82.452 304.245 81.468 303.573 80.22C302.925 78.948 302.601 77.508 302.601 75.9C302.601 74.196 302.985 72.672 303.753 71.328C304.521 69.984 305.589 68.94 306.957 68.196C308.325 67.428 309.873 67.044 311.601 67.044ZM311.997 79.032C312.909 79.032 313.641 78.72 314.193 78.096C314.769 77.472 315.057 76.644 315.057 75.612C315.057 74.628 314.769 73.824 314.193 73.2C313.617 72.552 312.885 72.228 311.997 72.228C311.061 72.228 310.317 72.54 309.765 73.164C309.213 73.788 308.937 74.604 308.937 75.612C308.937 76.668 309.201 77.508 309.729 78.132C310.281 78.732 311.037 79.032 311.997 79.032Z" fill="#C824CB"/>
<path d="M278.9 255.044C282.332 255.044 284.972 256.16 286.82 258.392C288.692 260.624 289.628 263.804 289.628 267.932C289.628 270.692 289.184 273.08 288.296 275.096C287.408 277.112 286.124 278.66 284.444 279.74C282.764 280.796 280.772 281.324 278.468 281.324C276.836 281.324 275.264 281.084 273.752 280.604C272.24 280.124 270.956 279.452 269.9 278.588L272.024 273.8C274.16 275.336 276.2 276.104 278.144 276.104C281.024 276.104 282.608 273.98 282.896 269.732C282.344 270.524 281.6 271.148 280.664 271.604C279.728 272.036 278.696 272.252 277.568 272.252C276.104 272.252 274.784 271.892 273.608 271.172C272.456 270.452 271.544 269.468 270.872 268.22C270.224 266.948 269.9 265.508 269.9 263.9C269.9 262.196 270.284 260.672 271.052 259.328C271.82 257.984 272.888 256.94 274.256 256.196C275.624 255.428 277.172 255.044 278.9 255.044ZM279.296 267.032C280.208 267.032 280.94 266.72 281.492 266.096C282.068 265.472 282.356 264.644 282.356 263.612C282.356 262.628 282.068 261.824 281.492 261.2C280.916 260.552 280.184 260.228 279.296 260.228C278.36 260.228 277.616 260.54 277.064 261.164C276.512 261.788 276.236 262.604 276.236 263.612C276.236 264.668 276.5 265.508 277.028 266.132C277.58 266.732 278.336 267.032 279.296 267.032ZM301.651 281.324C298.483 281.324 296.047 280.196 294.343 277.94C292.663 275.684 291.823 272.42 291.823 268.148C291.823 263.948 292.663 260.732 294.343 258.5C296.047 256.244 298.483 255.116 301.651 255.116C304.819 255.116 307.243 256.244 308.923 258.5C310.627 260.732 311.479 263.948 311.479 268.148C311.479 272.42 310.627 275.684 308.923 277.94C307.243 280.196 304.819 281.324 301.651 281.324ZM301.651 276.248C302.803 276.248 303.631 275.624 304.135 274.376C304.639 273.104 304.891 271.028 304.891 268.148C304.891 265.34 304.639 263.312 304.135 262.064C303.631 260.816 302.803 260.192 301.651 260.192C300.499 260.192 299.671 260.816 299.167 262.064C298.663 263.312 298.411 265.34 298.411 268.148C298.411 271.028 298.663 273.104 299.167 274.376C299.671 275.624 300.499 276.248 301.651 276.248Z" fill="#F8F8F8"/>
<path d="M258.048 220.456H259.032V229H258.048V220.456ZM268.082 220.456V229H267.314L262.154 222.124V229H261.23V220.456H261.986L267.146 227.332V220.456H268.082ZM275.552 221.296H272.576V220.456H279.524V221.296H276.548V229H275.552V221.296ZM287.515 229H286.471L285.415 226.156C285.287 225.804 285.107 225.568 284.875 225.448C284.651 225.328 284.331 225.268 283.915 225.268H281.779V229H280.807V220.456H284.203C285.123 220.456 285.827 220.66 286.315 221.068C286.811 221.476 287.059 222.064 287.059 222.832C287.059 223.392 286.911 223.864 286.615 224.248C286.327 224.624 285.907 224.892 285.355 225.052C285.603 225.092 285.815 225.2 285.991 225.376C286.167 225.544 286.315 225.788 286.435 226.108L287.515 229ZM284.119 224.452C285.431 224.452 286.087 223.916 286.087 222.844C286.087 222.316 285.927 221.924 285.607 221.668C285.287 221.404 284.791 221.272 284.119 221.272H281.779V224.452H284.119ZM294.737 226.804H290.273L289.325 229H288.305L292.061 220.456H292.925L296.681 229H295.673L294.737 226.804ZM294.389 225.988L292.505 221.596L290.621 225.988H294.389ZM304.898 220.456V229H304.13L298.97 222.124V229H298.046V220.456H298.802L303.962 227.332V220.456H304.898ZM309.799 229.096C308.463 229.096 307.399 228.736 306.607 228.016L306.979 227.26C307.403 227.62 307.835 227.876 308.275 228.028C308.715 228.18 309.227 228.256 309.811 228.256C310.499 228.256 311.027 228.124 311.395 227.86C311.771 227.588 311.959 227.208 311.959 226.72C311.959 226.432 311.867 226.2 311.683 226.024C311.507 225.84 311.271 225.696 310.975 225.592C310.687 225.488 310.299 225.38 309.811 225.268C309.155 225.124 308.615 224.968 308.191 224.8C307.767 224.632 307.423 224.392 307.159 224.08C306.895 223.76 306.763 223.344 306.763 222.832C306.763 222.344 306.891 221.916 307.147 221.548C307.403 221.172 307.763 220.88 308.227 220.672C308.699 220.464 309.247 220.36 309.871 220.36C310.463 220.36 311.015 220.452 311.527 220.636C312.039 220.82 312.471 221.088 312.823 221.44L312.439 222.196C312.039 221.852 311.631 221.6 311.215 221.44C310.807 221.28 310.359 221.2 309.871 221.2C309.207 221.2 308.687 221.344 308.311 221.632C307.935 221.912 307.747 222.3 307.747 222.796C307.747 223.228 307.911 223.552 308.239 223.768C308.567 223.984 309.071 224.172 309.751 224.332C310.487 224.508 311.063 224.672 311.479 224.824C311.903 224.968 312.255 225.192 312.535 225.496C312.815 225.792 312.955 226.188 312.955 226.684C312.955 227.164 312.827 227.588 312.571 227.956C312.315 228.316 311.947 228.596 311.467 228.796C310.995 228.996 310.439 229.096 309.799 229.096ZM314.652 220.456H315.636V229H314.652V220.456ZM319.898 221.296H316.922V220.456H323.87V221.296H320.894V229H319.898V221.296Z" fill="#F8F8F8"/>
<rect x="259" y="129" width="64" height="64" rx="32" fill="#C824CB"/>
<path fill-rule="evenodd" clip-rule="evenodd" d="M309 157.776V159.036C308.998 159.905 308.618 160.73 307.958 161.294L307.271 161.89L307.472 162.208C308.47 163.777 309 165.597 309 167.456V174.599C308.999 175.924 307.924 176.998 306.599 177H301.801C300.476 176.998 299.401 175.924 299.4 174.599V173H282.6V174.599C282.599 175.924 281.524 176.998 280.199 177H275.4C274.075 176.999 273.001 175.925 273 174.6V167.456C273 165.597 273.53 163.776 274.529 162.207L274.729 161.89L274.04 161.292C273.381 160.728 273.001 159.904 273 159.036V157.776C273 157.348 273.194 156.943 273.528 156.674C273.869 156.395 274.319 156.286 274.751 156.377L277.079 156.872L280.931 150.99C280.95 150.961 280.971 150.933 280.993 150.906C282.023 149.709 283.616 149.112 285.907 148.829L286.619 145.626C286.7 145.26 287.025 145 287.4 145H294.6C294.975 145 295.3 145.26 295.381 145.626L296.093 148.829C298.384 149.112 299.977 149.709 301.007 150.906C301.029 150.933 301.05 150.961 301.069 150.99L304.921 156.872L307.246 156.378C307.678 156.285 308.13 156.394 308.472 156.674C308.806 156.943 309 157.348 309 157.776ZM293.958 146.6H288.042L287.579 148.682C288.605 148.622 289.741 148.6 291 148.6C292.259 148.6 293.395 148.622 294.421 148.682L293.958 146.6ZM282.239 151.912C283.362 150.649 285.67 150.2 291 150.2C296.33 150.2 298.638 150.649 299.761 151.912L303.565 157.721L302.371 158.437C301.758 158.806 301.056 159 300.34 159H281.66C280.944 159 280.242 158.805 279.628 158.437L278.435 157.721L282.239 151.912ZM279.2 165.4H274.868C274.697 166.053 274.608 166.725 274.602 167.4H279.2C279.752 167.4 280.2 166.952 280.2 166.4C280.2 165.848 279.752 165.4 279.2 165.4ZM281 174.599C281 175.041 280.641 175.399 280.199 175.4H275.4C274.958 175.4 274.6 175.042 274.6 174.6V172.406C275.182 172.794 275.866 173 276.566 173H281V174.599ZM301.801 175.4H306.599C307.041 175.399 307.4 175.041 307.4 174.599V172.406C306.818 172.794 306.134 173 305.434 173H301V174.599C301 175.041 301.359 175.399 301.801 175.4ZM307.398 167.4H302.8C302.248 167.4 301.8 166.952 301.8 166.4C301.8 165.848 302.248 165.4 302.8 165.4H307.132C307.303 166.053 307.392 166.725 307.398 167.4ZM306.912 160.084C307.22 159.822 307.398 159.44 307.4 159.036V157.98L304.718 158.55C304.644 158.566 304.568 158.57 304.493 158.564L302.989 159.466C302.189 159.946 301.273 160.2 300.34 160.2H281.66C280.727 160.2 279.811 159.946 279.011 159.466L277.507 158.564C277.432 158.57 277.356 158.566 277.282 158.55L274.6 157.98V159.036C274.602 159.439 274.779 159.82 275.086 160.081L276.324 161.156C276.5 161.308 276.601 161.53 276.6 161.763C276.599 161.996 276.497 162.217 276.32 162.368L275.88 163.063C275.651 163.426 275.45 163.806 275.28 164.2H279.2C280.415 164.2 281.4 165.185 281.4 166.4C281.4 167.615 280.415 168.6 279.2 168.6H274.6V169.434C274.601 170.519 275.481 171.399 276.566 171.4H305.434C306.519 171.399 307.399 170.519 307.4 169.434V168.6H302.8C301.585 168.6 300.6 167.615 300.6 166.4C300.6 165.185 301.585 164.2 302.8 164.2H306.72C306.55 163.807 306.35 163.427 306.121 163.065L305.643 162.309C305.609 162.275 305.578 162.237 305.551 162.196C305.322 161.868 305.376 161.42 305.676 161.156L306.912 160.084Z" fill="white"/>
<path d="M374.096 87.636V93H356.312V87.636H361.82V74.712L356.672 77.664V71.868L364.592 67.368H368.552V87.636H374.096ZM390.223 79.788C391.711 80.22 392.851 80.976 393.643 82.056C394.459 83.136 394.867 84.456 394.867 86.016C394.867 87.504 394.459 88.8 393.643 89.904C392.851 90.984 391.699 91.824 390.187 92.424C388.675 93 386.911 93.288 384.895 93.288C383.095 93.288 381.343 93.048 379.639 92.568C377.959 92.064 376.615 91.392 375.607 90.552L377.731 85.764C379.963 87.3 382.243 88.068 384.571 88.068C386.011 88.068 387.031 87.864 387.631 87.456C388.231 87.024 388.531 86.304 388.531 85.296C388.531 84.336 388.231 83.652 387.631 83.244C387.055 82.836 386.083 82.632 384.715 82.632H380.719V77.448H384.031C385.375 77.448 386.335 77.268 386.911 76.908C387.511 76.524 387.811 75.912 387.811 75.072C387.811 74.16 387.523 73.464 386.947 72.984C386.395 72.504 385.615 72.264 384.607 72.264C383.575 72.264 382.483 72.468 381.331 72.876C380.203 73.26 379.123 73.824 378.091 74.568L375.967 69.78C376.999 68.964 378.343 68.304 379.999 67.8C381.679 67.296 383.371 67.044 385.075 67.044C386.899 67.044 388.495 67.332 389.863 67.908C391.231 68.484 392.287 69.312 393.031 70.392C393.799 71.448 394.183 72.684 394.183 74.1C394.207 75.444 393.871 76.608 393.175 77.592C392.479 78.576 391.495 79.308 390.223 79.788ZM407.501 93.324C404.333 93.324 401.897 92.196 400.193 89.94C398.513 87.684 397.673 84.42 397.673 80.148C397.673 75.948 398.513 72.732 400.193 70.5C401.897 68.244 404.333 67.116 407.501 67.116C410.669 67.116 413.093 68.244 414.773 70.5C416.477 72.732 417.329 75.948 417.329 80.148C417.329 84.42 416.477 87.684 414.773 89.94C413.093 92.196 410.669 93.324 407.501 93.324ZM407.501 88.248C408.653 88.248 409.481 87.624 409.985 86.376C410.489 85.104 410.741 83.028 410.741 80.148C410.741 77.34 410.489 75.312 409.985 74.064C409.481 72.816 408.653 72.192 407.501 72.192C406.349 72.192 405.521 72.816 405.017 74.064C404.513 75.312 404.261 77.34 404.261 80.148C404.261 83.028 404.513 85.104 405.017 86.376C405.521 87.624 406.349 88.248 407.501 88.248Z" fill="#C824CB"/>
<path d="M376.996 264.116C378.46 264.116 379.768 264.476 380.92 265.196C382.096 265.916 383.008 266.912 383.656 268.184C384.328 269.432 384.664 270.86 384.664 272.468C384.664 274.172 384.28 275.696 383.512 277.04C382.744 278.384 381.676 279.44 380.308 280.208C378.94 280.952 377.392 281.324 375.664 281.324C372.232 281.324 369.58 280.208 367.708 277.976C365.86 275.744 364.936 272.564 364.936 268.436C364.936 265.676 365.38 263.288 366.268 261.272C367.18 259.256 368.476 257.72 370.156 256.664C371.836 255.584 373.828 255.044 376.132 255.044C377.764 255.044 379.336 255.284 380.848 255.764C382.36 256.244 383.644 256.916 384.7 257.78L382.576 262.568C381.496 261.776 380.428 261.2 379.372 260.84C378.316 260.456 377.344 260.264 376.456 260.264C373.576 260.264 371.992 262.388 371.704 266.636C372.256 265.868 373 265.256 373.936 264.8C374.872 264.344 375.892 264.116 376.996 264.116ZM375.304 276.14C376.24 276.14 376.984 275.828 377.536 275.204C378.088 274.58 378.364 273.764 378.364 272.756C378.364 271.7 378.088 270.872 377.536 270.272C377.008 269.648 376.264 269.336 375.304 269.336C374.392 269.336 373.648 269.648 373.072 270.272C372.52 270.896 372.244 271.724 372.244 272.756C372.244 273.74 372.52 274.556 373.072 275.204C373.648 275.828 374.392 276.14 375.304 276.14ZM395.751 255.044C399.183 255.044 401.823 256.16 403.671 258.392C405.543 260.624 406.479 263.804 406.479 267.932C406.479 270.692 406.035 273.08 405.147 275.096C404.259 277.112 402.975 278.66 401.295 279.74C399.615 280.796 397.623 281.324 395.319 281.324C393.687 281.324 392.115 281.084 390.603 280.604C389.091 280.124 387.807 279.452 386.751 278.588L388.875 273.8C391.011 275.336 393.051 276.104 394.995 276.104C397.875 276.104 399.459 273.98 399.747 269.732C399.195 270.524 398.451 271.148 397.515 271.604C396.579 272.036 395.547 272.252 394.419 272.252C392.955 272.252 391.635 271.892 390.459 271.172C389.307 270.452 388.395 269.468 387.723 268.22C387.075 266.948 386.751 265.508 386.751 263.9C386.751 262.196 387.135 260.672 387.903 259.328C388.671 257.984 389.739 256.94 391.107 256.196C392.475 255.428 394.023 255.044 395.751 255.044ZM396.147 267.032C397.059 267.032 397.791 266.72 398.343 266.096C398.919 265.472 399.207 264.644 399.207 263.612C399.207 262.628 398.919 261.824 398.343 261.2C397.767 260.552 397.035 260.228 396.147 260.228C395.211 260.228 394.467 260.54 393.915 261.164C393.363 261.788 393.087 262.604 393.087 263.612C393.087 264.668 393.351 265.508 393.879 266.132C394.431 266.732 395.187 267.032 396.147 267.032Z" fill="#F8F8F8"/>
<path d="M364.118 226.804H359.654L358.706 229H357.686L361.442 220.456H362.306L366.062 229H365.054L364.118 226.804ZM363.77 225.988L361.886 221.596L360.002 225.988H363.77ZM368.494 221.296H365.518V220.456H372.466V221.296H369.49V229H368.494V221.296ZM388.846 220.456L385.858 229H385.018L382.582 222.004L380.134 229H379.306L376.306 220.456H377.314L379.738 227.596L382.222 220.456L382.978 220.468L385.426 227.62L387.874 220.456H388.846ZM393.791 229.096C392.999 229.096 392.311 228.92 391.727 228.568C391.143 228.216 390.691 227.712 390.371 227.056C390.059 226.392 389.903 225.616 389.903 224.728C389.903 223.832 390.059 223.056 390.371 222.4C390.683 221.744 391.131 221.24 391.715 220.888C392.299 220.536 392.991 220.36 393.791 220.36C394.591 220.36 395.283 220.536 395.867 220.888C396.451 221.24 396.899 221.744 397.211 222.4C397.523 223.056 397.679 223.828 397.679 224.716C397.679 225.612 397.519 226.388 397.199 227.044C396.887 227.7 396.439 228.208 395.855 228.568C395.271 228.92 394.583 229.096 393.791 229.096ZM393.791 228.256C394.695 228.256 395.399 227.948 395.903 227.332C396.407 226.716 396.659 225.844 396.659 224.716C396.659 223.588 396.407 222.72 395.903 222.112C395.407 221.504 394.703 221.2 393.791 221.2C392.879 221.2 392.171 221.508 391.667 222.124C391.163 222.732 390.911 223.596 390.911 224.716C390.911 225.844 391.163 226.716 391.667 227.332C392.171 227.948 392.879 228.256 393.791 228.256ZM406.28 229H405.236L404.18 226.156C404.052 225.804 403.872 225.568 403.64 225.448C403.416 225.328 403.096 225.268 402.68 225.268H400.544V229H399.572V220.456H402.968C403.888 220.456 404.592 220.66 405.08 221.068C405.576 221.476 405.824 222.064 405.824 222.832C405.824 223.392 405.676 223.864 405.38 224.248C405.092 224.624 404.672 224.892 404.12 225.052C404.368 225.092 404.58 225.2 404.756 225.376C404.932 225.544 405.08 225.788 405.2 226.108L406.28 229ZM402.884 224.452C404.196 224.452 404.852 223.916 404.852 222.844C404.852 222.316 404.692 221.924 404.372 221.668C404.052 221.404 403.556 221.272 402.884 221.272H400.544V224.452H402.884ZM413.369 229L408.965 224.932V229H407.981V220.456H408.965V224.38L413.165 220.456H414.425L409.961 224.62L414.653 229H413.369Z" fill="#F8F8F8"/>
<rect x="354" y="129" width="64" height="64" rx="32" fill="#C824CB"/>
<path fill-rule="evenodd" clip-rule="evenodd" d="M401.111 152.556H392.222V149.889C392.222 149.391 391.831 149 391.333 149H380.667C380.169 149 379.778 149.391 379.778 149.889V152.556H370.889C370.391 152.556 370 152.947 370 153.444V171.222C370 171.72 370.391 172.111 370.889 172.111H401.111C401.609 172.111 402 171.72 402 171.222V153.444C402 152.947 401.609 152.556 401.111 152.556ZM381.556 150.778H390.444V152.556H381.556V150.778ZM371.778 170.333H400.222V159.56C399.084 160.733 397.52 161.444 395.778 161.444H388.667V162.333C388.667 162.831 388.276 163.222 387.778 163.222H384.222C383.724 163.222 383.333 162.831 383.333 162.333V161.444H376.222C374.48 161.444 372.916 160.733 371.778 159.56V170.333ZM385.111 161.444V159.667H386.889V161.444H385.111ZM395.778 159.667C398.231 159.667 400.222 157.676 400.222 155.222V154.333H371.778V155.222C371.778 157.676 373.769 159.667 376.222 159.667H383.333V158.778C383.333 158.28 383.724 157.889 384.222 157.889H387.778C388.276 157.889 388.667 158.28 388.667 158.778V159.667H395.778Z" fill="white"/>
<path d="M392.222 152.556H392.097V152.681H392.222V152.556ZM379.778 152.556V152.681H379.903V152.556H379.778ZM390.444 150.778H390.569V150.653H390.444V150.778ZM381.556 150.778V150.653H381.431V150.778H381.556ZM390.444 152.556V152.681H390.569V152.556H390.444ZM381.556 152.556H381.431V152.681H381.556V152.556ZM400.222 170.333V170.458H400.347V170.333H400.222ZM371.778 170.333H371.653V170.458H371.778V170.333ZM400.222 159.56H400.347V159.252L400.132 159.473L400.222 159.56ZM388.667 161.444V161.319H388.542V161.444H388.667ZM383.333 161.444H383.458V161.319H383.333V161.444ZM371.778 159.56L371.868 159.473L371.653 159.252V159.56H371.778ZM385.111 159.667V159.542H384.986V159.667H385.111ZM385.111 161.444H384.986V161.569H385.111V161.444ZM386.889 159.667H387.014V159.542H386.889V159.667ZM386.889 161.444V161.569H387.014V161.444H386.889ZM400.222 154.333H400.347V154.208H400.222V154.333ZM371.778 154.333V154.208H371.653V154.333H371.778ZM383.333 159.667V159.792H383.458V159.667H383.333ZM388.667 159.667H388.542V159.792H388.667V159.667ZM392.222 152.681H401.111V152.431H392.222V152.681ZM392.097 149.889V152.556H392.347V149.889H392.097ZM391.333 149.125C391.762 149.125 392.097 149.46 392.097 149.889H392.347C392.347 149.322 391.9 148.875 391.333 148.875V149.125ZM380.667 149.125H391.333V148.875H380.667V149.125ZM379.903 149.889C379.903 149.46 380.238 149.125 380.667 149.125V148.875C380.1 148.875 379.653 149.322 379.653 149.889H379.903ZM379.903 152.556V149.889H379.653V152.556H379.903ZM370.889 152.681H379.778V152.431H370.889V152.681ZM370.125 153.444C370.125 153.016 370.46 152.681 370.889 152.681V152.431C370.322 152.431 369.875 152.878 369.875 153.444H370.125ZM370.125 171.222V153.444H369.875V171.222H370.125ZM370.889 171.986C370.46 171.986 370.125 171.651 370.125 171.222H369.875C369.875 171.789 370.322 172.236 370.889 172.236V171.986ZM401.111 171.986H370.889V172.236H401.111V171.986ZM401.875 171.222C401.875 171.651 401.54 171.986 401.111 171.986V172.236C401.678 172.236 402.125 171.789 402.125 171.222H401.875ZM401.875 153.444V171.222H402.125V153.444H401.875ZM401.111 152.681C401.54 152.681 401.875 153.016 401.875 153.444H402.125C402.125 152.878 401.678 152.431 401.111 152.431V152.681ZM390.444 150.653H381.556V150.903H390.444V150.653ZM390.569 152.556V150.778H390.319V152.556H390.569ZM381.556 152.681H390.444V152.431H381.556V152.681ZM381.431 150.778V152.556H381.681V150.778H381.431ZM400.222 170.208H371.778V170.458H400.222V170.208ZM400.097 159.56V170.333H400.347V159.56H400.097ZM395.778 161.569C397.555 161.569 399.152 160.844 400.312 159.647L400.132 159.473C399.017 160.623 397.485 161.319 395.778 161.319V161.569ZM388.667 161.569H395.778V161.319H388.667V161.569ZM388.792 162.333V161.444H388.542V162.333H388.792ZM387.778 163.347C388.345 163.347 388.792 162.9 388.792 162.333H388.542C388.542 162.762 388.207 163.097 387.778 163.097V163.347ZM384.222 163.347H387.778V163.097H384.222V163.347ZM383.208 162.333C383.208 162.9 383.655 163.347 384.222 163.347V163.097C383.793 163.097 383.458 162.762 383.458 162.333H383.208ZM383.208 161.444V162.333H383.458V161.444H383.208ZM376.222 161.569H383.333V161.319H376.222V161.569ZM371.688 159.647C372.848 160.844 374.445 161.569 376.222 161.569V161.319C374.515 161.319 372.983 160.623 371.868 159.473L371.688 159.647ZM371.903 170.333V159.56H371.653V170.333H371.903ZM384.986 159.667V161.444H385.236V159.667H384.986ZM386.889 159.542H385.111V159.792H386.889V159.542ZM387.014 161.444V159.667H386.764V161.444H387.014ZM385.111 161.569H386.889V161.319H385.111V161.569ZM400.097 155.222C400.097 157.607 398.162 159.542 395.778 159.542V159.792C398.3 159.792 400.347 157.745 400.347 155.222H400.097ZM400.097 154.333V155.222H400.347V154.333H400.097ZM371.778 154.458H400.222V154.208H371.778V154.458ZM371.903 155.222V154.333H371.653V155.222H371.903ZM376.222 159.542C373.838 159.542 371.903 157.607 371.903 155.222H371.653C371.653 157.745 373.7 159.792 376.222 159.792V159.542ZM383.333 159.542H376.222V159.792H383.333V159.542ZM383.208 158.778V159.667H383.458V158.778H383.208ZM384.222 157.764C383.655 157.764 383.208 158.211 383.208 158.778H383.458C383.458 158.349 383.793 158.014 384.222 158.014V157.764ZM387.778 157.764H384.222V158.014H387.778V157.764ZM388.792 158.778C388.792 158.211 388.345 157.764 387.778 157.764V158.014C388.207 158.014 388.542 158.349 388.542 158.778H388.792ZM388.792 159.667V158.778H388.542V159.667H388.792ZM395.778 159.542H388.667V159.792H395.778V159.542Z" fill="#C824CB"/>
<path d="M468.096 87.636V93H450.312V87.636H455.82V74.712L450.672 77.664V71.868L458.592 67.368H462.552V87.636H468.096ZM479.651 93.324C476.483 93.324 474.047 92.196 472.343 89.94C470.663 87.684 469.823 84.42 469.823 80.148C469.823 75.948 470.663 72.732 472.343 70.5C474.047 68.244 476.483 67.116 479.651 67.116C482.819 67.116 485.243 68.244 486.923 70.5C488.627 72.732 489.479 75.948 489.479 80.148C489.479 84.42 488.627 87.684 486.923 89.94C485.243 92.196 482.819 93.324 479.651 93.324ZM479.651 88.248C480.803 88.248 481.631 87.624 482.135 86.376C482.639 85.104 482.891 83.028 482.891 80.148C482.891 77.34 482.639 75.312 482.135 74.064C481.631 72.816 480.803 72.192 479.651 72.192C478.499 72.192 477.671 72.816 477.167 74.064C476.663 75.312 476.411 77.34 476.411 80.148C476.411 83.028 476.663 85.104 477.167 86.376C477.671 87.624 478.499 88.248 479.651 88.248ZM506.433 79.788C508.065 80.22 509.337 80.964 510.249 82.02C511.161 83.076 511.617 84.384 511.617 85.944C511.617 87.456 511.185 88.764 510.321 89.868C509.457 90.972 508.257 91.824 506.721 92.424C505.209 93 503.469 93.288 501.501 93.288C499.533 93.288 497.781 93 496.245 92.424C494.733 91.824 493.545 90.972 492.681 89.868C491.817 88.764 491.385 87.456 491.385 85.944C491.385 84.36 491.841 83.04 492.753 81.984C493.665 80.904 494.949 80.16 496.605 79.752C495.189 79.272 494.073 78.54 493.257 77.556C492.441 76.548 492.033 75.372 492.033 74.028C492.033 72.612 492.441 71.376 493.257 70.32C494.097 69.264 495.225 68.46 496.641 67.908C498.081 67.332 499.701 67.044 501.501 67.044C503.301 67.044 504.909 67.332 506.325 67.908C507.765 68.46 508.893 69.264 509.709 70.32C510.549 71.376 510.969 72.612 510.969 74.028C510.969 75.396 510.549 76.596 509.709 77.628C508.893 78.636 507.801 79.356 506.433 79.788ZM501.501 72.12C500.565 72.12 499.797 72.348 499.197 72.804C498.621 73.236 498.333 73.908 498.333 74.82C498.333 76.404 499.389 77.46 501.501 77.988C503.613 77.46 504.669 76.404 504.669 74.82C504.669 73.908 504.369 73.236 503.769 72.804C503.193 72.348 502.437 72.12 501.501 72.12ZM501.501 88.212C502.653 88.212 503.589 87.972 504.309 87.492C505.029 87.012 505.389 86.316 505.389 85.404C505.389 84.516 505.041 83.796 504.345 83.244C503.649 82.692 502.701 82.308 501.501 82.092C500.301 82.308 499.353 82.692 498.657 83.244C497.961 83.796 497.613 84.516 497.613 85.404C497.613 86.316 497.973 87.012 498.693 87.492C499.413 87.972 500.349 88.212 501.501 88.212Z" fill="#C824CB"/>
<path d="M473.732 267.788C475.364 268.22 476.636 268.964 477.548 270.02C478.46 271.076 478.916 272.384 478.916 273.944C478.916 275.456 478.484 276.764 477.62 277.868C476.756 278.972 475.556 279.824 474.02 280.424C472.508 281 470.768 281.288 468.8 281.288C466.832 281.288 465.08 281 463.544 280.424C462.032 279.824 460.844 278.972 459.98 277.868C459.116 276.764 458.684 275.456 458.684 273.944C458.684 272.36 459.14 271.04 460.052 269.984C460.964 268.904 462.248 268.16 463.904 267.752C462.488 267.272 461.372 266.54 460.556 265.556C459.74 264.548 459.332 263.372 459.332 262.028C459.332 260.612 459.74 259.376 460.556 258.32C461.396 257.264 462.524 256.46 463.94 255.908C465.38 255.332 467 255.044 468.8 255.044C470.6 255.044 472.208 255.332 473.624 255.908C475.064 256.46 476.192 257.264 477.008 258.32C477.848 259.376 478.268 260.612 478.268 262.028C478.268 263.396 477.848 264.596 477.008 265.628C476.192 266.636 475.1 267.356 473.732 267.788ZM468.8 260.12C467.864 260.12 467.096 260.348 466.496 260.804C465.92 261.236 465.632 261.908 465.632 262.82C465.632 264.404 466.688 265.46 468.8 265.988C470.912 265.46 471.968 264.404 471.968 262.82C471.968 261.908 471.668 261.236 471.068 260.804C470.492 260.348 469.736 260.12 468.8 260.12ZM468.8 276.212C469.952 276.212 470.888 275.972 471.608 275.492C472.328 275.012 472.688 274.316 472.688 273.404C472.688 272.516 472.34 271.796 471.644 271.244C470.948 270.692 470 270.308 468.8 270.092C467.6 270.308 466.652 270.692 465.956 271.244C465.26 271.796 464.912 272.516 464.912 273.404C464.912 274.316 465.272 275.012 465.992 275.492C466.712 275.972 467.648 276.212 468.8 276.212ZM500.947 275.636V281H483.163V275.636H488.671V262.712L483.523 265.664V259.868L491.443 255.368H495.403V275.636H500.947Z" fill="#F8F8F8"/>
<path d="M464.188 229.096C463.396 229.096 462.708 228.92 462.124 228.568C461.54 228.216 461.088 227.712 460.768 227.056C460.456 226.392 460.3 225.616 460.3 224.728C460.3 223.832 460.456 223.056 460.768 222.4C461.08 221.744 461.528 221.24 462.112 220.888C462.696 220.536 463.388 220.36 464.188 220.36C464.988 220.36 465.68 220.536 466.264 220.888C466.848 221.24 467.296 221.744 467.608 222.4C467.92 223.056 468.076 223.828 468.076 224.716C468.076 225.612 467.916 226.388 467.596 227.044C467.284 227.7 466.836 228.208 466.252 228.568C465.668 228.92 464.98 229.096 464.188 229.096ZM464.188 228.256C465.092 228.256 465.796 227.948 466.3 227.332C466.804 226.716 467.056 225.844 467.056 224.716C467.056 223.588 466.804 222.72 466.3 222.112C465.804 221.504 465.1 221.2 464.188 221.2C463.276 221.2 462.568 221.508 462.064 222.124C461.56 222.732 461.308 223.596 461.308 224.716C461.308 225.844 461.56 226.716 462.064 227.332C462.568 227.948 463.276 228.256 464.188 228.256ZM471.506 221.296H468.53V220.456H475.478V221.296H472.502V229H471.506V221.296ZM483.841 220.456V229H482.857V225.076H477.733V229H476.761V220.456H477.733V224.248H482.857V220.456H483.841ZM486.037 220.456H491.437V221.272H487.009V224.248H491.197V225.076H487.009V228.184H491.437V229H486.037V220.456ZM499.888 229H498.844L497.788 226.156C497.66 225.804 497.48 225.568 497.248 225.448C497.024 225.328 496.704 225.268 496.288 225.268H494.152V229H493.18V220.456H496.576C497.496 220.456 498.2 220.66 498.688 221.068C499.184 221.476 499.432 222.064 499.432 222.832C499.432 223.392 499.284 223.864 498.988 224.248C498.7 224.624 498.28 224.892 497.728 225.052C497.976 225.092 498.188 225.2 498.364 225.376C498.54 225.544 498.688 225.788 498.808 226.108L499.888 229ZM496.492 224.452C497.804 224.452 498.46 223.916 498.46 222.844C498.46 222.316 498.3 221.924 497.98 221.668C497.66 221.404 497.164 221.272 496.492 221.272H494.152V224.452H496.492Z" fill="#F8F8F8"/>
<rect x="448" y="129" width="64" height="64" rx="32" fill="#C824CB"/>
<path fill-rule="evenodd" clip-rule="evenodd" d="M493.645 157.508H494.545C495.347 157.508 495.999 158.243 496 159.148V161.71C496 162.615 495.348 163.351 494.545 163.351H493.646V166.204C493.646 166.739 493.26 167.174 492.785 167.174H490.535V167.997C490.535 168.612 490.091 169.112 489.546 169.112H486.132C485.587 169.112 485.144 168.612 485.144 167.997V163.767H474.856V167.997C474.856 168.612 474.413 169.112 473.868 169.112H470.454C469.909 169.112 469.465 168.612 469.465 167.997V167.174H467.214C466.74 167.174 466.354 166.739 466.354 166.204V163.351H465.454C464.652 163.351 464 162.615 464 161.71V159.148C464 158.244 464.652 157.508 465.454 157.508H466.354V154.908C466.354 154.373 466.739 153.937 467.214 153.937H469.465V153.115C469.465 152.5 469.908 152 470.454 152H473.867C474.412 152 474.856 152.5 474.856 153.115V157.345H485.143V153.115C485.143 152.5 485.587 152 486.132 152H489.545C490.09 152 490.534 152.5 490.534 153.115V153.937H492.785C493.259 153.937 493.645 154.373 493.645 154.908V157.508ZM465.454 162.182H466.354V158.676H465.454C465.223 158.676 465.036 158.888 465.036 159.148V161.71C465.036 161.971 465.223 162.182 465.454 162.182ZM467.389 166.006V155.106H469.465V157.345V163.767V166.006H467.389ZM470.502 167.943H473.82V153.168H470.502V154.908V158.514V162.599V166.204V167.943ZM485.144 162.599H474.856V158.514H485.144V162.599ZM486.179 167.943H489.498V166.204V154.909V153.169H486.179V167.943ZM492.609 166.006H490.534V155.106H492.609V166.006ZM494.545 162.182C494.776 162.182 494.964 161.971 494.964 161.71V159.148C494.964 158.888 494.776 158.676 494.545 158.676H493.646V162.182H494.545Z" fill="white"/>
<path d="M493.645 157.508H493.52V157.633H493.645V157.508ZM496 159.148H496.125V159.148L496 159.148ZM493.646 163.351V163.226H493.521V163.351H493.646ZM490.535 167.174V167.049H490.41V167.174H490.535ZM485.144 163.767H485.269V163.642H485.144V163.767ZM474.856 163.767V163.642H474.731V163.767H474.856ZM469.465 167.174H469.59V167.049H469.465V167.174ZM466.354 163.351H466.479V163.226H466.354V163.351ZM466.354 157.508V157.633H466.479V157.508H466.354ZM469.465 153.937V154.062H469.59V153.937H469.465ZM474.856 157.345H474.731V157.47H474.856V157.345ZM485.143 157.345V157.47H485.268V157.345H485.143ZM490.534 153.937H490.409V154.062H490.534V153.937ZM466.354 162.182V162.307H466.479V162.182H466.354ZM466.354 158.676H466.479V158.551H466.354V158.676ZM467.389 155.106V154.981H467.264V155.106H467.389ZM467.389 166.006H467.264V166.131H467.389V166.006ZM469.465 155.106H469.59V154.981H469.465V155.106ZM469.465 166.006V166.131H469.59V166.006H469.465ZM473.82 167.943V168.068H473.945V167.943H473.82ZM470.502 167.943H470.377V168.068H470.502V167.943ZM473.82 153.168H473.945V153.043H473.82V153.168ZM470.502 153.168V153.043H470.377V153.168H470.502ZM474.856 162.599H474.731V162.724H474.856V162.599ZM485.144 162.599V162.724H485.269V162.599H485.144ZM474.856 158.514V158.389H474.731V158.514H474.856ZM485.144 158.514H485.269V158.389H485.144V158.514ZM489.498 167.943V168.068H489.623V167.943H489.498ZM486.179 167.943H486.054V168.068H486.179V167.943ZM489.498 153.169H489.623V153.044H489.498V153.169ZM486.179 153.169V153.044H486.054V153.169H486.179ZM490.534 166.006H490.409V166.131H490.534V166.006ZM492.609 166.006V166.131H492.734V166.006H492.609ZM490.534 155.106V154.981H490.409V155.106H490.534ZM492.609 155.106H492.734V154.981H492.609V155.106ZM493.646 158.676V158.551H493.521V158.676H493.646ZM493.646 162.182H493.521V162.307H493.646V162.182ZM494.545 157.383H493.645V157.633H494.545V157.383ZM496.125 159.148C496.124 158.189 495.43 157.383 494.545 157.383V157.633C495.264 157.633 495.874 158.298 495.875 159.148L496.125 159.148ZM496.125 161.71V159.148H495.875V161.71H496.125ZM494.545 163.476C495.43 163.476 496.125 162.669 496.125 161.71H495.875C495.875 162.56 495.265 163.226 494.545 163.226V163.476ZM493.646 163.476H494.545V163.226H493.646V163.476ZM493.771 166.204V163.351H493.521V166.204H493.771ZM492.785 167.299C493.343 167.299 493.771 166.794 493.771 166.204H493.521C493.521 166.685 493.177 167.049 492.785 167.049V167.299ZM490.535 167.299H492.785V167.049H490.535V167.299ZM490.66 167.997V167.174H490.41V167.997H490.66ZM489.546 169.237C490.174 169.237 490.66 168.666 490.66 167.997H490.41C490.41 168.557 490.008 168.987 489.546 168.987V169.237ZM486.132 169.237H489.546V168.987H486.132V169.237ZM485.019 167.997C485.019 168.666 485.505 169.237 486.132 169.237V168.987C485.67 168.987 485.269 168.557 485.269 167.997H485.019ZM485.019 163.767V167.997H485.269V163.767H485.019ZM474.856 163.892H485.144V163.642H474.856V163.892ZM474.981 167.997V163.767H474.731V167.997H474.981ZM473.868 169.237C474.495 169.237 474.981 168.666 474.981 167.997H474.731C474.731 168.557 474.33 168.987 473.868 168.987V169.237ZM470.454 169.237H473.868V168.987H470.454V169.237ZM469.34 167.997C469.34 168.666 469.826 169.237 470.454 169.237V168.987C469.992 168.987 469.59 168.557 469.59 167.997H469.34ZM469.34 167.174V167.997H469.59V167.174H469.34ZM467.214 167.299H469.465V167.049H467.214V167.299ZM466.229 166.204C466.229 166.794 466.657 167.299 467.214 167.299V167.049C466.823 167.049 466.479 166.685 466.479 166.204H466.229ZM466.229 163.351V166.204H466.479V163.351H466.229ZM465.454 163.476H466.354V163.226H465.454V163.476ZM463.875 161.71C463.875 162.669 464.57 163.476 465.454 163.476V163.226C464.735 163.226 464.125 162.56 464.125 161.71H463.875ZM463.875 159.148V161.71H464.125V159.148H463.875ZM465.454 157.383C464.569 157.383 463.875 158.189 463.875 159.148H464.125C464.125 158.298 464.735 157.633 465.454 157.633V157.383ZM466.354 157.383H465.454V157.633H466.354V157.383ZM466.229 154.908V157.508H466.479V154.908H466.229ZM467.214 153.812C466.657 153.812 466.229 154.319 466.229 154.908H466.479C466.479 154.428 466.822 154.062 467.214 154.062V153.812ZM469.465 153.812H467.214V154.062H469.465V153.812ZM469.34 153.115V153.937H469.59V153.115H469.34ZM470.454 151.875C469.826 151.875 469.34 152.446 469.34 153.115H469.59C469.59 152.555 469.991 152.125 470.454 152.125V151.875ZM473.867 151.875H470.454V152.125H473.867V151.875ZM474.981 153.115C474.981 152.445 474.495 151.875 473.867 151.875V152.125C474.329 152.125 474.731 152.554 474.731 153.115H474.981ZM474.981 157.345V153.115H474.731V157.345H474.981ZM485.143 157.22H474.856V157.47H485.143V157.22ZM485.018 153.115V157.345H485.268V153.115H485.018ZM486.132 151.875C485.504 151.875 485.018 152.446 485.018 153.115H485.268C485.268 152.555 485.669 152.125 486.132 152.125V151.875ZM489.545 151.875H486.132V152.125H489.545V151.875ZM490.659 153.115C490.659 152.445 490.173 151.875 489.545 151.875V152.125C490.008 152.125 490.409 152.554 490.409 153.115H490.659ZM490.659 153.937V153.115H490.409V153.937H490.659ZM492.785 153.812H490.534V154.062H492.785V153.812ZM493.77 154.908C493.77 154.319 493.342 153.812 492.785 153.812V154.062C493.176 154.062 493.52 154.427 493.52 154.908H493.77ZM493.77 157.508V154.908H493.52V157.508H493.77ZM466.354 162.057H465.454V162.307H466.354V162.057ZM466.229 158.676V162.182H466.479V158.676H466.229ZM465.454 158.801H466.354V158.551H465.454V158.801ZM465.161 159.148C465.161 158.942 465.306 158.801 465.454 158.801V158.551C465.141 158.551 464.911 158.833 464.911 159.148H465.161ZM465.161 161.71V159.148H464.911V161.71H465.161ZM465.454 162.057C465.306 162.057 465.161 161.916 465.161 161.71H464.911C464.911 162.025 465.141 162.307 465.454 162.307V162.057ZM467.264 155.106V166.006H467.514V155.106H467.264ZM469.465 154.981H467.389V155.231H469.465V154.981ZM469.59 157.345V155.106H469.34V157.345H469.59ZM469.59 163.767V157.345H469.34V163.767H469.59ZM469.59 166.006V163.767H469.34V166.006H469.59ZM467.389 166.131H469.465V165.881H467.389V166.131ZM473.82 167.818H470.502V168.068H473.82V167.818ZM473.695 153.168V167.943H473.945V153.168H473.695ZM470.502 153.293H473.82V153.043H470.502V153.293ZM470.627 154.908V153.168H470.377V154.908H470.627ZM470.627 158.514V154.908H470.377V158.514H470.627ZM470.627 162.599V158.514H470.377V162.599H470.627ZM470.627 166.204V162.599H470.377V166.204H470.627ZM470.627 167.943V166.204H470.377V167.943H470.627ZM474.856 162.724H485.144V162.474H474.856V162.724ZM474.731 158.514V162.599H474.981V158.514H474.731ZM485.144 158.389H474.856V158.639H485.144V158.389ZM485.269 162.599V158.514H485.019V162.599H485.269ZM489.498 167.818H486.179V168.068H489.498V167.818ZM489.373 166.204V167.943H489.623V166.204H489.373ZM489.373 154.909V166.204H489.623V154.909H489.373ZM489.373 153.169V154.909H489.623V153.169H489.373ZM486.179 153.294H489.498V153.044H486.179V153.294ZM486.304 167.943V153.169H486.054V167.943H486.304ZM490.534 166.131H492.609V165.881H490.534V166.131ZM490.409 155.106V166.006H490.659V155.106H490.409ZM492.609 154.981H490.534V155.231H492.609V154.981ZM492.734 166.006V155.106H492.484V166.006H492.734ZM494.839 161.71C494.839 161.916 494.693 162.057 494.545 162.057V162.307C494.859 162.307 495.089 162.025 495.089 161.71H494.839ZM494.839 159.148V161.71H495.089V159.148H494.839ZM494.545 158.801C494.693 158.801 494.839 158.942 494.839 159.148H495.089C495.089 158.833 494.859 158.551 494.545 158.551V158.801ZM493.646 158.801H494.545V158.551H493.646V158.801ZM493.771 162.182V158.676H493.521V162.182H493.771ZM494.545 162.057H493.646V162.307H494.545V162.057Z" fill="white"/>
<path d="M1.232 95.032H2.38V105H1.232V95.032ZM12.9383 95.032V105H12.0423L6.02232 96.978V105H4.94432V95.032H5.82632L11.8463 103.054V95.032H12.9383ZM15.4926 95.032H18.8386C20.4346 95.032 21.6666 95.466 22.5346 96.334C23.4119 97.1927 23.8506 98.4153 23.8506 100.002C23.8506 101.598 23.4119 102.83 22.5346 103.698C21.6666 104.566 20.4346 105 18.8386 105H15.4926V95.032ZM18.7686 104.02C20.0566 104.02 21.0226 103.684 21.6666 103.012C22.3199 102.34 22.6466 101.337 22.6466 100.002C22.6466 97.342 21.3539 96.012 18.7686 96.012H16.6406V104.02H18.7686ZM26.0408 95.032H32.3408V95.984H27.1748V99.456H32.0608V100.422H27.1748V104.048H32.3408V105H26.0408V95.032ZM42.0352 105H40.6772L37.5832 100.772L34.5032 105H33.1312L36.9252 99.89L33.3132 95.032H34.6852L37.5972 99.036L40.5092 95.032H41.8672L38.2412 99.904L42.0352 105Z" fill="#F8F8F8"/>
<path d="M1.232 275.032H2.38V285H1.232V275.032ZM12.9383 275.032V285H12.0423L6.02232 276.978V285H4.94432V275.032H5.82632L11.8463 283.054V275.032H12.9383ZM15.4926 275.032H18.8386C20.4346 275.032 21.6666 275.466 22.5346 276.334C23.4119 277.193 23.8506 278.415 23.8506 280.002C23.8506 281.598 23.4119 282.83 22.5346 283.698C21.6666 284.566 20.4346 285 18.8386 285H15.4926V275.032ZM18.7686 284.02C20.0566 284.02 21.0226 283.684 21.6666 283.012C22.3199 282.34 22.6466 281.337 22.6466 280.002C22.6466 277.342 21.3539 276.012 18.7686 276.012H16.6406V284.02H18.7686ZM26.0408 275.032H32.3408V275.984H27.1748V279.456H32.0608V280.422H27.1748V284.048H32.3408V285H26.0408V275.032ZM42.0352 285H40.6772L37.5832 280.772L34.5032 285H33.1312L36.9252 279.89L33.3132 275.032H34.6852L37.5972 279.036L40.5092 275.032H41.8672L38.2412 279.904L42.0352 285Z" fill="#F8F8F8"/>
<path d="M1.152 252.184H4.536V262.264H9.954V265H1.152V252.184ZM11.7082 252.184H15.0922V265H11.7082V252.184ZM28.9118 257.764V264.19C28.2278 264.502 27.4598 264.742 26.6078 264.91C25.7678 265.078 24.9038 265.162 24.0158 265.162C22.6238 265.162 21.4118 264.898 20.3798 264.37C19.3598 263.842 18.5738 263.086 18.0218 262.102C17.4698 261.106 17.1938 259.93 17.1938 258.574C17.1938 257.254 17.4698 256.102 18.0218 255.118C18.5738 254.122 19.3538 253.36 20.3618 252.832C21.3698 252.292 22.5458 252.022 23.8898 252.022C24.8138 252.022 25.6838 252.142 26.4998 252.382C27.3278 252.622 27.9998 252.952 28.5158 253.372L27.4538 255.766C26.8658 255.382 26.2958 255.106 25.7438 254.938C25.2038 254.758 24.6218 254.668 23.9978 254.668C22.8578 254.668 22.0058 254.992 21.4418 255.64C20.8898 256.276 20.6138 257.254 20.6138 258.574C20.6138 259.942 20.9018 260.956 21.4778 261.616C22.0658 262.276 22.9658 262.606 24.1778 262.606C24.7418 262.606 25.3058 262.546 25.8698 262.426V260.05H23.6378V257.764H28.9118ZM42.9938 252.184V265H39.6818V259.816H34.4978V265H31.1858V252.184H34.4978V257.17H39.6818V252.184H42.9938ZM48.3134 254.92H44.4974V252.184H55.5494V254.92H51.7334V265H48.3134V254.92ZM68.0313 265.162C66.1593 265.162 64.7433 264.694 63.7833 263.758C62.8233 262.81 62.3433 261.424 62.3433 259.6V252.184H65.6373V259.726C65.6373 260.65 65.8413 261.358 66.2493 261.85C66.6693 262.342 67.2633 262.588 68.0313 262.588C68.7873 262.588 69.3693 262.342 69.7773 261.85C70.1853 261.346 70.3893 260.638 70.3893 259.726V252.184H73.7193V259.6C73.7193 261.4 73.2273 262.78 72.2433 263.74C71.2713 264.688 69.8673 265.162 68.0313 265.162ZM80.7088 265.162C79.7488 265.162 78.8008 265.036 77.8648 264.784C76.9288 264.532 76.1668 264.19 75.5788 263.758L76.6408 261.364C77.2648 261.76 77.9248 262.066 78.6208 262.282C79.3288 262.486 80.0368 262.588 80.7448 262.588C81.4648 262.588 82.0168 262.492 82.4008 262.3C82.7848 262.096 82.9768 261.814 82.9768 261.454C82.9768 261.13 82.8028 260.866 82.4548 260.662C82.1068 260.446 81.4528 260.236 80.4928 260.032C79.2808 259.792 78.3388 259.498 77.6668 259.15C76.9948 258.79 76.5208 258.37 76.2448 257.89C75.9808 257.41 75.8488 256.828 75.8488 256.144C75.8488 255.364 76.0708 254.662 76.5148 254.038C76.9588 253.402 77.5828 252.91 78.3868 252.562C79.1908 252.202 80.1088 252.022 81.1408 252.022C82.0648 252.022 82.9588 252.154 83.8228 252.418C84.6988 252.67 85.3828 253.006 85.8748 253.426L84.8308 255.82C84.2668 255.424 83.6728 255.124 83.0488 254.92C82.4248 254.704 81.8008 254.596 81.1768 254.596C80.5648 254.596 80.0728 254.716 79.7008 254.956C79.3288 255.184 79.1428 255.496 79.1428 255.892C79.1428 256.108 79.2088 256.288 79.3408 256.432C79.4728 256.576 79.7188 256.72 80.0788 256.864C80.4388 256.996 80.9788 257.14 81.6988 257.296C82.8628 257.548 83.7748 257.854 84.4348 258.214C85.1068 258.562 85.5808 258.976 85.8568 259.456C86.1328 259.924 86.2708 260.488 86.2708 261.148C86.2708 262.396 85.7848 263.38 84.8128 264.1C83.8408 264.808 82.4728 265.162 80.7088 265.162ZM88.2909 252.184H97.4349V254.776H91.5849V257.188H97.0569V259.78H91.5849V262.408H97.4349V265H88.2909V252.184ZM110.429 265H106.847L105.191 260.734C104.999 260.254 104.549 260.014 103.841 260.014H102.617V265H99.2865V252.184H105.245C106.793 252.184 107.957 252.52 108.737 253.192C109.517 253.852 109.907 254.8 109.907 256.036C109.907 256.9 109.673 257.65 109.205 258.286C108.749 258.91 108.101 259.354 107.261 259.618C107.621 259.69 107.945 259.858 108.233 260.122C108.521 260.386 108.749 260.74 108.917 261.184L110.429 265ZM104.705 257.494C105.425 257.494 105.947 257.386 106.271 257.17C106.595 256.942 106.757 256.594 106.757 256.126C106.757 255.634 106.595 255.28 106.271 255.064C105.959 254.848 105.437 254.74 104.705 254.74H102.581V257.494H104.705ZM116.807 265.162C115.847 265.162 114.899 265.036 113.963 264.784C113.027 264.532 112.265 264.19 111.677 263.758L112.739 261.364C113.363 261.76 114.023 262.066 114.719 262.282C115.427 262.486 116.135 262.588 116.843 262.588C117.563 262.588 118.115 262.492 118.499 262.3C118.883 262.096 119.075 261.814 119.075 261.454C119.075 261.13 118.901 260.866 118.553 260.662C118.205 260.446 117.551 260.236 116.591 260.032C115.379 259.792 114.437 259.498 113.765 259.15C113.093 258.79 112.619 258.37 112.343 257.89C112.079 257.41 111.947 256.828 111.947 256.144C111.947 255.364 112.169 254.662 112.613 254.038C113.057 253.402 113.681 252.91 114.485 252.562C115.289 252.202 116.207 252.022 117.239 252.022C118.163 252.022 119.057 252.154 119.921 252.418C120.797 252.67 121.481 253.006 121.973 253.426L120.929 255.82C120.365 255.424 119.771 255.124 119.147 254.92C118.523 254.704 117.899 254.596 117.275 254.596C116.663 254.596 116.171 254.716 115.799 254.956C115.427 255.184 115.241 255.496 115.241 255.892C115.241 256.108 115.307 256.288 115.439 256.432C115.571 256.576 115.817 256.72 116.177 256.864C116.537 256.996 117.077 257.14 117.797 257.296C118.961 257.548 119.873 257.854 120.533 258.214C121.205 258.562 121.679 258.976 121.955 259.456C122.231 259.924 122.369 260.488 122.369 261.148C122.369 262.396 121.883 263.38 120.911 264.1C119.939 264.808 118.571 265.162 116.807 265.162Z" fill="#F8F8F8"/>
</svg>
