<svg width="68" height="68" viewBox="0 0 68 68" fill="none" xmlns="http://www.w3.org/2000/svg">
<path fill-rule="evenodd" clip-rule="evenodd" d="M56.2936 24.7191C59.2894 24.7191 61.7404 22.2681 61.7404 19.2723V8.44681C61.7404 5.45106 59.2894 3 56.2936 3H12.4468C9.45106 3 7 5.45106 7 8.44681V19.2723C7 22.2681 9.45106 24.7191 12.4468 24.7191H33.0085V29.5532H12.4468C9.45106 29.5532 7 32.0043 7 35V45.8255C7 48.8213 9.45106 51.2723 12.4468 51.2723H33.0085V63.5957H9.99574C9.24681 63.5957 8.63404 64.2085 8.63404 64.9574C8.63404 65.7064 9.24681 66.3191 9.99574 66.3191H58.7447C59.4936 66.3191 60.1064 65.7064 60.1064 64.9574C60.1064 64.2085 59.4936 63.5957 58.7447 63.5957H35.7319V51.2723H56.2936C59.2894 51.2723 61.7404 48.8213 61.7404 45.8255V35C61.7404 32.0043 59.2894 29.5532 56.2936 29.5532H35.7319V24.7191H56.2936ZM59.017 35V45.8255C59.017 47.3234 57.7915 48.5489 56.2936 48.5489H12.4468C10.9489 48.5489 9.7234 47.3234 9.7234 45.8255V35C9.7234 33.5021 10.9489 32.2766 12.4468 32.2766H56.2936C57.7915 32.2766 59.017 33.5021 59.017 35ZM9.7234 8.44681V19.2723C9.7234 20.7702 10.9489 21.9957 12.4468 21.9957H56.2936C57.7915 21.9957 59.017 20.7702 59.017 19.2723V8.44681C59.017 6.94894 57.7915 5.7234 56.2936 5.7234H12.4468C10.9489 5.7234 9.7234 6.94894 9.7234 8.44681ZM52.617 12.4638H31.3745C30.6255 12.4638 30.0128 13.0766 30.0128 13.8255C30.0128 14.5745 30.6255 15.1872 31.3745 15.1872H52.617C53.366 15.1872 53.9787 14.5745 53.9787 13.8255C53.9787 13.0766 53.366 12.4638 52.617 12.4638ZM19.8681 8.51489C16.9404 8.51489 14.5574 10.8979 14.5574 13.8255C14.5574 16.7532 16.9404 19.1362 19.8681 19.1362C22.7957 19.1362 25.1787 16.7532 25.1787 13.8255C25.1787 10.8979 22.7957 8.51489 19.8681 8.51489ZM19.8681 16.4128C18.4383 16.4128 17.2809 15.2553 17.2809 13.8255C17.2809 12.3957 18.4383 11.2383 19.8681 11.2383C21.2979 11.2383 22.4553 12.3957 22.4553 13.8255C22.4553 15.2553 21.2979 16.4128 19.8681 16.4128ZM31.3745 41.7404H52.617C53.366 41.7404 53.9787 41.1277 53.9787 40.3787C53.9787 39.6298 53.366 39.017 52.617 39.017H31.3745C30.6255 39.017 30.0128 39.6298 30.0128 40.3787C30.0128 41.1277 30.6255 41.7404 31.3745 41.7404ZM19.8681 45.7574C22.7957 45.7574 25.1787 43.3745 25.1787 40.4468C25.1787 37.5191 22.7957 35.1362 19.8681 35.1362C16.9404 35.1362 14.5574 37.5191 14.5574 40.4468C14.5574 43.3745 16.9404 45.7574 19.8681 45.7574ZM19.8681 37.7915C21.2979 37.7915 22.4553 38.9489 22.4553 40.3787C22.4553 41.8085 21.2979 42.966 19.8681 42.966C18.4383 42.966 17.2809 41.8085 17.2809 40.3787C17.2809 38.9489 18.4383 37.7915 19.8681 37.7915Z" fill="white"/>
</svg>
