<svg width="44" height="44" viewBox="0 0 44 44" fill="none" xmlns="http://www.w3.org/2000/svg">
<path fill-rule="evenodd" clip-rule="evenodd" d="M42.8659 7.59795C43.4076 8.99069 43.7857 10.598 43.8888 12.9359C43.9919 15.2826 44.0007 16.0303 44.0007 22.0042C44.0007 27.9781 43.9748 28.7258 43.8717 31.0725C43.7686 33.4104 43.3901 35.0093 42.8488 36.4104C41.7053 39.3671 39.3669 41.7051 36.4092 42.8483C35.0165 43.3899 33.4089 43.768 31.0705 43.8711C28.7233 43.9745 27.9754 44 22.0003 44C16.0252 44 15.277 43.9745 12.9302 43.8711C10.5914 43.768 8.99255 43.3899 7.59112 42.8483C6.12958 42.2984 4.797 41.4301 3.69648 40.3127C2.57883 39.2124 1.7107 37.8888 1.15188 36.4104C0.610182 35.0177 0.2317 33.4104 0.128599 31.0725C0.025499 28.7258 -0.000360012 27.9781 -0.000360012 22.0042C-0.000360012 16.0303 0.025499 15.2826 0.137331 12.9272C0.240431 10.5893 0.618578 8.99069 1.16027 7.58956C1.7107 6.12832 2.57883 4.79601 3.69648 3.69572C4.797 2.56957 6.12085 1.71002 7.59985 1.15131C8.99255 0.610057 10.6002 0.231652 12.9386 0.128573C15.2857 0.0254938 16.0336 -0.000359937 22.0087 -0.000359937C27.9838 -0.000359937 28.7317 0.0254938 31.0876 0.137303C33.426 0.240382 35.0252 0.618451 36.4263 1.16004C37.8879 1.71002 39.2204 2.5783 40.321 3.69572C41.4473 4.79601 42.3071 6.11959 42.8659 7.59795ZM39.1691 34.9834C39.47 34.2098 39.831 33.0494 39.9257 30.9006C40.0288 28.5798 40.0546 27.8921 40.0546 22.0213C40.0546 16.1505 40.0288 15.4545 39.9257 13.1337C39.831 10.9932 39.47 9.82439 39.1691 9.0508C38.8164 8.09656 38.2576 7.23701 37.5268 6.52351C36.8219 5.79289 35.9535 5.23418 34.9994 4.88197C34.2256 4.58112 33.065 4.22018 30.9157 4.12549C28.6028 4.02241 27.9066 3.99656 22.0258 3.99656C16.1542 3.99656 15.4576 4.02241 13.1364 4.12549C10.9958 4.22018 9.82642 4.58112 9.05266 4.88197C8.09823 5.23418 7.2385 5.79289 6.52519 6.52351C5.78569 7.22861 5.22686 8.09656 4.87424 9.0508C4.57333 9.82439 4.21232 10.9848 4.11795 13.1337C4.01451 15.4457 3.98899 16.1505 3.98899 22.0213C3.98899 27.8921 4.01451 28.5885 4.11795 30.9093C4.21232 33.0494 4.57333 34.2186 4.87424 34.9922C5.22686 35.9461 5.78569 36.8056 6.51646 37.5191C7.22137 38.2497 8.08983 38.8084 9.04393 39.161C9.81769 39.4618 10.9783 39.8228 13.1276 39.9171C15.4405 40.0205 16.1454 40.0461 22.0175 40.0461C27.8895 40.0461 28.5856 40.0205 30.9069 39.9171C33.0478 39.8228 34.2169 39.4618 34.9906 39.161C36.9079 38.4216 38.4296 36.9003 39.1691 34.9834ZM10.7033 22.0042C10.7033 15.7637 15.7673 10.7011 22.0087 10.7011C28.2505 10.7011 33.3142 15.7637 33.3142 22.0042C33.3142 28.2447 28.2505 33.3073 22.0087 33.3073C15.7673 33.3073 10.7033 28.2447 10.7033 22.0042ZM14.6752 22.0042C14.6752 26.0528 17.9596 29.3362 22.0087 29.3362C26.0582 29.3362 29.3423 26.0528 29.3423 22.0042C29.3423 17.9556 26.0582 14.6721 22.0087 14.6721C17.9596 14.6721 14.6752 17.9556 14.6752 22.0042ZM33.7612 12.8929C35.219 12.8929 36.4008 11.7114 36.4008 10.2542C36.4008 8.79662 35.219 7.61541 33.7612 7.61541C32.3036 7.61541 31.1219 8.79662 31.1219 10.2542C31.1219 11.7114 32.3036 12.8929 33.7612 12.8929Z" fill="white"/>
</svg>
