<svg width="64" height="53" viewBox="0 0 64 53" fill="none" xmlns="http://www.w3.org/2000/svg">
<path fill-rule="evenodd" clip-rule="evenodd" d="M50.5613 0.399168L63.4678 13.3056C64 13.8378 64 14.6362 64 15.4345L59.4761 19.9584C58.1455 21.289 57.2141 23.0187 56.948 24.8815C56.5489 27.2765 55.3513 29.5385 53.6216 31.2682L52.158 32.7318L53.4886 34.0624C54.42 34.8607 54.8191 36.1913 54.8191 37.3888C54.8191 38.7193 54.2869 39.9168 53.3555 40.7152C52.4241 41.5135 51.3597 41.9127 50.2952 41.9127H50.1622C50.1622 43.1102 49.763 44.3077 48.8316 45.2391C48.0333 46.1705 46.8358 46.5696 45.6383 46.5696C44.7069 46.5696 43.7755 46.3035 42.9771 45.7713C42.8441 46.4366 42.4449 46.9688 41.9127 47.501C41.1143 48.2994 39.9168 48.8316 38.7193 48.8316C38.5863 48.8316 38.4532 48.7983 38.3202 48.7651C38.1871 48.7318 38.0541 48.6985 37.921 48.6985C37.7879 49.763 37.2557 50.6944 36.4574 51.4927C35.526 52.2911 34.4615 52.6902 33.3971 52.6902C32.1996 52.6902 30.869 52.158 29.9376 51.2266L29.4054 50.6944C28.6071 51.3597 27.5426 51.7588 26.4782 51.7588C25.4137 51.7588 24.3493 51.3597 23.5509 50.6944C22.4865 49.896 21.9543 48.8316 21.8212 47.6341H21.289C20.2245 47.6341 19.1601 47.2349 18.3617 46.5696C17.2973 45.7713 16.7651 44.5738 16.632 43.3763H16.0998C15.0353 43.3763 13.9709 42.9771 13.1726 42.3119C12.1081 41.5135 11.5759 40.316 11.4428 39.1185H10.9106C9.84615 39.1185 8.7817 38.7193 7.98337 38.0541C5.98753 36.4574 5.72141 33.5301 7.31809 31.5343L8.91476 29.6715C8.24948 28.474 7.71726 27.0104 7.45114 25.5468C7.18503 23.684 6.25364 21.9543 4.92308 20.6237L0.399168 16.0998C-0.133056 15.5676 -0.133056 14.7692 0.399168 14.237L13.3056 1.33056C13.5717 1.06445 13.8378 0.931393 14.237 0.931393C14.6362 0.931393 14.9023 1.06445 15.1684 1.33056L19.6923 5.85447C21.0229 7.18503 22.7526 8.11642 24.6154 8.38254C24.7177 8.40812 24.825 8.43371 24.9362 8.46024L24.9366 8.46033L24.9367 8.46036C25.4038 8.57177 25.941 8.6999 26.4782 8.91476C27.8087 7.5842 29.4054 6.65281 31.1351 5.98753C33.6632 5.05613 36.4574 4.92308 39.1185 5.58836L42.0457 6.38669C42.8441 5.98753 43.5094 5.58836 44.1746 4.92308L48.6985 0.399168C49.2308 -0.133056 50.0291 -0.133056 50.5613 0.399168ZM9.44699 33.3971C8.7817 34.1954 8.91476 35.3929 9.7131 36.0582C10.5114 36.7235 11.842 36.5904 12.3742 35.7921L16.3659 31.0021C17.0312 30.2037 16.8981 29.0062 16.0998 28.341C15.8337 28.0748 15.3015 27.9418 14.9023 27.9418C14.3701 27.9418 13.8378 28.2079 13.4387 28.6071L9.44699 33.3971ZM14.7692 40.183C13.9709 39.5177 13.8378 38.3202 14.5031 37.5218L18.4948 32.7318L20.6237 30.2037C21.0229 29.8046 21.5551 29.5385 22.0873 29.5385C22.4865 29.5385 23.0187 29.6715 23.2848 29.9376C23.684 30.2037 23.9501 30.736 23.9501 31.2682C23.9501 31.8004 23.817 32.3326 23.5509 32.7318L22.8857 33.5301L17.5634 40.0499C16.8981 40.7152 15.5676 40.8482 14.7692 40.183ZM19.1601 43.1102C19.1601 43.6424 19.4262 44.1746 19.8254 44.4408C20.6237 44.973 21.9543 44.8399 22.4865 44.1746L27.8087 37.6549C28.0748 37.2557 28.2079 36.7235 28.2079 36.1913C28.2079 35.659 27.9418 35.1268 27.5426 34.8607C27.2765 34.5946 26.7443 34.4615 26.3451 34.4615C25.8129 34.4615 25.2807 34.7277 24.8815 35.1268L19.5593 41.6466C19.2931 42.0457 19.1601 42.578 19.1601 43.1102ZM24.8815 48.5655C24.4823 48.2994 24.2162 47.7672 24.2162 47.2349C24.2162 46.7027 24.3493 46.1705 24.6154 45.7713L28.6071 40.9813C29.0062 40.5821 29.5385 40.316 30.0707 40.316C30.4699 40.316 31.0021 40.4491 31.2682 40.7152C31.6674 40.9813 31.9335 41.5135 31.9335 42.0457C31.9335 42.578 31.8004 43.1102 31.5343 43.5094L27.5426 48.2994C27.0104 49.0977 25.6798 49.2308 24.8815 48.5655ZM31.4012 49.0977C32.1996 49.896 33.3971 50.0291 34.1954 49.3638C34.5946 48.9647 34.8607 48.4324 34.8607 48.0333C34.8607 47.501 34.7276 46.9688 34.3285 46.5696L33.264 45.5052L30.869 48.5655L31.4012 49.0977ZM51.2266 38.4532C50.4283 39.1185 49.2308 38.9854 48.4324 38.1871L34.7276 24.6154C34.1954 24.0832 33.3971 24.0832 32.8649 24.6154C32.3326 25.1476 32.3326 25.9459 32.8649 26.4782L46.5696 40.183L46.7027 40.316C47.501 41.1143 47.501 42.3119 46.7027 43.1102C45.9044 43.9085 44.7069 43.9085 43.9085 43.1102L38.7193 37.921L30.0707 29.2724C29.5385 28.7401 28.7401 28.7401 28.2079 29.2724C27.6757 29.8046 27.6757 30.6029 28.2079 31.1351L36.8565 39.7838L39.7838 42.711C40.1829 43.1102 40.316 43.5094 40.316 44.0416C40.316 44.5738 40.0499 45.106 39.7838 45.3721C38.9854 46.1705 37.7879 46.1705 36.9896 45.3721L34.5946 42.9771C34.7276 42.578 34.7276 42.1788 34.7276 41.6466C34.5946 40.4491 34.0624 39.3846 32.9979 38.5863C32.3326 38.0541 31.6674 37.7879 30.869 37.6549C31.0021 37.1227 31.1351 36.4574 31.0021 35.9252C30.869 34.7276 30.3368 33.6632 29.2724 32.8649C28.474 32.1996 27.5426 31.9335 26.6112 31.8004V31.0021C26.4782 29.8046 25.9459 28.7401 24.8815 27.9418C24.0832 27.2765 23.0187 26.8773 21.9543 26.8773C20.8898 26.8773 19.8254 27.2765 19.027 27.9418C18.7609 27.2765 18.3617 26.7443 17.8295 26.2121C17.0312 25.5468 15.9667 25.1476 14.9023 25.1476C13.5717 25.1476 12.2412 25.8129 11.3098 26.8773L10.7775 27.5426C10.3784 26.7443 10.2453 25.9459 10.1123 25.1476C9.7131 22.7526 8.51559 20.4906 6.78586 18.7609L3.19335 15.1684L14.237 4.12474L17.8295 7.71726C19.5593 9.44699 21.8212 10.6445 24.2162 11.0437L18.894 15.9667C18.0956 16.632 17.6965 17.6965 17.6965 18.6279C17.6965 19.6923 18.0956 20.6237 18.7609 21.422C19.9584 22.7526 21.8212 23.0187 23.4179 22.2204L29.6715 19.027C30.6029 18.6279 31.5343 18.3617 32.5988 18.6279C33.5301 18.7609 34.3285 19.1601 34.9938 19.8254L51.4927 35.7921C51.8919 36.1913 52.0249 36.7235 52.0249 37.2557C51.8919 37.6549 51.6258 38.1871 51.2266 38.4532ZM53.7547 24.0832C54.1538 21.6882 55.3514 19.4262 57.0811 17.6965L60.8067 13.9709L49.763 2.92723L46.1705 6.51975C45.2391 7.45114 44.1746 8.24948 42.9771 8.7817C42.578 9.04782 42.1788 9.04782 41.7796 8.7817H41.5135L38.5863 7.98337C36.4574 7.45114 34.3285 7.45114 32.1996 8.24948C30.736 8.7817 29.4054 9.58004 28.341 10.6445L20.6237 17.6965C20.3576 17.8295 20.2245 18.0956 20.2245 18.4948C20.0915 18.894 20.2245 19.1601 20.4906 19.4262C20.8898 19.8254 21.422 19.9584 21.9543 19.6923L28.2079 16.499C29.6715 15.8337 31.2682 15.5676 32.8649 15.8337C34.3285 16.0998 35.526 16.632 36.5904 17.6965L49.763 30.4699L51.2266 29.0062C52.5572 27.6757 53.4886 25.9459 53.7547 24.0832Z" fill="white"/>
</svg>
