<svg width="84" height="84" viewBox="0 0 84 84" fill="none" xmlns="http://www.w3.org/2000/svg">
<path fill-rule="evenodd" clip-rule="evenodd" d="M42.2488 0C39.9096 0 37.9825 1.92734 37.9825 4.26703V37.731H4.2653C1.9271 37.731 0 39.6593 0 41.999C0 44.3407 1.9271 46.268 4.2653 46.268H37.7078V79.731C37.7078 82.0727 39.6339 84 41.9731 84C44.3123 84 46.2394 82.0727 46.2394 79.731V46.5429H79.6809C82.0201 46.5429 83.9472 44.6156 83.9472 42.2749C84.3593 39.7958 82.2949 37.8684 79.9567 37.8684H46.5141V4.26703C46.5141 1.92734 44.588 0 42.2488 0Z" fill="#2620F6"/>
</svg>
