<svg width="64" height="39" viewBox="0 0 64 39" fill="none" xmlns="http://www.w3.org/2000/svg">
<path fill-rule="evenodd" clip-rule="evenodd" d="M60.978 15.1102L61.9182 15.3788C63.0598 15.6474 63.8657 16.6548 64 17.7964V20.8185C64 21.9601 63.1941 22.9675 62.0525 23.2361L61.1123 23.5047C60.1721 23.7062 59.4334 24.3778 59.0976 25.2508C58.7618 26.1238 58.829 27.1312 59.2991 27.937L59.8363 28.8101C60.4407 29.8174 60.2392 31.0934 59.4334 31.8993L57.2844 34.0483C56.4785 34.9213 55.2025 35.0556 54.1952 34.4512L53.3221 33.914C52.5163 33.4439 51.5089 33.3767 50.6359 33.7125C49.7629 34.0483 49.0913 34.8541 48.8898 35.7272L48.6212 36.6674C48.2854 37.809 47.2781 38.6149 46.1364 38.6149H43.1144C41.9727 38.6149 40.9654 37.809 40.6967 36.6674L40.4281 35.7272C40.2267 34.787 39.5551 34.0483 38.6821 33.7125C37.809 33.3767 36.8017 33.4439 35.9958 33.914L35.1228 34.4512C34.1154 35.0556 32.8395 34.8541 32.0336 34.0483L29.8846 31.8993C29.0115 31.0934 28.8772 29.8174 29.4816 28.8101L30.0189 27.937C30.489 27.1312 30.5561 26.1238 30.2204 25.2508C29.8846 24.3778 29.0787 23.7062 28.2057 23.5047L27.2655 23.2361C26.1238 22.9675 25.3179 21.9601 25.3179 20.8185V17.7964C25.3179 16.6548 26.1238 15.6474 27.2655 15.3788L28.1385 15.1102C29.0787 14.9087 29.8174 14.2371 30.1532 13.3641C30.489 12.4911 30.4218 11.4837 29.9517 10.6779L29.4145 9.80483C28.8101 8.79748 29.0115 7.52151 29.8174 6.71563L31.9664 4.56663C32.7723 3.6936 34.0483 3.55929 35.0556 4.16369L35.9286 4.70094C36.7345 5.17104 37.7419 5.23819 38.6149 4.90241C39.4879 4.49948 40.1595 3.76076 40.361 2.88772L40.6296 1.94753C40.8982 0.805876 41.9056 0 43.0472 0H46.0693C47.2109 0 48.2183 0.805876 48.4869 1.94753L48.7555 2.88772C48.957 3.82791 49.6285 4.56663 50.5016 4.90241C51.3746 5.23819 52.382 5.17104 53.1878 4.70094L54.0609 4.16369C55.0682 3.55929 56.3442 3.76076 57.1501 4.56663L59.2991 6.71563C60.1721 7.52151 60.3064 8.79748 59.702 9.80483L59.1647 10.6779C58.6946 11.4837 58.6275 12.4911 58.9633 13.3641C59.3662 14.2371 60.1049 14.9087 60.978 15.1102ZM60.3736 21.0871L61.3809 20.8185H61.3137V17.7293L60.3064 17.4606C58.6946 17.0577 57.2844 15.8489 56.6128 14.2371C55.9412 12.5582 56.0756 10.745 56.9486 9.26758L57.4858 8.39454L55.3368 6.24554L54.4638 6.78279C52.9864 7.65582 51.1731 7.79014 49.5614 7.11857C47.9496 6.44701 46.7408 5.10388 46.3379 3.42497L46.0693 2.48478H43.0472L42.7786 3.49213C42.3757 5.17104 41.1668 6.51417 39.5551 7.18573C37.9433 7.85729 36.1301 7.72298 34.6527 6.84995L33.7796 6.3127L31.6306 8.4617L32.1679 9.33473C33.0409 10.8122 33.1752 12.6254 32.5037 14.2371C31.8321 15.8489 30.489 17.0577 28.8101 17.4606L27.8699 17.7293V20.7513L28.8772 21.0199C30.489 21.4229 31.8993 22.6317 32.5708 24.2434C33.2424 25.9224 33.1081 27.7356 32.235 29.213L31.6978 30.086L33.7796 32.3022L34.6527 31.8321C35.5257 31.2949 36.4659 31.0262 37.4732 31.0262C38.1448 31.0262 38.8835 31.1605 39.5551 31.4292C41.234 32.1007 42.4428 33.4439 42.8457 35.1899L43.1144 36.1301H46.1364L46.405 35.0556C46.808 33.3767 48.0168 32.0336 49.6285 31.362C51.2403 30.6905 53.0535 30.8248 54.531 31.6978L55.404 32.235L57.553 30.086L57.0157 29.213C56.1427 27.7356 56.0084 25.9223 56.68 24.3106C57.3515 22.6988 58.6946 21.49 60.3736 21.0871ZM46.7408 16.3861L43.7188 19.6768L42.4428 18.2665C41.9727 17.7293 41.1668 17.7293 40.6967 18.1994C40.2267 18.6695 40.1595 19.4753 40.6296 19.9454L42.8457 22.2959C43.1144 22.5645 43.383 22.6988 43.7859 22.6988C44.1217 22.6988 44.4575 22.5645 44.7261 22.2959L48.6884 18.0651C49.1584 17.595 49.1584 16.7891 48.6212 16.319C48.0168 15.8489 47.2781 15.8489 46.7408 16.3861ZM44.5918 9.46904C39.1522 9.46904 34.7198 13.9014 34.7198 19.341C34.7198 24.7807 39.1522 29.213 44.5918 29.213C50.0315 29.213 54.4638 24.7807 54.4638 19.341C54.4638 13.9014 50.0315 9.46904 44.5918 9.46904ZM44.5918 26.7282C40.4953 26.7282 37.2046 23.4376 37.2046 19.341C37.2046 15.3116 40.4953 11.9538 44.5918 11.9538C48.6884 11.9538 51.979 15.2445 51.979 19.341C51.979 23.4376 48.6884 26.7282 44.5918 26.7282ZM6.98426 1.34313V20.8856C9.46904 21.4229 11.4166 23.7062 11.4166 26.3924C11.4166 29.0787 9.5362 31.362 6.98426 31.8993V37.3389C6.98426 38.0777 6.44701 38.6149 5.70829 38.6149C4.96957 38.6149 4.43232 38.0105 4.43232 37.3389V31.8993C1.88038 31.362 0 29.0787 0 26.3924C0 23.7062 1.88038 21.4229 4.43232 20.8856V1.34313C4.43232 0.604407 4.96957 0.0671563 5.70829 0.0671563C6.44701 0.0671563 6.98426 0.671563 6.98426 1.34313ZM2.55194 26.3924C2.55194 28.1385 3.96222 29.5488 5.70829 29.5488C7.45435 29.5488 8.86464 28.1385 8.86464 26.3924C8.86464 24.6464 7.45435 23.2361 5.70829 23.2361C3.96222 23.2361 2.55194 24.6464 2.55194 26.3924ZM19.2739 6.78279V1.34313C19.2739 0.671563 18.7366 0.0671563 17.9979 0.0671563C17.3263 0.0671563 16.7219 0.604407 16.7219 1.34313V6.78279C14.17 7.32004 12.2896 9.60336 12.2896 12.2896C12.2896 14.9759 14.17 17.2592 16.7219 17.7964V37.3389C16.7219 38.0105 17.2592 38.6149 17.9979 38.6149C18.6695 38.6149 19.2739 38.0777 19.2739 37.3389V17.7964C21.8258 17.2592 23.7062 14.9759 23.7062 12.2896C23.7062 9.60336 21.7587 7.32004 19.2739 6.78279ZM17.9979 15.446C16.2518 15.446 14.8416 14.0357 14.8416 12.2896C14.8416 10.5435 16.2518 9.13326 17.9979 9.13326C19.744 9.13326 21.1543 10.5435 21.1543 12.2896C21.1543 14.0357 19.744 15.446 17.9979 15.446Z" fill="white"/>
</svg>
