<svg width="44" height="44" viewBox="0 0 44 44" fill="none" xmlns="http://www.w3.org/2000/svg">
<path d="M41.5712 4.97708e-08H2.42666C1.0863 0.000805717 -0.000268505 1.08792 4.97708e-08 2.42881V41.5733C0.000805717 42.9137 1.08792 44.0003 2.42881 44H23.5039V26.9844H17.7891V20.3242H23.5039V15.4228C23.5039 9.73887 26.9739 6.64512 32.0442 6.64512C34.4728 6.64512 36.5597 6.82612 37.168 6.90696V12.8477H33.6717C30.9131 12.8477 30.3789 14.1585 30.3789 16.0824V20.3242H36.9746L36.1152 26.9844H30.3789V44H41.5712C42.9124 44.0003 43.9997 42.9134 44 41.5723C44 41.572 44 41.5717 44 41.5712V2.42666C43.9995 1.0863 42.9121 -0.000268505 41.5712 4.97708e-08Z" fill="white"/>
</svg>
