<svg width="125" height="426" viewBox="0 0 125 426" fill="none" xmlns="http://www.w3.org/2000/svg">
<g clip-path="url(#clip0)">
<path fill-rule="evenodd" clip-rule="evenodd" d="M120.628 317.513V403.016C120.628 415.68 110.818 426 98.7779 426H26.5409C14.5009 426 4.69092 415.68 4.69092 403.016L4.69092 317.513C4.69092 304.849 14.5009 294.528 26.5409 294.528H98.7779C110.818 294.528 120.628 304.849 120.628 317.513Z" fill="#231279"/>
<path fill-rule="evenodd" clip-rule="evenodd" d="M82.0893 368.956L62.8513 341.66L43.6123 368.956H82.0893Z" fill="#F8F8F8"/>
<path d="M29.4637 275.336L29.4637 242.077C29.4637 234.097 31.3931 227.916 35.2521 223.534C39.0457 219.152 44.2128 216.961 50.7534 216.961C57.2287 216.961 62.3958 219.184 66.2548 223.632C70.1137 228.08 72.0432 234.228 72.0432 242.077V256.891H99.3177V275.336H29.4637ZM58.3079 244.529C58.3079 237.596 55.8551 234.13 50.9497 234.13C48.4642 234.13 46.6001 234.98 45.3574 236.681C44.0493 238.316 43.3952 240.932 43.3952 244.529V256.891H58.3079V244.529ZM100.201 182.861C100.201 188.093 99.5139 193.26 98.1404 198.362C96.7668 203.464 94.9028 207.617 92.5481 210.822L79.4995 205.033C81.658 201.632 83.3258 198.035 84.5031 194.241C85.615 190.382 86.171 186.523 86.171 182.664C86.171 178.74 85.6478 175.731 84.6012 173.638C83.4893 171.545 81.9523 170.499 79.9901 170.499C78.2241 170.499 76.7852 171.447 75.6733 173.344C74.496 175.241 73.3513 178.805 72.2394 184.038C70.9313 190.644 69.3289 195.778 67.4321 199.441C65.4699 203.104 63.1807 205.687 60.5644 207.192C57.9481 208.631 54.7759 209.35 51.0478 209.35C46.7963 209.35 42.9701 208.14 39.5689 205.72C36.1024 203.3 33.4207 199.899 31.524 195.517C29.5618 191.134 28.5807 186.131 28.5807 180.506C28.5807 175.47 29.3001 170.597 30.7391 165.888C32.1126 161.113 33.944 157.385 36.2332 154.703L49.2818 160.393C47.1234 163.468 45.4882 166.705 44.3763 170.106C43.199 173.507 42.6103 176.909 42.6103 180.31C42.6103 183.645 43.2644 186.327 44.5725 188.355C45.8153 190.382 47.5158 191.396 49.6742 191.396C50.8515 191.396 51.8326 191.036 52.6175 190.317C53.4024 189.597 54.1873 188.257 54.9721 186.294C55.6916 184.332 56.4765 181.389 57.3268 177.465C58.7003 171.12 60.3682 166.149 62.3304 162.552C64.2272 158.889 66.4837 156.306 69.0999 154.801C71.6508 153.297 74.7249 152.545 78.3222 152.545C85.1245 152.545 90.4878 155.194 94.4122 160.492C98.2712 165.789 100.201 173.246 100.201 182.861ZM29.4637 77.8955H99.3177V95.9477H71.0621V124.203H99.3177V142.255H29.4637L29.4637 124.203H56.64L56.64 95.9477H29.4637L29.4637 77.8955ZM99.3177 4.59004V24.1138L76.0657 33.1399C73.4495 34.1864 72.1413 36.6392 72.1413 40.4982V47.1696H99.3177V65.3199H29.4637V32.8456C29.4637 24.4082 31.295 18.0638 34.9578 13.8123C38.5551 9.56092 43.7222 7.43521 50.4591 7.43521C55.1684 7.43521 59.2563 8.71064 62.7228 11.2615C66.1239 13.7469 68.544 17.2789 69.9829 21.8573C70.3754 19.8951 71.291 18.1292 72.73 16.5594C74.1689 14.9897 76.0984 13.7469 78.5185 12.8312L99.3177 4.59004ZM58.406 35.7889C58.406 31.8645 57.8173 29.0193 56.64 27.2534C55.3973 25.4874 53.5005 24.6044 50.9497 24.6044C48.268 24.6044 46.3385 25.4874 45.1612 27.2534C43.9839 28.9539 43.3952 31.7991 43.3952 35.7889V47.3658H58.406V35.7889Z" fill="#F8F8F8"/>
</g>
<defs>
<clipPath id="clip0">
<rect width="426" height="125" fill="white" transform="translate(0 426) rotate(-90)"/>
</clipPath>
</defs>
</svg>
