<svg width="376" height="62" viewBox="0 0 376 62" fill="none" xmlns="http://www.w3.org/2000/svg">
<path fill-rule="evenodd" clip-rule="evenodd" d="M152.722 46.2164L155.608 21.3138H145.768L146.4 15.865H171.374L170.744 21.3138H160.904L158.016 46.2164H152.722Z" fill="white"/>
<path fill-rule="evenodd" clip-rule="evenodd" d="M239.768 30.4755H248.9C251.354 30.4755 253.584 28.4295 253.875 25.909C254.016 24.6785 253.682 23.522 252.928 22.6516C252.554 22.2224 252.093 21.8806 251.577 21.6496C251.061 21.4187 250.501 21.3041 249.937 21.3138H240.833L239.768 30.4755ZM251.518 46.2164L251.835 43.5098C252.178 40.5458 251.191 37.7748 249.128 35.9101H248.957C248.689 35.9101 248.465 35.9196 248.245 35.9196H239.136L237.942 46.2164H232.65L236.168 15.865H250.597C253.182 15.865 255.499 16.8975 257.118 18.7742C258.754 20.6724 259.482 23.1929 259.172 25.8804C258.831 28.8325 257.24 31.6273 254.815 33.5445L254.721 33.6161L254.787 33.7115C256.714 36.4395 257.548 39.9091 257.137 43.4812L256.817 46.2164H251.52H251.518Z" fill="white"/>
<path fill-rule="evenodd" clip-rule="evenodd" d="M220.689 46.2164L221.003 43.5122C221.433 39.7922 219.723 36.3488 216.642 34.7345C214.485 35.5166 212.381 35.922 210.309 35.922C210.16 35.9211 210.011 35.9171 209.862 35.9101L209.754 35.9053L209.625 36.0102L208.445 46.2164H203.148L206.666 15.865H211.961L210.273 30.4445L210.602 30.4612C210.722 30.4708 210.844 30.4755 210.967 30.4755C217.335 30.4755 223.13 25.1507 223.889 18.6049L224.209 15.865H229.503L229.188 18.5739C228.624 23.4528 226.042 28.1434 222.106 31.4413L221.997 31.5295L222.101 31.6249C225.309 34.5246 226.838 38.8503 226.3 43.4836L225.983 46.2188H220.689V46.2164Z" fill="white"/>
<path fill-rule="evenodd" clip-rule="evenodd" d="M322.321 46.2164L325.839 15.865H331.134L327.616 46.2164H322.321Z" fill="white"/>
<path fill-rule="evenodd" clip-rule="evenodd" d="M338.071 15.8649L334.612 45.7251C334.095 50.1843 330.147 53.8161 325.806 53.8161L325.148 59.2625C332.422 59.2625 339.044 53.177 339.913 45.6941L343.366 15.8625H338.069L338.071 15.8649Z" fill="white"/>
<path fill-rule="evenodd" clip-rule="evenodd" d="M278.663 21.3136C274.832 21.3136 271.347 24.5162 270.889 28.4532L270.332 33.2582H284.251L284.806 28.4842C285.027 26.5646 284.5 24.757 283.332 23.4002C282.169 22.0529 280.512 21.3136 278.663 21.3136ZM282.75 46.2162L283.622 38.7023H269.705L268.831 46.2162H263.536L265.59 28.4842C266.398 21.5259 272.555 15.8672 279.321 15.8672C282.571 15.8672 285.478 17.1644 287.52 19.5228C289.576 21.9074 290.495 25.079 290.105 28.4532L288.047 46.2186H282.75V46.2162Z" fill="white"/>
<path fill-rule="evenodd" clip-rule="evenodd" d="M361.592 21.3136C357.762 21.3136 354.277 24.5162 353.821 28.4532L353.264 33.2582H367.183L367.735 28.4842C367.956 26.5646 367.437 24.757 366.262 23.4002C365.101 22.0529 363.442 21.3136 361.592 21.3136ZM365.681 46.2162L366.551 38.7023H352.634L351.76 46.2162H346.465L348.519 28.4842C349.328 21.5259 355.487 15.8672 362.252 15.8672C365.5 15.8672 368.412 17.1644 370.449 19.5228C372.51 21.9074 373.427 25.079 373.034 28.4532L370.976 46.2186H365.679L365.681 46.2162Z" fill="white"/>
<path fill-rule="evenodd" clip-rule="evenodd" d="M305.77 46.2164C302.497 46.2164 299.573 44.9072 297.538 42.5298C295.503 40.1547 294.601 36.9903 294.989 33.6304L295.583 28.4844C295.971 25.1149 297.618 21.9458 300.213 19.5588C302.807 17.1813 306.038 15.865 309.314 15.865C312.583 15.865 315.506 17.1765 317.541 19.5516L319.189 21.4712L314.985 25.3343L313.34 23.4123C312.181 22.0555 310.517 21.3138 308.654 21.3138C306.797 21.3138 304.964 22.0555 303.5 23.4051C302.054 24.712 301.123 26.5062 300.88 28.4558L300.285 33.5994C300.062 35.5142 300.579 37.3146 301.742 38.6691C302.899 40.0283 304.562 40.7699 306.426 40.7699C308.282 40.7699 310.115 40.0283 311.582 38.6786L313.683 36.7471L316.973 40.5863L314.869 42.5178C312.277 44.9025 309.044 46.2164 305.768 46.2164" fill="white"/>
<path fill-rule="evenodd" clip-rule="evenodd" d="M187.483 21.3138C185.631 21.3138 183.801 22.0578 182.334 23.4028C180.888 24.7095 179.957 26.5037 179.714 28.4534L179.117 33.5994C178.896 35.5142 179.411 37.3146 180.572 38.6691C181.733 40.0259 183.399 40.7675 185.26 40.7675C187.116 40.7675 188.938 40.0283 190.406 38.6786C191.852 37.3724 192.782 35.579 193.024 33.6304L193.621 28.4844C193.842 26.5695 193.325 24.7715 192.169 23.4123C191.008 22.0578 189.337 21.3138 187.483 21.3138ZM184.6 46.2164C181.328 46.2164 178.407 44.9072 176.37 42.5321C174.332 40.1547 173.428 36.9975 173.818 33.6304L174.412 28.4844C174.805 25.1149 176.447 21.9458 179.042 19.5611C181.639 17.1765 184.87 15.865 188.146 15.865C191.407 15.865 194.333 17.1765 196.368 19.5516C198.403 21.9291 199.311 25.0887 198.918 28.4534L198.326 33.5994C197.933 36.9736 196.288 40.1404 193.696 42.5178C191.102 44.9048 187.875 46.2164 184.6 46.2164Z" fill="white"/>
<path fill-rule="evenodd" clip-rule="evenodd" d="M117.058 46.2164L120.576 15.865H140.664L140.032 21.3138H125.239L124.428 28.3222H137.611L136.979 33.7615H123.798L122.985 40.7723H137.778L137.144 46.2164H117.058Z" fill="white"/>
<path fill-rule="evenodd" clip-rule="evenodd" d="M90.9803 26.0637L88.6444 46.2161H83.3498L86.9148 15.8647H91.4902L105.971 36.0147L108.307 15.8647H113.554L110.036 46.2161H105.463L90.9803 26.0637Z" fill="white"/>
<path fill-rule="evenodd" clip-rule="evenodd" d="M33.6637 21.1181C33.6637 22.6657 33.0316 24.0583 32.0235 25.0479C33.3865 25.7156 34.7495 26.3952 36.1054 27.0963C41.2449 29.7575 46.5512 32.5094 51.4509 33.2581C54.2333 33.6802 57.9346 33.8853 61.7862 31.1358C61.97 31.0049 62.1502 30.8689 62.3267 30.7281C62.3291 30.6398 62.3361 41.4922 51.6272 40.5169C51.4956 40.505 51.3569 40.4787 51.223 40.4597C51.6013 41.2084 51.8387 42.0502 51.8363 42.954C51.8363 43.9722 51.5426 44.9094 51.0679 45.7249C53.5777 45.9276 57.0369 45.9395 60.8556 43.0947C60.818 43.4047 60.9097 53.2531 50.384 52.9169C45.5195 52.7547 39.6375 50.1126 33.9481 47.5658C25.1756 43.6312 16.9482 39.6894 9.3436 43.1948C8.38245 43.636 7.48005 44.1964 6.627 44.8569C6.61995 44.7281 7.0312 32.5785 19.176 34.2096C23.6528 34.8129 28.8486 37.3215 33.8776 39.7467C35.8399 40.691 37.8256 41.6424 39.802 42.5081C39.9998 43.6129 40.572 44.6127 41.4195 45.3347C42.2671 46.0567 43.3366 46.4554 44.4432 46.4617C45.6535 46.4617 46.7462 45.9801 47.5805 45.2098C48.5487 44.3204 49.1691 43.0398 49.1691 41.6019C49.1691 41.0439 49.0586 40.5169 48.8918 40.0209V40.0233C48.5823 39.0723 47.9865 38.2439 47.1884 37.6548C46.3903 37.0657 45.4301 36.7456 44.4432 36.7397C43.5079 36.7397 42.6431 37.0258 41.9099 37.5075C40.1113 36.6994 38.3251 35.8631 36.5519 34.9989C31.2174 32.4235 25.6996 29.7694 20.5179 29.0707C15.6064 28.4078 11.4257 29.3974 8.16155 31.9061C8.14745 31.7868 8.28845 20.0354 20.3769 21.0084C20.8351 21.0489 21.3051 21.1276 21.7775 21.2087C22.3791 23.1879 24.151 24.6306 26.2707 24.6306C27.3282 24.6306 28.2917 24.2586 29.0789 23.6529C29.6732 23.2 30.1556 22.6131 30.488 21.9385C30.8204 21.2639 30.9937 20.5202 30.9942 19.766C30.9879 19.3133 30.9191 18.8638 30.7897 18.4306C30.7921 18.4449 30.7991 18.4544 30.8038 18.4711C30.2492 16.4204 28.4421 14.9038 26.2707 14.9038C25.1004 14.9038 24.0429 15.3568 23.218 16.0818C22.642 15.9763 22.0618 15.8959 21.479 15.8409C16.2221 15.4117 13.4185 16.0889 9.7055 18.8765C9.7055 18.8765 9.54805 7.39221 21.5918 7.79283C26.5809 7.95975 32.517 11.2648 38.2533 14.4626C44.5584 17.9751 50.5908 21.3422 56.1697 21.2373C58.9597 21.1876 61.6486 20.1693 63.7884 18.3519C63.8119 18.2088 63.0975 29.6693 52.8727 28.1241C48.7038 27.4945 43.7147 24.9048 38.8902 22.4034C37.095 21.4665 35.2844 20.5602 33.4593 19.6849C33.5815 20.1428 33.6637 20.6197 33.6637 21.1157V21.1181ZM65.7295 2.38452L65.1749 7.03452H65.1279C64.3054 11.2839 61.7134 14.3791 59.5584 15.426C55.0817 17.5984 47.9988 13.6494 41.1509 9.83167C34.9563 6.38352 28.5525 2.80898 22.4519 2.61106C17.578 2.44891 13.3128 3.87729 10.1121 6.73167C7.1816 9.3476 5.358 13.0366 4.841 17.4076L0 57.9937H4.99845L5.40265 54.6124C6.08415 51.2238 8.6339 48.9107 10.8782 47.8734C16.0552 45.4888 23.8502 48.9847 31.3843 52.3637C37.4613 55.0917 43.75 57.9103 49.5216 58.0987C49.8976 58.1082 50.2665 58.113 50.6355 58.1058C54.654 58.0343 58.0145 56.8134 60.6418 54.4717C63.5393 51.8915 65.2995 48.1429 65.8658 43.3307L70.728 2.38452H65.7295Z" fill="url(#paint0_linear)"/>
<defs>
<linearGradient id="paint0_linear" x1="70.728" y1="30.2469" x2="0" y2="30.2469" gradientUnits="userSpaceOnUse">
<stop stop-color="#FF9300"/>
<stop offset="1" stop-color="#FFAC2C"/>
</linearGradient>
</defs>
</svg>
