<svg width="288" height="87" viewBox="0 0 288 87" fill="none" xmlns="http://www.w3.org/2000/svg">
<path fill-rule="evenodd" clip-rule="evenodd" d="M0 0.16814C0 0.484585 27.259 53.8674 27.6109 54.2398C27.9899 54.641 35.3208 41.046 35.3208 39.9416C35.3208 39.5751 30.821 30.4378 25.3214 19.6377L15.322 0H7.66098C3.4474 0 0 0.0757302 0 0.16814ZM39.0924 27.1593C46.6859 42.0972 53.0699 54.2975 53.2795 54.2718C53.4888 54.2456 55.3286 51 57.3672 47.0593L61.0741 39.8938L50.8841 19.9469L40.694 0H32.99H25.286L39.0924 27.1593ZM59.1591 1.9158C59.6205 4.84631 60.9872 8.48678 62.5177 10.8606C63.8622 12.9463 67.546 16.6788 68.2596 16.6788C68.4552 16.6788 70.4966 12.926 72.7965 8.33938L76.978 0H67.9177H58.8571L59.1591 1.9158ZM86.0377 27.0466V54.0933L87.7359 54.0892C89.9855 54.0833 93.5647 52.0071 95.9239 49.3394C96.9455 48.184 98.2234 46.0933 98.7645 44.6932C99.5416 42.6809 99.7943 40.849 99.9695 35.9495L100.191 29.7513H103.997C109.188 29.7513 111.647 28.6113 112.505 25.807L112.816 24.7927H106.445H100.075V12.3964V0H93.0566H86.0377V27.0466ZM107.43 8.33938C109.73 12.926 111.73 16.6788 111.875 16.6788C112.508 16.6788 116.056 13.2704 117.307 11.4592C118.926 9.11742 120.683 4.6092 121.027 1.9158L121.272 0H112.26H103.248L107.43 8.33938ZM145.904 0.853772C140.015 2.87866 135.849 8.71578 135.849 14.9419C135.849 17.3851 136.826 20.5893 138.268 22.8742C138.806 23.7258 145.053 29.2915 152.151 35.2422C159.249 41.1929 165.304 46.4995 165.607 47.0345C166.483 48.5848 166.303 51.1222 165.221 52.4921C164.688 53.166 163.822 53.8909 163.296 54.1023C162.464 54.4372 162.525 54.4904 163.772 54.5156C164.559 54.531 166.483 53.8846 168.047 53.079C176.023 48.9679 178.584 39.0423 173.603 31.5485C172.997 30.6366 166.729 25.0858 159.675 19.2135C152.621 13.3412 146.616 8.02609 146.33 7.40266C146.045 6.77879 145.811 5.75147 145.811 5.11948C145.811 3.47639 147.125 1.48892 148.732 0.699156C149.787 0.180762 149.899 0.0216374 149.208 0.0247929C148.709 0.0274975 147.223 0.40029 145.904 0.853772ZM162.222 8.33938C164.522 12.926 166.537 16.6788 166.7 16.6788C166.863 16.6788 168.036 15.7479 169.307 14.6101C172.246 11.9803 175.165 6.36317 175.557 2.58431L175.825 0H166.933H158.041L162.222 8.33938ZM191.777 0.507124C191.646 0.847912 191.592 13.1965 191.656 27.9482L191.774 54.7694L198.699 54.8938L205.625 55.0187L205.492 32.5804L205.358 10.1425L204.293 8.00761C202.256 3.92807 198.186 0.856476 193.932 0.188425C192.508 -0.0356117 191.954 0.0464301 191.777 0.507124ZM209.66 0.763617L206.717 1.49613L209.612 2.36072C211.205 2.83674 213.251 3.69322 214.16 4.2639C216.476 5.71991 218.653 8.31954 220.008 11.2487C220.901 13.1776 221.206 14.6755 221.345 17.8057C221.493 21.1099 221.344 22.3991 220.544 24.7553C219.354 28.2619 217.623 30.8489 214.834 33.2935C213.019 34.8838 208.973 36.87 207.266 37.0084C205.904 37.1188 210.994 38.3161 213.899 38.568C220.208 39.1157 227.207 36.6649 230.985 32.5844C233.45 29.9226 234.924 26.5742 235.568 22.1764C236.222 17.7092 235.654 14.1044 233.659 10.0708C231.873 6.46009 227.837 2.69249 224.28 1.31762C220.81 -0.0238911 213.882 -0.286243 209.66 0.763617ZM256.128 7.34992L252.237 14.7557L262.453 34.8753L272.669 54.9948H280.334C284.55 54.9948 288 54.9029 288 54.7906C288 54.5774 260.387 0.331321 260.153 0.084746C260.079 0.00766309 258.269 3.2767 256.128 7.34992ZM239.185 46.2412C236.894 50.8112 235.019 54.6504 235.019 54.7726C235.019 54.8947 239.021 54.9948 243.912 54.9948H252.806L252.544 52.4687C252.07 47.8991 248.296 41.4372 244.55 38.7817L243.351 37.9325L239.185 46.2412ZM107.323 46.4251C105.08 50.8855 103.245 54.6383 103.245 54.7645C103.245 55.1562 120.838 55.0178 121.082 54.6238C121.563 53.8507 119.983 48.102 118.56 45.4433C116.937 42.4127 113.228 38.3161 112.107 38.3161C111.645 38.3161 109.993 41.1149 107.323 46.4251ZM142.114 39.6612C138.93 42.2739 135.886 48.0574 135.16 52.8712L134.841 54.9948H143.722C149.298 54.9948 152.604 54.828 152.604 54.5472C152.604 53.661 144.68 38.3161 144.222 38.3161C143.965 38.3161 143.016 38.9215 142.114 39.6612ZM206.213 68.0583C203.353 69.2087 202.289 73.8432 204.402 75.9465C204.997 76.5388 206.27 77.1447 207.232 77.293C210.71 77.8289 211.245 78.131 211.245 79.5563C211.245 80.6648 211.004 80.9497 209.769 81.3022C208.665 81.6177 207.812 81.5361 206.386 80.9781C204.505 80.2429 204.464 80.2474 203.379 81.3279L202.279 82.4228L203.804 83.3465C206.979 85.2681 211.619 84.9607 213.765 82.6865C214.618 81.7823 214.868 81.0268 214.868 79.3476C214.868 76.0971 213.538 74.9877 208.667 74.1749C207.54 73.987 206.9 73.6002 206.705 72.9885C206.546 72.4895 206.661 71.7867 206.962 71.4265C207.629 70.6264 211.068 70.5507 211.84 71.3193C212.271 71.748 212.648 71.6096 213.584 70.6774L214.778 69.4891L213.238 68.5546C212.196 67.9222 210.965 67.6288 209.434 67.6468C208.189 67.6617 206.74 67.8469 206.213 68.0583ZM218.113 67.9173C217.947 68.0822 217.811 71.835 217.811 76.2566V84.2953H219.623H221.434V81.4279V78.5605L224.122 78.3176C228.125 77.9565 230.075 76.2571 230.119 73.0899C230.149 70.8901 229.451 69.6 227.631 68.4956C226.499 67.8086 225.351 67.6197 222.302 67.6184C220.164 67.6175 218.279 67.7518 218.113 67.9173ZM236.169 68.3811C235.449 70.1896 230.491 83.9099 230.491 84.0956C230.491 84.2056 231.286 84.2953 232.258 84.2953C233.814 84.2953 234.081 84.134 234.498 82.943C234.959 81.6281 235.053 81.5907 237.903 81.5907C240.791 81.5907 240.838 81.6105 241.132 82.943C241.407 84.1885 241.583 84.2953 243.369 84.2953H245.307L242.274 76.0687C239.302 68.0079 239.213 67.8393 237.867 67.7049C236.88 67.6067 236.402 67.7969 236.169 68.3811ZM249.645 68.5001C247.424 69.8475 246.792 71.5041 246.792 75.978C246.792 81.0105 247.553 82.7302 250.315 83.9469C251.755 84.5807 252.782 84.7425 253.963 84.5221C254.866 84.3535 255.977 84.0177 256.431 83.7756C257.445 83.2356 259.015 80.7464 259.017 79.6749C259.018 79.0785 258.645 78.886 257.486 78.886C256.363 78.886 255.761 79.1786 255.234 79.9787C254.253 81.4694 252.881 81.8255 251.525 80.9416C250.484 80.2627 250.415 79.9665 250.415 76.203C250.415 71.7119 250.889 70.772 253.154 70.772C254.058 70.772 254.702 71.125 255.211 71.899C255.761 72.7338 256.351 73.0259 257.486 73.0259C258.587 73.0259 259.019 72.8235 259.019 72.3065C259.019 71.1466 257.637 69.1497 256.284 68.3541C254.574 67.3484 251.428 67.4173 249.645 68.5001ZM262.189 75.942V84.2953H267.878H273.567L273.425 82.8303L273.283 81.3653L269.547 81.2346L265.811 81.1034V79.3188V77.5337H268.981H272.151V75.956V74.3782H268.981H265.811V72.5751V70.772H269.689H273.567L273.425 69.307L273.283 67.842L267.736 67.7153L262.189 67.5886V75.942ZM278.592 68.5199C276.984 69.4963 276.226 70.9595 276.226 73.0899C276.226 74.9358 278.285 76.9319 280.574 77.3038C284.517 77.9452 285.786 79.2795 283.898 80.8009C283.055 81.4807 282.418 81.6101 281.015 81.3869C280.025 81.2292 278.938 80.8721 278.6 80.5927C278.125 80.2005 277.713 80.3569 276.784 81.2819C275.604 82.4566 275.598 82.4909 276.47 83.1544C278.701 84.8511 282.912 85.0729 285.695 83.6399C288.494 82.1992 288.807 77.361 286.228 75.4137C285.833 75.1153 284.592 74.7344 283.472 74.5671C280.512 74.1254 279.77 73.6304 279.935 72.2068C280.06 71.1349 280.292 70.9816 281.983 70.8595C283.032 70.7837 284.277 70.928 284.75 71.1804C285.43 71.5424 285.814 71.4234 286.579 70.6129C287.112 70.0485 287.547 69.4711 287.547 69.3291C287.547 69.1875 286.854 68.7444 286.007 68.3441C283.858 67.3285 280.421 67.4101 278.592 68.5199ZM226.159 71.6411C227.736 73.3762 225.96 75.2798 222.763 75.2798C221.47 75.2798 221.434 75.2185 221.434 73.0259V70.772H223.401C224.769 70.772 225.61 71.0371 226.159 71.6411ZM239.287 77.421C239.584 78.3577 239.469 78.4352 237.787 78.4352H235.965L236.631 76.5194C237.81 73.1327 237.796 73.1463 238.399 74.829C238.71 75.6968 239.11 76.8629 239.287 77.421ZM22.1887 80.013C22.1887 83.9947 22.2521 84.2953 23.0943 84.2953C23.6889 84.2953 24 83.9947 24 83.4204C24 82.0748 24.715 81.9423 25.2824 83.1824C25.6325 83.9469 26.1573 84.2953 26.9592 84.2953H28.1266L26.9846 82.3881L25.8421 80.4813L27.0435 79.2327L28.2448 77.9845H27.1707C26.5798 77.9845 25.6243 78.4253 25.0479 78.9644L24 79.9449V77.8375C24 76.0312 23.8709 75.7306 23.0943 75.7306C22.2521 75.7306 22.1887 76.0312 22.1887 80.013ZM78.7925 76.4067C78.7925 76.7822 79.195 77.0829 79.6981 77.0829C80.2012 77.0829 80.6038 76.7822 80.6038 76.4067C80.6038 76.0312 80.2012 75.7306 79.6981 75.7306C79.195 75.7306 78.7925 76.0312 78.7925 76.4067ZM88.8507 79.9003L88.9811 84.0699L90.2264 84.2124C91.1158 84.3143 91.4717 84.1533 91.4717 83.6489C91.4717 83.2608 91.2679 82.943 91.0189 82.943C90.7549 82.943 90.566 81.4406 90.566 79.3368C90.566 76.0092 90.4949 75.7306 89.6432 75.7306C88.7724 75.7306 88.728 75.9632 88.8507 79.9003ZM92.8302 76.4067C92.8302 76.7822 93.2328 77.0829 93.7359 77.0829C94.2389 77.0829 94.6415 76.7822 94.6415 76.4067C94.6415 76.0312 94.2389 75.7306 93.7359 75.7306C93.2328 75.7306 92.8302 76.0312 92.8302 76.4067ZM121.907 79.9003C122.03 83.8355 122.095 84.0781 123.057 84.2142C124.195 84.3751 124.452 83.634 123.396 83.2306C122.87 83.03 122.717 82.1532 122.717 79.3508C122.717 77.1505 122.533 75.7306 122.247 75.7306C121.947 75.7306 121.824 77.2371 121.907 79.9003ZM168.453 76.4067C168.453 76.7822 168.855 77.0829 169.358 77.0829C169.862 77.0829 170.264 76.7822 170.264 76.4067C170.264 76.0312 169.862 75.7306 169.358 75.7306C168.855 75.7306 168.453 76.0312 168.453 76.4067ZM49.6479 76.4942C49.4889 76.6529 49.3585 77.1541 49.3585 77.609C49.3585 78.0633 49.1298 78.4352 48.8504 78.4352C48.4895 78.4352 48.4809 78.602 48.8214 79.01C49.085 79.3264 49.3644 80.594 49.4427 81.8273C49.565 83.7585 49.7266 84.0898 50.6038 84.2142C51.1644 84.2931 51.6226 84.1412 51.6226 83.8761C51.6226 83.6106 51.4189 83.3938 51.1698 83.3938C50.5037 83.3938 50.6088 79.4621 51.283 79.1488C51.7358 78.9387 51.7358 78.8333 51.283 78.6232C50.9719 78.4785 50.717 77.9831 50.717 77.5229C50.717 76.6132 50.1125 76.0317 49.6479 76.4942ZM164.377 77.0829C164.377 77.8087 164.075 77.9845 162.828 77.9845C161.476 77.9845 161.242 78.1558 160.981 79.3368C160.817 80.0806 160.512 80.6891 160.302 80.6891C160.092 80.6891 159.787 80.0806 159.623 79.3368C159.392 78.2901 159.077 77.9845 158.232 77.9845H157.14L158.251 80.9226C159.297 83.6886 159.364 85.1969 158.442 85.1969C158.22 85.1969 158.038 85.6026 158.038 86.0984C158.038 86.5943 158.196 87 158.39 87C159.499 87 160.686 85.3285 161.86 82.1145C163.025 78.9261 163.259 78.5754 163.753 79.2782C164.064 79.7195 164.382 80.9781 164.461 82.0753C164.59 83.8748 164.726 84.0839 165.849 84.2124C166.738 84.3143 167.094 84.1533 167.094 83.6489C167.094 83.2608 166.891 82.943 166.642 82.943C166.392 82.943 166.189 82.1316 166.189 81.1399C166.189 80.1482 166.392 79.3368 166.642 79.3368C166.891 79.3368 167.094 79.0325 167.094 78.6606C167.094 78.2887 166.891 77.9845 166.642 77.9845C166.392 77.9845 166.189 77.5788 166.189 77.0829C166.189 76.482 165.887 76.1813 165.283 76.1813C164.679 76.1813 164.377 76.482 164.377 77.0829ZM0 78.3478C0 78.5475 0.426113 79.9674 0.94732 81.5032C1.66551 83.6205 2.1034 84.2953 2.75864 84.2953C3.23366 84.2953 3.62264 84.1056 3.62264 83.8739C3.62264 83.6422 3.84996 82.8812 4.128 82.1834L4.63336 80.9145L5.18717 82.4922C6.01902 84.8615 7.2086 84.5938 8.18989 81.8161C9.25132 78.813 9.25223 77.9845 8.19577 77.9845C7.57675 77.9845 7.21947 78.4587 6.92196 79.6749L6.50898 81.3653L5.93615 79.6749C5.21072 77.5332 3.83457 77.3502 3.39623 79.3368C3.2323 80.0806 2.9357 80.6891 2.73781 80.6891C2.53947 80.6891 2.2551 80.0806 2.10566 79.3368C1.91094 78.3685 1.57359 77.9845 0.916982 77.9845C0.412529 77.9845 0 78.1481 0 78.3478ZM10.3675 78.7174C9.51396 79.7411 9.59411 82.7695 10.498 83.6697C11.4729 84.6402 13.3911 84.6095 14.5055 83.6056C15.5841 82.6342 15.6743 80.3835 14.6912 78.9865C14.2035 78.2932 13.5233 77.9845 12.4827 77.9845C11.6463 77.9845 10.7076 78.3099 10.3675 78.7174ZM16.7547 81.1399C16.7547 83.9667 16.8466 84.2953 17.6368 84.2953C18.3813 84.2953 18.5402 83.9271 18.6557 81.9288C18.754 80.2244 18.9641 79.5982 19.406 79.6906C20.0866 79.8331 21.283 78.9974 21.283 78.3802C21.283 78.1625 20.2642 77.9845 19.0189 77.9845H16.7547V81.1399ZM37.104 78.8179C36.3188 79.4508 36.0557 80.1009 36.0906 81.3211C36.1417 83.1202 36.725 84.0844 37.9562 84.4049C38.9488 84.6632 40.7547 84.0271 40.7547 83.4195C40.7547 83.1522 40.1774 83.0805 39.3505 83.245C38.3919 83.4362 37.819 83.3248 37.546 82.8957C37.3259 82.5499 37.1429 82.1145 37.1389 81.9288C37.1352 81.743 38.0491 81.5907 39.1698 81.5907C40.834 81.5907 41.2075 81.441 41.2075 80.7752C41.2075 79.6929 40.2992 78.5921 39.1195 78.245C38.5132 78.0665 37.7769 78.2757 37.104 78.8179ZM43.2186 78.6462C42.3075 79.3323 42.3713 79.3724 44.5639 79.491C46.3811 79.5892 46.6841 80.6891 44.8936 80.6891C43.2254 80.6891 41.9298 82.21 42.5751 83.4105C43.1307 84.4441 43.8136 84.651 45.8491 84.4035L47.5472 84.1966V81.9923C47.5472 80.3885 47.3004 79.5419 46.6415 78.886C45.5678 77.8172 44.4258 77.737 43.2186 78.6462ZM60.1318 79.1384C59.6405 80.2113 59.6957 80.4376 60.6326 81.1926C61.2113 81.6596 62.0703 82.0415 62.5408 82.0415C63.0113 82.0415 63.3962 82.2601 63.3962 82.5274C63.3962 82.815 62.7025 82.9529 61.6981 82.8655C60.4651 82.7582 60 82.8925 60 83.3564C60 83.7075 60.5534 84.1786 61.2294 84.4026C62.8071 84.9264 64.9291 83.9739 65.1183 82.6568C65.2949 81.432 64.0936 80.2383 62.6848 80.2383C62.0799 80.2383 61.5849 80.0224 61.5849 79.7587C61.5849 79.4892 62.2293 79.3413 63.0566 79.4206C64.1262 79.5234 64.5283 79.3774 64.5283 78.886C64.5283 78.4127 63.9509 78.1684 62.606 78.0715C60.8984 77.9484 60.6217 78.0674 60.1318 79.1384ZM66.8246 78.6926C65.9502 79.5635 65.8931 82.471 66.7282 83.6084C67.1117 84.1299 67.9042 84.4454 68.8302 84.4454C69.7562 84.4454 70.5487 84.1299 70.9322 83.6084C71.7672 82.471 71.7102 79.5635 70.8358 78.6926C70.4441 78.3032 69.5416 77.9845 68.8302 77.9845C68.1188 77.9845 67.2163 78.3032 66.8246 78.6926ZM73.4504 78.5506C72.6412 79.5207 72.3826 81.3482 72.8726 82.6306C73.4581 84.1642 75.1879 84.8886 76.8041 84.2769C77.7912 83.9032 77.8922 83.7183 77.4195 83.1508C77.1039 82.7726 76.4925 82.586 76.0392 82.7289C74.8909 83.0918 74.0545 81.4708 74.736 80.2032C75.0489 79.6212 75.5049 79.3683 75.941 79.5351C76.3272 79.6825 76.9327 79.564 77.2863 79.2719C77.8062 78.8423 77.8171 78.6692 77.342 78.3694C76.4418 77.801 73.9798 77.9155 73.4504 78.5506ZM78.7925 81.1399C78.7925 83.9947 78.8785 84.2953 79.6981 84.2953C80.5177 84.2953 80.6038 83.9947 80.6038 81.1399C80.6038 78.2851 80.5177 77.9845 79.6981 77.9845C78.8785 77.9845 78.7925 78.2851 78.7925 81.1399ZM82.2679 78.2811C82.104 78.4443 82.1955 78.8481 82.4708 79.1781C82.771 79.5387 83.4036 79.6708 84.0516 79.509C84.6661 79.3553 85.1321 79.4391 85.1321 79.7028C85.1321 79.958 84.5189 80.3005 83.77 80.4646C82.2571 80.7951 81.3596 82.0297 81.8006 83.1734C82.1932 84.1926 83.4299 84.5771 85.6397 84.3675L87.4977 84.1912L87.302 81.5028C87.1816 79.8403 86.8596 78.6588 86.4589 78.4064C85.7085 77.9335 82.7072 77.8438 82.2679 78.2811ZM92.8302 81.1399C92.8302 83.9947 92.9162 84.2953 93.7359 84.2953C94.5555 84.2953 94.6415 83.9947 94.6415 81.1399C94.6415 78.2851 94.5555 77.9845 93.7359 77.9845C92.9162 77.9845 92.8302 78.2851 92.8302 81.1399ZM95.6296 78.7535C95.7116 79.1768 96.2445 79.6329 96.8142 79.7677L97.8498 80.013L96.6983 81.5654C94.9653 83.9027 95.1582 84.2953 98.0377 84.2953C99.9496 84.2953 100.528 84.1385 100.528 83.6192C100.528 83.1986 100.101 82.943 99.3962 82.943C98.7736 82.943 98.2642 82.81 98.2642 82.6473C98.2642 82.485 98.7736 81.6871 99.3962 80.8744C100.019 80.0616 100.528 79.0789 100.528 78.6908C100.528 78.1341 99.994 77.9845 98.0047 77.9845C95.8696 77.9845 95.5037 78.103 95.6296 78.7535ZM102.139 78.9865C100.16 81.7985 102.67 85.4556 105.773 84.2814C107.34 83.6881 106.924 82.6811 105.182 82.8515C104.27 82.9408 103.721 82.7519 103.542 82.288C103.325 81.7228 103.657 81.5907 105.297 81.5907C106.934 81.5907 107.321 81.4379 107.321 80.7896C107.321 80.3488 107.003 79.5374 106.616 78.9865C106.123 78.2865 105.449 77.9845 104.377 77.9845C103.306 77.9845 102.631 78.2865 102.139 78.9865ZM116.264 78.3072L115.019 78.4952V82.7474C115.019 86.2269 115.142 87 115.698 87C116.156 87 116.377 86.5438 116.377 85.5994C116.377 84.4865 116.53 84.257 117.12 84.4829C117.529 84.6388 118.344 84.4531 118.932 84.0699C119.788 83.5114 120 82.9768 120 81.3806C120 79.8326 119.775 79.2313 118.993 78.6863C118.44 78.3005 117.88 78.0147 117.748 78.0521C117.617 78.089 116.949 78.204 116.264 78.3072ZM126.226 78.295C125.791 78.4086 125.434 78.7778 125.434 79.1159C125.434 79.5671 125.856 79.6627 127.019 79.4747C128.287 79.2701 128.604 79.3656 128.604 79.9539C128.604 80.3966 128.231 80.6891 127.668 80.6891C126.102 80.6891 124.981 81.5465 124.981 82.7447C124.981 84.0884 126.336 84.7317 128.491 84.4116C129.939 84.1966 129.962 84.1556 129.962 81.7904C129.962 79.8187 129.782 79.262 128.956 78.6863C127.932 77.9727 127.632 77.9295 126.226 78.295ZM144.679 78.4352C144.196 79.2133 144.917 79.802 146.016 79.5275C146.596 79.3823 147.207 79.4828 147.374 79.7511C147.548 80.0328 147.325 80.2383 146.845 80.2383C145.472 80.2383 143.934 81.5763 144.087 82.6374C144.27 83.8973 145.808 84.6181 147.817 84.3846L149.434 84.1966V81.6317C149.434 80.2208 149.189 78.8229 148.891 78.5254C148.234 77.8713 145.071 77.8037 144.679 78.4352ZM150.792 81.1399C150.792 84.2052 150.825 84.2953 151.925 84.2953C152.976 84.2953 153.057 84.1403 153.057 82.1167C153.057 80.9181 153.191 79.8042 153.355 79.6411C154.025 78.9739 154.868 80.4669 154.868 82.3218C154.868 83.9947 155.006 84.2953 155.774 84.2953C156.56 84.2953 156.679 83.9947 156.679 82.0117C156.679 80.7558 156.468 79.3359 156.211 78.8563C155.835 78.1576 155.25 77.9845 153.267 77.9845H150.792V81.1399ZM168.453 81.1399C168.453 83.9947 168.539 84.2953 169.358 84.2953C170.178 84.2953 170.264 83.9947 170.264 81.1399C170.264 78.2851 170.178 77.9845 169.358 77.9845C168.539 77.9845 168.453 78.2851 168.453 81.1399ZM171.623 81.1949C171.623 83.9947 171.71 84.2953 172.528 84.2953C173.296 84.2953 173.434 83.9947 173.434 82.3218C173.434 80.4669 174.277 78.9739 174.947 79.6411C175.111 79.8042 175.245 80.9181 175.245 82.1167C175.245 83.9947 175.37 84.2953 176.151 84.2953C176.918 84.2953 177.057 83.9947 177.057 82.3218C177.057 80.1613 177.888 78.9924 178.788 79.8885C179.081 80.1802 179.321 81.2909 179.321 82.357C179.321 83.9947 179.461 84.2953 180.226 84.2953C181.006 84.2953 181.132 83.9947 181.132 82.142C181.132 80.9573 180.828 79.5563 180.457 79.0289C179.852 78.1693 179.358 78.071 175.702 78.0823L171.623 78.0949V81.1949ZM182.743 78.9865C180.764 81.7985 183.274 85.4556 186.376 84.2814C187.958 83.6827 187.519 82.7176 185.664 82.7176C184.836 82.7176 184.073 82.4643 183.967 82.1541C183.83 81.7575 184.387 81.5907 185.849 81.5907C187.536 81.5907 187.925 81.4406 187.925 80.7896C187.925 80.3488 187.607 79.5374 187.219 78.9865C186.727 78.2865 186.053 77.9845 184.981 77.9845C183.91 77.9845 183.235 78.2865 182.743 78.9865ZM130.868 78.575C130.868 78.6521 131.346 79.9296 131.931 81.4144C132.662 83.2716 132.878 84.4234 132.624 85.1058C132.422 85.6517 132.045 86.0984 131.788 86.0984C131.531 86.0984 131.321 86.3013 131.321 86.5492C131.321 87.1934 132.48 87.1064 133.053 86.4189C133.319 86.0993 134.154 84.1723 134.908 82.1366C135.975 79.2552 136.135 78.4352 135.629 78.4352C135.264 78.4352 134.742 79.2236 134.437 80.2383C134.139 81.2301 133.755 82.0415 133.585 82.0415C133.415 82.0415 133.031 81.2301 132.733 80.2383C132.422 79.2047 131.908 78.4352 131.529 78.4352C131.165 78.4352 130.868 78.4983 130.868 78.575ZM13.4948 81.5519C13.4155 82.2272 13.0728 82.7176 12.6792 82.7176C11.9506 82.7176 11.5304 81.0682 11.9697 79.9296C12.1897 79.3584 12.3605 79.3372 12.9337 79.811C13.32 80.1297 13.57 80.9064 13.4948 81.5519ZM39.7381 80.1256C39.8604 80.4948 39.4429 80.6891 38.5282 80.6891C37.1828 80.6891 36.7802 80.2879 37.4531 79.6181C37.9395 79.1339 39.5266 79.4864 39.7381 80.1256ZM69.5094 81.1773C69.5094 82.2461 69.3016 82.7176 68.8302 82.7176C68.1052 82.7176 67.6809 81.07 68.1152 79.9426C68.5748 78.7512 69.5094 79.5793 69.5094 81.1773ZM105.283 79.7876C105.437 80.0355 105.143 80.2383 104.63 80.2383C104.118 80.2383 103.698 80.0355 103.698 79.7876C103.698 79.5396 103.992 79.3368 104.351 79.3368C104.71 79.3368 105.129 79.5396 105.283 79.7876ZM118.9 80.4313C119.052 81.0331 119.038 81.9576 118.87 82.4859C118.659 83.1472 118.258 83.4032 117.584 83.3072C116.887 83.2085 116.561 82.7992 116.457 81.8909C116.254 80.1243 116.641 79.3368 117.713 79.3368C118.3 79.3368 118.723 79.7263 118.9 80.4313ZM185.887 79.7876C186.046 80.0441 185.656 80.2383 184.981 80.2383C184.306 80.2383 183.916 80.0441 184.075 79.7876C184.229 79.5396 184.637 79.3368 184.981 79.3368C185.325 79.3368 185.733 79.5396 185.887 79.7876ZM46.1049 82.3795C45.9179 83.3609 43.4717 83.7724 43.4717 82.8226C43.4717 81.9184 43.9223 81.5907 45.1653 81.5907C45.9586 81.5907 46.214 81.8052 46.1049 82.3795ZM85.1321 82.2668C85.1321 82.6387 84.8386 82.943 84.4796 82.943C83.6042 82.943 83.1704 82.1767 83.8841 81.89C84.8726 81.4933 85.1321 81.5717 85.1321 82.2668ZM128.604 82.4922C128.604 83.1477 128.302 83.3938 127.498 83.3938C126.181 83.3938 125.516 82.5522 126.395 81.9982C127.512 81.2936 128.604 81.5379 128.604 82.4922ZM147.623 82.2668C147.623 82.6423 147.22 82.943 146.717 82.943C145.715 82.943 145.49 82.2457 146.377 81.8891C147.363 81.4933 147.623 81.5722 147.623 82.2668Z" fill="white"/>
</svg>
